<?xml version="1.0" encoding="utf-8"?>
<!-- Generator: Adobe Illustrator 27.5.0, SVG Export Plug-In . SVG Version: 6.00 Build 0)  -->
<svg version="1.1" id="Layer_1" xmlns="http://www.w3.org/2000/svg" xmlns:xlink="http://www.w3.org/1999/xlink" x="0px" y="0px"
	 viewBox="0 0 500 500" style="enable-background:new 0 0 500 500;" xml:space="preserve">
<style type="text/css">
	.st0{enable-background:new    ;}
	.st1{clip-path:url(#SVGID_00000103956931449969314820000001870830409942852798_);enable-background:new    ;}
	.st2{fill:none;stroke:#000000;stroke-width:2;stroke-miterlimit:10;}
	.st3{clip-path:url(#SVGID_00000103956931449969314820000001870830409942852798_);}
	.st4{clip-path:url(#SVGID_00000180364529479772914220000001589642955897900467_);enable-background:new    ;}
	.st5{clip-path:url(#SVGID_00000180364529479772914220000001589642955897900467_);}
	.st6{clip-path:url(#SVGID_00000083794979281652905590000003894837333644418194_);enable-background:new    ;}
	.st7{clip-path:url(#SVGID_00000083794979281652905590000003894837333644418194_);}
	.st8{clip-path:url(#SVGID_00000179620966656614890100000003661573333789889715_);enable-background:new    ;}
	.st9{clip-path:url(#SVGID_00000179620966656614890100000003661573333789889715_);}
	.st10{clip-path:url(#SVGID_00000067920018470698344280000009555720303277824684_);enable-background:new    ;}
	.st11{clip-path:url(#SVGID_00000067920018470698344280000009555720303277824684_);}
</style>
<g>
	<g class="st0">
		<g class="st0">
			<defs>
				<path id="SVGID_1_" class="st0" d="M245.5,68c1.1,4.1-0.4,9-5,14c-11.2,12.4-36.6,21.2-56.6,19.6c-12-1-19.3-5.4-20.9-11.5
					l91.5,342c1.6,6.1,9,10.5,20.9,11.5c20.1,1.6,45.4-7.1,56.6-19.6c4.5-5,6.1-9.9,5-14C309.5,307.4,273,170.6,245.5,68z"/>
			</defs>
			<clipPath id="SVGID_00000109024509934519348560000003524158444083378071_">
				<use xlink:href="#SVGID_1_"  style="overflow:visible;"/>
			</clipPath>
			<g style="clip-path:url(#SVGID_00000109024509934519348560000003524158444083378071_);enable-background:new    ;">
				<g>
					<g>
						<path class="st2" d="M325.6,400.3c-2.8-0.9-6-1.5-9.6-1.8l0,0l-91.5-342l0-0.1l0.1,0c10.8,0.9,18.4,4.7,20.6,10.4
							c1.8,4.5,0.1,9.9-4.6,15.1L325.6,400.3c5.7,1.7,9.5,4.7,11,8.5c1.8,4.5,0.1,9.9-4.6,15.2l-0.1,0.1L325.6,400.3z M332,423.8
							c4.7-5.2,6.3-10.5,4.5-15c-1.5-3.8-5.3-6.7-10.8-8.5L332,423.8z M316.1,398.4c3.6,0.3,6.8,0.9,9.5,1.8L240.5,82l0,0l0,0
							c4.7-5.2,6.4-10.6,4.6-15c-2.3-5.7-9.7-9.5-20.5-10.4L316.1,398.4z"/>
					</g>
					<g>
						
							<rect x="291.5" y="64.2" transform="matrix(0.9661 -0.2582 0.2582 0.9661 -52.3759 83.4472)" class="st2" width="0.1" height="354"/>
					</g>
				</g>
				<g>
					<g>
						<path class="st2" d="M275.4,443.6L275.4,443.6l-91.5-342l0-0.1l0.1,0c20,1.6,45.4-7.1,56.6-19.5l0.1-0.1l91.5,342.1l0,0l0,0
							c-10.3,11.4-32.6,19.8-51.7,19.8C278.7,443.8,277,443.7,275.4,443.6z M240.5,82.1c-11.2,12.4-36.6,21.1-56.5,19.5l91.4,341.9
							c20,1.6,45.3-7.1,56.5-19.5L240.5,82.1z"/>
					</g>
					<g>
						
							<rect x="271" y="86.9" transform="matrix(0.966 -0.2585 0.2585 0.966 -59.0165 79.0524)" class="st2" width="0.1" height="354"/>
					</g>
					<g>
						
							<rect x="250.7" y="93.9" transform="matrix(0.9663 -0.2575 0.2575 0.9663 -61.3067 73.6981)" class="st2" width="0.1" height="354"/>
					</g>
				</g>
				<g>
					<g>
						<path class="st2" d="M275.4,443.6c-10.8-0.9-18.4-4.7-20.6-10.4c-1.8-4.5-0.1-9.9,4.6-15.1L174.2,99.7
							c-5.6-1.8-9.4-4.8-10.9-8.6c-1.8-4.5-0.1-9.9,4.6-15.2l0.1-0.1l6.4,23.8c2.8,0.9,6,1.5,9.6,1.8l0,0L275.4,443.6L275.4,443.6
							L275.4,443.6z M174.3,99.8L259.5,418l0,0l0,0c-4.7,5.2-6.4,10.6-4.6,15c2.3,5.7,9.7,9.5,20.5,10.4l-91.4-341.9
							C180.3,101.3,177.1,100.7,174.3,99.8z M163.4,91.1c1.5,3.8,5.3,6.7,10.8,8.5l-6.3-23.5C163.2,81.3,161.6,86.6,163.4,91.1z"/>
					</g>
					<g>
						
							<rect x="214" y="90.9" transform="matrix(0.9661 -0.258 0.258 0.9661 -61.8805 64.3101)" class="st2" width="0.1" height="354"/>
					</g>
				</g>
			</g>
			<g style="clip-path:url(#SVGID_00000109024509934519348560000003524158444083378071_);">
				<path class="st2" d="M275.4,443.6c-5.9-0.5-10.7-1.8-14.4-3.8c-3.5-2-5.8-4.6-6.6-7.7L162.9,90l0.1,0c0.8,3,3.1,5.7,6.6,7.6
					c3.7,2.1,8.5,3.4,14.3,3.8c20,1.6,45.4-7.1,56.6-19.5c4.4-4.9,6.1-9.7,5-13.9l0.1,0l91.5,342c1.2,4.3-0.6,9.2-5,14
					c-10.3,11.4-32.6,19.8-51.7,19.8C278.7,443.8,277,443.7,275.4,443.6z M240.6,82c-10.3,11.4-32.6,19.8-51.7,19.8
					c-1.7,0-3.3-0.1-5-0.2c-5.9-0.5-10.7-1.8-14.4-3.8c-3-1.7-5.1-3.8-6.1-6.3L254.5,432c0.8,3,3.1,5.7,6.6,7.6
					c3.7,2.1,8.5,3.4,14.3,3.8c20,1.6,45.4-7.1,56.6-19.5c4.4-4.9,6.1-9.7,5-13.9L245.8,69.4C246.3,73.3,244.5,77.6,240.6,82z"/>
			</g>
			<use xlink:href="#SVGID_1_"  style="overflow:visible;fill:none;stroke:#000000;stroke-width:2;stroke-miterlimit:10;"/>
		</g>
		<g class="st0">
			<defs>
				<path id="SVGID_00000052073576654900979830000008264805220732105115_" class="st0" d="M337,410L245.5,68
					c-1.6-6.1-9-10.5-20.9-11.5l91.5,342C328,399.4,335.4,403.9,337,410z"/>
			</defs>
			<clipPath id="SVGID_00000143585167975835676680000004568935175258413735_">
				<use xlink:href="#SVGID_00000052073576654900979830000008264805220732105115_"  style="overflow:visible;"/>
			</clipPath>
			<g style="clip-path:url(#SVGID_00000143585167975835676680000004568935175258413735_);enable-background:new    ;">
				<g>
					<path class="st2" d="M325.6,400.3c-2.8-0.9-6-1.5-9.6-1.8l0,0l-91.5-342l0-0.1l0.1,0c10.8,0.9,18.4,4.7,20.6,10.4
						c1.8,4.5,0.1,9.9-4.6,15.1L325.6,400.3c5.7,1.7,9.5,4.7,11,8.5c1.8,4.5,0.1,9.9-4.6,15.2l-0.1,0.1L325.6,400.3z M332,423.8
						c4.7-5.2,6.3-10.5,4.5-15c-1.5-3.8-5.3-6.7-10.8-8.5L332,423.8z M316.1,398.4c3.6,0.3,6.8,0.9,9.5,1.8L240.5,82l0,0l0,0
						c4.7-5.2,6.4-10.6,4.6-15c-2.3-5.7-9.7-9.5-20.5-10.4L316.1,398.4z"/>
				</g>
				<g>
					
						<rect x="285.8" y="55" transform="matrix(0.966 -0.2585 0.2585 0.966 -50.2681 81.7912)" class="st2" width="0.1" height="354"/>
				</g>
			</g>
			<g style="clip-path:url(#SVGID_00000143585167975835676680000004568935175258413735_);">
				<path class="st2" d="M330.4,402.3c-3.7-2.1-8.5-3.4-14.3-3.8l0,0l-91.5-342l0-0.1l0.1,0c5.9,0.5,10.7,1.8,14.4,3.8
					c3.5,2,5.8,4.6,6.6,7.7l91.5,342l-0.1,0C336.1,406.9,333.9,404.3,330.4,402.3z M316.1,398.4c5.8,0.5,10.7,1.8,14.3,3.8
					c3,1.7,5.1,3.8,6.1,6.3L245.5,68c-0.8-3-3.1-5.7-6.6-7.6c-3.7-2.1-8.4-3.3-14.3-3.8L316.1,398.4z"/>
			</g>
			
				<use xlink:href="#SVGID_00000052073576654900979830000008264805220732105115_"  style="overflow:visible;fill:none;stroke:#000000;stroke-width:2;stroke-miterlimit:10;"/>
		</g>
		<g class="st0">
			<defs>
				<path id="SVGID_00000040537378509962381520000003371290600515905944_" class="st0" d="M163,90l91.5,342c-1.1-4.1,0.4-9,5-14
					c11.2-12.4,36.6-21.2,56.6-19.6l-91.5-342c-20.1-1.6-45.4,7.1-56.6,19.6C163.4,81,161.9,85.9,163,90z"/>
			</defs>
			<clipPath id="SVGID_00000103266259517499588090000004265349586496814518_">
				<use xlink:href="#SVGID_00000040537378509962381520000003371290600515905944_"  style="overflow:visible;"/>
			</clipPath>
			<g style="clip-path:url(#SVGID_00000103266259517499588090000004265349586496814518_);enable-background:new    ;">
				<g>
					<g>
						<path class="st2" d="M275.4,443.6c-10.8-0.9-18.4-4.7-20.6-10.4c-1.8-4.5-0.1-9.9,4.6-15.1L174.2,99.7
							c-5.6-1.8-9.4-4.8-10.9-8.6c-1.8-4.5-0.1-9.9,4.6-15.2l0.1-0.1l6.4,23.8c2.8,0.9,6,1.5,9.6,1.8l0,0L275.4,443.6L275.4,443.6
							L275.4,443.6z M174.3,99.8L259.5,418l0,0l0,0c-4.7,5.2-6.4,10.6-4.6,15c2.3,5.7,9.7,9.5,20.5,10.4l-91.4-341.9
							C180.3,101.3,177.1,100.7,174.3,99.8z M163.4,91.1c1.5,3.8,5.3,6.7,10.8,8.5l-6.3-23.5C163.2,81.3,161.6,86.6,163.4,91.1z"/>
					</g>
					<g>
						
							<rect x="208.3" y="81.8" transform="matrix(0.9661 -0.2582 0.2582 0.9661 -59.7424 62.5601)" class="st2" width="0.1" height="354"/>
					</g>
				</g>
				<g>
					<g>
						<path class="st2" d="M167.9,76L167.9,76L167.9,76c11.2-12.5,36.7-21.3,56.7-19.6l0,0l91.5,342l0,0.1l-0.1,0
							c-20-1.6-45.4,7.1-56.6,19.5l-0.1,0.1L167.9,76z M316,398.4L224.5,56.5c-20-1.6-45.3,7.1-56.5,19.5l91.4,341.9
							c10.3-11.4,32.6-19.7,51.7-19.7C312.7,398.2,314.4,398.3,316,398.4z"/>
					</g>
					<g>
						
							<rect x="228.8" y="59" transform="matrix(0.9661 -0.2582 0.2582 0.9661 -53.1756 67.0865)" class="st2" width="0.1" height="354"/>
					</g>
					<g>
						
							<rect x="249.1" y="52" transform="matrix(0.9661 -0.258 0.258 0.9661 -50.6528 72.0503)" class="st2" width="0.1" height="354"/>
					</g>
				</g>
			</g>
			<g style="clip-path:url(#SVGID_00000103266259517499588090000004265349586496814518_);">
				<path class="st2" d="M162.9,90L162.9,90L162.9,90c-1.2-4.3,0.6-9.2,5-14c11.2-12.4,36.6-21.2,56.7-19.6l0,0l91.5,342l0,0.1
					l-0.1,0c-20-1.6-45.4,7.1-56.6,19.5c-4.4,4.9-6.1,9.7-5,13.9l-0.1,0L162.9,90z M316,398.4L224.5,56.5
					c-20-1.6-45.4,7.1-56.6,19.5c-4.4,4.9-6.1,9.7-5,13.9l91.1,340.6c-0.5-3.9,1.3-8.3,5.3-12.6c10.3-11.4,32.6-19.8,51.7-19.8
					C312.7,398.2,314.4,398.3,316,398.4z"/>
			</g>
			
				<use xlink:href="#SVGID_00000040537378509962381520000003371290600515905944_"  style="overflow:visible;fill:none;stroke:#000000;stroke-width:2;stroke-miterlimit:10;"/>
		</g>
		<g class="st0">
			<defs>
				<path id="SVGID_00000013176392007783343870000003466977040286033030_" class="st0" d="M436.2,388.3c6.1-6.9,13.8-16.4,18.9-24
					c2.7-4,6.2-9.4,8.6-13.5c2.4-4.1,5.4-9.6,7.5-13.9c3.4-6.9,7.7-16.3,10-23.7c1.5-4.6,3.6-10.7,4.8-15.4
					c1.7-6.8,3.8-15.9,4.9-22.9c1.6-9.8,2.3-23,2.6-32.9c0.2-6.8-0.3-15.9-1.2-22.6c-1.3-9.8-3.5-22.9-6-32.4
					c-2.7-9.9-7.5-22.6-11.4-32.1c-2.5-6.1-6.8-13.9-10-19.6c-2.4-4.3-6.2-9.8-8.8-14c-3.5-5.6-9.2-12.4-13.5-17.5
					c-4.4-5.3-10.8-12.1-15.9-16.7c-7.1-6.4-16.8-14.7-24.6-20.1c-6.1-4.1-14.5-9.3-20.8-12.9c-4-2.3-9.5-4.8-13.6-6.8
					c-7.6-3.7-18.3-7.4-26.2-10.2c-8-2.8-19-5.3-27.3-7c-6.1-1.2-15.8-2.8-27.4-3.8c-20.4-1.7-42,8-62.1,30.3
					c20.1,1.6,27.2,13.1,16,25.5s-36.6,21.2-56.6,19.6c-20.1-1.6-27.2-13.1-16-25.5c11.2-12.4,36.6-21.2,56.6-19.6
					c20.1-22.3,41.7-32,62.1-30.3c0,0,0,0,0,0c-3.8-0.2-8.9-0.7-12.8-0.7c-3.7,0-8.7-0.2-12.5-0.1c-3.9,0.1-9,0.3-12.9,0.5
					c-3.6,0.2-8.4,0.6-12,1c-3.3,0.4-7.8,0.9-11.1,1.4c-3.3,0.5-7.7,1.2-11,1.8c-3.9,0.7-11.2,2.1-21.1,4.8
					c-6.2,1.6-14.5,4.3-20.6,6.3c-3.1,1-7.2,2.6-10.2,3.8c-3.1,1.2-7.1,2.9-10.1,4.2c-3.2,1.3-7.3,3.2-10.3,4.7
					c-3.2,1.6-7.4,3.7-10.5,5.3c-3.1,1.7-7.3,4.1-10.4,5.9c-3.4,1.9-7.8,4.7-11,6.9c-6.4,4.4-14.8,10.6-20.9,15.5
					c-3.8,3-8.5,7.5-12.1,10.7c-4.3,3.9-9.5,9.5-13.4,13.7c-3.1,3.4-7,8.1-9.8,11.7c-5.8,7.2-12.7,17.5-17.5,25.5
					c-4.3,7.2-9.5,17-12.6,24.8c-2.7,6.9-6.2,16.3-8.5,23.4c-1.5,4.6-3,11-4.1,15.7c-1.6,6.7-3.2,15.8-3.7,22.7
					C7.2,240.4,6.5,247,6.4,252c-0.1,6.7-0.2,15.7,0.5,22.4c0.5,5,1.1,11.8,2,16.8c1.1,6.6,3,15.5,4.7,22
					c2.5,9.9,7.3,22.7,11.4,32.1c3.6,8.3,9.3,19.1,14.3,26.7c2.7,4.1,6.3,9.7,9.3,13.6c4.1,5.3,9.7,12.2,14.2,17.1
					c4.7,5.1,11.4,11.8,16.7,16.3c7.3,6.1,17.5,13.6,25.2,19c6.2,4.3,15.1,8.9,21.8,12.4c4,2.1,9.5,4.5,13.7,6.2
					c4.4,1.8,10.2,4.1,14.7,5.5c8,2.5,18.7,5.8,26.9,7.3c8.1,1.5,19,3.4,27.3,4.2c5,0.5,11.8,0.9,16.8,1.1c4.1,0.2,9.5,0.3,13.5,0.1
					c3.5-0.1,8.3-0.2,11.8-0.5c3.6-0.2,8.4-0.6,12-1c3.3-0.4,7.8-0.8,11.1-1.4c3.3-0.5,7.6-1.2,10.9-1.8c3.2-0.6,7.5-1.5,10.8-2.2
					c3.2-0.7,7.4-1.7,10.5-2.6c6.2-1.8,14.5-4.3,20.6-6.3c3.1-1,7.2-2.6,10.2-3.8c3.1-1.2,7.2-2.9,10.2-4.2
					c6.2-2.7,14.3-6.8,20.4-9.8c3.3-1.7,7.5-4.2,10.7-6c3.4-1.9,7.8-4.8,11-6.9c3.2-2.1,7.4-5.2,10.5-7.4c3.7-2.6,8.5-6.5,12-9.5
					c3.2-2.7,7.4-6.5,10.5-9.4C427,398.1,432.4,392.6,436.2,388.3z"/>
			</defs>
			<clipPath id="SVGID_00000075852155307551902510000014061095441620212628_">
				<use xlink:href="#SVGID_00000013176392007783343870000003466977040286033030_"  style="overflow:visible;"/>
			</clipPath>
			<g style="clip-path:url(#SVGID_00000075852155307551902510000014061095441620212628_);enable-background:new    ;">
				<g>
					<g>
						<path class="st2" d="M332,424l-0.1,0L332,424c4.7-5.3,6.3-10.7,4.6-15.1c-2.3-5.7-9.7-9.5-20.5-10.4l-0.1,0l0.1-0.1
							c25.7-28.4,45-73,54.5-125.4c9.5-52.4,8-106.4-4.2-152.1l0-0.1l0.1,0c15.8,1.3,30.5,3.7,43.8,7.1c12.9,3.3,24.6,7.6,34.6,12.8
							c9.9,5.1,18.2,11.1,24.9,17.8c6.6,6.6,11.5,14,14.7,21.9c5,12.6,5.4,26.3,1.1,40.8c-4.4,15-13.6,30.3-27.5,45.7
							c6.3,23.5,7.7,45.9,4.1,66.5c-1.7,9.9-4.6,19.4-8.5,28.1c-3.9,8.6-8.9,16.6-14.8,23.7c-5.7,6.9-12.4,13-19.8,18.2
							c-7.5,5.2-15.8,9.6-24.7,12.9c-14.6,5.4-30.7,8.2-48.1,8.2C341.5,424.6,336.8,424.4,332,424z M376.7,195.9
							c0.6,25.7-1.4,51.7-6.1,77.2c-4.6,25.5-11.6,49.2-20.7,70.5c-9.4,22-20.8,40.5-33.7,54.8c10.8,0.9,18.3,4.7,20.5,10.4
							c1.8,4.5,0.2,9.8-4.5,15.1c44.9,3.6,82.7-10.1,106.6-38.6c24.8-29.7,31.6-71.7,19.2-118.3l0,0l0,0
							c27.2-30.1,36.5-60.8,26.4-86.4c-13-32.8-55.9-54.5-117.8-59.6C372.6,144.1,376.1,169.3,376.7,195.9z"/>
					</g>
					<g>
						<path class="st2" d="M412.4,407.7c8.2-9.1,13.7-18.2,16.3-27c2.5-8.6,2.3-16.7-0.7-24.1c-7.7-19.4-33.1-32.3-69.7-35.3l0,0.1
							c36.6,3,62,15.8,69.7,35.2C433.9,371.7,428.4,389.9,412.4,407.7L412.4,407.7z"/>
					</g>
					<g>
						<path class="st2" d="M457.6,351.4c12.3-13.6,20.5-27.3,24.4-40.6c3.8-12.8,3.4-25-1-36.2c-11.5-29.1-49.7-48.4-104.6-52.9
							l0,0.1c54.9,4.5,93,23.8,104.6,52.8C489.9,297.4,481.6,324.6,457.6,351.4L457.6,351.4z"/>
					</g>
					<g>
						<path class="st2" d="M331.6,403.1c22.9-11.5,43.9-27.1,62.4-46.5c8.9-9.3,17.2-19.5,24.6-30.2c7.3-10.6,13.9-21.9,19.5-33.4
							c5.6-11.6,10.3-23.6,13.9-35.7c3.7-12.2,6.3-24.6,7.9-36.9c3.2-25.5,1.7-50.2-4.5-73.3l-0.1,0
							C480.6,241.4,425.1,356.2,331.6,403.1L331.6,403.1z"/>
					</g>
					<g>
						<path class="st2" d="M337.3,412.2c14.4-3.1,28.5-7.5,41.7-13.1c12.9-5.5,25.2-12.2,36.5-20c11.1-7.6,21.3-16.3,30.4-25.8
							c9-9.4,16.9-19.6,23.6-30.4c11.4-18.6,18.9-38.5,22.2-59.2c3.4-21.4,2.3-43-3.4-64.2l-0.1,0c11.1,41.6,4.5,85.4-18.8,123.3
							c-27.5,44.8-75.6,77.3-132.1,89.3L337.3,412.2z"/>
					</g>
				</g>
				<g>
					<g>
						<path class="st2" d="M204.7,472.5c-7.5-1.8-14.9-5.2-21.8-10.1c-7-4.9-13.6-11.4-19.7-19.2c-6.2-8-11.8-17.3-16.7-27.9
							c-5.1-10.9-9.4-23.1-12.9-36.2l0-0.1l0.1,0c114.6,9.4,260.1-40.8,324.3-112l0.1-0.1l0,0.1c6.3,23.5,7.7,45.9,4.1,66.5
							c-1.7,9.9-4.6,19.4-8.5,28.1c-3.9,8.6-8.9,16.6-14.8,23.7c-5.7,6.9-12.4,13-19.8,18.2c-7.5,5.2-15.8,9.6-24.7,12.9
							c-18.5,6.9-39.5,9.5-62.2,7.6c-11.2,12.4-36.6,21.2-56.6,19.6c-11.2,12.4-23.1,21.2-35.3,26c-7.4,3-14.9,4.4-22.3,4.4
							C213.4,474,209,473.5,204.7,472.5z M275.4,443.5c20,1.6,45.4-7.1,56.6-19.5l0,0l0,0c44.9,3.7,82.8-10,106.7-38.6
							c24.8-29.7,31.6-71.7,19.2-118.2c-15.7,17.4-36.4,33.8-61.6,48.8c-24.3,14.5-51.8,27.1-81.6,37.4
							c-29.8,10.3-60.4,17.8-91.1,22.2c-31.7,4.6-62,5.8-90,3.5c7,26.2,17,47.7,29.7,64c12.1,15.5,26.4,25.7,41.5,29.3
							C228.3,478.1,253.4,467.8,275.4,443.5L275.4,443.5L275.4,443.5z"/>
					</g>
					<g>
						<path class="st2" d="M237.5,474.6c11.7,0,23.8-0.9,36.4-2.8c18.1-2.6,36.2-7.1,53.8-13.2c17.6-6.1,33.8-13.5,48.2-22.1
							c14.9-8.9,27.2-18.6,36.5-28.9l-0.1-0.1c-37.9,42.1-123.9,71.8-191.7,66.2l0,0.1C226.1,474.4,231.8,474.6,237.5,474.6z"/>
					</g>
					<g>
						<path class="st2" d="M195.1,451.8c17.5,0,35.8-1.4,54.6-4.1c27.2-4,54.4-10.6,80.8-19.7c26.4-9.1,50.8-20.3,72.4-33.2
							c22.4-13.3,40.8-27.9,54.7-43.4l-0.1-0.1c-56.9,63.1-186,107.7-287.8,99.4l0,0.1C178,451.5,186.5,451.8,195.1,451.8z"/>
					</g>
					<g>
						<path class="st2" d="M349.6,447.3c5.7,0,10.8-1.6,15.1-4.7c4.6-3.3,8.2-8.3,10.9-14.9c2.7-6.6,4.3-14.8,4.9-24.3
							c0.6-9.7,0.1-20.8-1.5-32.9c-1.6-12.5-4.4-26.2-8.3-40.7l-0.1,0c15.2,56.9,13,99-6,112.7c-11.4,8.2-27.9,5.5-47.8-7.7
							l-0.1,0.1C329.2,443.1,340.2,447.3,349.6,447.3z"/>
					</g>
					<g>
						<path class="st2" d="M292.2,468.6c0.1,0,0.2,0,0.3,0c1.6-0.2,2.8-2.6,3.5-7c0.7-4.5,0.9-11.1,0.6-19.7l-0.1,0
							c0.6,16.9-0.8,26.1-4,26.6c-0.1,0-0.2,0-0.3,0c-3.3,0-8.4-8.6-14.8-24.8c-6.7-17.3-14.7-42.7-22.9-73.7l-0.1,0
							c8.3,31,16.2,56.5,23,73.7C283.7,460,288.8,468.6,292.2,468.6z"/>
					</g>
				</g>
				<g>
					<g>
						<path class="st2" d="M204.7,472.5c-7.5-1.8-14.9-5.2-21.8-10.1c-7-4.9-13.6-11.4-19.7-19.2c-6.2-8-11.8-17.3-16.7-27.9
							c-5.1-10.9-9.4-23-12.9-36.2c-15.8-1.3-30.5-3.7-43.7-7.1c-12.9-3.3-24.6-7.6-34.6-12.8c-9.9-5.1-18.2-11.1-24.9-17.8
							c-6.6-6.6-11.5-14-14.7-21.9c-5-12.6-5.4-26.3-1.1-40.8c4.4-15,13.7-30.4,27.5-45.7l0.1-0.1l0,0.1
							c25.2,94.3,122.7,177.3,217.3,185l0.1,0l-0.1,0.1c-4.7,5.2-6.4,10.6-4.6,15c2.3,5.7,9.7,9.5,20.5,10.4l0.1,0l-0.1,0.1
							c-11.2,12.4-23.1,21.2-35.3,26.1c-7.4,3-14.9,4.4-22.3,4.4C213.4,474,209,473.5,204.7,472.5z M254.7,433.1
							c-1.8-4.5-0.2-9.8,4.5-15.1c-23.1-1.9-46.8-8.3-70.3-18.9c-11.3-5.1-22.5-11.2-33.4-18.2c-10.7-6.9-21.2-14.6-31-23
							c-20-17-37.2-36.3-51.3-57.4c-14.6-21.8-25.1-44.5-31.3-67.6c-27.1,30.1-36.4,60.7-26.3,86.3c13,32.8,56,54.5,117.8,59.6l0,0
							l0,0c7,26.2,17,47.8,29.7,64.1c12.1,15.5,26.4,25.7,41.5,29.3c23.5,5.7,48.6-4.6,70.5-28.8C264.5,442.6,257,438.8,254.7,433.1
							z"/>
					</g>
					<g>
						<path class="st2" d="M220.6,474l0-0.1c-36.6-3-62-15.8-69.7-35.2c-6-15.1-0.5-33.3,15.6-51.1l-0.1-0.1
							c-8.2,9.1-13.7,18.2-16.3,27c-2.5,8.6-2.3,16.7,0.7,24.1C158.6,458.1,184,471,220.6,474z"/>
					</g>
					<g>
						<path class="st2" d="M169.8,450.8l0-0.1c-54.9-4.5-93-23.8-104.6-52.8c-9-22.7-0.7-50,23.4-76.7l-0.1-0.1
							c-12.3,13.6-20.5,27.3-24.4,40.6c-3.8,12.8-3.4,25,1,36.2C76.7,427,114.8,446.3,169.8,450.8z"/>
					</g>
					<g>
						<path class="st2" d="M179.8,458.9c2.4,0,4.9-0.1,7.4-0.2c11.9-0.6,24-2.5,36-5.7c12.3-3.3,24.7-8,36.7-14.1l0-0.1
							c-46.8,23.4-97.3,26.2-138.5,7.7c-37.9-17-65.1-50.4-76.8-93.8l-0.1,0c11.6,43.5,38.9,76.8,76.8,93.9
							c10,4.5,20.6,7.8,31.6,9.8C161.6,458.1,170.7,458.9,179.8,458.9z"/>
					</g>
					<g>
						<path class="st2" d="M206.2,434.9c16,0,32.1-1.7,47.9-5l0-0.1c-16,3.4-32,5-47.8,5c-90.9,0-173.1-54-194.6-134.4l-0.1,0
							c6.2,23.1,17.4,44.4,33.3,63.3c7.6,9.1,16.4,17.6,25.9,25.2c9.5,7.6,19.8,14.4,30.8,20.2c11,5.9,22.6,10.8,34.7,14.7
							c12.2,4,24.8,6.9,37.6,8.7C184.6,434.1,195.4,434.9,206.2,434.9z"/>
					</g>
				</g>
				<g>
					<g>
						<path class="st2" d="M259.4,418.1c-23.2-1.9-46.9-8.3-70.4-18.9c-11.3-5.1-22.5-11.2-33.4-18.2c-10.7-6.9-21.2-14.6-31-23
							c-20-17-37.2-36.3-51.3-57.4C58.7,278.8,48.2,256,42,233l0,0l0,0c15.7-17.4,36.5-33.9,61.7-48.9
							c24.3-14.5,51.8-27.1,81.6-37.4c29.8-10.3,60.4-17.8,91.1-22.2c31.7-4.6,62-5.8,90.1-3.5l0,0l0,0c6.2,23.1,9.6,48.3,10.3,74.9
							c0.6,25.7-1.4,51.7-6.1,77.2c-4.6,25.5-11.6,49.2-20.7,70.5c-9.5,22.1-20.8,40.5-33.8,54.9l0,0l0,0
							C296,396.9,270.6,405.6,259.4,418.1L259.4,418.1L259.4,418.1z M316,398.4c25.7-28.4,45-73,54.5-125.3
							c9.5-52.4,8-106.4-4.2-152c-114.6-9.4-260.1,40.9-324.3,112c25.2,94.2,122.7,177.2,217.3,185c10.3-11.4,32.6-19.8,51.7-19.8
							C312.8,398.2,314.4,398.3,316,398.4z"/>
					</g>
					<g>
						<path class="st2" d="M166.6,387.6c37.9-42.1,123.9-71.7,191.7-66.2l0-0.1c-16.6-1.4-34.5-0.7-53.3,2.1
							c-18.1,2.6-36.2,7.1-53.8,13.2c-17.6,6.1-33.8,13.5-48.2,22.1C188.1,367.5,175.8,377.2,166.6,387.6L166.6,387.6z"/>
					</g>
					<g>
						<path class="st2" d="M88.6,321.2c56.9-63.1,186-107.7,287.8-99.4l0-0.1c-24.9-2-51.8-1-79.9,3.1c-27.2,4-54.4,10.6-80.8,19.7
							c-26.4,9.1-50.8,20.3-72.4,33.2C120.9,291.1,102.5,305.7,88.6,321.2L88.6,321.2z"/>
					</g>
					<g>
						<path class="st2" d="M274.6,407.1L274.6,407.1c-26.6-17.7-56.4-52-83.8-96.7c-27.5-44.7-49.3-94.5-61.5-140.2l-0.1,0
							c6.2,23.1,14.8,47.2,25.6,71.7c10.5,23.7,22.5,46.7,35.9,68.5c13.4,21.8,27.3,41.1,41.5,57.6
							C246.9,385,261.1,398.2,274.6,407.1z"/>
					</g>
					<g>
						<path class="st2" d="M294.9,400l0.1,0c-2-54.6-24.2-175.8-49.4-270.1l-0.1,0C270.7,224.3,292.9,345.4,294.9,400z"/>
					</g>
				</g>
				<g>
					<g>
						<path class="st2" d="M457.9,267C432.6,172.7,335.1,89.8,240.5,82l-0.1,0l0.1-0.1c4.7-5.2,6.4-10.6,4.6-15
							c-2.3-5.7-9.7-9.5-20.5-10.4l-0.1,0l0.1-0.1c11.2-12.4,23.1-21.2,35.3-26.1c11.8-4.7,23.7-5.7,35.3-2.9
							c7.5,1.8,14.9,5.2,21.8,10.1c7,4.9,13.6,11.4,19.7,19.2c6.2,8,11.8,17.3,16.7,27.9c5.1,10.9,9.4,23,12.9,36.2
							c15.8,1.3,30.5,3.7,43.7,7.1c12.9,3.3,24.6,7.6,34.6,12.8c9.9,5.1,18.2,11.1,24.9,17.8c6.6,6.6,11.5,14,14.7,21.9
							c5,12.6,5.4,26.3,1.1,40.8C481.1,236.3,471.8,251.7,457.9,267L457.9,267L457.9,267z M224.7,56.4c10.8,0.9,18.3,4.7,20.5,10.4
							c1.8,4.5,0.2,9.8-4.5,15.1c23.1,1.9,46.8,8.3,70.3,18.9c11.3,5.1,22.5,11.2,33.4,18.2c10.7,6.9,21.2,14.6,31,23
							c20,17,37.2,36.3,51.3,57.4c14.6,21.8,25.1,44.5,31.3,67.6c27.1-30.1,36.4-60.7,26.3-86.3c-13-32.8-56-54.5-117.8-59.6l0,0
							l0,0c-7-26.2-17-47.8-29.7-64.1c-12.1-15.5-26.4-25.7-41.5-29.3c-4.2-1-8.5-1.5-12.8-1.5C262.7,26,242.6,36.5,224.7,56.4z"/>
					</g>
					<g>
						<path class="st2" d="M411.4,178.8c12.3-13.6,20.5-27.3,24.4-40.6c3.8-12.8,3.4-25-1-36.2c-11.5-29.1-49.7-48.4-104.6-52.9
							l0,0.1c54.9,4.5,93,23.8,104.6,52.8C443.8,124.8,435.4,152,411.4,178.8L411.4,178.8z"/>
					</g>
					<g>
						<path class="st2" d="M333.4,112.4c8.2-9.1,13.7-18.2,16.3-27c2.5-8.6,2.3-16.7-0.7-24.1C341.3,41.8,315.9,29,279.3,26l0,0.1
							c36.6,3,62,15.8,69.7,35.2C355,76.4,349.4,94.6,333.4,112.4L333.4,112.4z"/>
					</g>
					<g>
						<path class="st2" d="M455.4,147.2l0.1,0c-11.6-43.5-38.9-76.8-76.8-93.9c-10-4.5-20.6-7.8-31.6-9.8c-11.1-2-22.6-2.8-34.3-2.3
							c-11.9,0.6-24,2.5-36,5.7c-12.3,3.3-24.7,8-36.7,14.1l0,0.1c46.8-23.4,97.3-26.2,138.5-7.7
							C416.5,70.4,443.8,103.7,455.4,147.2z"/>
					</g>
					<g>
						<path class="st2" d="M488.2,199.6l0.1,0c-6.2-23.1-17.4-44.4-33.3-63.3c-7.6-9.1-16.4-17.6-25.9-25.2
							c-9.5-7.6-19.8-14.4-30.8-20.2c-11-5.9-22.6-10.8-34.7-14.7c-12.2-4-24.8-6.9-37.6-8.7c-26.6-3.8-53.6-2.9-80.2,2.8l0,0.1
							c16-3.4,32-5,47.8-5C384.6,65.2,466.7,119.2,488.2,199.6z"/>
					</g>
				</g>
				<g>
					<g>
						<path class="st2" d="M133.5,379.1L133.5,379.1L133.5,379.1c-6.2-23.1-9.7-48.3-10.3-75c-0.6-25.7,1.4-51.7,6.1-77.2
							c4.6-25.5,11.6-49.2,20.7-70.5c9.5-22.1,20.8-40.5,33.8-54.9l0,0l0,0c20,1.6,45.4-7.1,56.6-19.5l0,0l0,0
							c23.2,1.9,46.9,8.3,70.4,18.9c11.3,5.1,22.5,11.2,33.4,18.2c10.7,6.9,21.2,14.6,31,23c20,17,37.2,36.3,51.3,57.4
							c14.6,21.8,25.1,44.6,31.3,67.7l0,0l0,0c-15.7,17.4-36.5,33.9-61.7,48.9c-24.3,14.5-51.8,27.1-81.6,37.4
							c-29.8,10.3-60.4,17.8-91.1,22.2c-21.2,3.1-41.8,4.7-61.5,4.7C152.4,380.2,142.8,379.8,133.5,379.1z M240.6,82
							c-11.2,12.4-36.6,21.2-56.6,19.6c-25.7,28.4-45,73-54.5,125.3c-9.5,52.4-8,106.4,4.2,152c114.6,9.4,260.1-40.9,324.3-112
							C432.6,172.7,335.2,89.8,240.6,82z"/>
					</g>
					<g>
						<path class="st2" d="M148.9,279.2c17.5,0,35.8-1.4,54.6-4.1c27.2-4,54.4-10.6,80.8-19.7c26.4-9.1,50.8-20.3,72.4-33.2
							c22.4-13.3,40.8-27.9,54.7-43.4l-0.1-0.1c-56.9,63.1-186,107.7-287.8,99.4l0,0.1C131.8,278.9,140.3,279.2,148.9,279.2z"/>
					</g>
					<g>
						<path class="st2" d="M158.5,179.3c11.7,0,23.8-0.9,36.4-2.8c18.1-2.6,36.2-7.1,53.8-13.2c17.6-6.1,33.8-13.5,48.2-22.1
							c14.9-8.9,27.2-18.6,36.5-28.9l-0.1-0.1c-37.9,42.1-123.9,71.8-191.7,66.2l0,0.1C147.1,179.1,152.8,179.3,158.5,179.3z"/>
					</g>
					<g>
						<path class="st2" d="M370.7,329.8l0.1,0c-6.2-23.1-14.8-47.2-25.6-71.7c-10.5-23.7-22.5-46.7-35.9-68.5
							c-13.4-21.8-27.3-41.1-41.5-57.6c-14.7-17-28.9-30.2-42.4-39.1l-0.1,0.1c26.6,17.6,56.4,51.9,83.9,96.7
							C336.6,234.4,358.5,284.1,370.7,329.8z"/>
					</g>
					<g>
						<path class="st2" d="M254.3,370l0.1,0c-25.2-94.3-47.4-215.4-49.4-270l-0.1,0C207,154.6,229.1,275.7,254.3,370z"/>
					</g>
				</g>
				<g>
					<g>
						<path class="st2" d="M133.5,379.1c-15.8-1.3-30.5-3.7-43.8-7.1c-12.9-3.3-24.6-7.6-34.6-12.8c-9.9-5.1-18.2-11.1-24.9-17.8
							c-6.6-6.6-11.5-14-14.7-21.9c-5-12.6-5.4-26.3-1.1-40.8c4.4-15,13.6-30.3,27.5-45.7c-6.3-23.5-7.7-45.9-4.1-66.5
							c1.7-9.9,4.6-19.4,8.5-28.1c3.9-8.6,8.9-16.6,14.8-23.7c5.7-6.9,12.4-13,19.8-18.2c7.5-5.2,15.8-9.6,24.7-12.9
							c18.5-6.9,39.5-9.5,62.2-7.6l0.1,0L168,76c-4.7,5.2-6.4,10.6-4.6,15c2.3,5.7,9.7,9.5,20.5,10.4l0.1,0l-0.1,0.1
							c-25.7,28.4-45,73-54.5,125.4C119.9,279.3,121.4,333.3,133.5,379.1L133.5,379.1L133.5,379.1z M163.3,91.1
							c-1.8-4.5-0.2-9.8,4.5-15.1c-44.9-3.6-82.7,10.1-106.6,38.6c-24.8,29.7-31.6,71.7-19.2,118.3l0,0l0,0
							c-27.2,30.1-36.5,60.8-26.4,86.4c13,32.8,55.9,54.5,117.8,59.6c-6.2-23.1-9.6-48.3-10.2-74.9c-0.6-25.7,1.4-51.7,6.1-77.2
							c4.6-25.5,11.6-49.2,20.7-70.5c9.4-22,20.8-40.5,33.7-54.8C173,100.6,165.5,96.8,163.3,91.1z"/>
					</g>
					<g>
						<path class="st2" d="M123.6,278.2l0-0.1c-54.9-4.5-93-23.8-104.6-52.8c-9-22.7-0.7-50,23.4-76.7l-0.1-0.1
							c-12.3,13.6-20.5,27.3-24.4,40.6c-3.8,12.8-3.4,25,1,36.2C30.5,254.4,68.6,273.7,123.6,278.2z"/>
					</g>
					<g>
						<path class="st2" d="M141.6,178.7l0-0.1c-36.6-3-62-15.8-69.7-35.2c-6-15.1-0.5-33.3,15.6-51.1l-0.1-0.1
							c-8.2,9.1-13.7,18.2-16.3,27c-2.5,8.6-2.3,16.7,0.7,24.1C79.6,162.8,105,175.7,141.6,178.7z"/>
					</g>
					<g>
						<path class="st2" d="M44.4,352.8l0.1,0C19.3,258.5,74.9,143.8,168.4,97l0-0.1c-22.9,11.5-43.9,27.1-62.4,46.5
							c-8.9,9.3-17.2,19.5-24.6,30.2C74,184.2,67.4,195.4,61.8,207c-5.6,11.6-10.3,23.6-13.9,35.7c-3.7,12.2-6.3,24.6-7.9,36.9
							C36.8,305.1,38.3,329.7,44.4,352.8z"/>
					</g>
					<g>
						<path class="st2" d="M11.6,300.4l0.1,0C0.6,258.8,7.3,215,30.5,177.1c27.5-44.8,75.6-77.3,132.1-89.3l0-0.1
							c-14.4,3.1-28.5,7.5-41.7,13.1c-12.9,5.5-25.2,12.2-36.5,20c-11.1,7.6-21.3,16.3-30.4,25.8C45,156,37,166.2,30.4,177
							C19,195.6,11.6,215.5,8.3,236.2C4.8,257.6,5.9,279.2,11.6,300.4z"/>
					</g>
				</g>
				<g>
					<g>
						<path class="st2" d="M42,233c-6.3-23.5-7.7-45.9-4.1-66.5c1.7-9.9,4.6-19.4,8.5-28.1c3.9-8.6,8.9-16.6,14.8-23.7
							c5.7-6.9,12.4-13,19.8-18.2c7.5-5.2,15.8-9.6,24.7-12.9c18.5-6.9,39.5-9.5,62.2-7.6c11.2-12.4,36.6-21.2,56.6-19.6
							c11.2-12.4,23.1-21.2,35.3-26c11.8-4.7,23.7-5.7,35.3-2.9c7.5,1.8,14.9,5.2,21.8,10.1c7,4.9,13.6,11.4,19.7,19.2
							c6.2,8,11.8,17.3,16.7,27.9c5.1,10.9,9.4,23.1,12.9,36.2l0,0.1l-0.1,0c-9.3-0.8-18.7-1.1-28.4-1.1
							C228.7,119.9,101.1,167.6,42,233L42,233L42,233z M366.3,120.9c-7-26.2-17-47.7-29.7-64c-12.1-15.5-26.4-25.7-41.5-29.3
							c-23.6-5.7-48.6,4.6-70.6,28.9l0,0l0,0c-20-1.6-45.4,7.1-56.6,19.5l0,0l0,0c-44.9-3.7-82.8,10-106.7,38.6
							c-24.8,29.7-31.6,71.7-19.2,118.2c15.7-17.4,36.4-33.8,61.6-48.8c24.3-14.5,51.8-27.1,81.6-37.4
							c29.8-10.3,60.4-17.8,91.1-22.2c21.2-3.1,41.8-4.7,61.5-4.7C347.5,119.7,357.1,120.1,366.3,120.9z"/>
					</g>
					<g>
						<path class="st2" d="M42.4,148.6c56.9-63.1,186-107.7,287.8-99.4l0-0.1c-24.9-2-51.8-1-79.9,3.1c-27.2,4-54.4,10.6-80.8,19.7
							c-26.4,9.1-50.8,20.3-72.4,33.2C74.7,118.5,56.3,133.1,42.4,148.6L42.4,148.6z"/>
					</g>
					<g>
						<path class="st2" d="M87.6,92.3c37.9-42.1,123.9-71.7,191.7-66.2l0-0.1c-16.6-1.4-34.5-0.7-53.3,2.1
							c-18.1,2.6-36.2,7.1-53.8,13.2c-17.6,6.1-33.8,13.5-48.2,22.1C109.1,72.2,96.8,81.9,87.6,92.3L87.6,92.3z"/>
					</g>
					<g>
						<path class="st2" d="M129.1,170.2l0.1,0c-15.2-56.9-13-99,6-112.7c11.4-8.2,27.9-5.5,47.8,7.7l0.1-0.1
							c-20-13.2-36.6-15.9-48-7.6c-4.6,3.3-8.2,8.3-10.9,14.9c-2.7,6.6-4.3,14.8-4.9,24.3c-0.6,9.7-0.1,20.8,1.5,32.9
							C122.5,142,125.3,155.7,129.1,170.2z"/>
					</g>
					<g>
						<path class="st2" d="M245.5,130l0.1,0c-8.3-31-16.2-56.5-23-73.7c-6.5-16.8-11.8-25.4-15.2-24.9c-1.6,0.2-2.8,2.6-3.5,7
							c-0.7,4.5-0.9,11.1-0.6,19.7l0.1,0c-0.6-16.9,0.8-26.1,4-26.6c3.3-0.5,8.5,8.1,15.1,24.8C229.3,73.5,237.2,99,245.5,130z"/>
					</g>
				</g>
			</g>
			<g style="clip-path:url(#SVGID_00000075852155307551902510000014061095441620212628_);">
				<path class="st2" d="M226,474.6c-5.3-0.2-12-0.6-16.8-1.1c-8.1-0.8-18.8-2.6-27.3-4.2c-7.9-1.5-17.9-4.5-26-7l-1-0.3
					c-4.4-1.4-9.9-3.6-14.7-5.5c-1.9-0.8-8.6-3.6-13.7-6.2c-0.5-0.3-1.1-0.6-1.7-0.9c-6.4-3.4-14.5-7.6-20.1-11.5
					c-3.6-2.5-16-11.2-25.3-19c-5.7-4.7-12.4-11.5-16.7-16.3c-4.8-5.2-10.5-12.2-14.2-17.1c-2.8-3.6-6-8.6-8.7-12.5l-0.7-1
					c-4.7-7.2-10.5-17.9-14.3-26.7c-3.6-8.2-8.7-21.5-11.4-32.1c-1.7-6.5-3.5-15.3-4.7-22c-0.7-4-1.2-9.1-1.6-13.6
					c-0.1-1.1-0.2-2.2-0.3-3.2c-0.7-6.5-0.6-14.9-0.5-22.4c0.1-3.4,0.4-7.5,0.7-11.5c0.1-1.8,0.3-3.5,0.4-5
					c0.5-7.3,2.3-16.5,3.7-22.7l0.2-0.6c1.1-4.7,2.5-10.6,3.9-15.1c2.9-9,7.3-20.2,8.5-23.4c3.1-7.9,8.5-18,12.6-24.8
					c5.1-8.5,12.1-18.8,17.5-25.5c1.8-2.2,6.2-7.7,9.8-11.7c3.7-4,9.1-9.8,13.4-13.7c0.8-0.7,1.7-1.5,2.6-2.4c3.1-2.8,6.6-6,9.5-8.3
					c6.7-5.3,14.9-11.4,20.9-15.5c3.5-2.4,7.9-5.1,11-6.9c0.8-0.5,1.7-1,2.7-1.5c2.5-1.4,5.4-3.1,7.7-4.3c2.6-1.4,6.5-3.4,10.5-5.3
					c1.4-0.7,6.3-3.1,10.3-4.7c0.9-0.4,1.9-0.8,3-1.2c2.5-1,5-2.1,7.2-2.9c4.5-1.7,7.8-3,10.2-3.8c8.9-2.9,15.7-5,20.6-6.3
					c9.9-2.6,17.2-4,21.1-4.8c3-0.6,7.4-1.3,11-1.8c2.4-0.3,5.4-0.7,8-1c1.1-0.1,2.1-0.3,3.1-0.4c3.8-0.5,8.6-0.8,12-1
					c4.8-0.3,9.6-0.4,12.9-0.5c2.5,0,5.6,0,8.5,0.1c1.4,0,2.7,0,3.9,0.1c2.6,0,5.7,0.2,8.8,0.5c0.7,0,1.4,0.1,2,0.1
					c0.7,0,1.3,0.1,2,0.1c11.6,1,21.3,2.6,27.4,3.8c5.1,1,18,3.7,27.3,7c0.8,0.3,1.6,0.6,2.4,0.8c7.6,2.7,17,6,23.9,9.3
					c1.1,0.5,2.2,1.1,3.5,1.7c3.4,1.6,7.2,3.5,10.2,5.2c5.8,3.3,14.3,8.5,20.8,12.9c9.2,6.3,20.3,16.1,24.7,20.1
					c4.9,4.5,11.3,11.2,15.9,16.7l0.3,0.4c4.1,4.9,9.7,11.7,13.1,17.1c0.9,1.3,1.8,2.8,2.8,4.4c2.2,3.3,4.4,6.7,6,9.6
					c3.6,6.4,7.6,13.8,10.1,19.6c2.4,5.7,8.2,20.3,11.4,32.1c3.1,11.3,5.2,26.5,6,32.5c0.9,6.7,1.4,15.8,1.2,22.6
					c-0.2,7.6-0.8,22-2.6,32.9c-1,6.3-3,15.2-4.9,22.9c-0.9,3.4-2.2,7.5-3.5,11.2c-0.5,1.5-1,2.9-1.4,4.2c-1.9,5.8-5.1,13.6-10,23.7
					c-1.9,3.9-4.8,9.3-7.5,13.9c-2.3,3.9-5.8,9.4-8.6,13.5c-5.6,8.2-13.7,18-18.9,24c-4.2,4.7-9.5,10.1-13.4,13.7
					c-0.6,0.5-1.1,1-1.7,1.6c-2.9,2.6-6.1,5.5-8.8,7.8c-5,4.2-9,7.4-12,9.5c-0.8,0.5-1.6,1.1-2.4,1.7c-2.7,1.9-5.7,4.1-8.1,5.7
					c-2.5,1.7-7.3,4.8-11,6.9c-0.8,0.4-1.6,0.9-2.5,1.4c-2.7,1.6-5.7,3.3-8.2,4.6c-4.6,2.4-13.4,6.8-20.4,9.8
					c-3.3,1.4-7.6,3.2-10.2,4.2c-2.9,1.1-7,2.7-10.2,3.8c-6,2-14.3,4.5-20.6,6.3c-3.7,1.1-8.6,2.2-10.5,2.6c-4,0.9-8,1.7-10.8,2.2
					c-2.2,0.4-5,0.9-7.6,1.3c-1.2,0.2-2.3,0.4-3.3,0.5c-2.4,0.4-5.4,0.7-8.1,1c-1.1,0.1-2.1,0.2-3,0.4c-2.9,0.3-6.9,0.7-12,1
					c-2.5,0.2-5.6,0.3-8.4,0.3c-1.2,0-2.4,0.1-3.4,0.1c-1.5,0.1-3.1,0.1-4.7,0.1C231,474.8,227.3,474.6,226,474.6z M286.7,26.2
					c-0.6,0-1.3-0.1-2-0.1c-20.5-0.9-41.2,9.5-60,30.3c10.8,0.9,18.3,4.7,20.5,10.4c1.8,4.5,0.1,9.9-4.6,15.2
					c-10.3,11.4-32.6,19.8-51.7,19.8c-1.7,0-3.3-0.1-5-0.2c-10.8-0.9-18.4-4.7-20.6-10.4c-1.8-4.5-0.1-9.9,4.6-15.2
					c11.2-12.4,36.6-21.2,56.7-19.6c18.1-20,37.9-30.5,57.6-30.5c0.1,0,0.1,0,0.2,0c-2.9-0.2-5.9-0.4-8.4-0.4c-1.2,0-2.5,0-3.9-0.1
					c-3,0-6-0.1-8.5-0.1c-3.2,0-8.1,0.2-12.9,0.5c-3.3,0.2-8.2,0.5-12,1c-1,0.1-2,0.2-3.1,0.4c-2.6,0.3-5.6,0.7-8,1
					c-3.7,0.5-8,1.3-11,1.8c-3.9,0.7-11.2,2.1-21.1,4.8c-4.9,1.3-11.7,3.4-20.6,6.3c-2.4,0.8-5.8,2-10.2,3.8
					c-2.1,0.8-4.7,1.9-7.2,2.9c-1,0.4-2,0.8-3,1.2c-4,1.7-8.9,4-10.3,4.7c-3.9,1.9-7.9,3.9-10.5,5.3c-2.3,1.2-5.2,2.9-7.7,4.3
					c-0.9,0.5-1.8,1.1-2.7,1.5c-3.2,1.8-7.5,4.5-11,6.9c-6,4.1-14.2,10.2-20.9,15.5c-2.9,2.3-6.4,5.5-9.5,8.3
					c-0.9,0.8-1.8,1.6-2.6,2.4c-4.3,3.9-9.7,9.7-13.4,13.7c-3.6,4-8.1,9.5-9.8,11.7c-5.4,6.7-12.4,17-17.5,25.5
					c-4,6.8-9.4,16.8-12.6,24.7c-1.3,3.2-5.6,14.4-8.5,23.4c-1.4,4.4-2.8,10.3-3.9,15.1l-0.2,0.6c-1.5,6.2-3.2,15.4-3.7,22.7
					c-0.1,1.5-0.2,3.2-0.4,5c-0.3,4-0.7,8.1-0.7,11.5c-0.1,7.4-0.1,15.9,0.5,22.4c0.1,1,0.2,2.1,0.3,3.2c0.4,4.5,1,9.6,1.6,13.6
					c1.1,6.7,3,15.5,4.7,22c2.7,10.6,7.8,23.9,11.4,32.1c3.8,8.8,9.6,19.5,14.3,26.7l0.7,1c2.6,4,5.9,8.9,8.7,12.5
					c3.7,4.9,9.4,11.9,14.2,17.1c4.4,4.8,11.1,11.5,16.7,16.3c9.2,7.7,21.7,16.5,25.2,19c5.7,3.9,13.7,8.1,20.1,11.5
					c0.6,0.3,1.1,0.6,1.7,0.9c5.1,2.7,11.8,5.5,13.7,6.2c4.8,2,10.3,4.2,14.7,5.5l1,0.3c8,2.5,18.1,5.6,26,7
					c8.4,1.6,19.2,3.4,27.3,4.2c4.8,0.4,11.5,0.9,16.8,1.1c1.9,0.1,8.4,0.3,13.5,0.1c1.1,0,2.2-0.1,3.4-0.1c2.8-0.1,5.9-0.2,8.4-0.3
					c5.1-0.3,9.1-0.6,12-1c0.9-0.1,2-0.2,3-0.4c2.7-0.3,5.7-0.6,8.1-1c1-0.2,2.1-0.3,3.3-0.5c2.6-0.4,5.4-0.9,7.6-1.3
					c2.7-0.5,6.8-1.3,10.8-2.2c1.9-0.4,6.8-1.5,10.5-2.6c6.3-1.8,14.6-4.3,20.6-6.3c3.2-1,7.4-2.6,10.2-3.8c2.7-1,7-2.8,10.2-4.2
					c7-3.1,15.8-7.5,20.4-9.8c2.5-1.3,5.5-3,8.2-4.6c0.9-0.5,1.7-1,2.5-1.4c3.7-2.1,8.5-5.3,11-6.9c2.4-1.6,5.5-3.8,8.1-5.7
					c0.8-0.6,1.6-1.2,2.4-1.7c3-2.1,7-5.3,12-9.5c2.7-2.2,5.9-5.2,8.8-7.8c0.6-0.5,1.2-1.1,1.7-1.6c4-3.6,9.3-9,13.4-13.7
					c5.3-6,13.4-15.8,18.9-24c2.8-4.2,6.3-9.6,8.6-13.5c2.7-4.6,5.6-10,7.5-13.9c4.9-10.1,8.2-17.9,10-23.7c0.4-1.3,0.9-2.7,1.4-4.2
					c1.2-3.7,2.6-7.8,3.4-11.2c1.9-7.6,3.9-16.6,4.9-22.9c1.8-10.9,2.4-25.3,2.6-32.9c0.2-6.9-0.3-16-1.2-22.6c-0.8-6-3-21.1-6-32.4
					c-3.2-11.8-9-26.3-11.4-32.1c-2.4-5.8-6.4-13.2-10-19.6c-1.6-2.9-3.9-6.3-6-9.6c-1-1.5-2-3-2.8-4.4c-3.4-5.5-9-12.2-13.1-17.1
					l-0.3-0.4c-4.6-5.5-11-12.2-15.9-16.7c-4.3-3.9-15.4-13.8-24.6-20.1c-6.5-4.4-15.3-9.7-20.8-12.9c-2.9-1.7-6.8-3.5-10.1-5.2
					c-1.2-0.6-2.4-1.2-3.5-1.7c-6.8-3.4-16.3-6.7-23.8-9.3c-0.8-0.3-1.6-0.6-2.4-0.8c-9.3-3.3-22.2-6-27.3-7
					C308,28.8,298.3,27.2,286.7,26.2L286.7,26.2z M168,76c-4.7,5.2-6.4,10.6-4.6,15c2.3,5.7,9.7,9.5,20.5,10.4
					c20,1.6,45.4-7.1,56.6-19.5c4.7-5.2,6.4-10.6,4.6-15c-2.3-5.7-9.7-9.5-20.5-10.4C204.5,54.9,179.2,63.6,168,76z"/>
			</g>
			
				<use xlink:href="#SVGID_00000013176392007783343870000003466977040286033030_"  style="overflow:visible;fill:none;stroke:#000000;stroke-width:2;stroke-miterlimit:10;"/>
		</g>
		<g class="st0">
			<defs>
				<path id="SVGID_00000056417825565976356420000003123135414184322433_" class="st0" d="M486.4,186.8c-1.7-6.6-4.6-15.1-7-21.4
					c-1.8-4.7-4.5-10.9-6.7-15.5c-2.9-6.1-7.3-14-10.8-19.8c-2.5-4.2-6.4-9.6-9.2-13.7c-3.9-5.8-10.1-12.8-14.7-18
					c-3.2-3.6-7.9-8.1-11.3-11.5c-5.3-5.4-13.2-11.7-19.3-16.2c-7.2-5.4-17.3-11.9-25.2-16.3c-4-2.2-9.5-5-13.6-6.9
					c-4.1-1.9-9.6-4.4-13.9-5.9c-8-2.9-18.7-6.7-26.9-8.6c-4.1-0.9-9.6-2.4-13.7-3.1c-4.1-0.7-9.6-1.7-13.7-2.3
					c-4.1-0.6-9.5-1.5-13.6-1.5c33.5,2.7,64,36.1,79.7,94.8c25.3,94.4,2.7,218.7-50.4,277.5c20.1,1.6,27.2,13.1,16,25.5
					c-11.2,12.4-36.6,21.2-56.6,19.6c-20.1-1.6-27.2-13.1-16-25.5c11.2-12.4,36.6-21.2,56.6-19.6c53.1-58.8,75.6-183.1,50.4-277.5
					c-15.7-58.7-46.2-92-79.7-94.8c-4.2-0.3-9.7-0.7-13.9-0.8c-3.7,0-8.7-0.1-12.4-0.1c-3.7,0.1-8.6,0.3-12.2,0.5
					c-3.5,0.2-8.2,0.5-11.7,1c-3.3,0.4-7.8,0.9-11.1,1.4c-3.3,0.5-7.7,1.2-10.9,1.8c-6.4,1.2-14.8,3.1-21.1,4.7
					c-3.1,0.8-7.3,2-10.4,2.9c-3.1,0.9-7.2,2.3-10.2,3.3c-3.1,1-7.2,2.6-10.3,3.8c-3.1,1.2-7.1,2.9-10.1,4.2
					c-3.2,1.3-7.4,3.3-10.5,4.8c-3.3,1.6-7.7,3.8-10.9,5.6c-3.1,1.7-7.3,4.1-10.4,5.9c-3.2,1.8-7.2,4.5-10.3,6.5
					c-3.7,2.5-8.6,5.9-12.2,8.6c-4.2,3.2-9.8,7.6-13.8,11.2c-3.2,2.8-7.5,6.6-10.4,9.6c-5.4,5.6-12.5,13.3-17.6,19.3
					c-6,7.1-13,17.3-17.9,25.2c-3.8,6.2-8.7,14.7-11.5,21.4c-1.9,4.4-4.6,10.2-6.3,14.7c-2.3,6.4-5.4,15-7,21.6
					c-1.2,4.7-2.8,11.1-3.6,15.9C8.8,225.7,7.6,234.5,7,241c-0.9,9.9-0.8,23.3-0.1,33.3c0.5,6.7,1.7,15.5,2.9,22.1
					c0.9,5.1,2.5,11.7,3.8,16.7c2.2,9,6.6,20.6,10.1,29.2c1.9,4.7,4.8,10.7,7.2,15.1c3.2,6,8,13.6,11.6,19.4
					c3.8,6.1,9.7,13.6,14.3,18.9c6.3,7.3,15.2,16.8,22.7,23c5.9,5,14.2,11.3,20.5,15.8c3.8,2.7,9.2,5.9,13.2,8.3
					c4.1,2.5,9.8,5.4,14.1,7.6c4.1,2,9.6,4.5,13.7,6.2c4.1,1.7,9.7,3.8,13.9,5.2c5.2,1.7,12.1,3.9,17.4,5.1c4.1,1,9.5,2.3,13.6,3
					c8.1,1.3,19,3,27.2,3.7c4.2,0.4,9.7,0.7,13.9,0.8c3.7,0,8.7,0.1,12.4,0.1c3.7-0.1,8.6-0.3,12.2-0.5c3.5-0.2,8.2-0.5,11.7-1
					c3.3-0.4,7.8-0.9,11.1-1.4c3.3-0.5,7.7-1.2,10.9-1.8c3.2-0.6,7.5-1.5,10.6-2.2c3.2-0.7,7.4-1.7,10.5-2.6
					c6.2-1.6,14.5-4.3,20.6-6.3c3.1-1,7.2-2.6,10.3-3.8c3.1-1.2,7.1-2.9,10.1-4.2c3.2-1.3,7.4-3.3,10.5-4.8
					c3.3-1.6,7.7-3.8,10.9-5.6c3.1-1.7,7.3-4.1,10.4-5.9c3.7-2.1,8.5-5.2,11.9-7.6c6.4-4.5,14.8-10.8,20.8-15.7
					c4.4-3.6,9.8-8.8,13.9-12.6c3.3-3.1,7.4-7.5,10.4-10.9c3.1-3.4,6.9-8.1,9.8-11.7c2.9-3.6,6.6-8.5,9.1-12.4
					c4.1-6.3,9.3-14.9,13-21.5c4.6-8.4,9.4-20.2,12.8-29.2c2.5-6.5,5.2-15.4,6.6-22.3c1.3-6.5,3-15.2,4-21.8
					c0.7-4.9,1.2-11.5,1.5-16.4c0.5-9.7,0.2-22.7-0.8-32.4C491.4,210.2,488.9,196.7,486.4,186.8z"/>
			</defs>
			<clipPath id="SVGID_00000004515785860114480630000004278807339388856459_">
				<use xlink:href="#SVGID_00000056417825565976356420000003123135414184322433_"  style="overflow:visible;"/>
			</clipPath>
			<g style="clip-path:url(#SVGID_00000004515785860114480630000004278807339388856459_);enable-background:new    ;">
				<g>
					<g>
						<path class="st2" d="M332,424l-0.1,0L332,424c4.7-5.3,6.3-10.7,4.6-15.1c-2.3-5.7-9.7-9.5-20.5-10.4l-0.1,0l0.1-0.1
							c25.7-28.4,45-73,54.5-125.4c9.5-52.4,8-106.4-4.2-152.1l0-0.1l0.1,0c15.8,1.3,30.5,3.7,43.8,7.1c12.9,3.3,24.6,7.6,34.6,12.8
							c9.9,5.1,18.2,11.1,24.9,17.8c6.6,6.6,11.5,14,14.7,21.9c5,12.6,5.4,26.3,1.1,40.8c-4.4,15-13.6,30.3-27.5,45.7
							c6.3,23.5,7.7,45.9,4.1,66.5c-1.7,9.9-4.6,19.4-8.5,28.1c-3.9,8.6-8.9,16.6-14.8,23.7c-5.7,6.9-12.4,13-19.8,18.2
							c-7.5,5.2-15.8,9.6-24.7,12.9c-14.6,5.4-30.7,8.2-48.1,8.2C341.5,424.6,336.8,424.4,332,424z M376.7,195.9
							c0.6,25.7-1.4,51.7-6.1,77.2c-4.6,25.5-11.6,49.2-20.7,70.5c-9.4,22-20.8,40.5-33.7,54.8c10.8,0.9,18.3,4.7,20.5,10.4
							c1.8,4.5,0.2,9.8-4.5,15.1c44.9,3.6,82.7-10.1,106.6-38.6c24.8-29.7,31.6-71.7,19.2-118.3l0,0l0,0
							c27.2-30.1,36.5-60.8,26.4-86.4c-13-32.8-55.9-54.5-117.8-59.6C372.6,144.1,376.1,169.3,376.7,195.9z"/>
					</g>
					<g>
						<path class="st2" d="M412.4,407.7c8.2-9.1,13.7-18.2,16.3-27c2.5-8.6,2.3-16.7-0.7-24.1c-7.7-19.4-33.1-32.3-69.7-35.3l0,0.1
							c36.6,3,62,15.8,69.7,35.2C433.9,371.7,428.4,389.9,412.4,407.7L412.4,407.7z"/>
					</g>
					<g>
						<path class="st2" d="M457.6,351.4c12.3-13.6,20.5-27.3,24.4-40.6c3.8-12.8,3.4-25-1-36.2c-11.5-29.1-49.7-48.4-104.6-52.9
							l0,0.1c54.9,4.5,93,23.8,104.6,52.8C489.9,297.4,481.6,324.6,457.6,351.4L457.6,351.4z"/>
					</g>
					<g>
						<path class="st2" d="M331.6,403.1c22.9-11.5,43.9-27.1,62.4-46.5c8.9-9.3,17.2-19.5,24.6-30.2c7.3-10.6,13.9-21.9,19.5-33.4
							c5.6-11.6,10.3-23.6,13.9-35.7c3.7-12.2,6.3-24.6,7.9-36.9c3.2-25.5,1.7-50.2-4.5-73.3l-0.1,0
							C480.6,241.4,425.1,356.2,331.6,403.1L331.6,403.1z"/>
					</g>
					<g>
						<path class="st2" d="M337.3,412.2c14.4-3.1,28.5-7.5,41.7-13.1c12.9-5.5,25.2-12.2,36.5-20c11.1-7.6,21.3-16.3,30.4-25.8
							c9-9.4,16.9-19.6,23.6-30.4c11.4-18.6,18.9-38.5,22.2-59.2c3.4-21.4,2.3-43-3.4-64.2l-0.1,0c11.1,41.6,4.5,85.4-18.8,123.3
							c-27.5,44.8-75.6,77.3-132.1,89.3L337.3,412.2z"/>
					</g>
				</g>
				<g>
					<g>
						<path class="st2" d="M204.7,472.5c-7.5-1.8-14.9-5.2-21.8-10.1c-7-4.9-13.6-11.4-19.7-19.2c-6.2-8-11.8-17.3-16.7-27.9
							c-5.1-10.9-9.4-23.1-12.9-36.2l0-0.1l0.1,0c114.6,9.4,260.1-40.8,324.3-112l0.1-0.1l0,0.1c6.3,23.5,7.7,45.9,4.1,66.5
							c-1.7,9.9-4.6,19.4-8.5,28.1c-3.9,8.6-8.9,16.6-14.8,23.7c-5.7,6.9-12.4,13-19.8,18.2c-7.5,5.2-15.8,9.6-24.7,12.9
							c-18.5,6.9-39.5,9.5-62.2,7.6c-11.2,12.4-36.6,21.2-56.6,19.6c-11.2,12.4-23.1,21.2-35.3,26c-7.4,3-14.9,4.4-22.3,4.4
							C213.4,474,209,473.5,204.7,472.5z M275.4,443.5c20,1.6,45.4-7.1,56.6-19.5l0,0l0,0c44.9,3.7,82.8-10,106.7-38.6
							c24.8-29.7,31.6-71.7,19.2-118.2c-15.7,17.4-36.4,33.8-61.6,48.8c-24.3,14.5-51.8,27.1-81.6,37.4
							c-29.8,10.3-60.4,17.8-91.1,22.2c-31.7,4.6-62,5.8-90,3.5c7,26.2,17,47.7,29.7,64c12.1,15.5,26.4,25.7,41.5,29.3
							C228.3,478.1,253.4,467.8,275.4,443.5L275.4,443.5L275.4,443.5z"/>
					</g>
					<g>
						<path class="st2" d="M237.5,474.6c11.7,0,23.8-0.9,36.4-2.8c18.1-2.6,36.2-7.1,53.8-13.2c17.6-6.1,33.8-13.5,48.2-22.1
							c14.9-8.9,27.2-18.6,36.5-28.9l-0.1-0.1c-37.9,42.1-123.9,71.8-191.7,66.2l0,0.1C226.1,474.4,231.8,474.6,237.5,474.6z"/>
					</g>
					<g>
						<path class="st2" d="M195.1,451.8c17.5,0,35.8-1.4,54.6-4.1c27.2-4,54.4-10.6,80.8-19.7c26.4-9.1,50.8-20.3,72.4-33.2
							c22.4-13.3,40.8-27.9,54.7-43.4l-0.1-0.1c-56.9,63.1-186,107.7-287.8,99.4l0,0.1C178,451.5,186.5,451.8,195.1,451.8z"/>
					</g>
					<g>
						<path class="st2" d="M349.6,447.3c5.7,0,10.8-1.6,15.1-4.7c4.6-3.3,8.2-8.3,10.9-14.9c2.7-6.6,4.3-14.8,4.9-24.3
							c0.6-9.7,0.1-20.8-1.5-32.9c-1.6-12.5-4.4-26.2-8.3-40.7l-0.1,0c15.2,56.9,13,99-6,112.7c-11.4,8.2-27.9,5.5-47.8-7.7
							l-0.1,0.1C329.2,443.1,340.2,447.3,349.6,447.3z"/>
					</g>
					<g>
						<path class="st2" d="M292.2,468.6c0.1,0,0.2,0,0.3,0c1.6-0.2,2.8-2.6,3.5-7c0.7-4.5,0.9-11.1,0.6-19.7l-0.1,0
							c0.6,16.9-0.8,26.1-4,26.6c-0.1,0-0.2,0-0.3,0c-3.3,0-8.4-8.6-14.8-24.8c-6.7-17.3-14.7-42.7-22.9-73.7l-0.1,0
							c8.3,31,16.2,56.5,23,73.7C283.7,460,288.8,468.6,292.2,468.6z"/>
					</g>
				</g>
				<g>
					<g>
						<path class="st2" d="M204.7,472.5c-7.5-1.8-14.9-5.2-21.8-10.1c-7-4.9-13.6-11.4-19.7-19.2c-6.2-8-11.8-17.3-16.7-27.9
							c-5.1-10.9-9.4-23-12.9-36.2c-15.8-1.3-30.5-3.7-43.7-7.1c-12.9-3.3-24.6-7.6-34.6-12.8c-9.9-5.1-18.2-11.1-24.9-17.8
							c-6.6-6.6-11.5-14-14.7-21.9c-5-12.6-5.4-26.3-1.1-40.8c4.4-15,13.7-30.4,27.5-45.7l0.1-0.1l0,0.1
							c25.2,94.3,122.7,177.3,217.3,185l0.1,0l-0.1,0.1c-4.7,5.2-6.4,10.6-4.6,15c2.3,5.7,9.7,9.5,20.5,10.4l0.1,0l-0.1,0.1
							c-11.2,12.4-23.1,21.2-35.3,26.1c-7.4,3-14.9,4.4-22.3,4.4C213.4,474,209,473.5,204.7,472.5z M254.7,433.1
							c-1.8-4.5-0.2-9.8,4.5-15.1c-23.1-1.9-46.8-8.3-70.3-18.9c-11.3-5.1-22.5-11.2-33.4-18.2c-10.7-6.9-21.2-14.6-31-23
							c-20-17-37.2-36.3-51.3-57.4c-14.6-21.8-25.1-44.5-31.3-67.6c-27.1,30.1-36.4,60.7-26.3,86.3c13,32.8,56,54.5,117.8,59.6l0,0
							l0,0c7,26.2,17,47.8,29.7,64.1c12.1,15.5,26.4,25.7,41.5,29.3c23.5,5.7,48.6-4.6,70.5-28.8C264.5,442.6,257,438.8,254.7,433.1
							z"/>
					</g>
					<g>
						<path class="st2" d="M220.6,474l0-0.1c-36.6-3-62-15.8-69.7-35.2c-6-15.1-0.5-33.3,15.6-51.1l-0.1-0.1
							c-8.2,9.1-13.7,18.2-16.3,27c-2.5,8.6-2.3,16.7,0.7,24.1C158.6,458.1,184,471,220.6,474z"/>
					</g>
					<g>
						<path class="st2" d="M169.8,450.8l0-0.1c-54.9-4.5-93-23.8-104.6-52.8c-9-22.7-0.7-50,23.4-76.7l-0.1-0.1
							c-12.3,13.6-20.5,27.3-24.4,40.6c-3.8,12.8-3.4,25,1,36.2C76.7,427,114.8,446.3,169.8,450.8z"/>
					</g>
					<g>
						<path class="st2" d="M179.8,458.9c2.4,0,4.9-0.1,7.4-0.2c11.9-0.6,24-2.5,36-5.7c12.3-3.3,24.7-8,36.7-14.1l0-0.1
							c-46.8,23.4-97.3,26.2-138.5,7.7c-37.9-17-65.1-50.4-76.8-93.8l-0.1,0c11.6,43.5,38.9,76.8,76.8,93.9
							c10,4.5,20.6,7.8,31.6,9.8C161.6,458.1,170.7,458.9,179.8,458.9z"/>
					</g>
					<g>
						<path class="st2" d="M206.2,434.9c16,0,32.1-1.7,47.9-5l0-0.1c-16,3.4-32,5-47.8,5c-90.9,0-173.1-54-194.6-134.4l-0.1,0
							c6.2,23.1,17.4,44.4,33.3,63.3c7.6,9.1,16.4,17.6,25.9,25.2c9.5,7.6,19.8,14.4,30.8,20.2c11,5.9,22.6,10.8,34.7,14.7
							c12.2,4,24.8,6.9,37.6,8.7C184.6,434.1,195.4,434.9,206.2,434.9z"/>
					</g>
				</g>
				<g>
					<g>
						<path class="st2" d="M259.4,418.1c-23.2-1.9-46.9-8.3-70.4-18.9c-11.3-5.1-22.5-11.2-33.4-18.2c-10.7-6.9-21.2-14.6-31-23
							c-20-17-37.2-36.3-51.3-57.4C58.7,278.8,48.2,256,42,233l0,0l0,0c15.7-17.4,36.5-33.9,61.7-48.9
							c24.3-14.5,51.8-27.1,81.6-37.4c29.8-10.3,60.4-17.8,91.1-22.2c31.7-4.6,62-5.8,90.1-3.5l0,0l0,0c6.2,23.1,9.6,48.3,10.3,74.9
							c0.6,25.7-1.4,51.7-6.1,77.2c-4.6,25.5-11.6,49.2-20.7,70.5c-9.5,22.1-20.8,40.5-33.8,54.9l0,0l0,0
							C296,396.9,270.6,405.6,259.4,418.1L259.4,418.1L259.4,418.1z M316,398.4c25.7-28.4,45-73,54.5-125.3
							c9.5-52.4,8-106.4-4.2-152c-114.6-9.4-260.1,40.9-324.3,112c25.2,94.2,122.7,177.2,217.3,185c10.3-11.4,32.6-19.8,51.7-19.8
							C312.8,398.2,314.4,398.3,316,398.4z"/>
					</g>
					<g>
						<path class="st2" d="M166.6,387.6c37.9-42.1,123.9-71.7,191.7-66.2l0-0.1c-16.6-1.4-34.5-0.7-53.3,2.1
							c-18.1,2.6-36.2,7.1-53.8,13.2c-17.6,6.1-33.8,13.5-48.2,22.1C188.1,367.5,175.8,377.2,166.6,387.6L166.6,387.6z"/>
					</g>
					<g>
						<path class="st2" d="M88.6,321.2c56.9-63.1,186-107.7,287.8-99.4l0-0.1c-24.9-2-51.8-1-79.9,3.1c-27.2,4-54.4,10.6-80.8,19.7
							c-26.4,9.1-50.8,20.3-72.4,33.2C120.9,291.1,102.5,305.7,88.6,321.2L88.6,321.2z"/>
					</g>
					<g>
						<path class="st2" d="M274.6,407.1L274.6,407.1c-26.6-17.7-56.4-52-83.8-96.7c-27.5-44.7-49.3-94.5-61.5-140.2l-0.1,0
							c6.2,23.1,14.8,47.2,25.6,71.7c10.5,23.7,22.5,46.7,35.9,68.5c13.4,21.8,27.3,41.1,41.5,57.6
							C246.9,385,261.1,398.2,274.6,407.1z"/>
					</g>
					<g>
						<path class="st2" d="M294.9,400l0.1,0c-2-54.6-24.2-175.8-49.4-270.1l-0.1,0C270.7,224.3,292.9,345.4,294.9,400z"/>
					</g>
				</g>
				<g>
					<g>
						<path class="st2" d="M457.9,267C432.6,172.7,335.1,89.8,240.5,82l-0.1,0l0.1-0.1c4.7-5.2,6.4-10.6,4.6-15
							c-2.3-5.7-9.7-9.5-20.5-10.4l-0.1,0l0.1-0.1c11.2-12.4,23.1-21.2,35.3-26.1c11.8-4.7,23.7-5.7,35.3-2.9
							c7.5,1.8,14.9,5.2,21.8,10.1c7,4.9,13.6,11.4,19.7,19.2c6.2,8,11.8,17.3,16.7,27.9c5.1,10.9,9.4,23,12.9,36.2
							c15.8,1.3,30.5,3.7,43.7,7.1c12.9,3.3,24.6,7.6,34.6,12.8c9.9,5.1,18.2,11.1,24.9,17.8c6.6,6.6,11.5,14,14.7,21.9
							c5,12.6,5.4,26.3,1.1,40.8C481.1,236.3,471.8,251.7,457.9,267L457.9,267L457.9,267z M224.7,56.4c10.8,0.9,18.3,4.7,20.5,10.4
							c1.8,4.5,0.2,9.8-4.5,15.1c23.1,1.9,46.8,8.3,70.3,18.9c11.3,5.1,22.5,11.2,33.4,18.2c10.7,6.9,21.2,14.6,31,23
							c20,17,37.2,36.3,51.3,57.4c14.6,21.8,25.1,44.5,31.3,67.6c27.1-30.1,36.4-60.7,26.3-86.3c-13-32.8-56-54.5-117.8-59.6l0,0
							l0,0c-7-26.2-17-47.8-29.7-64.1c-12.1-15.5-26.4-25.7-41.5-29.3c-4.2-1-8.5-1.5-12.8-1.5C262.7,26,242.6,36.5,224.7,56.4z"/>
					</g>
					<g>
						<path class="st2" d="M411.4,178.8c12.3-13.6,20.5-27.3,24.4-40.6c3.8-12.8,3.4-25-1-36.2c-11.5-29.1-49.7-48.4-104.6-52.9
							l0,0.1c54.9,4.5,93,23.8,104.6,52.8C443.8,124.8,435.4,152,411.4,178.8L411.4,178.8z"/>
					</g>
					<g>
						<path class="st2" d="M333.4,112.4c8.2-9.1,13.7-18.2,16.3-27c2.5-8.6,2.3-16.7-0.7-24.1C341.3,41.8,315.9,29,279.3,26l0,0.1
							c36.6,3,62,15.8,69.7,35.2C355,76.4,349.4,94.6,333.4,112.4L333.4,112.4z"/>
					</g>
					<g>
						<path class="st2" d="M455.4,147.2l0.1,0c-11.6-43.5-38.9-76.8-76.8-93.9c-10-4.5-20.6-7.8-31.6-9.8c-11.1-2-22.6-2.8-34.3-2.3
							c-11.9,0.6-24,2.5-36,5.7c-12.3,3.3-24.7,8-36.7,14.1l0,0.1c46.8-23.4,97.3-26.2,138.5-7.7
							C416.5,70.4,443.8,103.7,455.4,147.2z"/>
					</g>
					<g>
						<path class="st2" d="M488.2,199.6l0.1,0c-6.2-23.1-17.4-44.4-33.3-63.3c-7.6-9.1-16.4-17.6-25.9-25.2
							c-9.5-7.6-19.8-14.4-30.8-20.2c-11-5.9-22.6-10.8-34.7-14.7c-12.2-4-24.8-6.9-37.6-8.7c-26.6-3.8-53.6-2.9-80.2,2.8l0,0.1
							c16-3.4,32-5,47.8-5C384.6,65.2,466.7,119.2,488.2,199.6z"/>
					</g>
				</g>
				<g>
					<g>
						<path class="st2" d="M133.5,379.1L133.5,379.1L133.5,379.1c-6.2-23.1-9.7-48.3-10.3-75c-0.6-25.7,1.4-51.7,6.1-77.2
							c4.6-25.5,11.6-49.2,20.7-70.5c9.5-22.1,20.8-40.5,33.8-54.9l0,0l0,0c20,1.6,45.4-7.1,56.6-19.5l0,0l0,0
							c23.2,1.9,46.9,8.3,70.4,18.9c11.3,5.1,22.5,11.2,33.4,18.2c10.7,6.9,21.2,14.6,31,23c20,17,37.2,36.3,51.3,57.4
							c14.6,21.8,25.1,44.6,31.3,67.7l0,0l0,0c-15.7,17.4-36.5,33.9-61.7,48.9c-24.3,14.5-51.8,27.1-81.6,37.4
							c-29.8,10.3-60.4,17.8-91.1,22.2c-21.2,3.1-41.8,4.7-61.5,4.7C152.4,380.2,142.8,379.8,133.5,379.1z M240.6,82
							c-11.2,12.4-36.6,21.2-56.6,19.6c-25.7,28.4-45,73-54.5,125.3c-9.5,52.4-8,106.4,4.2,152c114.6,9.4,260.1-40.9,324.3-112
							C432.6,172.7,335.2,89.8,240.6,82z"/>
					</g>
					<g>
						<path class="st2" d="M148.9,279.2c17.5,0,35.8-1.4,54.6-4.1c27.2-4,54.4-10.6,80.8-19.7c26.4-9.1,50.8-20.3,72.4-33.2
							c22.4-13.3,40.8-27.9,54.7-43.4l-0.1-0.1c-56.9,63.1-186,107.7-287.8,99.4l0,0.1C131.8,278.9,140.3,279.2,148.9,279.2z"/>
					</g>
					<g>
						<path class="st2" d="M158.5,179.3c11.7,0,23.8-0.9,36.4-2.8c18.1-2.6,36.2-7.1,53.8-13.2c17.6-6.1,33.8-13.5,48.2-22.1
							c14.9-8.9,27.2-18.6,36.5-28.9l-0.1-0.1c-37.9,42.1-123.9,71.8-191.7,66.2l0,0.1C147.1,179.1,152.8,179.3,158.5,179.3z"/>
					</g>
					<g>
						<path class="st2" d="M370.7,329.8l0.1,0c-6.2-23.1-14.8-47.2-25.6-71.7c-10.5-23.7-22.5-46.7-35.9-68.5
							c-13.4-21.8-27.3-41.1-41.5-57.6c-14.7-17-28.9-30.2-42.4-39.1l-0.1,0.1c26.6,17.6,56.4,51.9,83.9,96.7
							C336.6,234.4,358.5,284.1,370.7,329.8z"/>
					</g>
					<g>
						<path class="st2" d="M254.3,370l0.1,0c-25.2-94.3-47.4-215.4-49.4-270l-0.1,0C207,154.6,229.1,275.7,254.3,370z"/>
					</g>
				</g>
				<g>
					<g>
						<path class="st2" d="M133.5,379.1c-15.8-1.3-30.5-3.7-43.8-7.1c-12.9-3.3-24.6-7.6-34.6-12.8c-9.9-5.1-18.2-11.1-24.9-17.8
							c-6.6-6.6-11.5-14-14.7-21.9c-5-12.6-5.4-26.3-1.1-40.8c4.4-15,13.6-30.3,27.5-45.7c-6.3-23.5-7.7-45.9-4.1-66.5
							c1.7-9.9,4.6-19.4,8.5-28.1c3.9-8.6,8.9-16.6,14.8-23.7c5.7-6.9,12.4-13,19.8-18.2c7.5-5.2,15.8-9.6,24.7-12.9
							c18.5-6.9,39.5-9.5,62.2-7.6l0.1,0L168,76c-4.7,5.2-6.4,10.6-4.6,15c2.3,5.7,9.7,9.5,20.5,10.4l0.1,0l-0.1,0.1
							c-25.7,28.4-45,73-54.5,125.4C119.9,279.3,121.4,333.3,133.5,379.1L133.5,379.1L133.5,379.1z M163.3,91.1
							c-1.8-4.5-0.2-9.8,4.5-15.1c-44.9-3.6-82.7,10.1-106.6,38.6c-24.8,29.7-31.6,71.7-19.2,118.3l0,0l0,0
							c-27.2,30.1-36.5,60.8-26.4,86.4c13,32.8,55.9,54.5,117.8,59.6c-6.2-23.1-9.6-48.3-10.2-74.9c-0.6-25.7,1.4-51.7,6.1-77.2
							c4.6-25.5,11.6-49.2,20.7-70.5c9.4-22,20.8-40.5,33.7-54.8C173,100.6,165.5,96.8,163.3,91.1z"/>
					</g>
					<g>
						<path class="st2" d="M123.6,278.2l0-0.1c-54.9-4.5-93-23.8-104.6-52.8c-9-22.7-0.7-50,23.4-76.7l-0.1-0.1
							c-12.3,13.6-20.5,27.3-24.4,40.6c-3.8,12.8-3.4,25,1,36.2C30.5,254.4,68.6,273.7,123.6,278.2z"/>
					</g>
					<g>
						<path class="st2" d="M141.6,178.7l0-0.1c-36.6-3-62-15.8-69.7-35.2c-6-15.1-0.5-33.3,15.6-51.1l-0.1-0.1
							c-8.2,9.1-13.7,18.2-16.3,27c-2.5,8.6-2.3,16.7,0.7,24.1C79.6,162.8,105,175.7,141.6,178.7z"/>
					</g>
					<g>
						<path class="st2" d="M44.4,352.8l0.1,0C19.3,258.5,74.9,143.8,168.4,97l0-0.1c-22.9,11.5-43.9,27.1-62.4,46.5
							c-8.9,9.3-17.2,19.5-24.6,30.2C74,184.2,67.4,195.4,61.8,207c-5.6,11.6-10.3,23.6-13.9,35.7c-3.7,12.2-6.3,24.6-7.9,36.9
							C36.8,305.1,38.3,329.7,44.4,352.8z"/>
					</g>
					<g>
						<path class="st2" d="M11.6,300.4l0.1,0C0.6,258.8,7.3,215,30.5,177.1c27.5-44.8,75.6-77.3,132.1-89.3l0-0.1
							c-14.4,3.1-28.5,7.5-41.7,13.1c-12.9,5.5-25.2,12.2-36.5,20c-11.1,7.6-21.3,16.3-30.4,25.8C45,156,37,166.2,30.4,177
							C19,195.6,11.6,215.5,8.3,236.2C4.8,257.6,5.9,279.2,11.6,300.4z"/>
					</g>
				</g>
				<g>
					<g>
						<path class="st2" d="M42,233c-6.3-23.5-7.7-45.9-4.1-66.5c1.7-9.9,4.6-19.4,8.5-28.1c3.9-8.6,8.9-16.6,14.8-23.7
							c5.7-6.9,12.4-13,19.8-18.2c7.5-5.2,15.8-9.6,24.7-12.9c18.5-6.9,39.5-9.5,62.2-7.6c11.2-12.4,36.6-21.2,56.6-19.6
							c11.2-12.4,23.1-21.2,35.3-26c11.8-4.7,23.7-5.7,35.3-2.9c7.5,1.8,14.9,5.2,21.8,10.1c7,4.9,13.6,11.4,19.7,19.2
							c6.2,8,11.8,17.3,16.7,27.9c5.1,10.9,9.4,23.1,12.9,36.2l0,0.1l-0.1,0c-9.3-0.8-18.7-1.1-28.4-1.1
							C228.7,119.9,101.1,167.6,42,233L42,233L42,233z M366.3,120.9c-7-26.2-17-47.7-29.7-64c-12.1-15.5-26.4-25.7-41.5-29.3
							c-23.6-5.7-48.6,4.6-70.6,28.9l0,0l0,0c-20-1.6-45.4,7.1-56.6,19.5l0,0l0,0c-44.9-3.7-82.8,10-106.7,38.6
							c-24.8,29.7-31.6,71.7-19.2,118.2c15.7-17.4,36.4-33.8,61.6-48.8c24.3-14.5,51.8-27.1,81.6-37.4
							c29.8-10.3,60.4-17.8,91.1-22.2c21.2-3.1,41.8-4.7,61.5-4.7C347.5,119.7,357.1,120.1,366.3,120.9z"/>
					</g>
					<g>
						<path class="st2" d="M42.4,148.6c56.9-63.1,186-107.7,287.8-99.4l0-0.1c-24.9-2-51.8-1-79.9,3.1c-27.2,4-54.4,10.6-80.8,19.7
							c-26.4,9.1-50.8,20.3-72.4,33.2C74.7,118.5,56.3,133.1,42.4,148.6L42.4,148.6z"/>
					</g>
					<g>
						<path class="st2" d="M87.6,92.3c37.9-42.1,123.9-71.7,191.7-66.2l0-0.1c-16.6-1.4-34.5-0.7-53.3,2.1
							c-18.1,2.6-36.2,7.1-53.8,13.2c-17.6,6.1-33.8,13.5-48.2,22.1C109.1,72.2,96.8,81.9,87.6,92.3L87.6,92.3z"/>
					</g>
					<g>
						<path class="st2" d="M129.1,170.2l0.1,0c-15.2-56.9-13-99,6-112.7c11.4-8.2,27.9-5.5,47.8,7.7l0.1-0.1
							c-20-13.2-36.6-15.9-48-7.6c-4.6,3.3-8.2,8.3-10.9,14.9c-2.7,6.6-4.3,14.8-4.9,24.3c-0.6,9.7-0.1,20.8,1.5,32.9
							C122.5,142,125.3,155.7,129.1,170.2z"/>
					</g>
					<g>
						<path class="st2" d="M245.5,130l0.1,0c-8.3-31-16.2-56.5-23-73.7c-6.5-16.8-11.8-25.4-15.2-24.9c-1.6,0.2-2.8,2.6-3.5,7
							c-0.7,4.5-0.9,11.1-0.6,19.7l0.1,0c-0.6-16.9,0.8-26.1,4-26.6c3.3-0.5,8.5,8.1,15.1,24.8C229.3,73.5,237.2,99,245.5,130z"/>
					</g>
				</g>
			</g>
			<g style="clip-path:url(#SVGID_00000004515785860114480630000004278807339388856459_);">
				<path class="st2" d="M230.2,474.7c-1.1,0-2.1,0-3.1,0c-4.3,0-10-0.4-13.9-0.8c-8.5-0.8-19.5-2.4-27.2-3.7
					c-3.2-0.5-7.1-1.5-10.5-2.3c-1.1-0.3-2.1-0.5-3.1-0.7c-4.2-1-10.1-2.7-17.4-5.1c-4.4-1.5-10.1-3.6-13.9-5.2
					c-4.1-1.7-9.6-4.2-13.7-6.2c-6.1-3-10.9-5.6-14.1-7.6c-0.9-0.6-1.9-1.2-3-1.8c-3.4-2.1-7.3-4.4-10.2-6.5
					c-6.6-4.7-14.8-11.1-20.5-15.8c-9.3-7.8-19.7-19.6-22.7-23c-4.4-5.1-10.5-12.7-14.3-18.9l-0.2-0.4c-3.5-5.6-8.2-13.2-11.3-19
					c-2.5-4.5-5.4-10.6-7.2-15.2c-2.7-6.6-7.7-19.3-10.1-29.2l-0.2-0.9c-1.2-4.9-2.7-11-3.5-15.8c-1-6.1-2.4-15.2-2.9-22.1
					c-0.8-11-0.8-24.1,0.1-33.3c0.6-6.4,1.8-15.2,2.9-21.8c0.7-4.2,2-9.5,3.1-13.9c0.2-0.7,0.3-1.4,0.5-2c1.6-6.5,4.6-14.9,7-21.6
					c1.2-3.2,2.9-7.1,4.4-10.5c0.7-1.5,1.3-2.9,1.9-4.2c3.7-8.5,9.8-18.5,11.5-21.4c4.6-7.4,11.7-18,17.9-25.2
					c4.6-5.4,11.5-13,17.6-19.3c2.7-2.8,6.6-6.2,9.6-9l0.8-0.7C89,87.3,95.4,82.3,98,80.4c3.5-2.7,8.4-6.2,12.2-8.6l0.5-0.3
					c3-2,6.8-4.5,9.8-6.2c1-0.6,2.1-1.2,3.2-1.9c2.5-1.4,5-2.9,7.1-4c3.4-1.8,7.8-4.1,10.9-5.6c3.5-1.7,7.5-3.6,10.6-4.8
					c0.9-0.4,1.9-0.8,2.9-1.2c2.4-1,5.1-2.1,7.2-3c4.5-1.7,7.9-3,10.3-3.8c0.8-0.3,1.7-0.6,2.6-0.9c2.5-0.8,5.4-1.8,7.6-2.5
					c3.1-0.9,7.3-2.1,10.4-2.9c5.9-1.6,14.4-3.5,21.1-4.8c3-0.6,7.3-1.3,10.9-1.8c2.3-0.3,5.3-0.7,7.9-1c1.1-0.1,2.2-0.3,3.2-0.4
					c3.7-0.5,8.6-0.8,11.7-1c5.2-0.3,9.3-0.4,12.2-0.5c2.8,0,6.3,0,9.4,0c1.1,0,2.1,0,3.1,0c4.3,0,10,0.5,13.9,0.8
					c3.3,0,7.5,0.6,11.2,1.1c0.9,0.1,1.7,0.2,2.4,0.3c2.9,0.4,6.3,1,9.6,1.6c1.5,0.3,2.9,0.5,4.1,0.7c2.9,0.5,6.4,1.3,9.7,2.1
					c1.4,0.3,2.8,0.7,4,1c8.4,1.9,19.4,5.8,26.9,8.6c3.6,1.3,8.8,3.5,13.9,5.9c4.2,1.9,9.6,4.7,13.6,6.9
					c7.9,4.4,18.1,10.9,25.2,16.3c3.7,2.8,13.1,9.9,19.3,16.2c1,1,2.1,2.1,3.2,3.2c2.7,2.7,5.8,5.7,8.1,8.3
					c4.5,5.2,10.8,12.2,14.7,18c0.8,1.1,1.6,2.4,2.5,3.6c2.3,3.3,4.9,7,6.7,10.1c3.2,5.4,7.8,13.5,10.8,19.8
					c2,4.2,4.8,10.5,6.7,15.5c1.8,4.9,5.2,14.3,7,21.4l-0.1,0l0.1,0c2.7,10.6,5.2,24.1,6.2,33.5c1,9.4,1.3,22.4,0.8,32.4
					c-0.2,4.6-0.7,11.3-1.5,16.4c-0.9,6.3-2.5,14.4-3.8,20.9l-0.2,0.9c-1.3,6.3-3.8,15.1-6.6,22.3c-4.8,12.7-9.1,22.5-12.8,29.2
					c-3.4,6.2-8.7,14.9-13,21.5c-2.3,3.5-5.9,8.4-9.1,12.4c-1.7,2.2-6.2,7.6-9.8,11.7c-4.4,4.9-7.8,8.5-10.4,10.9
					c-1,0.9-2,1.9-3.1,2.9c-3.5,3.3-7.5,7-10.8,9.7c-6.1,5-14.5,11.3-20.8,15.7c-3.8,2.6-8.5,5.6-12,7.6c-0.7,0.4-1.6,0.9-2.4,1.4
					c-2.6,1.5-5.6,3.2-8,4.5c-2.5,1.4-6.2,3.3-10.9,5.6c-3.5,1.7-7.7,3.6-10.6,4.8c-0.9,0.4-1.9,0.8-2.9,1.2c-2.4,1-5.1,2.1-7.3,3
					c-4.4,1.7-7.9,3-10.3,3.8c-5.9,1.9-14.3,4.6-20.6,6.3c-3.2,0.8-7.4,1.9-10.5,2.6c-2.4,0.5-5.5,1.2-8.3,1.7
					c-0.8,0.2-1.6,0.3-2.4,0.5c-2.6,0.5-6.3,1.1-10.9,1.8c-2.3,0.3-5.3,0.7-7.9,1c-1.1,0.1-2.2,0.3-3.2,0.4c-3.1,0.4-7.7,0.8-11.7,1
					c-3.5,0.2-8.5,0.4-12.2,0.5c-0.9,0-1.8,0-2.8,0C234.6,474.7,232.3,474.7,230.2,474.7z M311.1,33.8c7.9,4.5,15.3,10.8,22.2,18.7
					c7,8.1,13.3,17.9,18.8,29.2c5.7,11.6,10.5,24.8,14.4,39.2c6.2,23.1,9.6,48.3,10.3,74.9c0.1,3,0.1,5.9,0.1,8.9
					c0,22.8-2.1,45.7-6.2,68.3c-4.6,25.5-11.6,49.2-20.7,70.5c-9.4,22-20.8,40.5-33.7,54.8c10.8,0.9,18.3,4.7,20.5,10.4
					c1.8,4.5,0.1,9.9-4.6,15.2c-10.3,11.4-32.6,19.8-51.7,19.8c-1.7,0-3.3-0.1-5-0.2c-10.8-0.9-18.4-4.7-20.6-10.4
					c-1.8-4.5-0.1-9.9,4.6-15.2c11.2-12.4,36.6-21.2,56.7-19.6c25.7-28.4,45-73,54.5-125.3c4.1-22.8,6.2-45.9,6.2-68.4
					c0-29.4-3.5-57.8-10.4-83.7c-0.2-0.7-0.4-1.4-0.6-2.1c-7.6-27.3-18.8-50.2-32.6-66.2c-13.7-15.9-29.7-25-46.5-26.4h0
					c-3.9-0.3-9.6-0.7-13.9-0.8c-1,0-2,0-3.1,0c-3.1,0-6.6-0.1-9.4,0c-2.9,0-7,0.2-12.2,0.5c-3,0.2-7.9,0.5-11.7,1
					c-1,0.1-2,0.2-3.2,0.4c-2.6,0.3-5.6,0.7-7.9,1c-3.7,0.5-7.9,1.2-10.9,1.8c-6.8,1.3-15.2,3.2-21.1,4.7c-3.1,0.8-7.3,2-10.4,2.9
					c-2.3,0.7-5.1,1.6-7.6,2.5c-0.9,0.3-1.8,0.6-2.6,0.9c-2.5,0.8-5.8,2-10.3,3.8c-2.2,0.8-4.9,2-7.2,3c-1,0.4-2,0.8-2.9,1.2
					c-3.1,1.3-7.1,3.2-10.5,4.8c-3.1,1.5-7.5,3.8-10.9,5.6c-2.1,1.2-4.7,2.6-7.1,4c-1.2,0.7-2.2,1.3-3.2,1.9c-3,1.7-6.8,4.2-9.8,6.2
					l-0.5,0.3c-3.8,2.5-8.7,5.9-12.2,8.6c-2.6,2-9,6.9-13.8,11.2l-0.8,0.7c-3.1,2.7-6.9,6.1-9.6,9c-6.1,6.3-13,13.8-17.6,19.3
					c-6.1,7.2-13.2,17.7-17.9,25.2c-1.8,2.9-7.9,12.9-11.5,21.4c-0.6,1.3-1.2,2.7-1.9,4.2c-1.5,3.4-3.3,7.3-4.4,10.5
					c-2.4,6.6-5.4,15.1-7,21.6c-0.2,0.6-0.3,1.3-0.5,2c-1.1,4.3-2.4,9.7-3.1,13.9c-1.2,6.7-2.3,15.4-2.9,21.8
					c-0.9,9.2-0.9,22.3-0.1,33.3c0.5,6.9,1.8,15.9,2.9,22.1c0.8,4.8,2.3,10.9,3.5,15.8l0.2,0.9c2.5,9.9,7.4,22.6,10.1,29.2
					c1.9,4.5,4.8,10.6,7.2,15.1c3.2,5.8,7.9,13.4,11.3,19l0.2,0.4c3.9,6.2,9.9,13.9,14.3,18.9c3,3.4,13.3,15.2,22.7,23
					c5.7,4.7,13.9,11.1,20.5,15.8c2.9,2.1,6.8,4.4,10.2,6.5c1.1,0.6,2.1,1.3,3,1.8c3.2,2,8,4.5,14.1,7.6c4.1,2,9.6,4.5,13.7,6.2
					c3.9,1.6,9.5,3.8,13.9,5.2c7.3,2.4,13.2,4.1,17.4,5.1c1,0.2,2,0.5,3.1,0.7c3.5,0.8,7.4,1.8,10.5,2.3c7.7,1.3,18.8,3,27.2,3.7
					c3.9,0.3,9.5,0.7,13.9,0.8c1,0,2,0,3.1,0c3.1,0,6.6,0.1,9.3,0c3.7-0.1,8.8-0.3,12.2-0.5c4-0.2,8.5-0.6,11.7-1
					c1-0.1,2-0.2,3.2-0.4c2.6-0.3,5.6-0.7,7.9-1c4.6-0.7,8.3-1.3,10.9-1.8c0.7-0.1,1.5-0.3,2.4-0.5c2.7-0.5,5.8-1.2,8.3-1.7
					c3.1-0.7,7.3-1.7,10.5-2.6c6.3-1.7,14.7-4.3,20.6-6.3c2.5-0.8,5.9-2.1,10.3-3.8c2.2-0.8,4.9-2,7.2-3c1-0.4,2-0.8,2.9-1.2
					c2.9-1.2,7-3.1,10.5-4.8c4.7-2.3,8.4-4.2,10.9-5.6c2.4-1.3,5.3-3,8-4.5c0.8-0.5,1.6-1,2.4-1.4c3.4-2,8.2-5,11.9-7.6
					c6.3-4.4,14.7-10.7,20.8-15.7c3.3-2.7,7.3-6.4,10.8-9.7c1.1-1,2.1-2,3.1-2.9c2.6-2.4,6-6,10.4-10.9c3.6-4,8.1-9.5,9.8-11.7
					c3.2-4,6.8-8.9,9.1-12.4c4.3-6.6,9.5-15.3,13-21.5c3.7-6.7,8-16.5,12.8-29.2c2.7-7.2,5.3-15.9,6.6-22.2l0.2-0.9
					c1.3-6.5,2.9-14.6,3.8-20.9c0.7-5.2,1.3-11.9,1.5-16.4c0.5-9.9,0.2-22.9-0.8-32.3c-1-9.4-3.5-22.9-6.2-33.5
					c-1.8-7.1-5.1-16.5-7-21.4c-1.8-5-4.6-11.3-6.7-15.5c-3-6.3-7.5-14.3-10.8-19.8c-1.8-3.1-4.4-6.8-6.7-10.1
					c-0.9-1.3-1.7-2.5-2.5-3.6c-3.9-5.8-10.2-12.9-14.7-18c-2.3-2.6-5.4-5.6-8.1-8.3c-1.2-1.1-2.2-2.2-3.2-3.2
					c-6.2-6.3-15.6-13.4-19.3-16.2c-7.2-5.4-17.3-11.9-25.2-16.3c-4-2.2-9.4-5-13.6-6.9c-5.1-2.4-10.3-4.6-13.9-5.9
					c-7.5-2.8-18.5-6.7-26.9-8.6c-1.2-0.3-2.6-0.6-4-1c-3.3-0.8-6.8-1.6-9.7-2.1c-1.3-0.2-2.7-0.5-4.1-0.7c-3.3-0.6-6.7-1.2-9.6-1.6
					c-0.8-0.1-1.6-0.2-2.4-0.3c-3.2-0.5-6.7-1-9.7-1.1C296,27.1,303.7,29.6,311.1,33.8z M259.4,418c-4.7,5.2-6.4,10.6-4.6,15
					c2.3,5.7,9.7,9.5,20.5,10.4c20,1.6,45.4-7.1,56.6-19.5c4.7-5.2,6.4-10.6,4.6-15c-2.3-5.7-9.7-9.5-20.5-10.4
					C296,396.9,270.6,405.6,259.4,418z"/>
			</g>
			
				<use xlink:href="#SVGID_00000056417825565976356420000003123135414184322433_"  style="overflow:visible;fill:none;stroke:#000000;stroke-width:2;stroke-miterlimit:10;"/>
		</g>
	</g>
</g>
</svg>
