<?xml version="1.0" encoding="utf-8"?>
<!-- Generator: Adobe Illustrator 27.5.0, SVG Export Plug-In . SVG Version: 6.00 Build 0)  -->
<svg version="1.1" id="Layer_1" xmlns="http://www.w3.org/2000/svg" xmlns:xlink="http://www.w3.org/1999/xlink" x="0px" y="0px"
	 viewBox="0 0 500 500" style="enable-background:new 0 0 500 500;" xml:space="preserve">
<style type="text/css">
	.st0{enable-background:new    ;}
	.st1{clip-path:url(#SVGID_00000029014014411944496610000012122228490888518322_);enable-background:new    ;}
	.st2{fill:none;stroke:#000000;stroke-width:2;stroke-miterlimit:10;}
	
		.st3{clip-path:url(#SVGID_00000029014014411944496610000012122228490888518322_);fill:none;stroke:#000000;stroke-width:2;stroke-miterlimit:10;}
	.st4{clip-path:url(#SVGID_00000030485343458842627590000000332787337755600809_);enable-background:new    ;}
	
		.st5{clip-path:url(#SVGID_00000030485343458842627590000000332787337755600809_);fill:none;stroke:#000000;stroke-width:2;stroke-miterlimit:10;}
	.st6{clip-path:url(#SVGID_00000168080571846776097460000015956745596725875848_);enable-background:new    ;}
	
		.st7{clip-path:url(#SVGID_00000168080571846776097460000015956745596725875848_);fill:none;stroke:#000000;stroke-width:2;stroke-miterlimit:10;}
	
		.st8{clip-path:url(#SVGID_00000080173719435254362350000017725077292929417884_);fill:none;stroke:#000000;stroke-width:2;stroke-miterlimit:10;}
	.st9{clip-path:url(#SVGID_00000124882312517271956460000007557423204440415372_);enable-background:new    ;}
	
		.st10{clip-path:url(#SVGID_00000124882312517271956460000007557423204440415372_);fill:none;stroke:#000000;stroke-width:2;stroke-miterlimit:10;}
	.st11{clip-path:url(#SVGID_00000056420871709834936720000000839472108264778647_);enable-background:new    ;}
	
		.st12{clip-path:url(#SVGID_00000056420871709834936720000000839472108264778647_);fill:none;stroke:#000000;stroke-width:2;stroke-miterlimit:10;}
	.st13{clip-path:url(#SVGID_00000043419607968193575470000015519433115865506489_);enable-background:new    ;}
	
		.st14{clip-path:url(#SVGID_00000043419607968193575470000015519433115865506489_);fill:none;stroke:#000000;stroke-width:2;stroke-miterlimit:10;}
	.st15{clip-path:url(#SVGID_00000054984018711014367650000009202451145424343741_);enable-background:new    ;}
	
		.st16{clip-path:url(#SVGID_00000054984018711014367650000009202451145424343741_);fill:none;stroke:#000000;stroke-width:2;stroke-miterlimit:10;}
	.st17{clip-path:url(#SVGID_00000111160684482697025950000018214473776391798180_);enable-background:new    ;}
	
		.st18{clip-path:url(#SVGID_00000111160684482697025950000018214473776391798180_);fill:none;stroke:#000000;stroke-width:2;stroke-miterlimit:10;}
	.st19{clip-path:url(#SVGID_00000180339010066173595530000009962608271827758254_);enable-background:new    ;}
	
		.st20{clip-path:url(#SVGID_00000180339010066173595530000009962608271827758254_);fill:none;stroke:#000000;stroke-width:2;stroke-miterlimit:10;}
</style>
<g>
	<g class="st0">
		<g class="st0">
			<defs>
				<path id="SVGID_1_" class="st0" d="M377.7,269c-20.1-33.1-40.2-66.2-60.3-99.4c-4-6.6-10.1-12.7-17.9-17.3
					c-13.2-7.8-28.3-10-40.9-6.8l0,0c-37.7,9.4-75.3,18.8-113,28.2c49.6-12.4,109.5-4,161.4,26.9C338,219,361.9,242.9,377.7,269z"/>
			</defs>
			<clipPath id="SVGID_00000033338129405774708860000009520599441531144576_">
				<use xlink:href="#SVGID_1_"  style="overflow:visible;"/>
			</clipPath>
			<g style="clip-path:url(#SVGID_00000033338129405774708860000009520599441531144576_);enable-background:new    ;">
				<g>
					<path class="st2" d="M378.2,411.1l-60.6-205.5c11.9-16.4,3.8-40.3-18-53.3l7.5,48.3C393.4,252,425.2,346.2,378.2,411.1z"/>
					<line class="st2" x1="374.3" y1="263.6" x2="316.6" y2="168.2"/>
				</g>
				<g>
					<path class="st2" d="M307.1,200.6l-7.5-48.3c-21.9-13-49.2-10.3-61.1,6.2L65.8,224.9C112.8,160,220.8,149.1,307.1,200.6z"/>
					<line class="st2" x1="216.6" y1="169.6" x2="276.6" y2="144.4"/>
				</g>
			</g>
			
				<path style="clip-path:url(#SVGID_00000033338129405774708860000009520599441531144576_);fill:none;stroke:#000000;stroke-width:2;stroke-miterlimit:10;" d="
				M377.7,269c-20.1-33.1-40.2-66.2-60.3-99.4c-4-6.6-10.1-12.7-17.9-17.3c-13.2-7.8-28.3-10-40.9-6.8l0,0
				c-37.7,9.4-75.3,18.8-113,28.2c49.6-12.4,109.5-4,161.4,26.9C338,219,361.9,242.9,377.7,269z"/>
			<use xlink:href="#SVGID_1_"  style="overflow:visible;fill:none;stroke:#000000;stroke-width:2;stroke-miterlimit:10;"/>
		</g>
		<g class="st0">
			<defs>
				<path id="SVGID_00000090255773658213249760000013853559526014494861_" class="st0" d="M317.4,169.6c7.2,11.8,7.8,25.5,0.1,36
					l60.6,205.5c30.2-41.6,27.8-95.4-0.5-142.1C357.6,235.8,337.5,202.7,317.4,169.6z"/>
			</defs>
			<clipPath id="SVGID_00000176760164704411122260000009085582626296358822_">
				<use xlink:href="#SVGID_00000090255773658213249760000013853559526014494861_"  style="overflow:visible;"/>
			</clipPath>
			<g style="clip-path:url(#SVGID_00000176760164704411122260000009085582626296358822_);enable-background:new    ;">
				<path class="st2" d="M378.2,411.1l-60.6-205.5c11.9-16.4,3.8-40.3-18-53.3l7.5,48.3C393.4,252,425.2,346.2,378.2,411.1z"/>
				<line class="st2" x1="399.8" y1="339.1" x2="323" y2="187.4"/>
			</g>
			
				<path style="clip-path:url(#SVGID_00000176760164704411122260000009085582626296358822_);fill:none;stroke:#000000;stroke-width:2;stroke-miterlimit:10;" d="
				M317.4,169.6c7.2,11.8,7.8,25.5,0.1,36l60.6,205.5c30.2-41.6,27.8-95.4-0.5-142.1C357.6,235.8,337.5,202.7,317.4,169.6z"/>
			
				<use xlink:href="#SVGID_00000090255773658213249760000013853559526014494861_"  style="overflow:visible;fill:none;stroke:#000000;stroke-width:2;stroke-miterlimit:10;"/>
		</g>
		<g class="st0">
			<defs>
				<path id="SVGID_00000068655521242192655570000001631804728114764985_" class="st0" d="M145.7,173.6
					c-32.8,8.2-61.2,25.5-79.9,51.3c-47,64.9-15.1,159.1,71.1,210.5c86.3,51.4,194.3,40.5,241.3-24.3l-60.6-205.5
					c-11.9,16.4-39.3,19.2-61.1,6.2c-21.9-13-29.9-36.9-18-53.3c4.7-6.5,11.9-10.9,20.2-13C221,154.8,183.3,164.2,145.7,173.6z"/>
			</defs>
			<clipPath id="SVGID_00000154406853199599738620000004738875031719429554_">
				<use xlink:href="#SVGID_00000068655521242192655570000001631804728114764985_"  style="overflow:visible;"/>
			</clipPath>
			<g style="clip-path:url(#SVGID_00000154406853199599738620000004738875031719429554_);enable-background:new    ;">
				<g>
					<path class="st2" d="M307.1,200.6l-7.5-48.3c-21.9-13-49.2-10.3-61.1,6.2L65.8,224.9C112.8,160,220.8,149.1,307.1,200.6z"/>
					<line class="st2" x1="130.1" y1="178.3" x2="254.7" y2="146.6"/>
				</g>
				<g>
					<path class="st2" d="M65.8,224.9l172.6-66.5c-11.9,16.4-3.8,40.3,18,53.3L136.9,435.4C50.6,384,18.8,289.8,65.8,224.9z"/>
					<line class="st2" x1="44.2" y1="296.9" x2="232.9" y2="176.7"/>
					<line class="st2" x1="69.7" y1="372.4" x2="239.4" y2="195.8"/>
				</g>
				<g>
					<path class="st2" d="M136.9,435.4l119.5-223.7c21.9,13,49.2,10.3,61.1-6.2l60.6,205.5C331.2,476,223.2,486.9,136.9,435.4z"/>
					<line class="st2" x1="227.4" y1="466.4" x2="279.4" y2="219.6"/>
					<line class="st2" x1="314" y1="457.7" x2="301.3" y2="217.4"/>
				</g>
			</g>
			
				<path style="clip-path:url(#SVGID_00000154406853199599738620000004738875031719429554_);fill:none;stroke:#000000;stroke-width:2;stroke-miterlimit:10;" d="
				M145.7,173.6c-32.8,8.2-61.2,25.5-79.9,51.3c-47,64.9-15.1,159.1,71.1,210.5c86.3,51.4,194.3,40.5,241.3-24.3l-60.6-205.5
				c-11.9,16.4-39.3,19.2-61.1,6.2c-21.9-13-29.9-36.9-18-53.3c4.7-6.5,11.9-10.9,20.2-13C221,154.8,183.3,164.2,145.7,173.6z"/>
			
				<use xlink:href="#SVGID_00000068655521242192655570000001631804728114764985_"  style="overflow:visible;fill:none;stroke:#000000;stroke-width:2;stroke-miterlimit:10;"/>
		</g>
		<g class="st0">
			<defs>
				<path id="SVGID_00000044136414080945689070000000295295175246773672_" class="st0" d="M192.9,299.4
					C106.6,248,74.8,153.8,121.8,88.9s155-75.8,241.3-24.3c86.3,51.4,118.1,145.7,71.1,210.5C387.2,340,279.2,350.9,192.9,299.4z
					 M317.6,205.6c11.9-16.4,3.8-40.3-18-53.3c-21.9-13-49.2-10.3-61.1,6.2c-11.9,16.4-3.8,40.3,18,53.3
					C278.3,224.8,305.7,222,317.6,205.6"/>
			</defs>
			<clipPath id="SVGID_00000181066914138829826430000001893916912180740494_">
				<use xlink:href="#SVGID_00000044136414080945689070000000295295175246773672_"  style="overflow:visible;"/>
			</clipPath>
			
				<path style="clip-path:url(#SVGID_00000181066914138829826430000001893916912180740494_);fill:none;stroke:#000000;stroke-width:2;stroke-miterlimit:10;" d="
				M192.9,299.4C106.6,248,74.8,153.8,121.8,88.9s155-75.8,241.3-24.3c86.3,51.4,118.1,145.7,71.1,210.5
				C387.2,340,279.2,350.9,192.9,299.4z M317.6,205.6c11.9-16.4,3.8-40.3-18-53.3c-21.9-13-49.2-10.3-61.1,6.2
				c-11.9,16.4-3.8,40.3,18,53.3C278.3,224.8,305.7,222,317.6,205.6"/>
			
				<use xlink:href="#SVGID_00000044136414080945689070000000295295175246773672_"  style="overflow:visible;fill:none;stroke:#000000;stroke-width:2;stroke-miterlimit:10;"/>
		</g>
		<g class="st0">
			<defs>
				<path id="SVGID_00000057840563632101206920000005094896906296161443_" class="st0" d="M433.7,133c-15.8-26.1-39.7-50-70.6-68.4
					c-51.9-30.9-111.7-39.3-161.4-26.9c-18.8,4.7-37.7,9.4-56.5,14.1c68.2-17,150.3-5.5,221.6,37c42.4,25.3,75.3,58.1,97,93.9
					C453.8,166.1,443.7,149.5,433.7,133z"/>
			</defs>
			<clipPath id="SVGID_00000019645132644839834010000012378934566312484517_">
				<use xlink:href="#SVGID_00000057840563632101206920000005094896906296161443_"  style="overflow:visible;"/>
			</clipPath>
			<g style="clip-path:url(#SVGID_00000019645132644839834010000012378934566312484517_);enable-background:new    ;">
				<g>
					<path class="st2" d="M434.2,275.1l30.3,102.8c64.5-89.1,20.8-218.5-97.7-289.1l-3.8-24.2C449.4,116,481.2,210.2,434.2,275.1z"
						/>
					<line class="st2" x1="430.3" y1="127.6" x2="459.2" y2="175.3"/>
				</g>
				<g>
					<path class="st2" d="M363.1,64.6l3.8,24.2C248.3,18.1,100,33.1,35.5,122.1l86.3-33.2C168.8,24,276.8,13.1,363.1,64.6z"/>
					<line class="st2" x1="272.6" y1="33.6" x2="242.6" y2="46.2"/>
				</g>
			</g>
			
				<path style="clip-path:url(#SVGID_00000019645132644839834010000012378934566312484517_);fill:none;stroke:#000000;stroke-width:2;stroke-miterlimit:10;" d="
				M433.7,133c-15.8-26.1-39.7-50-70.6-68.4c-51.9-30.9-111.7-39.3-161.4-26.9c-18.8,4.7-37.7,9.4-56.5,14.1
				c68.2-17,150.3-5.5,221.6,37c42.4,25.3,75.3,58.1,97,93.9C453.8,166.1,443.7,149.5,433.7,133z"/>
			
				<use xlink:href="#SVGID_00000057840563632101206920000005094896906296161443_"  style="overflow:visible;fill:none;stroke:#000000;stroke-width:2;stroke-miterlimit:10;"/>
		</g>
		<g class="st0">
			<defs>
				<path id="SVGID_00000106138688456392522450000004785202001387241883_" class="st0" d="M463.8,182.6
					c-10-16.6-20.1-33.1-30.1-49.7c28.4,46.8,30.7,100.5,0.5,142.1l30.3,102.8C506,320.7,502.8,246.9,463.8,182.6z"/>
			</defs>
			<clipPath id="SVGID_00000063609733998801454240000015010680370258563472_">
				<use xlink:href="#SVGID_00000106138688456392522450000004785202001387241883_"  style="overflow:visible;"/>
			</clipPath>
			<g style="clip-path:url(#SVGID_00000063609733998801454240000015010680370258563472_);enable-background:new    ;">
				<path class="st2" d="M434.2,275.1l30.3,102.8c64.5-89.1,20.8-218.5-97.7-289.1l-3.8-24.2C449.4,116,481.2,210.2,434.2,275.1z"/>
				<line class="st2" x1="455.8" y1="203.1" x2="494.2" y2="279"/>
			</g>
			
				<path style="clip-path:url(#SVGID_00000063609733998801454240000015010680370258563472_);fill:none;stroke:#000000;stroke-width:2;stroke-miterlimit:10;" d="
				M463.8,182.6c-10-16.6-20.1-33.1-30.1-49.7c28.4,46.8,30.7,100.5,0.5,142.1l30.3,102.8C506,320.7,502.8,246.9,463.8,182.6z"/>
			
				<use xlink:href="#SVGID_00000106138688456392522450000004785202001387241883_"  style="overflow:visible;fill:none;stroke:#000000;stroke-width:2;stroke-miterlimit:10;"/>
		</g>
		<g class="st0">
			<defs>
				<path id="SVGID_00000041260841629192287800000012871677458459946168_" class="st0" d="M201.7,37.6c-18.8,4.7-37.7,9.4-56.5,14.1
					c-45.1,11.2-84.1,35-109.7,70.4c-64.5,89.1-20.8,218.5,97.7,289.1c118.5,70.6,266.9,55.6,331.4-33.4l-30.3-102.8
					c-47,64.9-155,75.8-241.3,24.3C106.6,248,74.8,153.8,121.8,88.9C140.5,63.1,168.9,45.8,201.7,37.6z"/>
			</defs>
			<clipPath id="SVGID_00000115483315633881507940000008081840942939199380_">
				<use xlink:href="#SVGID_00000041260841629192287800000012871677458459946168_"  style="overflow:visible;"/>
			</clipPath>
			<g style="clip-path:url(#SVGID_00000115483315633881507940000008081840942939199380_);enable-background:new    ;">
				<g>
					<path class="st2" d="M363.1,64.6l3.8,24.2C248.3,18.1,100,33.1,35.5,122.1l86.3-33.2C168.8,24,276.8,13.1,363.1,64.6z"/>
					<line class="st2" x1="186" y1="42.3" x2="123.7" y2="58.2"/>
				</g>
				<g>
					<path class="st2" d="M121.8,88.9l-86.3,33.2c-64.5,89.1-20.8,218.5,97.7,289.1l59.8-111.8C106.6,248,74.8,153.8,121.8,88.9z"/>
					<line class="st2" x1="100.2" y1="160.9" x2="5.8" y2="221"/>
					<line class="st2" x1="125.7" y1="236.4" x2="40.8" y2="324.7"/>
				</g>
				<g>
					<path class="st2" d="M192.9,299.4l-59.8,111.8c118.5,70.6,266.9,55.6,331.4-33.4l-30.3-102.8
						C387.2,340,279.2,350.9,192.9,299.4z"/>
					<line class="st2" x1="283.4" y1="330.4" x2="257.4" y2="453.8"/>
					<line class="st2" x1="369.9" y1="321.7" x2="376.3" y2="441.8"/>
				</g>
			</g>
			
				<path style="clip-path:url(#SVGID_00000115483315633881507940000008081840942939199380_);fill:none;stroke:#000000;stroke-width:2;stroke-miterlimit:10;" d="
				M201.7,37.6c-18.8,4.7-37.7,9.4-56.5,14.1c-45.1,11.2-84.1,35-109.7,70.4c-64.5,89.1-20.8,218.5,97.7,289.1
				c118.5,70.6,266.9,55.6,331.4-33.4l-30.3-102.8c-47,64.9-155,75.8-241.3,24.3C106.6,248,74.8,153.8,121.8,88.9
				C140.5,63.1,168.9,45.8,201.7,37.6z"/>
			
				<use xlink:href="#SVGID_00000041260841629192287800000012871677458459946168_"  style="overflow:visible;fill:none;stroke:#000000;stroke-width:2;stroke-miterlimit:10;"/>
		</g>
		<g class="st0">
			<defs>
				<path id="SVGID_00000121244138885280787740000003859661565737918113_" class="st0" d="M36.2,317.4c10,16.6,20.1,33.1,30.1,49.7
					c15.8,26.1,39.7,50,70.6,68.4c51.9,31,111.7,39.3,161.4,26.9l0,0c18.8-4.7,37.7-9.4,56.5-14.1c-68.2,17-150.3,5.5-221.6-37
					C90.7,386,57.9,353.2,36.2,317.4z"/>
			</defs>
			<clipPath id="SVGID_00000160189697914910262310000013503656149328151472_">
				<use xlink:href="#SVGID_00000121244138885280787740000003859661565737918113_"  style="overflow:visible;"/>
			</clipPath>
			<g style="clip-path:url(#SVGID_00000160189697914910262310000013503656149328151472_);enable-background:new    ;">
				<g>
					<path class="st2" d="M35.5,122.1l30.3,102.8c-47,64.9-15.1,159.1,71.1,210.5l-3.8-24.2C14.7,340.7-29.1,211.2,35.5,122.1z"/>
					<line class="st2" x1="40.8" y1="324.7" x2="69.7" y2="372.4"/>
				</g>
				<g>
					<path class="st2" d="M133.2,411.3l3.8,24.2c86.3,51.4,194.3,40.5,241.3-24.3l86.3-33.2C400,466.9,251.7,481.9,133.2,411.3z"/>
					<line class="st2" x1="257.4" y1="453.8" x2="227.4" y2="466.4"/>
				</g>
			</g>
			
				<path style="clip-path:url(#SVGID_00000160189697914910262310000013503656149328151472_);fill:none;stroke:#000000;stroke-width:2;stroke-miterlimit:10;" d="
				M36.2,317.4c10,16.6,20.1,33.1,30.1,49.7c15.8,26.1,39.7,50,70.6,68.4c51.9,31,111.7,39.3,161.4,26.9l0,0
				c18.8-4.7,37.7-9.4,56.5-14.1c-68.2,17-150.3,5.5-221.6-37C90.7,386,57.9,353.2,36.2,317.4z"/>
			
				<use xlink:href="#SVGID_00000121244138885280787740000003859661565737918113_"  style="overflow:visible;fill:none;stroke:#000000;stroke-width:2;stroke-miterlimit:10;"/>
		</g>
		<g class="st0">
			<defs>
				<path id="SVGID_00000160185599759335530780000003418896315167551616_" class="st0" d="M66.3,367
					c-28.4-46.8-30.7-100.5-0.5-142.1c47-64.9,155-75.8,241.3-24.3c86.3,51.4,118.1,145.7,71.1,210.5l86.3-33.2
					c64.5-89.1,20.8-218.5-97.7-289.1C248.3,18.1,100,33.1,35.5,122.1c-41.4,57.2-38.2,131,0.7,195.2
					C46.2,333.9,56.3,350.5,66.3,367z"/>
			</defs>
			<clipPath id="SVGID_00000018930948560798475820000009512547322205192326_">
				<use xlink:href="#SVGID_00000160185599759335530780000003418896315167551616_"  style="overflow:visible;"/>
			</clipPath>
			<g style="clip-path:url(#SVGID_00000018930948560798475820000009512547322205192326_);enable-background:new    ;">
				<g>
					<path class="st2" d="M464.5,377.9l-86.3,33.2c47-64.9,15.1-159.1-71.1-210.5l59.8-111.8C485.3,159.3,529.1,288.8,464.5,377.9z"
						/>
					<line class="st2" x1="494.2" y1="279" x2="399.8" y2="339.1"/>
					<line class="st2" x1="459.2" y1="175.3" x2="374.3" y2="263.6"/>
				</g>
				<g>
					<path class="st2" d="M366.8,88.7l-59.8,111.8c-86.3-51.4-194.3-40.5-241.3,24.3L35.5,122.1C100,33.1,248.3,18.1,366.8,88.7z"/>
					<line class="st2" x1="242.6" y1="46.2" x2="216.6" y2="169.6"/>
					<line class="st2" x1="123.7" y1="58.2" x2="130.1" y2="178.3"/>
				</g>
				<g>
					<path class="st2" d="M35.5,122.1l30.3,102.8c-47,64.9-15.1,159.1,71.1,210.5l-3.8-24.2C14.7,340.7-29.1,211.2,35.5,122.1z"/>
					<line class="st2" x1="5.8" y1="221" x2="44.2" y2="296.9"/>
				</g>
			</g>
			
				<path style="clip-path:url(#SVGID_00000018930948560798475820000009512547322205192326_);fill:none;stroke:#000000;stroke-width:2;stroke-miterlimit:10;" d="
				M66.3,367c-28.4-46.8-30.7-100.5-0.5-142.1c47-64.9,155-75.8,241.3-24.3c86.3,51.4,118.1,145.7,71.1,210.5l86.3-33.2
				c64.5-89.1,20.8-218.5-97.7-289.1C248.3,18.1,100,33.1,35.5,122.1c-41.4,57.2-38.2,131,0.7,195.2C46.2,333.9,56.3,350.5,66.3,367
				z"/>
			
				<use xlink:href="#SVGID_00000160185599759335530780000003418896315167551616_"  style="overflow:visible;fill:none;stroke:#000000;stroke-width:2;stroke-miterlimit:10;"/>
		</g>
		<g class="st0">
			<defs>
				<path id="SVGID_00000166639043661628512670000010348226824676475569_" class="st0" d="M354.8,448.3
					c45.1-11.2,84.1-35,109.7-70.4l-86.3,33.2c-18.7,25.8-47.1,43.1-79.9,51.3C317.1,457.7,336,453,354.8,448.3z"/>
			</defs>
			<clipPath id="SVGID_00000176025209850906095250000005852490528880304043_">
				<use xlink:href="#SVGID_00000166639043661628512670000010348226824676475569_"  style="overflow:visible;"/>
			</clipPath>
			<g style="clip-path:url(#SVGID_00000176025209850906095250000005852490528880304043_);enable-background:new    ;">
				<path class="st2" d="M133.2,411.3l3.8,24.2c86.3,51.4,194.3,40.5,241.3-24.3l86.3-33.2C400,466.9,251.7,481.9,133.2,411.3z"/>
				<line class="st2" x1="376.3" y1="441.8" x2="314" y2="457.7"/>
			</g>
			
				<path style="clip-path:url(#SVGID_00000176025209850906095250000005852490528880304043_);fill:none;stroke:#000000;stroke-width:2;stroke-miterlimit:10;" d="
				M354.8,448.3c45.1-11.2,84.1-35,109.7-70.4l-86.3,33.2c-18.7,25.8-47.1,43.1-79.9,51.3C317.1,457.7,336,453,354.8,448.3z"/>
			
				<use xlink:href="#SVGID_00000166639043661628512670000010348226824676475569_"  style="overflow:visible;fill:none;stroke:#000000;stroke-width:2;stroke-miterlimit:10;"/>
		</g>
	</g>
</g>
</svg>
