<?xml version="1.0" encoding="utf-8"?>
<!-- Generator: Adobe Illustrator 27.5.0, SVG Export Plug-In . SVG Version: 6.00 Build 0)  -->
<svg version="1.1" id="Layer_1" xmlns="http://www.w3.org/2000/svg" xmlns:xlink="http://www.w3.org/1999/xlink" x="0px" y="0px"
	 viewBox="0 0 500 500" style="enable-background:new 0 0 500 500;" xml:space="preserve">
<style type="text/css">
	.st0{clip-path:url(#SVGID_00000078742052558371950240000002222696208040927380_);}
	.st1{fill:none;stroke:#000000;stroke-width:4;stroke-miterlimit:10;}
	.st2{fill:none;stroke:#000000;stroke-width:4;stroke-linecap:round;stroke-linejoin:round;stroke-miterlimit:10;}
	.st3{fill:none;stroke:#000000;stroke-width:4;stroke-linejoin:round;stroke-miterlimit:10;}
</style>
<g>
	<g>
		<defs>
			<rect id="SVGID_1_" y="139" transform="matrix(-1.836970e-16 1 -1 -1.836970e-16 500 5.684342e-14)" width="500" height="222"/>
		</defs>
		<clipPath id="SVGID_00000036232919974976301970000006730772374457789366_">
			<use xlink:href="#SVGID_1_"  style="overflow:visible;"/>
		</clipPath>
		<g style="clip-path:url(#SVGID_00000036232919974976301970000006730772374457789366_);">
			<g>
				<rect x="-30.3" y="2.3" class="st1" width="266.9" height="498.9"/>
				<line class="st1" x1="236.6" y1="455.8" x2="-30.3" y2="455.8"/>
				<line class="st1" x1="236.6" y1="410.5" x2="-30.3" y2="410.5"/>
				<line class="st1" x1="236.6" y1="365.1" x2="-30.3" y2="365.1"/>
				<line class="st1" x1="236.6" y1="319.8" x2="-30.3" y2="319.8"/>
				<line class="st1" x1="236.6" y1="274.4" x2="-30.3" y2="274.4"/>
				<line class="st1" x1="236.6" y1="229.1" x2="-30.3" y2="229.1"/>
				<line class="st1" x1="236.6" y1="183.7" x2="-30.3" y2="183.7"/>
				<line class="st1" x1="236.6" y1="138.4" x2="-30.3" y2="138.4"/>
				<line class="st1" x1="236.6" y1="93" x2="-30.3" y2="93"/>
				<line class="st1" x1="236.6" y1="47.7" x2="-30.3" y2="47.7"/>
				<line class="st1" x1="-6" y1="2.3" x2="-6" y2="501.2"/>
				<line class="st1" x1="18.2" y1="2.3" x2="18.2" y2="501.2"/>
				<line class="st1" x1="42.5" y1="2.3" x2="42.5" y2="501.2"/>
				<line class="st1" x1="66.8" y1="2.3" x2="66.8" y2="501.2"/>
				<line class="st1" x1="91" y1="2.3" x2="91" y2="501.2"/>
				<line class="st1" x1="115.3" y1="2.3" x2="115.3" y2="501.2"/>
				<line class="st1" x1="139.5" y1="2.3" x2="139.5" y2="501.2"/>
				<line class="st1" x1="163.8" y1="2.3" x2="163.8" y2="501.2"/>
				<line class="st1" x1="188.1" y1="2.3" x2="188.1" y2="501.2"/>
				<line class="st1" x1="212.3" y1="2.3" x2="212.3" y2="501.2"/>
			</g>
			<g>
				<polygon class="st2" points="-30.2,2.1 -296.9,-209.3 -296.9,712.8 -30.2,501.4 				"/>
				<line class="st1" x1="-30.2" y1="456" x2="-296.9" y2="629"/>
				<line class="st1" x1="-30.2" y1="410.6" x2="-296.9" y2="545.2"/>
				<line class="st1" x1="-30.2" y1="365.2" x2="-296.9" y2="461.3"/>
				<line class="st1" x1="-30.2" y1="319.8" x2="-296.9" y2="377.5"/>
				<line class="st1" x1="-30.2" y1="274.4" x2="-296.9" y2="293.7"/>
				<line class="st1" x1="-30.2" y1="229.1" x2="-296.9" y2="209.8"/>
				<line class="st1" x1="-30.2" y1="183.7" x2="-296.9" y2="126"/>
				<line class="st1" x1="-30.2" y1="138.3" x2="-296.9" y2="42.2"/>
				<line class="st1" x1="-30.2" y1="92.9" x2="-296.9" y2="-41.7"/>
				<line class="st1" x1="-30.2" y1="47.5" x2="-296.9" y2="-125.5"/>
				<line class="st1" x1="-255.4" y1="-176.4" x2="-255.4" y2="679.9"/>
				<line class="st1" x1="-219.3" y1="-147.8" x2="-219.3" y2="651.3"/>
				<line class="st1" x1="-187.8" y1="-122.8" x2="-187.8" y2="626.3"/>
				<line class="st1" x1="-160" y1="-100.7" x2="-160" y2="604.2"/>
				<line class="st1" x1="-135.3" y1="-81.1" x2="-135.3" y2="584.6"/>
				<line class="st1" x1="-113.2" y1="-63.6" x2="-113.2" y2="567.1"/>
				<line class="st1" x1="-93.3" y1="-47.8" x2="-93.3" y2="551.3"/>
				<line class="st1" x1="-75.3" y1="-33.6" x2="-75.3" y2="537.1"/>
				<line class="st1" x1="-58.9" y1="-20.6" x2="-58.9" y2="524.1"/>
				<line class="st1" x1="-43.9" y1="-8.7" x2="-43.9" y2="512.2"/>
			</g>
			<g>
				<polygon class="st3" points="236.5,2.1 503.2,-209.3 503.2,712.8 236.5,501.4 				"/>
				<line class="st1" x1="236.5" y1="456" x2="503.2" y2="629"/>
				<line class="st1" x1="236.5" y1="410.6" x2="503.2" y2="545.2"/>
				<line class="st1" x1="236.5" y1="365.2" x2="503.2" y2="461.3"/>
				<line class="st1" x1="236.5" y1="319.8" x2="503.2" y2="377.5"/>
				<line class="st1" x1="236.5" y1="274.4" x2="503.2" y2="293.7"/>
				<line class="st1" x1="236.5" y1="229.1" x2="503.2" y2="209.8"/>
				<line class="st1" x1="236.5" y1="183.7" x2="503.2" y2="126"/>
				<line class="st1" x1="236.5" y1="138.3" x2="503.2" y2="42.2"/>
				<line class="st1" x1="236.5" y1="92.9" x2="503.2" y2="-41.7"/>
				<line class="st1" x1="236.5" y1="47.5" x2="503.2" y2="-125.5"/>
				<line class="st1" x1="461.7" y1="-176.4" x2="461.7" y2="679.9"/>
				<line class="st1" x1="425.6" y1="-147.8" x2="425.6" y2="651.3"/>
				<line class="st1" x1="394.1" y1="-122.8" x2="394.1" y2="626.3"/>
				<line class="st1" x1="366.3" y1="-100.7" x2="366.3" y2="604.2"/>
				<line class="st1" x1="341.6" y1="-81.1" x2="341.6" y2="584.6"/>
				<line class="st1" x1="319.5" y1="-63.6" x2="319.5" y2="567.1"/>
				<line class="st1" x1="299.6" y1="-47.8" x2="299.6" y2="551.3"/>
				<line class="st1" x1="281.5" y1="-33.6" x2="281.5" y2="537.1"/>
				<line class="st1" x1="265.2" y1="-20.6" x2="265.2" y2="524.1"/>
				<line class="st1" x1="250.2" y1="-8.7" x2="250.2" y2="512.2"/>
			</g>
		</g>
	</g>
	
		<rect x="1.5" y="139" transform="matrix(-1.836970e-16 1 -1 -1.836970e-16 500 1.421085e-12)" class="st1" width="497.1" height="222"/>
</g>
</svg>
