<?xml version="1.0" encoding="utf-8"?>
<!-- Generator: Adobe Illustrator 27.5.0, SVG Export Plug-In . SVG Version: 6.00 Build 0)  -->
<svg version="1.1" id="Layer_1" xmlns="http://www.w3.org/2000/svg" xmlns:xlink="http://www.w3.org/1999/xlink" x="0px" y="0px"
	 viewBox="0 0 1200 800" style="enable-background:new 0 0 1200 800;" xml:space="preserve">
<style type="text/css">
	.st0{fill:none;stroke:#000000;stroke-width:3;stroke-miterlimit:10;}
</style>
<g>
	<path class="st0" d="M-1.1,294.7c54.1,3.6,100,5.4,135.3,6.3c26.6,0.7,46.9,1.1,75.5,1c54.9-0.1,96.4-2.2,123.7-3.4
		c80.2-3.4,52.1,0.8,310.2,0c105.2-0.3,139.7-1.1,196.8-1.4c22.2-0.1,44.4-0.1,66.6-0.1c98.8,0,197.6,1,296.4,2.8"/>
	<path class="st0" d="M-3.3,308.2c92.6,10,166.4,10.8,217.6,9.6c22.4-0.5,72.7-2.5,173.3-6.7c23.3-1,51-1.9,86.4-2.7
		c28.4-0.6,16.7-0.2,165.4-2.1c38.1-0.5,68.9-0.9,92.7-1.3c24.8-0.3,45.3-0.6,54.6-0.8c0.1,0,4.9-0.1,5.1-0.1
		c18-0.3,131,1.5,411.4,7"/>
	<path class="st0" d="M1203.3,325.4c-82.6-2.8-146.3-5.3-190.1-7c-52.9-2.1-79.3-3.3-91.6-3.9c-74.3-3.6-93.7-5.7-147.8-5.4
		c-42.5,0.2-104.7,3.9-229.3,11.4c-57.8,3.5-74.5,4.9-179.9,11.4c-51.9,3.2-113.5,6.9-140,8.3c-50.2,2.6-125.4,5.5-227.9,5.4"/>
	<path class="st0" d="M-3.3,369.2c7.1,0.9,18.1,2.2,31.7,3.1c56.3,3.6,80.4-4.5,159.2-9.8c23.8-1.6,45.2-2.3,82.2-3.9
		c47.6-2.1,60.5-2.2,110-5.4c58.2-3.8,142.1-10.1,221.3-17.6c10.9-1,30.6-2.9,58-5.2c38.1-3.1,80.1-6.5,121.9-7.8
		c52.7-1.6,91.2,0.8,139.3,3.6c2.7,0.2,5.6,0.3,8.9,0.5c18.1,1.2,34.7,2.5,50.1,3.8c41.3,3.5,95.6,9.6,95.6,9.6
		c30.1,3.4,73.4,8,128.4,13"/>
	<path class="st0" d="M1203.3,389.9c-80.8-7.4-148.9-12-201-15.1c-75.8-4.4-119.5-5.3-156-5.7c-104.7-1.2-138.4,5.4-312,15
		c-45.8,2.5-110.8,5.8-240.9,10.3c-69.6,2.4-171.4,5.5-296.7,7.5"/>
	<path class="st0" d="M-3.3,438.3c63.5,2.8,120.2,4,169,4.4c2.4,0,9.6,0.1,18.7,0.1c26.7,0,60.3-0.5,166.3-2.2
		c125.8-2.1,189.7-3.1,241.6-4.1c56.3-1.1,71-1.6,126.2-2.6c85.6-1.6,129.2-2.3,167.6-2.1c10.7,0.1,19.8,0.2,28.5,0.3
		c62.7,1.2,108.6,3,126.8,3.8c36,1.5,89.1,3.3,161.8,4.1"/>
	<path class="st0" d="M84.1,299c-13.7,18-27.9,29.9-38.7,37.5c-9.7,6.9-17.3,11.8-27.1,21.3C7.4,368.3,0.7,378.1-3.3,384.9"/>
	<path class="st0" d="M200.7,302c-4.8,8.3-12.7,19.9-25.5,32.4c-7.2,7-14.1,12.4-29,23.3c-20.5,15-30.7,22.4-47.2,33.2
		C78.3,404.4,46.5,433.8-3.3,501.8"/>
	<path class="st0" d="M319.6,299.2c-6,5.9-14.8,15.1-24,26.9c-9.1,11.8-10.4,15.8-18.1,25.4c-2.8,3.5-11.5,14.1-33.4,33.7
		c-26.3,23.6-28.5,21.6-42.8,35.7c-3.1,3.1-5.5,5.7-7.8,8.3c-13.1,15.2-25.6,34.7-25.6,34.7c-6.2,9.8-16,23.5-31.6,40.1"/>
	<path class="st0" d="M434.2,297.9c-2.4,5.5-5.9,13.4-10.2,23c-5.5,12.3-8.2,18.4-10.1,22.3c-2.4,4.7-9.6,18.3-21.8,34.7
		c-16.2,21.8-20,20.2-31.2,35.7c-12.1,16.8-23.7,54.2-24.7,57.5c-2.7,9.1-5.9,20.2-9.4,32.8"/>
	<path class="st0" d="M545,298.7c0.3,4.3,0.5,10.1,0.3,17c0,0-0.2,8.3-1.5,16c-2.8,17.4-10,26.9-16.7,40.9
		c-8.6,18.2-10.9,32.8-13.1,46.1c-3.4,21.5-2.2,38.2-1.5,47.7c1.2,15.5,3.9,28.7,6.5,38.8"/>
	<path class="st0" d="M656.3,298.6c0.3,1.1,0.8,2.7,1.4,4.7c3.5,10.9,8.3,18.1,9.4,21.2c2.6,7.3,2.1,10.9,2.2,29
		c0.1,21.4,0.1,32.1,1.5,42c1.5,11.1,3.9,19,7.2,30.6c4.5,15.3,9.1,26.5,15.3,41.4c3.9,9.6,9.3,22,16.2,36.4"/>
	<path class="st0" d="M767,297.9c-0.1,0.8-0.2,2.1,0.4,3.5c1,2.5,3.2,4,5.3,5.4c7.2,4.8,10.3,6.2,10.3,6.2c6.7,3.2,15.6,7.5,21.2,12
		c5,4.1,7,8.3,9.4,13.7c9,20.7,14.5,39.6,14.6,39.9c3.9,13.4,6.9,23.6,11.6,34.9c6.1,14.4,12.4,24.4,21.3,38
		c9,13.9,21.7,32,39.2,52.5"/>
	<path class="st0" d="M881.2,297.1c0.1,0.8,0.3,2.1,1.2,3.5c3.4,5.1,12.9,5.9,19.8,7.6c11.6,2.9,19.1,6.6,30.5,12.1
		c7.1,3.4,16.4,8,24.2,15.2c9.3,8.6,11.8,16.8,14.5,23.8c2.4,6.3,10.2,19,25.6,44.2c14.8,24.2,29.5,41.9,39.7,53.9
		c11.2,13.3,25.8,29.3,44.2,46.6"/>
	<path class="st0" d="M992.7,297.5c0.7,1,1.7,2.5,3.4,4.1c7,6.8,17.8,8.7,21.7,10c14,4.7,22.9,9.5,39.2,18.3
		c11.2,6.1,21.5,11.7,31.5,21.1c9.1,8.6,7.7,10.8,20.3,26.6c6.9,8.6,18.1,20.7,24.7,26.6c21.7,19.4,62.3,33.3,69.9,35.9"/>
</g>
</svg>
