<?xml version="1.0" encoding="utf-8"?>
<!-- Generator: Adobe Illustrator 27.5.0, SVG Export Plug-In . SVG Version: 6.00 Build 0)  -->
<svg version="1.1" id="Layer_1" xmlns="http://www.w3.org/2000/svg" xmlns:xlink="http://www.w3.org/1999/xlink" x="0px" y="0px"
	 viewBox="0 0 500 500" style="enable-background:new 0 0 500 500;" xml:space="preserve">
<style type="text/css">
	.st0{fill:none;stroke:#000000;stroke-width:3;stroke-miterlimit:10;}
	.st1{stroke:#000000;stroke-width:3;stroke-miterlimit:10;}
</style>
<g>
	<path class="st0" d="M160.3,23.2c-10.8,4.2-43.4,17.7-76.2,48C69,85.2,19.5,132.3,7.2,210.9c-11.3,72.3,15.6,127.2,29.5,155.5
		c9.8,20,30.2,60.3,73.7,92.2c15.1,11.1,38.5,27.8,72,32.2c8.9,1.2,29.3,3.8,52.4-2.2c5.6-1.5,10.8-3.3,32.2-9.3
		c10.6-2.9,16-4.5,22.4-6c13-3.1,14.6-2.9,32.2-6.5c9.3-1.9,20.3-4.3,34.4-8.2c9.4-2.6,15.3-4.2,22.9-7.1c0,0,16-6,30.6-14.7
		c16.8-10.1,49.6-43,68.7-92.2c15.2-38.9,32-113.9-3.3-192.1c-38.1-84.4-117.5-129.4-186-141.3C222.9-0.2,170.3,19.3,160.3,23.2z"/>
	
		<ellipse transform="matrix(0.8895 -0.4569 0.4569 0.8895 -32.6284 98.0266)" class="st1" cx="186.4" cy="116.5" rx="22.3" ry="14.3"/>
	<ellipse transform="matrix(0.9565 -0.2916 0.2916 0.9565 -26.4768 59.9941)" class="st0" cx="188" cy="118.8" rx="51.7" ry="41"/>
	
		<ellipse transform="matrix(0.9565 -0.2916 0.2916 0.9565 -28.2328 61.182)" class="st0" cx="191.1" cy="125.3" rx="96.1" ry="75.4"/>
	<path class="st0" d="M107.5,67.4c-8.2,7.7-28.6,27.4-38.2,59.5c-3.4,11.3-8.3,27.7-3.3,46.9c6.4,24.4,24.8,38.2,34.9,45.8
		c35.4,26.6,75.9,26.1,112.4,25.6c22.8-0.3,33.6-3.3,41.5-6.5c21.4-8.8,33.5-23.6,43.1-35.5c9.7-11.9,28-35.1,31.6-69.8
		c1-9.3,2.3-23.8-3.3-40.9c-11.4-35.1-41.9-51.3-49.1-55.1c-23-12.2-44-12.5-58.9-12.5C206.1,24.8,151.5,26,107.5,67.4z"/>
	<path class="st0" d="M111.5,272.9c8.2,3.8,32.6,14.2,80,15.6c46.9,1.4,70.3,2.1,96.4-11.6c34.5-18.2,51.3-49.2,64.4-73.5
		c8.9-16.5,17.5-32.7,20-56.4c1.1-10.3,4.8-44.3-15.6-75.3c-15.8-24-40.2-37.3-48.9-42c-2.5-1.4-4.6-2.4-6-3.1
		c-22.3-9.3-56-19.1-96.2-15c-77.2,7.9-129.1,61.7-150.3,99c-6.3,11.1-17,30.2-17.5,56.7c-0.4,20.5,5.5,36.1,8.2,42.4
		c8.5,20.1,21.2,32,28.9,39.1C78.9,252.6,91.2,263.5,111.5,272.9z"/>
	<path class="st0" d="M22.4,157.4c-0.2,0.4-0.4,1-0.7,1.8c-2.6,6.6-4.6,15.1-4,32.9c0.2,6.7,0.5,14.1,2,22
		c5.2,27.8,22.6,47.9,31.1,57.8c17.9,20.9,36.6,31.3,50.2,38.7c11.3,6.2,37.1,20,73.1,24c32.8,3.7,56.4-2.7,101-14.7
		c29.2-7.9,44.2-12.1,60-23.5c20.8-14.9,31.8-32.7,43.6-51.8c8.7-14,20.5-33.4,27.3-61.7c4.1-17,9.3-38.3,3.3-64.9
		c-5.8-25.8-19-42.8-26.2-51.8c-17.1-21.5-36.3-33.3-48-39.3l-20-9.7"/>
	<path class="st0" d="M8.1,205.5c-0.6,3.9-1.2,7.8-1.8,11.8c-0.1,3.7,0,7.9,0.5,12.6c0.5,4.3,1.2,8.2,2,11.6
		c3.4,13.8,10.4,35.1,25.6,57.3c13,18.9,26.3,30.3,34.4,37.1c11.3,9.6,30.6,25.6,60.6,35.5c10.8,3.6,26.9,8.9,48,8.2
		c24.3-0.8,29.1-8.8,67.7-19.6c32.1-9,32-4.4,61.1-13.1c23.1-6.9,42.3-12.8,62.7-27.8c23.6-17.4,35.6-37.5,45.8-54.6
		c10.1-16.9,22.6-38.2,27.3-69.3c5.1-33.7-1.9-59.8-3.8-66.6c-8.5-29.8-24.2-49.9-33.3-60l-12.6-14.4"/>
	<path class="st0" d="M4.5,242.5c2.1,8.6,4.2,17.3,6.2,25.9c1.3,7,3.3,17.1,6.5,29.2c2.3,8.5,3.7,13.7,6.3,20.5
		c1.4,3.7,6.3,15.7,15.8,29.5c2.5,3.7,11,15.5,25.9,28.6c9.4,8.3,32.5,28.2,68.7,38.2c13,3.6,30.6,8.2,52,4.1
		c3.7-0.7,9.4-2.6,20.8-6.5c28.2-9.6,33-13.4,55.4-20.2c12.1-3.7,20.6-5.6,26.7-6.8c9-1.8,13.6-2.2,20.7-3.3
		c9.2-1.4,28.1-4.2,43.9-10.1c15.8-5.9,25.9-13.8,37.1-22.6c10.1-8,32.9-26.2,51.6-58.4c21.4-36.8,25.1-70.4,25.9-79.4
		c1-11.3,2.8-33.7-4.9-61.4c-7.7-27.6-21.2-47.2-30-58.1c-4.7-5.3-9.3-10.6-14.1-16"/>
	<path class="st0" d="M473.1,149c2.6,8.9,6.1,21.9,9.8,38.1c1.2,5.1,1.5,6.7,1.6,7.6c2.8,15.5,1.6,28.5-0.5,43.1
		c-3.6,25-5.4,37.6-9.5,48.4c-6.1,16.3-13.6,26.8-24.6,41.6c-10.7,14.5-26.8,34.3-49.8,55.3c-7.7,4.1-15.4,8.3-23.1,12.4
		c-7.7,3-19.5,7.1-34.3,10.7c-26.1,6.4-30,3.4-56.6,9.6c-12.5,2.9-31,7.3-52.4,17.9c-11.1,5.5-10.9,6.6-19,9.9
		c-22.2,9-42.3,8.7-50.2,7.5c-27.8-4.3-53.4-12.8-78-28.9c-2.1-2.1-4.3-3.2-7.5-5.4c-6-5-12.3-10.8-18.7-17.5
		c-2.9-3.1-5.7-6.2-8.2-9.3c-1.5-1.4-3.2-3.4-4.8-5.8c-2.1-3.1-3.4-6.1-4.2-8.4c-1.7-3.2-3.4-6.4-5.1-9.6c-1.7-3.2-3.4-6.4-5.1-9.6
		c-1.2-1.7-2.5-3.8-3.7-6.2c-0.6-1.2-1.1-2.4-1.6-3.5"/>
	<path class="st0" d="M493.8,220.7c1.5,20.5,0.3,36.2-1.1,46.6c-0.9,7.2-1.9,12-2.4,14c-0.9,4.1-3.4,14.5-10,30.2
		c-2.6,6.1-9,20.5-20.2,37.8c-4.8,7.5-12.3,19-24.6,32.4c-7.3,8.1-18,19.5-34.9,30.6c-10.6,6.9-20.3,11.5-27.5,14.4
		c-7.5,2.4-13.6,3.8-17.8,4.7c-4.8,1-5.7,1-19.5,3.5c-9.5,1.7-9.6,1.8-17.3,3.1c-9.3,1.6-10.6,1.7-16.4,2.7
		c-11.1,1.9-16.6,2.9-22.6,4.5c-13.3,3.6-24.6,9-29.3,11.3c-3.3,1.6-8.1,4-14.7,6.5c-0.9,0.4-3.5,1.3-8.7,3.3
		c-3.7,1.4-5.3,2-7.5,2.7c0,0-3.5,1.2-6.5,2.2c-3.5,1.1-17,4.5-35.1,3.8c-18.1-0.6-31.7-5-37.9-7.3c-3.2-1.2-5.9-2.3-7.8-3.2
		c-6.2-1.6-10.8-3.6-13.9-5.2c-2.1-1.1-3.4-1.9-7.6-4.4c-4.8-2.8-8.7-4.9-11.3-6.4c-2.6-2.5-5.5-5.1-8.5-7.6
		c-2.7-2.2-5.3-4.3-7.8-6.2c-1.8-1.8-3.5-3.7-5.3-5.6c-1.4-1.5-2.7-3.1-4-4.5c-0.9-1.1-1.8-2.1-2.7-3.2c-1.4-1.6-2.7-3.3-3.9-4.9"/>
	<path class="st0" d="M144.9,479.9c8,2.2,33.2,8.6,57.3,7.8c5.2-0.2,13.5-0.5,24-3.3c6.7-1.8,8.6-3,17.5-6.3
		c17.6-6.5,17.2-4.9,37.5-11.3c17.9-5.6,21.2-6.9,30.2-8.9c10.8-2.4,12.5-1.8,26-4.7c2.2-0.5,12.5-2.7,26.2-6.7
		c13.2-3.9,19.8-5.9,27.5-9.5c11.2-5.3,18.8-11.1,23.8-14.9c8.1-6.2,29.8-28.7,56.2-61.6"/>
	<path class="st0" d="M171.5,109.9c-13.5-5-25.6-8.4-35.7-10.8c-17.9-4.3-29.5-7-44.6-6c-13.8,0.9-25.7,4.6-35.1,8.8"/>
	<path class="st0" d="M181.3,111.2c-10.9-8-21-14.2-29.5-18.9C136.7,83.9,127,78.5,113,75.9c-12.7-2.4-24.4-1.6-34,0.2"/>
	<path class="st0" d="M179,107.6c-8.1-10.4-15.9-18.9-22.7-25.5c-8.8-8.7-17.9-17.4-32.1-25.3c-5.5-3.1-10.3-5.3-13.8-6.7"/>
	<path class="st0" d="M182.7,107.4c-7.4-12.5-12.6-22.9-16-30.2c-5.4-11.6-8.7-20.1-16.2-32.7c-3.7-6.2-7.1-11-9.3-14.1"/>
	<path class="st0" d="M183.3,102.2c-2.1-12.1-3.8-22.4-5-30.5c-3.2-21.2-3.9-29.4-3.8-38.6c0.1-6.7,0.6-12.2,1-15.9"/>
	<path class="st0" d="M189.2,101.6c0.8-17.1,2.2-31.2,3.6-41.8c1.3-10,2.6-17,5.8-25.1c3.2-7.9,7.4-14.7,8.5-16.5
		c2.1-3.4,4.1-6.1,5.6-8.1"/>
	<path class="st0" d="M192.8,100.2c3.4-13.5,7.4-24.4,10.8-32.5c5.3-12.6,9.2-22,17.6-32.7c2.5-3.2,8.9-10.9,18.9-18.7
		c4.8-3.8,9.2-6.6,12.6-8.6"/>
	<path class="st0" d="M195.6,101.8c4.6-8.8,11.4-20.7,21.1-33.6c7-9.5,14.7-19.8,26-29.5c8.9-7.6,25.5-19.6,51.7-26.4"/>
	<path class="st0" d="M199.4,103c5.4-6,13.3-14.6,23.3-24.6c12-12,18.1-17.9,26.6-24.2c14.4-10.7,27.3-16.1,34.9-19.3
		c9.1-3.8,18.4-7.5,31.5-9.1c9.8-1.2,18.1-0.9,23.9-0.2"/>
	<path class="st0" d="M201,104.7c12.2-11.2,23.9-19.5,33.5-25.5c2.4-1.5,16.9-10.5,35.6-18.2c13.4-5.5,23.6-8.4,34.7-11.5
		c19.5-5.4,28.2-6.2,30.8-6.4c9.7-0.8,17.3-0.2,21.8,0.2c10.2,0.8,18.8,2.6,25.3,4.3"/>
	<path class="st0" d="M206.7,103.2"/>
	<path class="st0" d="M204.1,105.7c10.5-5.8,24.7-13,42-20c12.3-5,28.3-11.5,50.2-16.5c15.3-3.6,29.5-6.9,48.9-6.7
		c23.5,0.2,41.7,5.6,51.3,8.9c13.9,4.8,24.9,10.8,32.6,15.6"/>
	<path class="st0" d="M203.4,111.2c10.7-5.4,25.3-11.8,43.3-17c22.2-6.3,39.6-8,49.7-8.9c24.1-2.1,42.4-0.7,53.1,0.2
		c12.4,1,24.7,2.1,40.7,6.4c4.8,1.3,15.6,4.2,27.3,9.5c11.8,5.3,31.5,16.2,51.1,38.5"/>
	<path class="st0" d="M203.4,113.2c19.8-3.7,36.6-5.5,49.1-6.5c26.3-2.1,62-4.6,105,4.7c10.6,2.3,25.8,5.6,43.3,13.1
		c19.1,8.2,56.1,27.6,89.3,74.1"/>
	<path class="st0" d="M201.4,115.6c7.9-0.5,19-0.9,32.4-0.4c13.2,0.6,23,1.8,38,3.8c18.6,2.5,28,3.7,39.3,6.2
		c4.7,1,24.1,5.4,48.6,14.9c19.4,7.5,33.3,15,43.3,20.4c12.6,6.8,21,11.3,31.6,19.3c14.7,10.9,24,21,26.4,23.6
		c5.5,6.1,12.9,14.3,19.8,26.9c6.7,12.2,10.4,23.6,12.5,32.8"/>
	<path class="st0" d="M198.1,117c2.9,0.7,7.2,1.7,12.5,2.8c16.2,3.3,22.8,3.5,33.1,5.4c9.9,1.8,17.5,4.4,32.7,9.6
		c15.8,5.4,27.8,10.6,33.5,13.1c15.9,7.1,26.6,13.1,43.1,22.4c20.5,11.6,34.9,20.8,44.9,27.3c16.3,10.5,22,14.9,24.7,17.1
		c6.7,5.3,16.2,12.8,26.6,24.7c4.7,5.4,11.9,13.8,18.9,26.4c3.7,6.8,9.6,17.4,12.9,32.7c2.7,12.4,2.8,23.2,2.3,30.6"/>
	<path class="st0" d="M196.8,119.6c5.2,1.5,13,3.9,22.4,7.6c5,2,7.2,3.1,22.9,10.5c20.1,9.5,19.8,9.2,26.2,12.4
		c11.2,5.5,18.3,9,24.7,12.7c14.8,8.6,23,16.8,34.6,27.3c12,10.8,2.1,1,49.3,40.6c43.5,36.4,49,42.2,53.5,47.5
		c12,13.8,23.2,27,29.6,47.8c5.4,17.3,5.3,32.7,4.4,42.7"/>
	<path class="st0" d="M194.5,119c5.4,3.6,13.7,9.1,24,15.8c16.3,10.6,20.9,13.3,28.6,18.6c15.6,10.7,26.6,20.1,32,24.7
		c5.8,5,12.6,11.2,45.6,46c16.1,16.9,24.1,25.4,29.5,31.5c16.4,18.4,27.5,30.9,40.6,49.7c15.5,22.3,12.4,22.8,28.7,47.6
		c2.3,3.5,6.9,10.4,10.4,20.6c0.9,2.8,3.2,10.1,4.2,19.8c0.7,7,0.4,13.1-0.1,17.8"/>
	<path class="st0" d="M194.3,121.2c4.5,5,11.5,12.5,20.4,21.3c10.6,10.5,18.7,17.5,22.7,21.1c18.6,16.5,32.7,32.2,43.6,44.2
		c21.6,23.8,41,45.3,57.1,76.2c6,11.6,11.7,22.4,16.5,38.2c4.3,13.8,3.7,17.5,8.7,29.5c6.3,15.1,14.9,27,17.3,30.4
		c5.8,8,9.6,11.6,15.8,22c5.3,8.8,6.7,13.2,7.5,17.1c1.5,8.2-0.1,15.2-1.5,19.5"/>
	<path class="st0" d="M189.2,120.1c4.5,6.7,10.8,16,18.6,27.1c12,17.2,18,25.7,24.7,34c8.9,11,17.5,21.5,30.6,33.5
		c6.5,6,12.1,10.4,18.9,19.3c4.4,5.7,7.2,10.5,11.5,18c5.4,9.3,9.5,16.5,13.6,26.7c2.7,6.6,7.5,18.7,10,35.1
		c1.3,8.8,1.6,16.3,1.8,23.6c0.5,15.4-0.8,15.6,0.2,23.1c1.6,13.2,7,22.9,11.1,30.4c4.3,7.7,4.3,5.6,16.9,24.4
		c8.2,12.3,11.1,17.4,13.1,24.2c2.1,7,2.5,13.1,2.5,17.2"/>
	<path class="st0" d="M189.2,120.1c2,6.5,4.8,15.1,8.7,25.3c3.4,9,6.2,16.1,10.4,24.4c3.2,6.3,10,19.6,22.2,33.6
		c2,2.3,10.2,10.7,26.6,27.5c4.2,4.3,5.7,5.8,7.8,8.5c3.4,4.4,5.6,8.2,14,26.6c6.1,13.3,6.9,15.5,7.6,18.5c0.6,2.5,2.1,9.1,2,18.2
		c-0.1,8.5-1.6,14.6-6.7,32c-8.2,27.4-9.5,28.5-10,36.4c-0.8,12.2,1.6,22,3.1,26.9c3.9,13.1,10.7,22.3,17.6,31.8
		c6.1,8.3,8.5,9.8,14.4,18.7c5.1,7.6,8.5,14.3,10.8,19"/>
	<path class="st0" d="M188,118.8c0.2,7,0.8,16.9,2.3,28.8c1.5,12.1,2.3,18.1,4.5,25.8c4.6,15.6,12.1,27.5,17.5,34.6
		c5.5,7.3,5.1,4.9,21.1,22.7c13.1,14.6,16.3,19.5,17.6,21.6c3.1,4.9,8.2,13.2,11.5,25.1c1.6,5.8,4.2,15.3,2.7,26.4
		c-1.5,11.5-6.1,14.7-17.6,35.3c-9.5,17-14.3,25.5-17.1,37.1c-1.6,6.6-4.9,21.3-0.5,38.6c2.1,8.4,5.5,14.6,12.4,27.1
		c4.6,8.5,8,14.5,14.2,21.3c6.3,6.9,12.8,11.5,17.4,14.2"/>
	<path class="st0" d="M187.2,119.4c-2.4,10-3.6,18.9-4.2,26.2c-0.4,4.8-0.9,13.2-0.4,23.8c0.4,8.3,0.7,13.1,2.2,19.5
		c0.8,3.5,3.2,12.5,9.3,22.6c5.3,8.9,7.3,8.3,19.5,22.9c8.2,9.9,13.4,17.5,17.1,22.9c6.3,9.3,9.5,14,11.1,18.7
		c4.1,12.2,1.6,23.2,0.4,28.4c-1.7,7.1-3.6,9.9-20.9,37.8c-10,16.1-11.9,19.5-14.7,25.1c-4.3,8.7-7.8,16-10.2,26.6
		c-0.8,3.7-3,14.5-2,28.6c0.9,12.5,3.9,21.8,4.9,24.7c2.8,8.1,7,20,18,30.8c5.8,5.6,11.5,9.1,15.6,11.2"/>
	<path class="st0" d="M184.8,119.7c-3.7,10.2-6.4,18.8-8.4,25.1c-5.6,18.2-6.3,24.2-6.5,26.4c-1.3,11.5-0.1,20.4,0.4,23.1
		c1,6.4,2.6,17.3,9.6,28.2c4.7,7.3,6,5.7,14.9,17.6c5.4,7.3,9,13.4,11.1,16.9c4.9,8.3,7.3,12.5,8.7,16.9c3.7,11.6,1.7,21.9,0.7,26.7
		c-1.6,7.9-5.4,14.8-12.7,28.2c-4.6,8.3-8.6,15.1-13.1,22.2c-17.9,28.7-18.9,27.2-22.7,36.2c-7.5,17.8-7.4,33.3-7.3,37.3
		c0.4,16.4,5.5,28.4,8.2,34.6c6.7,15.4,15.9,26.1,22.6,32.6"/>
	<path class="st0" d="M181.9,119c-9.2,19.9-15.7,33.7-19.8,42.4c-6.1,12.8-9.9,20.8-10.4,32.6c-0.4,9.8,1.8,17.3,3.3,22.2
		c4.3,14.3,9.2,16.6,19.5,37.1c6.1,12.2,9.2,18.3,10.2,25.8c1.9,13.8-2.3,25.1-5.8,34.2c-1.1,2.9-4.5,11.3-19.3,32.4
		c-16.8,23.9-19,22.5-25.6,34.9c-5.2,9.8-12.5,23.6-11.6,41.8c0.8,15.6,7.2,27.2,12.2,36.2c6.2,11.3,13.3,19.4,18.6,24.8"/>
	<path class="st0" d="M177,125.6c-10.5,13.5-18.9,25.5-25.3,35.1c-16.1,24.2-19.5,33.6-19.8,43.8c-0.2,6,0.6,11.2,1.6,17.5
		c0.6,3.5,1.8,10,8.4,31.1c5.2,16.8,6.3,18.4,6.4,23.8c0.1,7.8-1.9,13.3-5.3,22.4c-1.9,5.2-6.9,17.6-17.6,32.7
		c-7.1,10.1-8.3,9.3-16.2,20.6c-5.6,8-10.2,14.5-14.2,23.8c-3.8,8.9-8.5,19.7-7.5,33.6c0.8,10.3,4.3,18.4,8.7,28.6
		c2.8,6.5,5.7,11.7,7.8,15.3"/>
	<path class="st0" d="M62.5,410.4c-2.3-6.2-5.2-16.9-4.5-30.2c0.2-3.6,1.2-15.9,8.2-29.8c5.9-11.9,9.7-11.9,22.4-30.4
		c7.3-10.6,11-15.9,14.2-23.6c6.8-16.4,7.1-31.5,7.1-40.7c0.1-13.5-2-14.6-1.6-29.8c0.3-11.8,0.5-18.4,2.9-26.4
		c3.8-12.2,11.1-20.5,25.8-37.1c5.6-6.3,10.8-11.6,19.5-20.4c6.5-6.5,11.9-11.9,15.8-15.6"/>
	<path class="st0" d="M173,121.8c-8.1,5.4-18,12.1-29.1,20c-12.5,8.8-15.9,11.6-17.3,12.7c-12.3,10.1-20.3,19-25.6,25.1
		c-8.4,9.5-12.6,14.4-15.8,21.5c-2.9,6.4-4.7,13.3-5.6,17.1c-1.3,5.1-1.9,8.5-3.1,15.6c-2.6,15.4-4,23.2-4.2,24.2
		c-2.1,9.5-5.9,17.3-13.5,32.6C48,312.4,46,312.1,42.3,321.6c-3.6,9.2-7.2,23.2-5.4,42.7"/>
	<path class="st0" d="M176.1,119.7c-11.6,3.9-26.3,9.7-42.6,18.2c-22,11.5-36.8,22.8-40.2,25.5c-13.4,10.4-24.6,19.1-35.8,34.2
		c-12.4,16.8-18.3,32.9-21.8,42.7c-3.8,10.5-6,19.8-9.1,32.6c-2.9,12.1-4.4,18.2-5.3,26c-0.9,8.3-1.5,20.8,1.1,36.3"/>
	<path class="st0" d="M176.1,118.1c-6.9,1.6-17.2,4-29.6,7.1c-13.3,3.3-20,5-24.9,6.5c-19.4,6.2-33.3,14.3-41.1,18.9
		c-16.4,9.7-28,19.5-34.7,25.6c-7.3,6.7-13.2,12.1-19.1,20.9c-6.2,9.2-9.1,17.1-12,25.3c-3.4,9.5-7.5,23.4-9.5,40.9"/>
	<path class="st0" d="M179.2,117.2c-9.2-0.5-21.5-0.6-35.8,0.7c-10.6,1-18.6,2.5-24.9,3.6c-14.3,2.6-25.2,4.7-38.9,10
		c-11.8,4.5-20.4,9.5-24.6,12c-6.3,3.8-16.8,10.2-27.8,21.6c-6.1,6.3-10.5,12.3-13.5,16.6"/>
	<path class="st0" d="M174.7,115.2c-7.6-2.1-16.2-3.8-25.6-4.7c-10.3-1.1-18.2-0.9-30.9-0.5c-12.7,0.3-19,0.5-26.2,1.5
		c-9.8,1.3-22.8,3.2-37.6,10.4c-9.2,4.5-16.2,9.6-21.2,13.8"/>
</g>
</svg>
