<?xml version="1.0" encoding="utf-8"?>
<!-- Generator: Adobe Illustrator 27.5.0, SVG Export Plug-In . SVG Version: 6.00 Build 0)  -->
<svg version="1.1" id="Layer_1" xmlns="http://www.w3.org/2000/svg" xmlns:xlink="http://www.w3.org/1999/xlink" x="0px" y="0px"
	 viewBox="0 0 500 500" style="enable-background:new 0 0 500 500;" xml:space="preserve">
<style type="text/css">
	.st0{enable-background:new    ;}
	
		.st1{clip-path:url(#SVGID_00000027587272292845583090000016032677971493026745_);fill:none;stroke:#000000;stroke-width:2;stroke-miterlimit:10;}
	
		.st2{clip-path:url(#SVGID_00000136392407579516536470000001879252667163459502_);fill:none;stroke:#000000;stroke-width:2;stroke-miterlimit:10;}
	.st3{clip-path:url(#SVGID_00000129180986130130564220000014472428591457646982_);enable-background:new    ;}
	.st4{fill:none;stroke:#000000;stroke-width:2;stroke-miterlimit:10;}
	
		.st5{clip-path:url(#SVGID_00000129180986130130564220000014472428591457646982_);fill:none;stroke:#000000;stroke-width:2;stroke-miterlimit:10;}
	.st6{clip-path:url(#SVGID_00000026123558955495187880000010546689127340183191_);enable-background:new    ;}
	
		.st7{clip-path:url(#SVGID_00000026123558955495187880000010546689127340183191_);fill:none;stroke:#000000;stroke-width:2;stroke-miterlimit:10;}
	.st8{clip-path:url(#SVGID_00000103255293976486523980000007438484157523334021_);enable-background:new    ;}
	
		.st9{clip-path:url(#SVGID_00000103255293976486523980000007438484157523334021_);fill:none;stroke:#000000;stroke-width:2;stroke-miterlimit:10;}
	.st10{clip-path:url(#SVGID_00000060731138838340236980000011565334688875120522_);enable-background:new    ;}
	
		.st11{clip-path:url(#SVGID_00000060731138838340236980000011565334688875120522_);fill:none;stroke:#000000;stroke-width:2;stroke-miterlimit:10;}
	.st12{clip-path:url(#SVGID_00000116948239268279625430000007834811149905245355_);enable-background:new    ;}
	
		.st13{clip-path:url(#SVGID_00000116948239268279625430000007834811149905245355_);fill:none;stroke:#000000;stroke-width:2;stroke-miterlimit:10;}
	.st14{clip-path:url(#SVGID_00000111890376457894136710000005228359008221960864_);enable-background:new    ;}
	
		.st15{clip-path:url(#SVGID_00000111890376457894136710000005228359008221960864_);fill:none;stroke:#000000;stroke-width:2;stroke-miterlimit:10;}
	.st16{clip-path:url(#SVGID_00000008142508524504911320000016280365774076976006_);enable-background:new    ;}
	
		.st17{clip-path:url(#SVGID_00000008142508524504911320000016280365774076976006_);fill:none;stroke:#000000;stroke-width:2;stroke-miterlimit:10;}
	.st18{clip-path:url(#SVGID_00000134210383048138180170000012197311919123070615_);enable-background:new    ;}
	
		.st19{clip-path:url(#SVGID_00000134210383048138180170000012197311919123070615_);fill:none;stroke:#000000;stroke-width:2;stroke-miterlimit:10;}
	.st20{clip-path:url(#SVGID_00000119115299863353096740000012633861925054063232_);enable-background:new    ;}
	
		.st21{clip-path:url(#SVGID_00000119115299863353096740000012633861925054063232_);fill:none;stroke:#000000;stroke-width:2;stroke-miterlimit:10;}
	.st22{clip-path:url(#SVGID_00000003099737556646815480000017694124572158804104_);enable-background:new    ;}
	
		.st23{clip-path:url(#SVGID_00000003099737556646815480000017694124572158804104_);fill:none;stroke:#000000;stroke-width:2;stroke-miterlimit:10;}
	.st24{clip-path:url(#SVGID_00000078760599878656469100000016761439516608182913_);enable-background:new    ;}
	
		.st25{clip-path:url(#SVGID_00000078760599878656469100000016761439516608182913_);fill:none;stroke:#000000;stroke-width:2;stroke-miterlimit:10;}
</style>
<g>
	<g class="st0">
		<g class="st0">
			<defs>
				<path id="SVGID_1_" class="st0" d="M281.6,269.7c-13-33-21.5-26.1-19,15.6c2.5,41.6,15.1,102.2,28.1,135.2
					c13,33,21.5,26.1,19-15.6C307.2,363.3,294.6,302.8,281.6,269.7z"/>
			</defs>
			<clipPath id="SVGID_00000090264500163573592260000002475875454350832790_">
				<use xlink:href="#SVGID_1_"  style="overflow:visible;"/>
			</clipPath>
			
				<path style="clip-path:url(#SVGID_00000090264500163573592260000002475875454350832790_);fill:none;stroke:#000000;stroke-width:2;stroke-miterlimit:10;" d="
				M281.6,269.7c-13-33-21.5-26.1-19,15.6c2.5,41.6,15.1,102.2,28.1,135.2c13,33,21.5,26.1,19-15.6
				C307.2,363.3,294.6,302.8,281.6,269.7z"/>
			<use xlink:href="#SVGID_1_"  style="overflow:visible;fill:none;stroke:#000000;stroke-width:2;stroke-miterlimit:10;"/>
		</g>
		<g class="st0">
			<defs>
				<path id="SVGID_00000136389229701514135000000013165143763688049596_" class="st0" d="M97.8,191.8c-53,5-93.9,42.9-91.4,84.5
					c2.5,41.6,47.5,71.3,100.5,66.3c53-5,93.9-42.9,91.4-84.5C195.8,216.4,150.8,186.7,97.8,191.8z"/>
			</defs>
			<clipPath id="SVGID_00000019676743719390670010000006682711506440704958_">
				<use xlink:href="#SVGID_00000136389229701514135000000013165143763688049596_"  style="overflow:visible;"/>
			</clipPath>
			
				<path style="clip-path:url(#SVGID_00000019676743719390670010000006682711506440704958_);fill:none;stroke:#000000;stroke-width:2;stroke-miterlimit:10;" d="
				M97.8,191.8c-53,5-93.9,42.9-91.4,84.5c2.5,41.6,47.5,71.3,100.5,66.3c53-5,93.9-42.9,91.4-84.5
				C195.8,216.4,150.8,186.7,97.8,191.8z"/>
			
				<use xlink:href="#SVGID_00000136389229701514135000000013165143763688049596_"  style="overflow:visible;fill:none;stroke:#000000;stroke-width:2;stroke-miterlimit:10;"/>
		</g>
		<g class="st0">
			<defs>
				<path id="SVGID_00000160176738577946261520000005593851890038353820_" class="st0" d="M197.9,253.4c0.1,0.9,0.2,2.1,0.3,2.9
					c-2.5-41.6-47.6-72.7-100.8-69.4c0.1,1.6,0.3,3.3,0.5,4.9C148.8,186.9,192.4,214.2,197.9,253.4z"/>
			</defs>
			<clipPath id="SVGID_00000152224132059726721750000008849014789431367075_">
				<use xlink:href="#SVGID_00000160176738577946261520000005593851890038353820_"  style="overflow:visible;"/>
			</clipPath>
			<g style="clip-path:url(#SVGID_00000152224132059726721750000008849014789431367075_);enable-background:new    ;">
				<g>
					<path class="st4" d="M97.8,191.8c53-5,98,24.6,100.5,66.2c-2.5-17.8,17-34.5,44.3-38c-2.5-41.6-10.6-102.9-18.2-136.8
						C146.4,93.3,90.8,141,97.8,191.8z"/>
					<path class="st4" d="M146.9,197.5c-4.7-34.1,32.6-66.2,85.1-73"/>
					<path class="st4" d="M182.9,221.2c-3.1-22.3,21.3-43.2,55.6-47.6"/>
				</g>
				<g>
					<path class="st4" d="M198.3,258c2.5,41.6-38.4,79.5-91.4,84.5c-7.1-50.7,48.6-98.5,126.6-108.6c7.5,33.9,11.6,27.7,9.1-13.9
						C215.3,223.6,195.9,240.3,198.3,258z"/>
				</g>
			</g>
			
				<path style="clip-path:url(#SVGID_00000152224132059726721750000008849014789431367075_);fill:none;stroke:#000000;stroke-width:2;stroke-miterlimit:10;" d="
				M197.9,253.4c0.1,0.9,0.2,2.1,0.3,2.9c-2.5-41.6-47.6-72.7-100.8-69.4c0.1,1.6,0.3,3.3,0.5,4.9
				C148.8,186.9,192.4,214.2,197.9,253.4z"/>
			
				<use xlink:href="#SVGID_00000160176738577946261520000005593851890038353820_"  style="overflow:visible;fill:none;stroke:#000000;stroke-width:2;stroke-miterlimit:10;"/>
		</g>
		<g class="st0">
			<defs>
				<path id="SVGID_00000047779673049507264750000016816793047283210633_" class="st0" d="M198.2,256.3c0,0.6,0.1,1.1,0.2,1.7
					c-0.1-1.6-0.2-3.1-0.5-4.7C198,254.3,198.1,255.4,198.2,256.3z"/>
			</defs>
			<clipPath id="SVGID_00000048466641457251592130000014218712300367960745_">
				<use xlink:href="#SVGID_00000047779673049507264750000016816793047283210633_"  style="overflow:visible;"/>
			</clipPath>
			<g style="clip-path:url(#SVGID_00000048466641457251592130000014218712300367960745_);enable-background:new    ;">
				<g>
					<path class="st4" d="M97.8,191.8c53-5,98,24.6,100.5,66.2c-2.5-17.8,17-34.5,44.3-38c-2.5-41.6-10.6-102.9-18.2-136.8
						C146.4,93.3,90.8,141,97.8,191.8z"/>
				</g>
				<g>
					<path class="st4" d="M198.3,258c2.5,41.6-38.4,79.5-91.4,84.5c-7.1-50.7,48.6-98.5,126.6-108.6c7.5,33.9,11.6,27.7,9.1-13.9
						C215.3,223.6,195.9,240.3,198.3,258z"/>
				</g>
			</g>
			
				<path style="clip-path:url(#SVGID_00000048466641457251592130000014218712300367960745_);fill:none;stroke:#000000;stroke-width:2;stroke-miterlimit:10;" d="
				M198.2,256.3c0,0.6,0.1,1.1,0.2,1.7c-0.1-1.6-0.2-3.1-0.5-4.7C198,254.3,198.1,255.4,198.2,256.3z"/>
			
				<use xlink:href="#SVGID_00000047779673049507264750000016816793047283210633_"  style="overflow:visible;fill:none;stroke:#000000;stroke-width:2;stroke-miterlimit:10;"/>
		</g>
		<g class="st0">
			<defs>
				<path id="SVGID_00000037662100041871339580000005082101423368720056_" class="st0" d="M97.4,186.9
					c53.2-3.3,98.3,27.8,100.8,69.4c-1-17.1,18.1-32.8,44.5-36.3c27.3-3.5,52.9,7.3,58.2,24.7c0.5,1.7,0.8,3.5,0.9,5.2
					c-2.5-41.6,38.6-78,91.7-81.3c-0.3-4.9-1.2-9.9-2.7-14.8c-15.2-49.7-88.3-80.7-166.4-70.6C149,93,94.4,138,97.4,186.9z"/>
			</defs>
			<clipPath id="SVGID_00000000945064018461961160000002087290126904244878_">
				<use xlink:href="#SVGID_00000037662100041871339580000005082101423368720056_"  style="overflow:visible;"/>
			</clipPath>
			<g style="clip-path:url(#SVGID_00000000945064018461961160000002087290126904244878_);enable-background:new    ;">
				<g>
					<path class="st4" d="M97.8,191.8c53-5,98,24.6,100.5,66.2c-2.5-17.8,17-34.5,44.3-38c-2.5-41.6-10.6-102.9-18.2-136.8
						C146.4,93.3,90.8,141,97.8,191.8z"/>
					<path class="st4" d="M146.9,197.5c-4.7-34.1,32.6-66.2,85.1-73"/>
					<path class="st4" d="M182.9,221.2c-3.1-22.3,21.3-43.2,55.6-47.6"/>
					<path class="st4" d="M110.2,143.3c48.6,12.3,90,56.1,92.5,97.7"/>
					<path class="st4" d="M155.4,104.6c32.3,26.3,60.6,81.3,63.1,122.9"/>
				</g>
				<g>
					<path class="st4" d="M224.5,83.2c7.5,33.9,15.7,95.2,18.2,136.8c27.3-3.5,52.9,7.3,58.2,24.7c-2.5-41.6,37.8-82.4,90-91
						C375.6,104.1,302.5,73.1,224.5,83.2z"/>
					<path class="st4" d="M232,124.5c52.4-6.8,101.6,14,111.8,47.4"/>
					<path class="st4" d="M238.5,173.6c34.2-4.4,66.3,9.2,73,31"/>
					<path class="st4" d="M298.9,86c-19.2,32.9-32.7,93.4-30.2,135"/>
					<path class="st4" d="M358.3,111.2c-40.5,23.9-71.3,77-68.8,118.7"/>
				</g>
				<g>
					<path class="st4" d="M390.9,153.8c-52.2,8.6-92.5,49.3-90,91c5.3,17.4-11.5,35.2-38.2,40.6c-2.5-41.6,6-48.6,19-15.6
						C358.1,254.4,406.1,203.5,390.9,153.8z"/>
					<path class="st4" d="M343.8,171.9c10.2,33.4-22,67.6-73.4,77.9"/>
					<path class="st4" d="M311.5,204.6c6.7,21.8-14.4,44.2-47.9,50.9"/>
				</g>
				<g>
					<path class="st4" d="M198.3,258c2.5,41.6-38.4,79.5-91.4,84.5c-7.1-50.7,48.6-98.5,126.6-108.6c7.5,33.9,11.6,27.7,9.1-13.9
						C215.3,223.6,195.9,240.3,198.3,258z"/>
					<path class="st4" d="M202.7,241.1c2.5,41.6-34.8,65.4-83.4,53"/>
					<path class="st4" d="M218.5,227.5c2.5,41.6-21.7,54.1-54,27.8"/>
				</g>
				<g>
					<path class="st4" d="M242.6,220c2.5,41.6-1.6,47.9-9.1,13.9c78-10.1,151.2,20.9,166.4,70.6c-52.2,8.6-96.6-18.2-99.1-59.8
						C295.5,227.3,270,216.5,242.6,220z"/>
					<path class="st4" d="M268.7,221c2.5,41.6,20.1,48.7,39.3,15.7"/>
					<path class="st4" d="M289.5,229.8c2.5,41.6,37.4,56,77.9,32.1"/>
				</g>
				<g>
					<path class="st4" d="M300.9,244.7c2.5,41.6,46.9,68.4,99.1,59.8c15.2,49.7-32.8,100.6-109.2,116c-13-33-25.6-93.6-28.1-135.2
						C289.4,280,306.2,262.1,300.9,244.7z"/>
				</g>
			</g>
			
				<path style="clip-path:url(#SVGID_00000000945064018461961160000002087290126904244878_);fill:none;stroke:#000000;stroke-width:2;stroke-miterlimit:10;" d="
				M97.4,186.9c53.2-3.3,98.3,27.8,100.8,69.4c-1-17.1,18.1-32.8,44.5-36.3c27.3-3.5,52.9,7.3,58.2,24.7c0.5,1.7,0.8,3.5,0.9,5.2
				c-2.5-41.6,38.6-78,91.7-81.3c-0.3-4.9-1.2-9.9-2.7-14.8c-15.2-49.7-88.3-80.7-166.4-70.6C149,93,94.4,138,97.4,186.9z"/>
			
				<use xlink:href="#SVGID_00000037662100041871339580000005082101423368720056_"  style="overflow:visible;fill:none;stroke:#000000;stroke-width:2;stroke-miterlimit:10;"/>
		</g>
		<g class="st0">
			<defs>
				<path id="SVGID_00000162331550378135876870000005104699623979828664_" class="st0" d="M301.8,249.9c0-1.7-0.1-4.1,0.1-5.8
					c0.1-0.8,0.2-1.9,0.4-2.7c0.1-0.7,0.4-1.7,0.5-2.4c0.3-1.2,0.8-2.7,1.3-3.9c0.2-0.4,0.4-0.9,0.6-1.3c0.5-1,0.5-1,1-1.8
					c0,0-0.1,0.1-0.1,0.1c-0.3,0.3-0.7,0.7-1,1c-0.5,0.4-1.1,1-1.6,1.4c-1.3,1-3.2,2.3-4.6,3.2c-1.2,0.7-2.8,1.6-4,2.2
					c-1.3,0.7-3,1.5-4.3,2.1c-4.5,2-8.6,3.3-10.2,3.8c-2,0.6-6.1,1.9-12.3,3.1c3.4-0.7,8.3,6.1,14.1,20.8
					c68.8-13.8,114.6-56.5,111.9-101.1C340.4,171.9,299.3,208.3,301.8,249.9z"/>
			</defs>
			<clipPath id="SVGID_00000127040592772092535610000011944571218335431041_">
				<use xlink:href="#SVGID_00000162331550378135876870000005104699623979828664_"  style="overflow:visible;"/>
			</clipPath>
			<g style="clip-path:url(#SVGID_00000127040592772092535610000011944571218335431041_);enable-background:new    ;">
				<g>
					<path class="st4" d="M390.9,153.8c-52.2,8.6-92.5,49.3-90,91c5.3,17.4-11.5,35.2-38.2,40.6c-2.5-41.6,6-48.6,19-15.6
						C358.1,254.4,406.1,203.5,390.9,153.8z"/>
					<path class="st4" d="M343.8,171.9c10.2,33.4-22,67.6-73.4,77.9"/>
					<path class="st4" d="M311.5,204.6c6.7,21.8-14.4,44.2-47.9,50.9"/>
					<path class="st4" d="M386.3,202.5c-50.6-8.9-89.5,17.6-87,59.3"/>
					<path class="st4" d="M347.3,243.9c-36.6-23.8-64.2-9.3-61.7,32.4"/>
				</g>
				<g>
					<path class="st4" d="M300.9,244.7c2.5,41.6,46.9,68.4,99.1,59.8c15.2,49.7-32.8,100.6-109.2,116c-13-33-25.6-93.6-28.1-135.2
						C289.4,280,306.2,262.1,300.9,244.7z"/>
					<path class="st4" d="M299.3,261.8c2.5,41.6,45.5,82.6,96.1,91.5"/>
					<path class="st4" d="M285.6,276.3c2.5,41.6,34.2,94.6,70.8,118.4"/>
				</g>
			</g>
			
				<path style="clip-path:url(#SVGID_00000127040592772092535610000011944571218335431041_);fill:none;stroke:#000000;stroke-width:2;stroke-miterlimit:10;" d="
				M301.8,249.9c0-1.7-0.1-4.1,0.1-5.8c0.1-0.8,0.2-1.9,0.4-2.7c0.1-0.7,0.4-1.7,0.5-2.4c0.3-1.2,0.8-2.7,1.3-3.9
				c0.2-0.4,0.4-0.9,0.6-1.3c0.5-1,0.5-1,1-1.8c0,0-0.1,0.1-0.1,0.1c-0.3,0.3-0.7,0.7-1,1c-0.5,0.4-1.1,1-1.6,1.4
				c-1.3,1-3.2,2.3-4.6,3.2c-1.2,0.7-2.8,1.6-4,2.2c-1.3,0.7-3,1.5-4.3,2.1c-4.5,2-8.6,3.3-10.2,3.8c-2,0.6-6.1,1.9-12.3,3.1
				c3.4-0.7,8.3,6.1,14.1,20.8c68.8-13.8,114.6-56.5,111.9-101.1C340.4,171.9,299.3,208.3,301.8,249.9z"/>
			
				<use xlink:href="#SVGID_00000162331550378135876870000005104699623979828664_"  style="overflow:visible;fill:none;stroke:#000000;stroke-width:2;stroke-miterlimit:10;"/>
		</g>
		<g class="st0">
			<defs>
				<path id="SVGID_00000126293686018315148550000011728088042952816543_" class="st0" d="M267.5,248.9c-4.3,0.9-6.3,13.3-4.9,36.4
					c24.1-4.8,40.1-19.8,39.2-35.4c-0.2-2.8,0-4.6,0.1-5.9c0.1-1.5,0.5-3.4,0.8-4.8c0.2-1.1,1.2-4.6,2.8-7c0,0,0.1-0.1,0.1-0.1
					c-0.4,0.4-0.6,0.7-1.4,1.3c-0.4,0.3-0.9,0.8-1.3,1.1c-0.7,0.6-1.8,1.4-2.6,1.9c-0.9,0.6-2.1,1.3-3,1.9c-1,0.6-2.5,1.3-3.5,1.9
					c-1.2,0.6-2.7,1.3-3.9,1.9c-4.3,1.9-8.4,3.2-10.4,3.9C276,247,271.2,248.2,267.5,248.9z"/>
			</defs>
			<clipPath id="SVGID_00000158025483957041874000000001121562501060565633_">
				<use xlink:href="#SVGID_00000126293686018315148550000011728088042952816543_"  style="overflow:visible;"/>
			</clipPath>
			<g style="clip-path:url(#SVGID_00000158025483957041874000000001121562501060565633_);enable-background:new    ;">
				<g>
					<path class="st4" d="M390.9,153.8c-52.2,8.6-92.5,49.3-90,91c5.3,17.4-11.5,35.2-38.2,40.6c-2.5-41.6,6-48.6,19-15.6
						C358.1,254.4,406.1,203.5,390.9,153.8z"/>
					<path class="st4" d="M311.5,204.6c6.7,21.8-14.4,44.2-47.9,50.9"/>
					<path class="st4" d="M386.3,202.5c-50.6-8.9-89.5,17.6-87,59.3"/>
					<path class="st4" d="M347.3,243.9c-36.6-23.8-64.2-9.3-61.7,32.4"/>
				</g>
				<g>
					<path class="st4" d="M300.9,244.7c2.5,41.6,46.9,68.4,99.1,59.8c15.2,49.7-32.8,100.6-109.2,116c-13-33-25.6-93.6-28.1-135.2
						C289.4,280,306.2,262.1,300.9,244.7z"/>
					<path class="st4" d="M299.3,261.8c2.5,41.6,45.5,82.6,96.1,91.5"/>
					<path class="st4" d="M285.6,276.3c2.5,41.6,34.2,94.6,70.8,118.4"/>
				</g>
			</g>
			
				<path style="clip-path:url(#SVGID_00000158025483957041874000000001121562501060565633_);fill:none;stroke:#000000;stroke-width:2;stroke-miterlimit:10;" d="
				M267.5,248.9c-4.3,0.9-6.3,13.3-4.9,36.4c24.1-4.8,40.1-19.8,39.2-35.4c-0.2-2.8,0-4.6,0.1-5.9c0.1-1.5,0.5-3.4,0.8-4.8
				c0.2-1.1,1.2-4.6,2.8-7c0,0,0.1-0.1,0.1-0.1c-0.4,0.4-0.6,0.7-1.4,1.3c-0.4,0.3-0.9,0.8-1.3,1.1c-0.7,0.6-1.8,1.4-2.6,1.9
				c-0.9,0.6-2.1,1.3-3,1.9c-1,0.6-2.5,1.3-3.5,1.9c-1.2,0.6-2.7,1.3-3.9,1.9c-4.3,1.9-8.4,3.2-10.4,3.9
				C276,247,271.2,248.2,267.5,248.9z"/>
			
				<use xlink:href="#SVGID_00000126293686018315148550000011728088042952816543_"  style="overflow:visible;fill:none;stroke:#000000;stroke-width:2;stroke-miterlimit:10;"/>
		</g>
		<g class="st0">
			<defs>
				<path id="SVGID_00000085232077979905515090000013619449549655359659_" class="st0" d="M198.2,256.3c0,1.7,0,4.1-0.1,5.8
					c0,0.9-0.2,2-0.4,2.9c-0.3,1.4-0.7,3.2-1.1,4.5c-0.3,0.9-0.8,2.1-1.2,3c-0.2,0.3-0.4,0.7-0.6,1c-0.1,0.2-0.3,0.5-0.4,0.7
					c0.1-0.1,0.2-0.2,0.2-0.2c0.3-0.3,0.6-0.6,0.9-0.9c0.5-0.4,1.1-1,1.7-1.4c0.6-0.5,1.5-1.1,2.2-1.6c0.9-0.6,2.1-1.4,3.1-2
					c2.2-1.2,5.1-2.7,7.4-3.8c1.5-0.7,3.6-1.5,5.1-2.1c1.6-0.6,3.8-1.3,5.4-1.9c1.7-0.5,4-1.1,5.8-1.6c1.8-0.5,4.3-1,6.1-1.4
					c4.8-1,12.1-2,15.9-2.2c3.6-0.2,9.1-0.6,13.4-0.4c1.9,0.1,4.5,0.1,6.5,0.3c1.8,0.2,4.3,0.4,6.1,0.6c1.8,0.2,4.2,0.5,5.9,0.9
					c1.6,0.3,3.7,0.7,5.3,1.1c1.5,0.4,3.5,0.9,4.9,1.3c1.3,0.4,3.1,0.9,4.4,1.4c1.1,0.4,2.7,1,3.8,1.5c1,0.4,2.3,1,3.3,1.5
					c0.9,0.4,2.1,1,2.9,1.6c1,0.6,2,1.2,3,2c0.1,0.1,0.2,0.2,0.3,0.2c-0.2-0.2-0.5-0.6-0.7-0.8c-0.4-0.6-0.9-1.3-1.2-1.9
					c-0.6-1.1-1.4-2.7-1.8-3.9c-0.5-1.4-1.1-3.3-1.4-4.7c-0.3-1.2-0.6-3.1-0.8-5.9c-0.1-1.7-0.4-3.5-0.9-5.2
					c-5.3-17.4-30.9-28.2-58.2-24.7C216.2,223.5,197.1,239.2,198.2,256.3z"/>
			</defs>
			<clipPath id="SVGID_00000168113257301051232170000016628173719122544812_">
				<use xlink:href="#SVGID_00000085232077979905515090000013619449549655359659_"  style="overflow:visible;"/>
			</clipPath>
			<g style="clip-path:url(#SVGID_00000168113257301051232170000016628173719122544812_);enable-background:new    ;">
				<g>
					<path class="st4" d="M97.8,191.8c53-5,98,24.6,100.5,66.2c-2.5-17.8,17-34.5,44.3-38c-2.5-41.6-10.6-102.9-18.2-136.8
						C146.4,93.3,90.8,141,97.8,191.8z"/>
					<path class="st4" d="M110.2,143.3c48.6,12.3,90,56.1,92.5,97.7"/>
					<path class="st4" d="M155.4,104.6c32.3,26.3,60.6,81.3,63.1,122.9"/>
				</g>
				<g>
					<path class="st4" d="M224.5,83.2c7.5,33.9,15.7,95.2,18.2,136.8c27.3-3.5,52.9,7.3,58.2,24.7c-2.5-41.6,37.8-82.4,90-91
						C375.6,104.1,302.5,73.1,224.5,83.2z"/>
					<path class="st4" d="M298.9,86c-19.2,32.9-32.7,93.4-30.2,135"/>
					<path class="st4" d="M358.3,111.2c-40.5,23.9-71.3,77-68.8,118.7"/>
				</g>
				<g>
					<path class="st4" d="M390.9,153.8c-52.2,8.6-92.5,49.3-90,91c5.3,17.4-11.5,35.2-38.2,40.6c-2.5-41.6,6-48.6,19-15.6
						C358.1,254.4,406.1,203.5,390.9,153.8z"/>
				</g>
				<g>
					<path class="st4" d="M198.3,258c2.5,41.6-38.4,79.5-91.4,84.5c-7.1-50.7,48.6-98.5,126.6-108.6c7.5,33.9,11.6,27.7,9.1-13.9
						C215.3,223.6,195.9,240.3,198.3,258z"/>
					<path class="st4" d="M187.5,297.3c-3.1-22.3,21.3-43.2,55.6-47.6"/>
					<path class="st4" d="M202.7,241.1c2.5,41.6-34.8,65.4-83.4,53"/>
					<path class="st4" d="M218.5,227.5c2.5,41.6-21.7,54.1-54,27.8"/>
				</g>
				<g>
					<path class="st4" d="M242.6,220c2.5,41.6-1.6,47.9-9.1,13.9c78-10.1,151.2,20.9,166.4,70.6c-52.2,8.6-96.6-18.2-99.1-59.8
						C295.5,227.3,270,216.5,242.6,220z"/>
					<path class="st4" d="M243.1,249.7c34.2-4.4,66.3,9.2,73,31"/>
					<path class="st4" d="M268.7,221c2.5,41.6,20.1,48.7,39.3,15.7"/>
					<path class="st4" d="M289.5,229.8c2.5,41.6,37.4,56,77.9,32.1"/>
				</g>
				<g>
					<path class="st4" d="M300.9,244.7c2.5,41.6,46.9,68.4,99.1,59.8c15.2,49.7-32.8,100.6-109.2,116c-13-33-25.6-93.6-28.1-135.2
						C289.4,280,306.2,262.1,300.9,244.7z"/>
					<path class="st4" d="M316.1,280.7c6.7,21.8-14.4,44.2-47.9,50.9"/>
				</g>
			</g>
			
				<path style="clip-path:url(#SVGID_00000168113257301051232170000016628173719122544812_);fill:none;stroke:#000000;stroke-width:2;stroke-miterlimit:10;" d="
				M198.2,256.3c0,1.7,0,4.1-0.1,5.8c0,0.9-0.2,2-0.4,2.9c-0.3,1.4-0.7,3.2-1.1,4.5c-0.3,0.9-0.8,2.1-1.2,3c-0.2,0.3-0.4,0.7-0.6,1
				c-0.1,0.2-0.3,0.5-0.4,0.7c0.1-0.1,0.2-0.2,0.2-0.2c0.3-0.3,0.6-0.6,0.9-0.9c0.5-0.4,1.1-1,1.7-1.4c0.6-0.5,1.5-1.1,2.2-1.6
				c0.9-0.6,2.1-1.4,3.1-2c2.2-1.2,5.1-2.7,7.4-3.8c1.5-0.7,3.6-1.5,5.1-2.1c1.6-0.6,3.8-1.3,5.4-1.9c1.7-0.5,4-1.1,5.8-1.6
				c1.8-0.5,4.3-1,6.1-1.4c4.8-1,12.1-2,15.9-2.2c3.6-0.2,9.1-0.6,13.4-0.4c1.9,0.1,4.5,0.1,6.5,0.3c1.8,0.2,4.3,0.4,6.1,0.6
				c1.8,0.2,4.2,0.5,5.9,0.9c1.6,0.3,3.7,0.7,5.3,1.1c1.5,0.4,3.5,0.9,4.9,1.3c1.3,0.4,3.1,0.9,4.4,1.4c1.1,0.4,2.7,1,3.8,1.5
				c1,0.4,2.3,1,3.3,1.5c0.9,0.4,2.1,1,2.9,1.6c1,0.6,2,1.2,3,2c0.1,0.1,0.2,0.2,0.3,0.2c-0.2-0.2-0.5-0.6-0.7-0.8
				c-0.4-0.6-0.9-1.3-1.2-1.9c-0.6-1.1-1.4-2.7-1.8-3.9c-0.5-1.4-1.1-3.3-1.4-4.7c-0.3-1.2-0.6-3.1-0.8-5.9
				c-0.1-1.7-0.4-3.5-0.9-5.2c-5.3-17.4-30.9-28.2-58.2-24.7C216.2,223.5,197.1,239.2,198.2,256.3z"/>
			
				<use xlink:href="#SVGID_00000085232077979905515090000013619449549655359659_"  style="overflow:visible;fill:none;stroke:#000000;stroke-width:2;stroke-miterlimit:10;"/>
		</g>
		<g class="st0">
			<defs>
				<path id="SVGID_00000061448150863786605890000007846301765045049729_" class="st0" d="M241.2,255.9c2-0.3,4.8-0.6,6.8-0.7
					c2-0.1,4.7-0.3,6.8-0.4c2-0.1,4.6-0.1,6.6,0c2,0,4.6,0.1,6.6,0.3c3.6,0.3,8.3,0.9,11.9,1.5c1.7,0.3,3.9,0.7,5.5,1.1
					c1.5,0.4,3.4,0.9,4.9,1.3c1.4,0.4,3.2,1,4.6,1.5c1.1,0.4,2.6,1,3.8,1.5c1,0.4,2.4,1,3.4,1.6c0.9,0.5,2.1,1.1,2.9,1.6
					c0.4,0.3,1,0.6,1.4,0.9c0.3,0.2,0.8,0.6,1.1,0.8c0.1,0.1,0.2,0.2,0.3,0.3c0,0,0-0.1-0.1-0.1c-0.4-0.4-0.8-1-1.1-1.5
					c-0.5-0.8-1.2-2-1.6-2.9c-0.6-1.2-1.2-3-1.7-4.3c-0.3-0.8-0.5-1.9-0.7-2.7c-0.2-0.8-0.4-2-0.5-2.8c-0.2-0.9-0.2-2.1-0.3-2.9
					c2.5,41.6,47.6,72.7,100.8,69.5c-0.3-4.9-1.2-9.9-2.7-14.8c-15.2-49.7-88.3-80.7-166.4-70.6c-75.5,9.8-130.1,54.8-127.1,103.7
					c53.2-3.3,94.2-39.7,91.7-81.3c0.1,0.9,0.1,2.1,0.1,3.1c0,0.9-0.1,2-0.2,2.9c-0.1,1.5-0.5,3.4-0.8,4.8c-0.3,1.3-0.9,2.9-1.3,4.1
					c-0.3,0.6-0.7,1.4-1,2c-0.2,0.3-0.4,0.7-0.6,1c0,0,0,0,0,0c0.3-0.3,0.7-0.7,1.5-1.4c0.5-0.4,1.2-1,1.7-1.4
					c0.9-0.7,2.6-1.9,5.2-3.5c2.2-1.3,5.2-2.7,7.5-3.8c1.5-0.7,3.5-1.4,5-2c1.6-0.6,3.7-1.3,5.2-1.8c1.7-0.5,4-1.2,5.8-1.6
					c2.5-0.6,5.9-1.3,8.4-1.8C236.6,256.5,239.2,256.1,241.2,255.9z"/>
			</defs>
			<clipPath id="SVGID_00000093858388556028077180000005582571276328982169_">
				<use xlink:href="#SVGID_00000061448150863786605890000007846301765045049729_"  style="overflow:visible;"/>
			</clipPath>
			<g style="clip-path:url(#SVGID_00000093858388556028077180000005582571276328982169_);enable-background:new    ;">
				<g>
					<path class="st4" d="M97.8,191.8c53-5,98,24.6,100.5,66.2c-2.5-17.8,17-34.5,44.3-38c-2.5-41.6-10.6-102.9-18.2-136.8
						C146.4,93.3,90.8,141,97.8,191.8z"/>
					<path class="st4" d="M110.2,143.3c48.6,12.3,90,56.1,92.5,97.7"/>
					<path class="st4" d="M155.4,104.6c32.3,26.3,60.6,81.3,63.1,122.9"/>
				</g>
				<g>
					<path class="st4" d="M224.5,83.2c7.5,33.9,15.7,95.2,18.2,136.8c27.3-3.5,52.9,7.3,58.2,24.7c-2.5-41.6,37.8-82.4,90-91
						C375.6,104.1,302.5,73.1,224.5,83.2z"/>
					<path class="st4" d="M298.9,86c-19.2,32.9-32.7,93.4-30.2,135"/>
					<path class="st4" d="M358.3,111.2c-40.5,23.9-71.3,77-68.8,118.7"/>
				</g>
				<g>
					<path class="st4" d="M390.9,153.8c-52.2,8.6-92.5,49.3-90,91c5.3,17.4-11.5,35.2-38.2,40.6c-2.5-41.6,6-48.6,19-15.6
						C358.1,254.4,406.1,203.5,390.9,153.8z"/>
				</g>
				<g>
					<path class="st4" d="M198.3,258c2.5,41.6-38.4,79.5-91.4,84.5c-7.1-50.7,48.6-98.5,126.6-108.6c7.5,33.9,11.6,27.7,9.1-13.9
						C215.3,223.6,195.9,240.3,198.3,258z"/>
					<path class="st4" d="M187.5,297.3c-3.1-22.3,21.3-43.2,55.6-47.6"/>
					<path class="st4" d="M154.7,327.7c-4.7-34.1,32.6-66.2,85.1-73"/>
					<path class="st4" d="M202.7,241.1c2.5,41.6-34.8,65.4-83.4,53"/>
					<path class="st4" d="M218.5,227.5c2.5,41.6-21.7,54.1-54,27.8"/>
				</g>
				<g>
					<path class="st4" d="M242.6,220c2.5,41.6-1.6,47.9-9.1,13.9c78-10.1,151.2,20.9,166.4,70.6c-52.2,8.6-96.6-18.2-99.1-59.8
						C295.5,227.3,270,216.5,242.6,220z"/>
					<path class="st4" d="M243.1,249.7c34.2-4.4,66.3,9.2,73,31"/>
					<path class="st4" d="M239.8,254.7c52.4-6.8,101.6,14,111.8,47.4"/>
					<path class="st4" d="M268.7,221c2.5,41.6,20.1,48.7,39.3,15.7"/>
					<path class="st4" d="M289.5,229.8c2.5,41.6,37.4,56,77.9,32.1"/>
				</g>
				<g>
					<path class="st4" d="M300.9,244.7c2.5,41.6,46.9,68.4,99.1,59.8c15.2,49.7-32.8,100.6-109.2,116c-13-33-25.6-93.6-28.1-135.2
						C289.4,280,306.2,262.1,300.9,244.7z"/>
					<path class="st4" d="M316.1,280.7c6.7,21.8-14.4,44.2-47.9,50.9"/>
					<path class="st4" d="M351.6,302.1c10.2,33.4-22,67.6-73.4,77.9"/>
				</g>
				<g>
					<path class="st4" d="M106.9,342.6c-53,5-98-24.6-100.5-66.3C-5.2,192.6,86.6,113.9,215.4,97.2c2.5,41.6,10.6,102.9,18.2,136.8
						C155.5,244.1,99.9,291.8,106.9,342.6z"/>
					<path class="st4" d="M119.3,294.1c-48.6-12.3-89.9-56.1-92.5-97.7"/>
					<path class="st4" d="M164.5,255.4c-32.3-26.3-60.6-81.3-63.1-122.9"/>
				</g>
				<g>
					<path class="st4" d="M233.6,234c-7.5-33.9-15.7-95.2-18.2-136.8c128.8-16.7,249.4,34.5,274.5,116.4c2.5,41.6-37.8,82.4-90,91
						C384.7,254.9,311.6,223.9,233.6,234z"/>
					<path class="st4" d="M308,236.7c19.2-32.9,32.7-93.4,30.2-135"/>
					<path class="st4" d="M367.4,261.9c40.5-23.9,71.3-77,68.8-118.7"/>
				</g>
				<g>
					<path class="st4" d="M399.9,304.6c52.2-8.6,92.5-49.3,90-91c25.1,82-54.1,166.1-180.2,191.3c2.5,41.6-6,48.6-19,15.6
						C367.2,405.2,415.2,354.2,399.9,304.6z"/>
				</g>
			</g>
			
				<path style="clip-path:url(#SVGID_00000093858388556028077180000005582571276328982169_);fill:none;stroke:#000000;stroke-width:2;stroke-miterlimit:10;" d="
				M241.2,255.9c2-0.3,4.8-0.6,6.8-0.7c2-0.1,4.7-0.3,6.8-0.4c2-0.1,4.6-0.1,6.6,0c2,0,4.6,0.1,6.6,0.3c3.6,0.3,8.3,0.9,11.9,1.5
				c1.7,0.3,3.9,0.7,5.5,1.1c1.5,0.4,3.4,0.9,4.9,1.3c1.4,0.4,3.2,1,4.6,1.5c1.1,0.4,2.6,1,3.8,1.5c1,0.4,2.4,1,3.4,1.6
				c0.9,0.5,2.1,1.1,2.9,1.6c0.4,0.3,1,0.6,1.4,0.9c0.3,0.2,0.8,0.6,1.1,0.8c0.1,0.1,0.2,0.2,0.3,0.3c0,0,0-0.1-0.1-0.1
				c-0.4-0.4-0.8-1-1.1-1.5c-0.5-0.8-1.2-2-1.6-2.9c-0.6-1.2-1.2-3-1.7-4.3c-0.3-0.8-0.5-1.9-0.7-2.7c-0.2-0.8-0.4-2-0.5-2.8
				c-0.2-0.9-0.2-2.1-0.3-2.9c2.5,41.6,47.6,72.7,100.8,69.5c-0.3-4.9-1.2-9.9-2.7-14.8c-15.2-49.7-88.3-80.7-166.4-70.6
				c-75.5,9.8-130.1,54.8-127.1,103.7c53.2-3.3,94.2-39.7,91.7-81.3c0.1,0.9,0.1,2.1,0.1,3.1c0,0.9-0.1,2-0.2,2.9
				c-0.1,1.5-0.5,3.4-0.8,4.8c-0.3,1.3-0.9,2.9-1.3,4.1c-0.3,0.6-0.7,1.4-1,2c-0.2,0.3-0.4,0.7-0.6,1c0,0,0,0,0,0
				c0.3-0.3,0.7-0.7,1.5-1.4c0.5-0.4,1.2-1,1.7-1.4c0.9-0.7,2.6-1.9,5.2-3.5c2.2-1.3,5.2-2.7,7.5-3.8c1.5-0.7,3.5-1.4,5-2
				c1.6-0.6,3.7-1.3,5.2-1.8c1.7-0.5,4-1.2,5.8-1.6c2.5-0.6,5.9-1.3,8.4-1.8C236.6,256.5,239.2,256.1,241.2,255.9z"/>
			
				<use xlink:href="#SVGID_00000061448150863786605890000007846301765045049729_"  style="overflow:visible;fill:none;stroke:#000000;stroke-width:2;stroke-miterlimit:10;"/>
		</g>
		<g class="st0">
			<defs>
				<path id="SVGID_00000152973247817366748920000013443392816473494971_" class="st0" d="M106.4,337.6c0.1,1.6,0.3,3.3,0.5,4.9
					c53-5,93.9-42.9,91.4-84.5c-0.1-0.6-0.1-1.1-0.2-1.7C200.7,298,159.6,334.4,106.4,337.6z"/>
			</defs>
			<clipPath id="SVGID_00000056396029337197615510000015681979000628672159_">
				<use xlink:href="#SVGID_00000152973247817366748920000013443392816473494971_"  style="overflow:visible;"/>
			</clipPath>
			<g style="clip-path:url(#SVGID_00000056396029337197615510000015681979000628672159_);enable-background:new    ;">
				<g>
					<path class="st4" d="M97.8,191.8c53-5,98,24.6,100.5,66.2c-2.5-17.8,17-34.5,44.3-38c-2.5-41.6-10.6-102.9-18.2-136.8
						C146.4,93.3,90.8,141,97.8,191.8z"/>
				</g>
				<g>
					<path class="st4" d="M198.3,258c2.5,41.6-38.4,79.5-91.4,84.5c-7.1-50.7,48.6-98.5,126.6-108.6c7.5,33.9,11.6,27.7,9.1-13.9
						C215.3,223.6,195.9,240.3,198.3,258z"/>
					<path class="st4" d="M187.5,297.3c-3.1-22.3,21.3-43.2,55.6-47.6"/>
					<path class="st4" d="M154.7,327.7c-4.7-34.1,32.6-66.2,85.1-73"/>
				</g>
				<g>
					<path class="st4" d="M106.9,342.6c-53,5-98-24.6-100.5-66.3C-5.2,192.6,86.6,113.9,215.4,97.2c2.5,41.6,10.6,102.9,18.2,136.8
						C155.5,244.1,99.9,291.8,106.9,342.6z"/>
				</g>
			</g>
			
				<path style="clip-path:url(#SVGID_00000056396029337197615510000015681979000628672159_);fill:none;stroke:#000000;stroke-width:2;stroke-miterlimit:10;" d="
				M106.4,337.6c0.1,1.6,0.3,3.3,0.5,4.9c53-5,93.9-42.9,91.4-84.5c-0.1-0.6-0.1-1.1-0.2-1.7C200.7,298,159.6,334.4,106.4,337.6z"/>
			
				<use xlink:href="#SVGID_00000152973247817366748920000013443392816473494971_"  style="overflow:visible;fill:none;stroke:#000000;stroke-width:2;stroke-miterlimit:10;"/>
		</g>
		<g class="st0">
			<defs>
				<path id="SVGID_00000136395232886862104530000018342327168129118384_" class="st0" d="M301.8,249.9
					c0.9,15.6-15.1,30.6-39.2,35.4c2.5,41.6,15.1,102.2,28.1,135.2c68.8-13.8,114.6-56.5,111.9-101.1
					C349.5,322.7,304.3,291.6,301.8,249.9z"/>
			</defs>
			<clipPath id="SVGID_00000088112709233301910520000012125643577543492747_">
				<use xlink:href="#SVGID_00000136395232886862104530000018342327168129118384_"  style="overflow:visible;"/>
			</clipPath>
			<g style="clip-path:url(#SVGID_00000088112709233301910520000012125643577543492747_);enable-background:new    ;">
				<g>
					<path class="st4" d="M390.9,153.8c-52.2,8.6-92.5,49.3-90,91c5.3,17.4-11.5,35.2-38.2,40.6c-2.5-41.6,6-48.6,19-15.6
						C358.1,254.4,406.1,203.5,390.9,153.8z"/>
					<path class="st4" d="M386.3,202.5c-50.6-8.9-89.5,17.6-87,59.3"/>
					<path class="st4" d="M347.3,243.9c-36.6-23.8-64.2-9.3-61.7,32.4"/>
				</g>
				<g>
					<path class="st4" d="M300.9,244.7c2.5,41.6,46.9,68.4,99.1,59.8c15.2,49.7-32.8,100.6-109.2,116c-13-33-25.6-93.6-28.1-135.2
						C289.4,280,306.2,262.1,300.9,244.7z"/>
					<path class="st4" d="M316.1,280.7c6.7,21.8-14.4,44.2-47.9,50.9"/>
					<path class="st4" d="M351.6,302.1c10.2,33.4-22,67.6-73.4,77.9"/>
					<path class="st4" d="M299.3,261.8c2.5,41.6,45.5,82.6,96.1,91.5"/>
					<path class="st4" d="M285.6,276.3c2.5,41.6,34.2,94.6,70.8,118.4"/>
				</g>
				<g>
					<path class="st4" d="M399.9,304.6c52.2-8.6,92.5-49.3,90-91c25.1,82-54.1,166.1-180.2,191.3c2.5,41.6-6,48.6-19,15.6
						C367.2,405.2,415.2,354.2,399.9,304.6z"/>
					<path class="st4" d="M395.4,353.3c50.6,8.9,89.5-17.6,87-59.3"/>
					<path class="st4" d="M356.4,394.7c36.6,23.8,64.2,9.3,61.7-32.4"/>
				</g>
			</g>
			
				<path style="clip-path:url(#SVGID_00000088112709233301910520000012125643577543492747_);fill:none;stroke:#000000;stroke-width:2;stroke-miterlimit:10;" d="
				M301.8,249.9c0.9,15.6-15.1,30.6-39.2,35.4c2.5,41.6,15.1,102.2,28.1,135.2c68.8-13.8,114.6-56.5,111.9-101.1
				C349.5,322.7,304.3,291.6,301.8,249.9z"/>
			
				<use xlink:href="#SVGID_00000136395232886862104530000018342327168129118384_"  style="overflow:visible;fill:none;stroke:#000000;stroke-width:2;stroke-miterlimit:10;"/>
		</g>
		<g class="st0">
			<defs>
				<path id="SVGID_00000165234416975766407780000014363975612811562915_" class="st0" d="M6.9,281c5.4,39.2,49,66.4,100,61.6
					c-0.2-1.6-0.4-3.3-0.5-4.9c-2.9-48.9,51.6-93.9,127.1-103.7c78-10.1,151.2,20.9,166.4,70.6c1.5,4.9,2.4,9.9,2.7,14.8
					c2.7,44.6-43.1,87.3-111.9,101.1c5.8,14.7,10.7,21.5,14.1,20.8c11.4-2.3,22.2-5.1,32.9-8.5c4.5-1.4,10.5-3.5,14.9-5.2
					c4.8-1.8,11.2-4.5,15.9-6.5c8.2-3.7,18.9-9.2,26.7-13.8c4.5-2.7,10.3-6.4,14.6-9.4c3.6-2.4,8.2-5.9,11.6-8.6
					c4.3-3.4,9.9-8.2,13.9-11.9c3.1-2.8,6.9-6.8,9.8-9.8c4.2-4.2,9.3-10.3,12.9-15.1c2.4-3.2,5.6-7.5,7.8-10.9
					c3.5-5.5,7.8-13,10.9-18.8c3.4-6.3,7.1-15.3,9.3-22.2c1.2-3.6,2.7-8.4,3.6-12.1c1-3.8,2.1-8.9,2.7-12.7
					c1.3-7.4,2.6-17.5,2.4-25.1c-0.1-4,0-9.2-0.3-13.2c-0.2-3.8-0.6-8.9-1.3-12.7c-0.7-3.8-1.3-8.9-2.3-12.6
					c-1.9-7.2-4.6-16.8-7.2-23.8c-2.7-7.3-7.1-16.6-11.1-23.2c-3.5-5.7-8.5-13.2-12.4-18.7c-2.3-3.2-5.8-7.1-8.3-10.1
					c-3.8-4.6-9.5-10.4-14-14.3c-4-3.5-9.4-8.2-13.6-11.5c-3.3-2.6-7.9-5.8-11.3-8.2c-4.1-2.8-9.8-6.3-14.1-8.8
					c-3.7-2.2-8.8-4.8-12.7-6.8c-4.3-2.1-10.1-4.8-14.5-6.6c-4.1-1.7-9.6-3.9-13.8-5.3c-4.5-1.5-10.4-3.5-14.9-4.8
					c-4.4-1.3-10.2-2.9-14.7-3.8c-4.6-0.9-10.7-2.4-15.3-3.1c-4.6-0.7-10.7-1.7-15.4-2.3c-4.7-0.6-11-1.2-15.7-1.6
					c-4.8-0.3-11.1-0.7-15.9-0.8c-4.8-0.1-11.3-0.1-16.1,0c-4.9,0.2-11.4,0.4-16.3,0.9c-6.7,0.6-15.7,1.4-22.4,2.5
					c-4.9,0.8-11.4,1.9-16.2,2.8c-4.8,1-11.3,2.3-16.1,3.7c-4.8,1.4-11.3,3-16.1,4.6c-8.8,3-20.4,7.1-28.9,10.9
					c-10.6,4.6-20.8,9.9-30.3,15.7c-3.7,2.2-8.6,5.4-12.2,7.9c-4.6,3.2-10.6,7.7-14.9,11.2c-6.5,5.2-14.8,12.7-20.5,18.9
					c-4,4.4-9.2,10.4-13,15c-2.5,3.1-5.7,7.5-7.9,10.9c-3.6,5.5-8,13.1-11.1,18.9c-1.9,3.4-3.9,8.2-5.5,11.8c-3,6.6-6,15.8-7.7,22.8
					c-0.9,3.7-2.1,8.7-2.7,12.5c-0.7,3.9-1.6,9.1-1.8,13c-0.4,7.7-0.6,17.9-0.5,25.6C5.7,272,6.4,277.1,6.9,281z"/>
			</defs>
			<clipPath id="SVGID_00000060006005275353832600000006441956952973474433_">
				<use xlink:href="#SVGID_00000165234416975766407780000014363975612811562915_"  style="overflow:visible;"/>
			</clipPath>
			<g style="clip-path:url(#SVGID_00000060006005275353832600000006441956952973474433_);enable-background:new    ;">
				<g>
					<path class="st4" d="M198.3,258c2.5,41.6-38.4,79.5-91.4,84.5c-7.1-50.7,48.6-98.5,126.6-108.6c7.5,33.9,11.6,27.7,9.1-13.9
						C215.3,223.6,195.9,240.3,198.3,258z"/>
					<path class="st4" d="M202.7,241.1c2.5,41.6-34.8,65.4-83.4,53"/>
					<path class="st4" d="M218.5,227.5c2.5,41.6-21.7,54.1-54,27.8"/>
				</g>
				<g>
					<path class="st4" d="M242.6,220c2.5,41.6-1.6,47.9-9.1,13.9c78-10.1,151.2,20.9,166.4,70.6c-52.2,8.6-96.6-18.2-99.1-59.8
						C295.5,227.3,270,216.5,242.6,220z"/>
					<path class="st4" d="M268.7,221c2.5,41.6,20.1,48.7,39.3,15.7"/>
					<path class="st4" d="M289.5,229.8c2.5,41.6,37.4,56,77.9,32.1"/>
				</g>
				<g>
					<path class="st4" d="M300.9,244.7c2.5,41.6,46.9,68.4,99.1,59.8c15.2,49.7-32.8,100.6-109.2,116c-13-33-25.6-93.6-28.1-135.2
						C289.4,280,306.2,262.1,300.9,244.7z"/>
					<path class="st4" d="M299.3,261.8c2.5,41.6,45.5,82.6,96.1,91.5"/>
					<path class="st4" d="M285.6,276.3c2.5,41.6,34.2,94.6,70.8,118.4"/>
				</g>
				<g>
					<path class="st4" d="M106.9,342.6c-53,5-98-24.6-100.5-66.3C-5.2,192.6,86.6,113.9,215.4,97.2c2.5,41.6,10.6,102.9,18.2,136.8
						C155.5,244.1,99.9,291.8,106.9,342.6z"/>
					<path class="st4" d="M57.9,336.9c-9.4-67.4,64.5-130.8,168.2-144.2"/>
					<path class="st4" d="M21.8,313.1c-11-79.2,75.9-153.7,197.7-169.5"/>
					<path class="st4" d="M119.3,294.1c-48.6-12.3-89.9-56.1-92.5-97.7"/>
					<path class="st4" d="M164.5,255.4c-32.3-26.3-60.6-81.3-63.1-122.9"/>
				</g>
				<g>
					<path class="st4" d="M233.6,234c-7.5-33.9-15.7-95.2-18.2-136.8c128.8-16.7,249.4,34.5,274.5,116.4c2.5,41.6-37.8,82.4-90,91
						C384.7,254.9,311.6,223.9,233.6,234z"/>
					<path class="st4" d="M226,192.7c103.6-13.4,200.7,27.7,221,93.7"/>
					<path class="st4" d="M219.5,143.6c121.8-15.8,236,32.6,259.8,110.2"/>
					<path class="st4" d="M308,236.7c19.2-32.9,32.7-93.4,30.2-135"/>
					<path class="st4" d="M367.4,261.9c40.5-23.9,71.3-77,68.8-118.7"/>
				</g>
				<g>
					<path class="st4" d="M399.9,304.6c52.2-8.6,92.5-49.3,90-91c25.1,82-54.1,166.1-180.2,191.3c2.5,41.6-6,48.6-19,15.6
						C367.2,405.2,415.2,354.2,399.9,304.6z"/>
					<path class="st4" d="M447,286.4c20.2,66-43.5,133.7-145,154"/>
					<path class="st4" d="M479.3,253.8c23.8,77.6-51.2,157.1-170.5,181"/>
					<path class="st4" d="M395.4,353.3c50.6,8.9,89.5-17.6,87-59.3"/>
					<path class="st4" d="M356.4,394.7c36.6,23.8,64.2,9.3,61.7-32.4"/>
				</g>
				<g>
					<path class="st4" d="M6.4,276.3c-2.5-41.6,38.4-79.5,91.4-84.5C90.8,141,146.4,93.3,224.5,83.2c-7.5-33.9-11.6-27.7-9.1,13.9
						C86.6,113.9-5.2,192.6,6.4,276.3z"/>
					<path class="st4" d="M17.2,237C6.2,157.8,93.1,83.3,215,67.5"/>
					<path class="st4" d="M26.8,196.4c-2.5-41.6,34.8-65.4,83.4-53"/>
					<path class="st4" d="M101.4,132.4c-2.5-41.6,21.7-54.1,54-27.8"/>
				</g>
				<g>
					<path class="st4" d="M215.4,97.2c-2.5-41.6,1.6-47.9,9.1-13.9c78-10.1,151.2,20.9,166.4,70.6c52.2-8.6,96.5,18.2,99.1,59.8
						C464.8,131.6,344.1,80.5,215.4,97.2z"/>
					<path class="st4" d="M215,67.5c121.8-15.8,236,32.6,259.8,110.2"/>
					<path class="st4" d="M338.2,101.7C335.7,60.1,318.1,53,298.9,86"/>
					<path class="st4" d="M436.2,143.3c-2.5-41.6-37.4-56-77.9-32.1"/>
				</g>
				<g>
					<path class="st4" d="M489.9,213.6c-2.5-41.6-46.9-68.4-99.1-59.8c15.2,49.7-32.8,100.6-109.2,116c13,33,25.6,93.6,28.1,135.2
						C435.8,379.7,515,295.6,489.9,213.6z"/>
					<path class="st4" d="M474.7,177.7c23.8,77.6-51.2,157.1-170.5,181"/>
					<path class="st4" d="M482.4,294c-2.5-41.6-45.5-82.6-96.1-91.5"/>
					<path class="st4" d="M418.1,362.3c-2.5-41.6-34.2-94.6-70.8-118.4"/>
				</g>
			</g>
			
				<path style="clip-path:url(#SVGID_00000060006005275353832600000006441956952973474433_);fill:none;stroke:#000000;stroke-width:2;stroke-miterlimit:10;" d="
				M6.9,281c5.4,39.2,49,66.4,100,61.6c-0.2-1.6-0.4-3.3-0.5-4.9c-2.9-48.9,51.6-93.9,127.1-103.7c78-10.1,151.2,20.9,166.4,70.6
				c1.5,4.9,2.4,9.9,2.7,14.8c2.7,44.6-43.1,87.3-111.9,101.1c5.8,14.7,10.7,21.5,14.1,20.8c11.4-2.3,22.2-5.1,32.9-8.5
				c4.5-1.4,10.5-3.5,14.9-5.2c4.8-1.8,11.2-4.5,15.9-6.5c8.2-3.7,18.9-9.2,26.7-13.8c4.5-2.7,10.3-6.4,14.6-9.4
				c3.6-2.4,8.2-5.9,11.6-8.6c4.3-3.4,9.9-8.2,13.9-11.9c3.1-2.8,6.9-6.8,9.8-9.8c4.2-4.2,9.3-10.3,12.9-15.1
				c2.4-3.2,5.6-7.5,7.8-10.9c3.5-5.5,7.8-13,10.9-18.8c3.4-6.3,7.1-15.3,9.3-22.2c1.2-3.6,2.7-8.4,3.6-12.1c1-3.8,2.1-8.9,2.7-12.7
				c1.3-7.4,2.6-17.5,2.4-25.1c-0.1-4,0-9.2-0.3-13.2c-0.2-3.8-0.6-8.9-1.3-12.7c-0.7-3.8-1.3-8.9-2.3-12.6
				c-1.9-7.2-4.6-16.8-7.2-23.8c-2.7-7.3-7.1-16.6-11.1-23.2c-3.5-5.7-8.5-13.2-12.4-18.7c-2.3-3.2-5.8-7.1-8.3-10.1
				c-3.8-4.6-9.5-10.4-14-14.3c-4-3.5-9.4-8.2-13.6-11.5c-3.3-2.6-7.9-5.8-11.3-8.2c-4.1-2.8-9.8-6.3-14.1-8.8
				c-3.7-2.2-8.8-4.8-12.7-6.8c-4.3-2.1-10.1-4.8-14.5-6.6c-4.1-1.7-9.6-3.9-13.8-5.3c-4.5-1.5-10.4-3.5-14.9-4.8
				c-4.4-1.3-10.2-2.9-14.7-3.8c-4.6-0.9-10.7-2.4-15.3-3.1c-4.6-0.7-10.7-1.7-15.4-2.3c-4.7-0.6-11-1.2-15.7-1.6
				c-4.8-0.3-11.1-0.7-15.9-0.8c-4.8-0.1-11.3-0.1-16.1,0c-4.9,0.2-11.4,0.4-16.3,0.9c-6.7,0.6-15.7,1.4-22.4,2.5
				c-4.9,0.8-11.4,1.9-16.2,2.8c-4.8,1-11.3,2.3-16.1,3.7c-4.8,1.4-11.3,3-16.1,4.6c-8.8,3-20.4,7.1-28.9,10.9
				c-10.6,4.6-20.8,9.9-30.3,15.7c-3.7,2.2-8.6,5.4-12.2,7.9c-4.6,3.2-10.6,7.7-14.9,11.2c-6.5,5.2-14.8,12.7-20.5,18.9
				c-4,4.4-9.2,10.4-13,15c-2.5,3.1-5.7,7.5-7.9,10.9c-3.6,5.5-8,13.1-11.1,18.9c-1.9,3.4-3.9,8.2-5.5,11.8c-3,6.6-6,15.8-7.7,22.8
				c-0.9,3.7-2.1,8.7-2.7,12.5c-0.7,3.9-1.6,9.1-1.8,13c-0.4,7.7-0.6,17.9-0.5,25.6C5.7,272,6.4,277.1,6.9,281z"/>
			
				<use xlink:href="#SVGID_00000165234416975766407780000014363975612811562915_"  style="overflow:visible;fill:none;stroke:#000000;stroke-width:2;stroke-miterlimit:10;"/>
		</g>
		<g class="st0">
			<defs>
				<path id="SVGID_00000115501109980518934810000015022148061519840433_" class="st0" d="M5.6,268.2c0.3,3.8,0.9,8.9,1.3,12.8
					c-0.2-1.5-0.4-3.1-0.5-4.7c-2.5-41.6,38.4-79.5,91.4-84.5c-0.2-1.6-0.4-3.3-0.5-4.9C94.4,138,149,93,224.5,83.2
					c78-10.1,151.2,20.9,166.4,70.6c1.5,4.9,2.4,9.9,2.7,14.8c2.7,44.6-43.1,87.3-111.9,101.1c13,33,25.6,93.6,28.1,135.2
					c1.4,23.1-0.6,35.5-4.9,36.4h0c4.7-1.6,11.2-2.6,16-3.6c4.9-1.1,11.3-2.9,16-4.5c8.9-3,20.6-7.4,29.3-10.9
					c4.4-1.8,10.2-4.7,14.5-6.8c4.4-2.3,10.3-5.4,14.5-8c7.3-4.6,16.9-11.1,24-16.2c4.1-2.9,9.1-7.4,12.9-10.7
					c3.1-2.8,7.1-6.7,10-9.6c3.8-3.8,8.5-9.1,11.9-13.2c3.7-4.6,8.5-10.9,11.8-15.9c2.2-3.2,5-7.6,6.8-11c3.1-5.7,7.1-13.4,9.5-19.5
					c1.4-3.5,3.3-8.2,4.4-11.8c2-6.9,4.6-16.1,5.8-23.1c1.3-7.4,2-17.5,2.5-25.1c0.2-3.9,0.1-9.2-0.3-13.1
					c-0.6-7.6-2.2-17.8-3.5-25.3c-0.7-3.8-2.1-8.7-3.3-12.4c-1.2-3.9-2.8-9-4.4-12.7c-3-6.8-7.2-15.8-10.7-22.3
					c-1.9-3.5-4.7-7.9-7-11.2c-3.9-5.4-9.3-12.6-13.7-17.6c-2.7-3.1-6.3-7-9.3-9.8c-4.3-4.2-10.2-9.6-15-13.3
					c-3.3-2.6-7.7-6-11.1-8.4c-4.5-3.1-10.6-7.2-15.4-9.9c-7.6-4.2-17.9-9.4-25.7-13.1c-4.7-2.2-11.2-4.7-16.2-6.4
					c-4.7-1.6-10.8-3.8-15.6-5.1c-8.8-2.4-20.7-5.4-29.7-7c-16.1-2.9-32.3-4.5-48-4.8c-4.9-0.1-11.3-0.1-16.2,0
					c-4.9,0.1-11.4,0.6-16.3,0.9c-5,0.3-11.6,1-16.5,1.7c-6.7,0.9-15.5,2.2-22.1,3.6c-9.4,2-21.8,5.1-31,7.9
					c-4.6,1.4-10.6,3.5-15,5.1c-4.3,1.6-10,4-14.2,5.8c-4.4,1.8-10.1,4.6-14.4,6.8c-4,2-9.2,4.8-13.1,7.1c-4.2,2.4-9.6,5.9-13.6,8.5
					c-4.3,2.7-9.8,6.8-13.8,10c-6.5,5.2-14.8,12.7-20.9,18.5c-3.8,3.7-8.5,9-11.9,13.1c-3.8,4.6-8.6,10.8-11.9,15.8
					c-4.2,6.5-9.5,15.5-12.9,22.5c-2.8,5.8-6.1,13.8-8.1,20c-2.2,6.9-4.6,16.3-6,23.4c-1.5,7.5-2.1,17.6-2.5,25.2
					C5.1,258.8,5.3,264.2,5.6,268.2z"/>
			</defs>
			<clipPath id="SVGID_00000079466389333861689360000017374579457067057316_">
				<use xlink:href="#SVGID_00000115501109980518934810000015022148061519840433_"  style="overflow:visible;"/>
			</clipPath>
			<g style="clip-path:url(#SVGID_00000079466389333861689360000017374579457067057316_);enable-background:new    ;">
				<g>
					<path class="st4" d="M106.9,342.6c-53,5-98-24.6-100.5-66.3C-5.2,192.6,86.6,113.9,215.4,97.2c2.5,41.6,10.6,102.9,18.2,136.8
						C155.5,244.1,99.9,291.8,106.9,342.6z"/>
					<path class="st4" d="M21.8,313.1c-11-79.2,75.9-153.7,197.7-169.5"/>
					<path class="st4" d="M119.3,294.1c-48.6-12.3-89.9-56.1-92.5-97.7"/>
					<path class="st4" d="M164.5,255.4c-32.3-26.3-60.6-81.3-63.1-122.9"/>
				</g>
				<g>
					<path class="st4" d="M233.6,234c-7.5-33.9-15.7-95.2-18.2-136.8c128.8-16.7,249.4,34.5,274.5,116.4c2.5,41.6-37.8,82.4-90,91
						C384.7,254.9,311.6,223.9,233.6,234z"/>
					<path class="st4" d="M219.5,143.6c121.8-15.8,236,32.6,259.8,110.2"/>
					<path class="st4" d="M308,236.7c19.2-32.9,32.7-93.4,30.2-135"/>
					<path class="st4" d="M367.4,261.9c40.5-23.9,71.3-77,68.8-118.7"/>
				</g>
				<g>
					<path class="st4" d="M399.9,304.6c52.2-8.6,92.5-49.3,90-91c25.1,82-54.1,166.1-180.2,191.3c2.5,41.6-6,48.6-19,15.6
						C367.2,405.2,415.2,354.2,399.9,304.6z"/>
					<path class="st4" d="M479.3,253.8c23.8,77.6-51.2,157.1-170.5,181"/>
					<path class="st4" d="M395.4,353.3c50.6,8.9,89.5-17.6,87-59.3"/>
					<path class="st4" d="M356.4,394.7c36.6,23.8,64.2,9.3,61.7-32.4"/>
				</g>
				<g>
					<path class="st4" d="M6.4,276.3c-2.5-41.6,38.4-79.5,91.4-84.5C90.8,141,146.4,93.3,224.5,83.2c-7.5-33.9-11.6-27.7-9.1,13.9
						C86.6,113.9-5.2,192.6,6.4,276.3z"/>
					<path class="st4" d="M17.2,237C6.2,157.8,93.1,83.3,215,67.5"/>
					<path class="st4" d="M50,206.7c-9.4-67.4,64.5-130.8,168.2-144.2"/>
					<path class="st4" d="M26.8,196.4c-2.5-41.6,34.8-65.4,83.4-53"/>
					<path class="st4" d="M101.4,132.4c-2.5-41.6,21.7-54.1,54-27.8"/>
				</g>
				<g>
					<path class="st4" d="M215.4,97.2c-2.5-41.6,1.6-47.9,9.1-13.9c78-10.1,151.2,20.9,166.4,70.6c52.2-8.6,96.5,18.2,99.1,59.8
						C464.8,131.6,344.1,80.5,215.4,97.2z"/>
					<path class="st4" d="M215,67.5c121.8-15.8,236,32.6,259.8,110.2"/>
					<path class="st4" d="M218.2,62.5c103.6-13.4,200.7,27.7,221,93.7"/>
					<path class="st4" d="M338.2,101.7C335.7,60.1,318.1,53,298.9,86"/>
					<path class="st4" d="M436.2,143.3c-2.5-41.6-37.4-56-77.9-32.1"/>
				</g>
				<g>
					<path class="st4" d="M489.9,213.6c-2.5-41.6-46.9-68.4-99.1-59.8c15.2,49.7-32.8,100.6-109.2,116c13,33,25.6,93.6,28.1,135.2
						C435.8,379.7,515,295.6,489.9,213.6z"/>
					<path class="st4" d="M474.7,177.7c23.8,77.6-51.2,157.1-170.5,181"/>
					<path class="st4" d="M439.2,156.2c20.2,66-43.5,133.7-145,154"/>
					<path class="st4" d="M482.4,294c-2.5-41.6-45.5-82.6-96.1-91.5"/>
					<path class="st4" d="M418.1,362.3c-2.5-41.6-34.2-94.6-70.8-118.4"/>
				</g>
			</g>
			
				<path style="clip-path:url(#SVGID_00000079466389333861689360000017374579457067057316_);fill:none;stroke:#000000;stroke-width:2;stroke-miterlimit:10;" d="
				M5.6,268.2c0.3,3.8,0.9,8.9,1.3,12.8c-0.2-1.5-0.4-3.1-0.5-4.7c-2.5-41.6,38.4-79.5,91.4-84.5c-0.2-1.6-0.4-3.3-0.5-4.9
				C94.4,138,149,93,224.5,83.2c78-10.1,151.2,20.9,166.4,70.6c1.5,4.9,2.4,9.9,2.7,14.8c2.7,44.6-43.1,87.3-111.9,101.1
				c13,33,25.6,93.6,28.1,135.2c1.4,23.1-0.6,35.5-4.9,36.4h0c4.7-1.6,11.2-2.6,16-3.6c4.9-1.1,11.3-2.9,16-4.5
				c8.9-3,20.6-7.4,29.3-10.9c4.4-1.8,10.2-4.7,14.5-6.8c4.4-2.3,10.3-5.4,14.5-8c7.3-4.6,16.9-11.1,24-16.2
				c4.1-2.9,9.1-7.4,12.9-10.7c3.1-2.8,7.1-6.7,10-9.6c3.8-3.8,8.5-9.1,11.9-13.2c3.7-4.6,8.5-10.9,11.8-15.9c2.2-3.2,5-7.6,6.8-11
				c3.1-5.7,7.1-13.4,9.5-19.5c1.4-3.5,3.3-8.2,4.4-11.8c2-6.9,4.6-16.1,5.8-23.1c1.3-7.4,2-17.5,2.5-25.1c0.2-3.9,0.1-9.2-0.3-13.1
				c-0.6-7.6-2.2-17.8-3.5-25.3c-0.7-3.8-2.1-8.7-3.3-12.4c-1.2-3.9-2.8-9-4.4-12.7c-3-6.8-7.2-15.8-10.7-22.3
				c-1.9-3.5-4.7-7.9-7-11.2c-3.9-5.4-9.3-12.6-13.7-17.6c-2.7-3.1-6.3-7-9.3-9.8c-4.3-4.2-10.2-9.6-15-13.3
				c-3.3-2.6-7.7-6-11.1-8.4c-4.5-3.1-10.6-7.2-15.4-9.9c-7.6-4.2-17.9-9.4-25.7-13.1c-4.7-2.2-11.2-4.7-16.2-6.4
				c-4.7-1.6-10.8-3.8-15.6-5.1c-8.8-2.4-20.7-5.4-29.7-7c-16.1-2.9-32.3-4.5-48-4.8c-4.9-0.1-11.3-0.1-16.2,0
				c-4.9,0.1-11.4,0.6-16.3,0.9c-5,0.3-11.6,1-16.5,1.7c-6.7,0.9-15.5,2.2-22.1,3.6c-9.4,2-21.8,5.1-31,7.9
				c-4.6,1.4-10.6,3.5-15,5.1c-4.3,1.6-10,4-14.2,5.8c-4.4,1.8-10.1,4.6-14.4,6.8c-4,2-9.2,4.8-13.1,7.1c-4.2,2.4-9.6,5.9-13.6,8.5
				c-4.3,2.7-9.8,6.8-13.8,10c-6.5,5.2-14.8,12.7-20.9,18.5c-3.8,3.7-8.5,9-11.9,13.1c-3.8,4.6-8.6,10.8-11.9,15.8
				c-4.2,6.5-9.5,15.5-12.9,22.5c-2.8,5.8-6.1,13.8-8.1,20c-2.2,6.9-4.6,16.3-6,23.4c-1.5,7.5-2.1,17.6-2.5,25.2
				C5.1,258.8,5.3,264.2,5.6,268.2z"/>
			
				<use xlink:href="#SVGID_00000115501109980518934810000015022148061519840433_"  style="overflow:visible;fill:none;stroke:#000000;stroke-width:2;stroke-miterlimit:10;"/>
		</g>
	</g>
</g>
</svg>
