<svg version="1.1" id="Layer_1" xmlns="http://www.w3.org/2000/svg" xmlns:xlink="http://www.w3.org/1999/xlink" x="0" y="0" viewBox="0 0 500 500" xml:space="preserve"><style>.st0{enable-background:new}.st2{fill:none;stroke:#4243AE;stroke-width:2;stroke-miterlimit:10}</style><g class="st0"><g class="st0"><defs><path id="SVGID_00000059990717946743173130000015511603143918519945_" d="M281.6 269.7c-13-33-21.5-26.1-19 15.6 2.5 41.6 15.1 102.2 28.1 135.2s21.5 26.1 19-15.6c-2.5-41.6-15.1-102.1-28.1-135.2"/></defs><clipPath id="SVGID_00000030470231658851647820000004886454905589896322_"><use xlink:href="#SVGID_00000059990717946743173130000015511603143918519945_" style="overflow:visible"/></clipPath><path style="clip-path:url(#SVGID_00000030470231658851647820000004886454905589896322_);fill:none;stroke:#4243AE;stroke-width:2;stroke-miterlimit:10" d="M281.6 269.7c-13-33-21.5-26.1-19 15.6 2.5 41.6 15.1 102.2 28.1 135.2s21.5 26.1 19-15.6c-2.5-41.6-15.1-102.1-28.1-135.2z"/><path id="SVGID_1_" class="st2" d="M281.6 269.7c-13-33-21.5-26.1-19 15.6 2.5 41.6 15.1 102.2 28.1 135.2s21.5 26.1 19-15.6c-2.5-41.6-15.1-102.1-28.1-135.2z"/></g><g class="st0"><defs><path id="SVGID_00000116951237511732719640000007527384363580709278_" d="M97.8 191.8c-53 5-93.9 42.9-91.4 84.5s47.5 71.3 100.5 66.3 93.9-42.9 91.4-84.5c-2.5-41.7-47.5-71.4-100.5-66.3"/></defs><clipPath id="SVGID_00000031906470101514220980000009035794221143930788_"><use xlink:href="#SVGID_00000116951237511732719640000007527384363580709278_" style="overflow:visible"/></clipPath><path style="clip-path:url(#SVGID_00000031906470101514220980000009035794221143930788_);fill:none;stroke:#4243AE;stroke-width:2;stroke-miterlimit:10" d="M97.8 191.8c-53 5-93.9 42.9-91.4 84.5s47.5 71.3 100.5 66.3 93.9-42.9 91.4-84.5c-2.5-41.7-47.5-71.4-100.5-66.3z"/><path id="SVGID_00000136389229701514135000000013165143763688049596_" class="st2" d="M97.8 191.8c-53 5-93.9 42.9-91.4 84.5s47.5 71.3 100.5 66.3 93.9-42.9 91.4-84.5c-2.5-41.7-47.5-71.4-100.5-66.3z"/></g><g class="st0"><defs><path id="SVGID_00000171719208185588466330000014960062917212983700_" d="M197.9 253.4c.1.9.2 2.1.3 2.9-2.5-41.6-47.6-72.7-100.8-69.4.1 1.6.3 3.3.5 4.9 50.9-4.9 94.5 22.4 100 61.6"/></defs><clipPath id="SVGID_00000034779489222964710150000008767029453007412401_"><use xlink:href="#SVGID_00000171719208185588466330000014960062917212983700_" style="overflow:visible"/></clipPath><g style="clip-path:url(#SVGID_00000034779489222964710150000008767029453007412401_)"><path class="st2" d="M97.8 191.8c53-5 98 24.6 100.5 66.2-2.5-17.8 17-34.5 44.3-38-2.5-41.6-10.6-102.9-18.2-136.8-78 10.1-133.6 57.8-126.6 108.6z"/><path class="st2" d="M146.9 197.5c-4.7-34.1 32.6-66.2 85.1-73m-49.1 96.7c-3.1-22.3 21.3-43.2 55.6-47.6M198.3 258c2.5 41.6-38.4 79.5-91.4 84.5-7.1-50.7 48.6-98.5 126.6-108.6 7.5 33.9 11.6 27.7 9.1-13.9-27.3 3.6-46.7 20.3-44.3 38z"/></g><defs><path id="SVGID_00000163760639129232497560000002739673408227312040_" d="M197.9 253.4c.1.9.2 2.1.3 2.9-2.5-41.6-47.6-72.7-100.8-69.4.1 1.6.3 3.3.5 4.9 50.9-4.9 94.5 22.4 100 61.6"/></defs><clipPath id="SVGID_00000165194282006525352500000009942133663258129798_"><use xlink:href="#SVGID_00000163760639129232497560000002739673408227312040_" style="overflow:visible"/></clipPath><path style="clip-path:url(#SVGID_00000165194282006525352500000009942133663258129798_);fill:none;stroke:#4243AE;stroke-width:2;stroke-miterlimit:10" d="M197.9 253.4c.1.9.2 2.1.3 2.9-2.5-41.6-47.6-72.7-100.8-69.4.1 1.6.3 3.3.5 4.9 50.9-4.9 94.5 22.4 100 61.6z"/><path id="SVGID_00000160176738577946261520000005593851890038353820_" class="st2" d="M197.9 253.4c.1.9.2 2.1.3 2.9-2.5-41.6-47.6-72.7-100.8-69.4.1 1.6.3 3.3.5 4.9 50.9-4.9 94.5 22.4 100 61.6z"/></g><g class="st0"><defs><path id="SVGID_00000036243737565210430090000011570876811974708402_" d="M198.2 256.3c0 .6.1 1.1.2 1.7-.1-1.6-.2-3.1-.5-4.7.1 1 .2 2.1.3 3"/></defs><clipPath id="SVGID_00000137847552238383111730000002971898661137048743_"><use xlink:href="#SVGID_00000036243737565210430090000011570876811974708402_" style="overflow:visible"/></clipPath><g style="clip-path:url(#SVGID_00000137847552238383111730000002971898661137048743_)"><path class="st2" d="M97.8 191.8c53-5 98 24.6 100.5 66.2-2.5-17.8 17-34.5 44.3-38-2.5-41.6-10.6-102.9-18.2-136.8-78 10.1-133.6 57.8-126.6 108.6z"/><path class="st2" d="M198.3 258c2.5 41.6-38.4 79.5-91.4 84.5-7.1-50.7 48.6-98.5 126.6-108.6 7.5 33.9 11.6 27.7 9.1-13.9-27.3 3.6-46.7 20.3-44.3 38z"/></g><defs><path id="SVGID_00000044143402589998006870000010474227783733992065_" d="M198.2 256.3c0 .6.1 1.1.2 1.7-.1-1.6-.2-3.1-.5-4.7.1 1 .2 2.1.3 3"/></defs><clipPath id="SVGID_00000066487113965545158950000005402290959899822014_"><use xlink:href="#SVGID_00000044143402589998006870000010474227783733992065_" style="overflow:visible"/></clipPath><path style="clip-path:url(#SVGID_00000066487113965545158950000005402290959899822014_);fill:none;stroke:#4243AE;stroke-width:2;stroke-miterlimit:10" d="M198.2 256.3c0 .6.1 1.1.2 1.7-.1-1.6-.2-3.1-.5-4.7.1 1 .2 2.1.3 3z"/><path id="SVGID_00000047779673049507264750000016816793047283210633_" class="st2" d="M198.2 256.3c0 .6.1 1.1.2 1.7-.1-1.6-.2-3.1-.5-4.7.1 1 .2 2.1.3 3z"/></g><g class="st0"><defs><path id="SVGID_00000145764112683426910380000005428884673920310185_" d="M97.4 186.9c53.2-3.3 98.3 27.8 100.8 69.4-1-17.1 18.1-32.8 44.5-36.3 27.3-3.5 52.9 7.3 58.2 24.7.5 1.7.8 3.5.9 5.2-2.5-41.6 38.6-78 91.7-81.3-.3-4.9-1.2-9.9-2.7-14.8-15.2-49.7-88.3-80.7-166.4-70.6C149 93 94.4 138 97.4 186.9"/></defs><clipPath id="SVGID_00000083071653348381493550000015925012471153449370_"><use xlink:href="#SVGID_00000145764112683426910380000005428884673920310185_" style="overflow:visible"/></clipPath><g style="clip-path:url(#SVGID_00000083071653348381493550000015925012471153449370_)"><path class="st2" d="M97.8 191.8c53-5 98 24.6 100.5 66.2-2.5-17.8 17-34.5 44.3-38-2.5-41.6-10.6-102.9-18.2-136.8-78 10.1-133.6 57.8-126.6 108.6z"/><path class="st2" d="M146.9 197.5c-4.7-34.1 32.6-66.2 85.1-73m-49.1 96.7c-3.1-22.3 21.3-43.2 55.6-47.6"/><path class="st2" d="M110.2 143.3c48.6 12.3 90 56.1 92.5 97.7m-47.3-136.4c32.3 26.3 60.6 81.3 63.1 122.9m6-144.3c7.5 33.9 15.7 95.2 18.2 136.8 27.3-3.5 52.9 7.3 58.2 24.7-2.5-41.6 37.8-82.4 90-91-15.3-49.6-88.4-80.6-166.4-70.5z"/><path class="st2" d="M232 124.5c52.4-6.8 101.6 14 111.8 47.4m-105.3 1.7c34.2-4.4 66.3 9.2 73 31"/><path class="st2" d="M298.9 86c-19.2 32.9-32.7 93.4-30.2 135m89.6-109.8c-40.5 23.9-71.3 77-68.8 118.7"/><path class="st2" d="M390.9 153.8c-52.2 8.6-92.5 49.3-90 91 5.3 17.4-11.5 35.2-38.2 40.6-2.5-41.6 6-48.6 19-15.6 76.4-15.4 124.4-66.3 109.2-116z"/><path class="st2" d="M343.8 171.9c10.2 33.4-22 67.6-73.4 77.9"/><path class="st2" d="M311.5 204.6c6.7 21.8-14.4 44.2-47.9 50.9m-65.3 2.5c2.5 41.6-38.4 79.5-91.4 84.5-7.1-50.7 48.6-98.5 126.6-108.6 7.5 33.9 11.6 27.7 9.1-13.9-27.3 3.6-46.7 20.3-44.3 38z"/><path class="st2" d="M202.7 241.1c2.5 41.6-34.8 65.4-83.4 53"/><path class="st2" d="M218.5 227.5c2.5 41.6-21.7 54.1-54 27.8m78.1-35.3c2.5 41.6-1.6 47.9-9.1 13.9 78-10.1 151.2 20.9 166.4 70.6-52.2 8.6-96.6-18.2-99.1-59.8-5.3-17.4-30.8-28.2-58.2-24.7z"/><path class="st2" d="M268.7 221c2.5 41.6 20.1 48.7 39.3 15.7"/><path class="st2" d="M289.5 229.8c2.5 41.6 37.4 56 77.9 32.1"/><path class="st2" d="M300.9 244.7c2.5 41.6 46.9 68.4 99.1 59.8 15.2 49.7-32.8 100.6-109.2 116-13-33-25.6-93.6-28.1-135.2 26.7-5.3 43.5-23.2 38.2-40.6z"/></g><defs><path id="SVGID_00000052065305869104408070000017140311588939103889_" d="M97.4 186.9c53.2-3.3 98.3 27.8 100.8 69.4-1-17.1 18.1-32.8 44.5-36.3 27.3-3.5 52.9 7.3 58.2 24.7.5 1.7.8 3.5.9 5.2-2.5-41.6 38.6-78 91.7-81.3-.3-4.9-1.2-9.9-2.7-14.8-15.2-49.7-88.3-80.7-166.4-70.6C149 93 94.4 138 97.4 186.9"/></defs><clipPath id="SVGID_00000130644229863719401240000010501336480839225772_"><use xlink:href="#SVGID_00000052065305869104408070000017140311588939103889_" style="overflow:visible"/></clipPath><path style="clip-path:url(#SVGID_00000130644229863719401240000010501336480839225772_);fill:none;stroke:#4243AE;stroke-width:2;stroke-miterlimit:10" d="M97.4 186.9c53.2-3.3 98.3 27.8 100.8 69.4-1-17.1 18.1-32.8 44.5-36.3 27.3-3.5 52.9 7.3 58.2 24.7.5 1.7.8 3.5.9 5.2-2.5-41.6 38.6-78 91.7-81.3-.3-4.9-1.2-9.9-2.7-14.8-15.2-49.7-88.3-80.7-166.4-70.6C149 93 94.4 138 97.4 186.9z"/><path id="SVGID_00000037662100041871339580000005082101423368720056_" class="st2" d="M97.4 186.9c53.2-3.3 98.3 27.8 100.8 69.4-1-17.1 18.1-32.8 44.5-36.3 27.3-3.5 52.9 7.3 58.2 24.7.5 1.7.8 3.5.9 5.2-2.5-41.6 38.6-78 91.7-81.3-.3-4.9-1.2-9.9-2.7-14.8-15.2-49.7-88.3-80.7-166.4-70.6C149 93 94.4 138 97.4 186.9z"/></g><g class="st0"><defs><path id="SVGID_00000102541372952700764660000008404742924691001749_" d="M301.8 249.9c0-1.7-.1-4.1.1-5.8.1-.8.2-1.9.4-2.7.1-.7.4-1.7.5-2.4.3-1.2.8-2.7 1.3-3.9.2-.4.4-.9.6-1.3.5-1 .5-1 1-1.8l-.1.1-1 1c-.5.4-1.1 1-1.6 1.4-1.3 1-3.2 2.3-4.6 3.2-1.2.7-2.8 1.6-4 2.2-1.3.7-3 1.5-4.3 2.1-4.5 2-8.6 3.3-10.2 3.8-2 .6-6.1 1.9-12.3 3.1 3.4-.7 8.3 6.1 14.1 20.8 68.8-13.8 114.6-56.5 111.9-101.1-53.2 3.3-94.3 39.7-91.8 81.3"/></defs><clipPath id="SVGID_00000060742115606261506920000006978878675285297558_"><use xlink:href="#SVGID_00000102541372952700764660000008404742924691001749_" style="overflow:visible"/></clipPath><g style="clip-path:url(#SVGID_00000060742115606261506920000006978878675285297558_)"><path class="st2" d="M390.9 153.8c-52.2 8.6-92.5 49.3-90 91 5.3 17.4-11.5 35.2-38.2 40.6-2.5-41.6 6-48.6 19-15.6 76.4-15.4 124.4-66.3 109.2-116z"/><path class="st2" d="M343.8 171.9c10.2 33.4-22 67.6-73.4 77.9"/><path class="st2" d="M311.5 204.6c6.7 21.8-14.4 44.2-47.9 50.9"/><path class="st2" d="M386.3 202.5c-50.6-8.9-89.5 17.6-87 59.3"/><path class="st2" d="M347.3 243.9c-36.6-23.8-64.2-9.3-61.7 32.4"/><path class="st2" d="M300.9 244.7c2.5 41.6 46.9 68.4 99.1 59.8 15.2 49.7-32.8 100.6-109.2 116-13-33-25.6-93.6-28.1-135.2 26.7-5.3 43.5-23.2 38.2-40.6z"/><path class="st2" d="M299.3 261.8c2.5 41.6 45.5 82.6 96.1 91.5m-109.8-77c2.5 41.6 34.2 94.6 70.8 118.4"/></g><defs><path id="SVGID_00000136394516491688172720000003669142850155385264_" d="M301.8 249.9c0-1.7-.1-4.1.1-5.8.1-.8.2-1.9.4-2.7.1-.7.4-1.7.5-2.4.3-1.2.8-2.7 1.3-3.9.2-.4.4-.9.6-1.3.5-1 .5-1 1-1.8l-.1.1-1 1c-.5.4-1.1 1-1.6 1.4-1.3 1-3.2 2.3-4.6 3.2-1.2.7-2.8 1.6-4 2.2-1.3.7-3 1.5-4.3 2.1-4.5 2-8.6 3.3-10.2 3.8-2 .6-6.1 1.9-12.3 3.1 3.4-.7 8.3 6.1 14.1 20.8 68.8-13.8 114.6-56.5 111.9-101.1-53.2 3.3-94.3 39.7-91.8 81.3"/></defs><clipPath id="SVGID_00000053531341116566192410000002986675231740678824_"><use xlink:href="#SVGID_00000136394516491688172720000003669142850155385264_" style="overflow:visible"/></clipPath><path style="clip-path:url(#SVGID_00000053531341116566192410000002986675231740678824_);fill:none;stroke:#4243AE;stroke-width:2;stroke-miterlimit:10" d="M301.8 249.9c0-1.7-.1-4.1.1-5.8.1-.8.2-1.9.4-2.7.1-.7.4-1.7.5-2.4.3-1.2.8-2.7 1.3-3.9.2-.4.4-.9.6-1.3.5-1 .5-1 1-1.8l-.1.1-1 1c-.5.4-1.1 1-1.6 1.4-1.3 1-3.2 2.3-4.6 3.2-1.2.7-2.8 1.6-4 2.2-1.3.7-3 1.5-4.3 2.1-4.5 2-8.6 3.3-10.2 3.8-2 .6-6.1 1.9-12.3 3.1 3.4-.7 8.3 6.1 14.1 20.8 68.8-13.8 114.6-56.5 111.9-101.1-53.2 3.3-94.3 39.7-91.8 81.3z"/><path id="SVGID_00000162331550378135876870000005104699623979828664_" class="st2" d="M301.8 249.9c0-1.7-.1-4.1.1-5.8.1-.8.2-1.9.4-2.7.1-.7.4-1.7.5-2.4.3-1.2.8-2.7 1.3-3.9.2-.4.4-.9.6-1.3.5-1 .5-1 1-1.8l-.1.1-1 1c-.5.4-1.1 1-1.6 1.4-1.3 1-3.2 2.3-4.6 3.2-1.2.7-2.8 1.6-4 2.2-1.3.7-3 1.5-4.3 2.1-4.5 2-8.6 3.3-10.2 3.8-2 .6-6.1 1.9-12.3 3.1 3.4-.7 8.3 6.1 14.1 20.8 68.8-13.8 114.6-56.5 111.9-101.1-53.2 3.3-94.3 39.7-91.8 81.3z"/></g><g class="st0"><defs><path id="SVGID_00000170275606383042820570000006408755336521340305_" d="M267.5 248.9c-4.3.9-6.3 13.3-4.9 36.4 24.1-4.8 40.1-19.8 39.2-35.4-.2-2.8 0-4.6.1-5.9.1-1.5.5-3.4.8-4.8.2-1.1 1.2-4.6 2.8-7l.1-.1c-.4.4-.6.7-1.4 1.3-.4.3-.9.8-1.3 1.1-.7.6-1.8 1.4-2.6 1.9-.9.6-2.1 1.3-3 1.9-1 .6-2.5 1.3-3.5 1.9-1.2.6-2.7 1.3-3.9 1.9-4.3 1.9-8.4 3.2-10.4 3.9-3.5 1-8.3 2.2-12 2.9"/></defs><clipPath id="SVGID_00000125572050957566264840000003088442695864887946_"><use xlink:href="#SVGID_00000170275606383042820570000006408755336521340305_" style="overflow:visible"/></clipPath><g style="clip-path:url(#SVGID_00000125572050957566264840000003088442695864887946_)"><path class="st2" d="M390.9 153.8c-52.2 8.6-92.5 49.3-90 91 5.3 17.4-11.5 35.2-38.2 40.6-2.5-41.6 6-48.6 19-15.6 76.4-15.4 124.4-66.3 109.2-116z"/><path class="st2" d="M311.5 204.6c6.7 21.8-14.4 44.2-47.9 50.9"/><path class="st2" d="M386.3 202.5c-50.6-8.9-89.5 17.6-87 59.3"/><path class="st2" d="M347.3 243.9c-36.6-23.8-64.2-9.3-61.7 32.4"/><path class="st2" d="M300.9 244.7c2.5 41.6 46.9 68.4 99.1 59.8 15.2 49.7-32.8 100.6-109.2 116-13-33-25.6-93.6-28.1-135.2 26.7-5.3 43.5-23.2 38.2-40.6z"/><path class="st2" d="M299.3 261.8c2.5 41.6 45.5 82.6 96.1 91.5m-109.8-77c2.5 41.6 34.2 94.6 70.8 118.4"/></g><defs><path id="SVGID_00000061430403836253510790000004577300954850395325_" d="M267.5 248.9c-4.3.9-6.3 13.3-4.9 36.4 24.1-4.8 40.1-19.8 39.2-35.4-.2-2.8 0-4.6.1-5.9.1-1.5.5-3.4.8-4.8.2-1.1 1.2-4.6 2.8-7l.1-.1c-.4.4-.6.7-1.4 1.3-.4.3-.9.8-1.3 1.1-.7.6-1.8 1.4-2.6 1.9-.9.6-2.1 1.3-3 1.9-1 .6-2.5 1.3-3.5 1.9-1.2.6-2.7 1.3-3.9 1.9-4.3 1.9-8.4 3.2-10.4 3.9-3.5 1-8.3 2.2-12 2.9"/></defs><clipPath id="SVGID_00000016062001898601189270000009812797084967517827_"><use xlink:href="#SVGID_00000061430403836253510790000004577300954850395325_" style="overflow:visible"/></clipPath><path style="clip-path:url(#SVGID_00000016062001898601189270000009812797084967517827_);fill:none;stroke:#4243AE;stroke-width:2;stroke-miterlimit:10" d="M267.5 248.9c-4.3.9-6.3 13.3-4.9 36.4 24.1-4.8 40.1-19.8 39.2-35.4-.2-2.8 0-4.6.1-5.9.1-1.5.5-3.4.8-4.8.2-1.1 1.2-4.6 2.8-7l.1-.1c-.4.4-.6.7-1.4 1.3-.4.3-.9.8-1.3 1.1-.7.6-1.8 1.4-2.6 1.9-.9.6-2.1 1.3-3 1.9-1 .6-2.5 1.3-3.5 1.9-1.2.6-2.7 1.3-3.9 1.9-4.3 1.9-8.4 3.2-10.4 3.9-3.5 1-8.3 2.2-12 2.9z"/><path id="SVGID_00000126293686018315148550000011728088042952816543_" class="st2" d="M267.5 248.9c-4.3.9-6.3 13.3-4.9 36.4 24.1-4.8 40.1-19.8 39.2-35.4-.2-2.8 0-4.6.1-5.9.1-1.5.5-3.4.8-4.8.2-1.1 1.2-4.6 2.8-7l.1-.1c-.4.4-.6.7-1.4 1.3-.4.3-.9.8-1.3 1.1-.7.6-1.8 1.4-2.6 1.9-.9.6-2.1 1.3-3 1.9-1 .6-2.5 1.3-3.5 1.9-1.2.6-2.7 1.3-3.9 1.9-4.3 1.9-8.4 3.2-10.4 3.9-3.5 1-8.3 2.2-12 2.9z"/></g><g class="st0"><defs><path id="SVGID_00000098213887551333714070000008984999901211777466_" d="M198.2 256.3c0 1.7 0 4.1-.1 5.8 0 .9-.2 2-.4 2.9-.3 1.4-.7 3.2-1.1 4.5-.3.9-.8 2.1-1.2 3-.2.3-.4.7-.6 1-.1.2-.3.5-.4.7l.2-.2.9-.9c.5-.4 1.1-1 1.7-1.4.6-.5 1.5-1.1 2.2-1.6.9-.6 2.1-1.4 3.1-2 2.2-1.2 5.1-2.7 7.4-3.8 1.5-.7 3.6-1.5 5.1-2.1 1.6-.6 3.8-1.3 5.4-1.9 1.7-.5 4-1.1 5.8-1.6s4.3-1 6.1-1.4c4.8-1 12.1-2 15.9-2.2 3.6-.2 9.1-.6 13.4-.4 1.9.1 4.5.1 6.5.3 1.8.2 4.3.4 6.1.6s4.2.5 5.9.9c1.6.3 3.7.7 5.3 1.1 1.5.4 3.5.9 4.9 1.3 1.3.4 3.1.9 4.4 1.4 1.1.4 2.7 1 3.8 1.5 1 .4 2.3 1 3.3 1.5.9.4 2.1 1 2.9 1.6 1 .6 2 1.2 3 2 .1.1.2.2.3.2-.2-.2-.5-.6-.7-.8-.4-.6-.9-1.3-1.2-1.9-.6-1.1-1.4-2.7-1.8-3.9-.5-1.4-1.1-3.3-1.4-4.7-.3-1.2-.6-3.1-.8-5.9-.1-1.7-.4-3.5-.9-5.2-5.3-17.4-30.9-28.2-58.2-24.7-26.8 3.5-45.9 19.2-44.8 36.3"/></defs><clipPath id="SVGID_00000139978865604247567900000009462085486438664373_"><use xlink:href="#SVGID_00000098213887551333714070000008984999901211777466_" style="overflow:visible"/></clipPath><g style="clip-path:url(#SVGID_00000139978865604247567900000009462085486438664373_)"><path class="st2" d="M97.8 191.8c53-5 98 24.6 100.5 66.2-2.5-17.8 17-34.5 44.3-38-2.5-41.6-10.6-102.9-18.2-136.8-78 10.1-133.6 57.8-126.6 108.6z"/><path class="st2" d="M110.2 143.3c48.6 12.3 90 56.1 92.5 97.7m-47.3-136.4c32.3 26.3 60.6 81.3 63.1 122.9m6-144.3c7.5 33.9 15.7 95.2 18.2 136.8 27.3-3.5 52.9 7.3 58.2 24.7-2.5-41.6 37.8-82.4 90-91-15.3-49.6-88.4-80.6-166.4-70.5z"/><path class="st2" d="M298.9 86c-19.2 32.9-32.7 93.4-30.2 135m89.6-109.8c-40.5 23.9-71.3 77-68.8 118.7"/><path class="st2" d="M390.9 153.8c-52.2 8.6-92.5 49.3-90 91 5.3 17.4-11.5 35.2-38.2 40.6-2.5-41.6 6-48.6 19-15.6 76.4-15.4 124.4-66.3 109.2-116zM198.3 258c2.5 41.6-38.4 79.5-91.4 84.5-7.1-50.7 48.6-98.5 126.6-108.6 7.5 33.9 11.6 27.7 9.1-13.9-27.3 3.6-46.7 20.3-44.3 38z"/><path class="st2" d="M187.5 297.3c-3.1-22.3 21.3-43.2 55.6-47.6"/><path class="st2" d="M202.7 241.1c2.5 41.6-34.8 65.4-83.4 53"/><path class="st2" d="M218.5 227.5c2.5 41.6-21.7 54.1-54 27.8m78.1-35.3c2.5 41.6-1.6 47.9-9.1 13.9 78-10.1 151.2 20.9 166.4 70.6-52.2 8.6-96.6-18.2-99.1-59.8-5.3-17.4-30.8-28.2-58.2-24.7z"/><path class="st2" d="M243.1 249.7c34.2-4.4 66.3 9.2 73 31"/><path class="st2" d="M268.7 221c2.5 41.6 20.1 48.7 39.3 15.7"/><path class="st2" d="M289.5 229.8c2.5 41.6 37.4 56 77.9 32.1"/><path class="st2" d="M300.9 244.7c2.5 41.6 46.9 68.4 99.1 59.8 15.2 49.7-32.8 100.6-109.2 116-13-33-25.6-93.6-28.1-135.2 26.7-5.3 43.5-23.2 38.2-40.6z"/><path class="st2" d="M316.1 280.7c6.7 21.8-14.4 44.2-47.9 50.9"/></g><defs><path id="SVGID_00000178889216617005788900000016825822103772566199_" d="M198.2 256.3c0 1.7 0 4.1-.1 5.8 0 .9-.2 2-.4 2.9-.3 1.4-.7 3.2-1.1 4.5-.3.9-.8 2.1-1.2 3-.2.3-.4.7-.6 1-.1.2-.3.5-.4.7l.2-.2.9-.9c.5-.4 1.1-1 1.7-1.4.6-.5 1.5-1.1 2.2-1.6.9-.6 2.1-1.4 3.1-2 2.2-1.2 5.1-2.7 7.4-3.8 1.5-.7 3.6-1.5 5.1-2.1 1.6-.6 3.8-1.3 5.4-1.9 1.7-.5 4-1.1 5.8-1.6s4.3-1 6.1-1.4c4.8-1 12.1-2 15.9-2.2 3.6-.2 9.1-.6 13.4-.4 1.9.1 4.5.1 6.5.3 1.8.2 4.3.4 6.1.6s4.2.5 5.9.9c1.6.3 3.7.7 5.3 1.1 1.5.4 3.5.9 4.9 1.3 1.3.4 3.1.9 4.4 1.4 1.1.4 2.7 1 3.8 1.5 1 .4 2.3 1 3.3 1.5.9.4 2.1 1 2.9 1.6 1 .6 2 1.2 3 2 .1.1.2.2.3.2-.2-.2-.5-.6-.7-.8-.4-.6-.9-1.3-1.2-1.9-.6-1.1-1.4-2.7-1.8-3.9-.5-1.4-1.1-3.3-1.4-4.7-.3-1.2-.6-3.1-.8-5.9-.1-1.7-.4-3.5-.9-5.2-5.3-17.4-30.9-28.2-58.2-24.7-26.8 3.5-45.9 19.2-44.8 36.3"/></defs><clipPath id="SVGID_00000136393018103425365070000000642000362256414393_"><use xlink:href="#SVGID_00000178889216617005788900000016825822103772566199_" style="overflow:visible"/></clipPath><path style="clip-path:url(#SVGID_00000136393018103425365070000000642000362256414393_);fill:none;stroke:#4243AE;stroke-width:2;stroke-miterlimit:10" d="M198.2 256.3c0 1.7 0 4.1-.1 5.8 0 .9-.2 2-.4 2.9-.3 1.4-.7 3.2-1.1 4.5-.3.9-.8 2.1-1.2 3-.2.3-.4.7-.6 1-.1.2-.3.5-.4.7l.2-.2.9-.9c.5-.4 1.1-1 1.7-1.4.6-.5 1.5-1.1 2.2-1.6.9-.6 2.1-1.4 3.1-2 2.2-1.2 5.1-2.7 7.4-3.8 1.5-.7 3.6-1.5 5.1-2.1 1.6-.6 3.8-1.3 5.4-1.9 1.7-.5 4-1.1 5.8-1.6s4.3-1 6.1-1.4c4.8-1 12.1-2 15.9-2.2 3.6-.2 9.1-.6 13.4-.4 1.9.1 4.5.1 6.5.3 1.8.2 4.3.4 6.1.6s4.2.5 5.9.9c1.6.3 3.7.7 5.3 1.1 1.5.4 3.5.9 4.9 1.3 1.3.4 3.1.9 4.4 1.4 1.1.4 2.7 1 3.8 1.5 1 .4 2.3 1 3.3 1.5.9.4 2.1 1 2.9 1.6 1 .6 2 1.2 3 2 .1.1.2.2.3.2-.2-.2-.5-.6-.7-.8-.4-.6-.9-1.3-1.2-1.9-.6-1.1-1.4-2.7-1.8-3.9-.5-1.4-1.1-3.3-1.4-4.7-.3-1.2-.6-3.1-.8-5.9-.1-1.7-.4-3.5-.9-5.2-5.3-17.4-30.9-28.2-58.2-24.7-26.8 3.5-45.9 19.2-44.8 36.3z"/><path id="SVGID_00000085232077979905515090000013619449549655359659_" class="st2" d="M198.2 256.3c0 1.7 0 4.1-.1 5.8 0 .9-.2 2-.4 2.9-.3 1.4-.7 3.2-1.1 4.5-.3.9-.8 2.1-1.2 3-.2.3-.4.7-.6 1-.1.2-.3.5-.4.7l.2-.2.9-.9c.5-.4 1.1-1 1.7-1.4.6-.5 1.5-1.1 2.2-1.6.9-.6 2.1-1.4 3.1-2 2.2-1.2 5.1-2.7 7.4-3.8 1.5-.7 3.6-1.5 5.1-2.1 1.6-.6 3.8-1.3 5.4-1.9 1.7-.5 4-1.1 5.8-1.6s4.3-1 6.1-1.4c4.8-1 12.1-2 15.9-2.2 3.6-.2 9.1-.6 13.4-.4 1.9.1 4.5.1 6.5.3 1.8.2 4.3.4 6.1.6s4.2.5 5.9.9c1.6.3 3.7.7 5.3 1.1 1.5.4 3.5.9 4.9 1.3 1.3.4 3.1.9 4.4 1.4 1.1.4 2.7 1 3.8 1.5 1 .4 2.3 1 3.3 1.5.9.4 2.1 1 2.9 1.6 1 .6 2 1.2 3 2 .1.1.2.2.3.2-.2-.2-.5-.6-.7-.8-.4-.6-.9-1.3-1.2-1.9-.6-1.1-1.4-2.7-1.8-3.9-.5-1.4-1.1-3.3-1.4-4.7-.3-1.2-.6-3.1-.8-5.9-.1-1.7-.4-3.5-.9-5.2-5.3-17.4-30.9-28.2-58.2-24.7-26.8 3.5-45.9 19.2-44.8 36.3z"/></g><g class="st0"><defs><path id="SVGID_00000080899207527459023920000012423144634641710012_" d="M241.2 255.9c2-.3 4.8-.6 6.8-.7s4.7-.3 6.8-.4c2-.1 4.6-.1 6.6 0 2 0 4.6.1 6.6.3 3.6.3 8.3.9 11.9 1.5 1.7.3 3.9.7 5.5 1.1 1.5.4 3.4.9 4.9 1.3 1.4.4 3.2 1 4.6 1.5 1.1.4 2.6 1 3.8 1.5 1 .4 2.4 1 3.4 1.6.9.5 2.1 1.1 2.9 1.6.4.3 1 .6 1.4.9.3.2.8.6 1.1.8l.3.3s0-.1-.1-.1c-.4-.4-.8-1-1.1-1.5-.5-.8-1.2-2-1.6-2.9-.6-1.2-1.2-3-1.7-4.3-.3-.8-.5-1.9-.7-2.7s-.4-2-.5-2.8c-.2-.9-.2-2.1-.3-2.9 2.5 41.6 47.6 72.7 100.8 69.5-.3-4.9-1.2-9.9-2.7-14.8-15.2-49.7-88.3-80.7-166.4-70.6-75.5 9.8-130.1 54.8-127.1 103.7 53.2-3.3 94.2-39.7 91.7-81.3.1.9.1 2.1.1 3.1 0 .9-.1 2-.2 2.9-.1 1.5-.5 3.4-.8 4.8-.3 1.3-.9 2.9-1.3 4.1l-1 2c-.2.3-.4.7-.6 1 .3-.3.7-.7 1.5-1.4.5-.4 1.2-1 1.7-1.4.9-.7 2.6-1.9 5.2-3.5 2.2-1.3 5.2-2.7 7.5-3.8 1.5-.7 3.5-1.4 5-2 1.6-.6 3.7-1.3 5.2-1.8 1.7-.5 4-1.2 5.8-1.6 2.5-.6 5.9-1.3 8.4-1.8 2-.6 4.6-1 6.6-1.2"/></defs><clipPath id="SVGID_00000168824912378941271490000013579682937052704414_"><use xlink:href="#SVGID_00000080899207527459023920000012423144634641710012_" style="overflow:visible"/></clipPath><g style="clip-path:url(#SVGID_00000168824912378941271490000013579682937052704414_)"><path class="st2" d="M97.8 191.8c53-5 98 24.6 100.5 66.2-2.5-17.8 17-34.5 44.3-38-2.5-41.6-10.6-102.9-18.2-136.8-78 10.1-133.6 57.8-126.6 108.6z"/><path class="st2" d="M110.2 143.3c48.6 12.3 90 56.1 92.5 97.7m-47.3-136.4c32.3 26.3 60.6 81.3 63.1 122.9m6-144.3c7.5 33.9 15.7 95.2 18.2 136.8 27.3-3.5 52.9 7.3 58.2 24.7-2.5-41.6 37.8-82.4 90-91-15.3-49.6-88.4-80.6-166.4-70.5z"/><path class="st2" d="M298.9 86c-19.2 32.9-32.7 93.4-30.2 135m89.6-109.8c-40.5 23.9-71.3 77-68.8 118.7"/><path class="st2" d="M390.9 153.8c-52.2 8.6-92.5 49.3-90 91 5.3 17.4-11.5 35.2-38.2 40.6-2.5-41.6 6-48.6 19-15.6 76.4-15.4 124.4-66.3 109.2-116zM198.3 258c2.5 41.6-38.4 79.5-91.4 84.5-7.1-50.7 48.6-98.5 126.6-108.6 7.5 33.9 11.6 27.7 9.1-13.9-27.3 3.6-46.7 20.3-44.3 38z"/><path class="st2" d="M187.5 297.3c-3.1-22.3 21.3-43.2 55.6-47.6"/><path class="st2" d="M154.7 327.7c-4.7-34.1 32.6-66.2 85.1-73"/><path class="st2" d="M202.7 241.1c2.5 41.6-34.8 65.4-83.4 53"/><path class="st2" d="M218.5 227.5c2.5 41.6-21.7 54.1-54 27.8m78.1-35.3c2.5 41.6-1.6 47.9-9.1 13.9 78-10.1 151.2 20.9 166.4 70.6-52.2 8.6-96.6-18.2-99.1-59.8-5.3-17.4-30.8-28.2-58.2-24.7z"/><path class="st2" d="M243.1 249.7c34.2-4.4 66.3 9.2 73 31"/><path class="st2" d="M239.8 254.7c52.4-6.8 101.6 14 111.8 47.4"/><path class="st2" d="M268.7 221c2.5 41.6 20.1 48.7 39.3 15.7"/><path class="st2" d="M289.5 229.8c2.5 41.6 37.4 56 77.9 32.1"/><path class="st2" d="M300.9 244.7c2.5 41.6 46.9 68.4 99.1 59.8 15.2 49.7-32.8 100.6-109.2 116-13-33-25.6-93.6-28.1-135.2 26.7-5.3 43.5-23.2 38.2-40.6z"/><path class="st2" d="M316.1 280.7c6.7 21.8-14.4 44.2-47.9 50.9m83.4-29.5c10.2 33.4-22 67.6-73.4 77.9m-171.3-37.4c-53 5-98-24.6-100.5-66.3-11.6-83.7 80.2-162.4 209-179.1 2.5 41.6 10.6 102.9 18.2 136.8-78.1 10.1-133.7 57.8-126.7 108.6z"/><path class="st2" d="M119.3 294.1c-48.6-12.3-89.9-56.1-92.5-97.7m137.7 59c-32.3-26.3-60.6-81.3-63.1-122.9M233.6 234c-7.5-33.9-15.7-95.2-18.2-136.8 128.8-16.7 249.4 34.5 274.5 116.4 2.5 41.6-37.8 82.4-90 91-15.2-49.7-88.3-80.7-166.3-70.6z"/><path class="st2" d="M308 236.7c19.2-32.9 32.7-93.4 30.2-135m29.2 160.2c40.5-23.9 71.3-77 68.8-118.7m-36.3 161.4c52.2-8.6 92.5-49.3 90-91 25.1 82-54.1 166.1-180.2 191.3 2.5 41.6-6 48.6-19 15.6 76.5-15.3 124.5-66.3 109.2-115.9z"/></g><defs><path id="SVGID_00000061460006253358417050000006548519956926339220_" d="M241.2 255.9c2-.3 4.8-.6 6.8-.7s4.7-.3 6.8-.4c2-.1 4.6-.1 6.6 0 2 0 4.6.1 6.6.3 3.6.3 8.3.9 11.9 1.5 1.7.3 3.9.7 5.5 1.1 1.5.4 3.4.9 4.9 1.3 1.4.4 3.2 1 4.6 1.5 1.1.4 2.6 1 3.8 1.5 1 .4 2.4 1 3.4 1.6.9.5 2.1 1.1 2.9 1.6.4.3 1 .6 1.4.9.3.2.8.6 1.1.8l.3.3s0-.1-.1-.1c-.4-.4-.8-1-1.1-1.5-.5-.8-1.2-2-1.6-2.9-.6-1.2-1.2-3-1.7-4.3-.3-.8-.5-1.9-.7-2.7s-.4-2-.5-2.8c-.2-.9-.2-2.1-.3-2.9 2.5 41.6 47.6 72.7 100.8 69.5-.3-4.9-1.2-9.9-2.7-14.8-15.2-49.7-88.3-80.7-166.4-70.6-75.5 9.8-130.1 54.8-127.1 103.7 53.2-3.3 94.2-39.7 91.7-81.3.1.9.1 2.1.1 3.1 0 .9-.1 2-.2 2.9-.1 1.5-.5 3.4-.8 4.8-.3 1.3-.9 2.9-1.3 4.1l-1 2c-.2.3-.4.7-.6 1 .3-.3.7-.7 1.5-1.4.5-.4 1.2-1 1.7-1.4.9-.7 2.6-1.9 5.2-3.5 2.2-1.3 5.2-2.7 7.5-3.8 1.5-.7 3.5-1.4 5-2 1.6-.6 3.7-1.3 5.2-1.8 1.7-.5 4-1.2 5.8-1.6 2.5-.6 5.9-1.3 8.4-1.8 2-.6 4.6-1 6.6-1.2"/></defs><clipPath id="SVGID_00000093871409205565655050000015778008486522102434_"><use xlink:href="#SVGID_00000061460006253358417050000006548519956926339220_" style="overflow:visible"/></clipPath><path style="clip-path:url(#SVGID_00000093871409205565655050000015778008486522102434_);fill:none;stroke:#4243AE;stroke-width:2;stroke-miterlimit:10" d="M241.2 255.9c2-.3 4.8-.6 6.8-.7s4.7-.3 6.8-.4c2-.1 4.6-.1 6.6 0 2 0 4.6.1 6.6.3 3.6.3 8.3.9 11.9 1.5 1.7.3 3.9.7 5.5 1.1 1.5.4 3.4.9 4.9 1.3 1.4.4 3.2 1 4.6 1.5 1.1.4 2.6 1 3.8 1.5 1 .4 2.4 1 3.4 1.6.9.5 2.1 1.1 2.9 1.6.4.3 1 .6 1.4.9.3.2.8.6 1.1.8l.3.3s0-.1-.1-.1c-.4-.4-.8-1-1.1-1.5-.5-.8-1.2-2-1.6-2.9-.6-1.2-1.2-3-1.7-4.3-.3-.8-.5-1.9-.7-2.7s-.4-2-.5-2.8c-.2-.9-.2-2.1-.3-2.9 2.5 41.6 47.6 72.7 100.8 69.5-.3-4.9-1.2-9.9-2.7-14.8-15.2-49.7-88.3-80.7-166.4-70.6-75.5 9.8-130.1 54.8-127.1 103.7 53.2-3.3 94.2-39.7 91.7-81.3.1.9.1 2.1.1 3.1 0 .9-.1 2-.2 2.9-.1 1.5-.5 3.4-.8 4.8-.3 1.3-.9 2.9-1.3 4.1l-1 2c-.2.3-.4.7-.6 1 .3-.3.7-.7 1.5-1.4.5-.4 1.2-1 1.7-1.4.9-.7 2.6-1.9 5.2-3.5 2.2-1.3 5.2-2.7 7.5-3.8 1.5-.7 3.5-1.4 5-2 1.6-.6 3.7-1.3 5.2-1.8 1.7-.5 4-1.2 5.8-1.6 2.5-.6 5.9-1.3 8.4-1.8 2-.6 4.6-1 6.6-1.2z"/><path id="SVGID_00000061448150863786605890000007846301765045049729_" class="st2" d="M241.2 255.9c2-.3 4.8-.6 6.8-.7s4.7-.3 6.8-.4c2-.1 4.6-.1 6.6 0 2 0 4.6.1 6.6.3 3.6.3 8.3.9 11.9 1.5 1.7.3 3.9.7 5.5 1.1 1.5.4 3.4.9 4.9 1.3 1.4.4 3.2 1 4.6 1.5 1.1.4 2.6 1 3.8 1.5 1 .4 2.4 1 3.4 1.6.9.5 2.1 1.1 2.9 1.6.4.3 1 .6 1.4.9.3.2.8.6 1.1.8l.3.3s0-.1-.1-.1c-.4-.4-.8-1-1.1-1.5-.5-.8-1.2-2-1.6-2.9-.6-1.2-1.2-3-1.7-4.3-.3-.8-.5-1.9-.7-2.7s-.4-2-.5-2.8c-.2-.9-.2-2.1-.3-2.9 2.5 41.6 47.6 72.7 100.8 69.5-.3-4.9-1.2-9.9-2.7-14.8-15.2-49.7-88.3-80.7-166.4-70.6-75.5 9.8-130.1 54.8-127.1 103.7 53.2-3.3 94.2-39.7 91.7-81.3.1.9.1 2.1.1 3.1 0 .9-.1 2-.2 2.9-.1 1.5-.5 3.4-.8 4.8-.3 1.3-.9 2.9-1.3 4.1l-1 2c-.2.3-.4.7-.6 1 .3-.3.7-.7 1.5-1.4.5-.4 1.2-1 1.7-1.4.9-.7 2.6-1.9 5.2-3.5 2.2-1.3 5.2-2.7 7.5-3.8 1.5-.7 3.5-1.4 5-2 1.6-.6 3.7-1.3 5.2-1.8 1.7-.5 4-1.2 5.8-1.6 2.5-.6 5.9-1.3 8.4-1.8 2-.6 4.6-1 6.6-1.2z"/></g><g class="st0"><defs><path id="SVGID_00000087383981680942846640000001334906757801598605_" d="M106.4 337.6c.1 1.6.3 3.3.5 4.9 53-5 93.9-42.9 91.4-84.5-.1-.6-.1-1.1-.2-1.7 2.6 41.7-38.5 78.1-91.7 81.3"/></defs><clipPath id="SVGID_00000126284124450313505640000007965402639259032507_"><use xlink:href="#SVGID_00000087383981680942846640000001334906757801598605_" style="overflow:visible"/></clipPath><g style="clip-path:url(#SVGID_00000126284124450313505640000007965402639259032507_)"><path class="st2" d="M97.8 191.8c53-5 98 24.6 100.5 66.2-2.5-17.8 17-34.5 44.3-38-2.5-41.6-10.6-102.9-18.2-136.8-78 10.1-133.6 57.8-126.6 108.6z"/><path class="st2" d="M198.3 258c2.5 41.6-38.4 79.5-91.4 84.5-7.1-50.7 48.6-98.5 126.6-108.6 7.5 33.9 11.6 27.7 9.1-13.9-27.3 3.6-46.7 20.3-44.3 38z"/><path class="st2" d="M187.5 297.3c-3.1-22.3 21.3-43.2 55.6-47.6"/><path class="st2" d="M154.7 327.7c-4.7-34.1 32.6-66.2 85.1-73"/><path class="st2" d="M106.9 342.6c-53 5-98-24.6-100.5-66.3-11.6-83.7 80.2-162.4 209-179.1 2.5 41.6 10.6 102.9 18.2 136.8-78.1 10.1-133.7 57.8-126.7 108.6z"/></g><defs><path id="SVGID_00000006704386944279341670000002940581097191575733_" d="M106.4 337.6c.1 1.6.3 3.3.5 4.9 53-5 93.9-42.9 91.4-84.5-.1-.6-.1-1.1-.2-1.7 2.6 41.7-38.5 78.1-91.7 81.3"/></defs><clipPath id="SVGID_00000087386941369868280770000016101824021169035904_"><use xlink:href="#SVGID_00000006704386944279341670000002940581097191575733_" style="overflow:visible"/></clipPath><path style="clip-path:url(#SVGID_00000087386941369868280770000016101824021169035904_);fill:none;stroke:#4243AE;stroke-width:2;stroke-miterlimit:10" d="M106.4 337.6c.1 1.6.3 3.3.5 4.9 53-5 93.9-42.9 91.4-84.5-.1-.6-.1-1.1-.2-1.7 2.6 41.7-38.5 78.1-91.7 81.3z"/><path id="SVGID_00000152973247817366748920000013443392816473494971_" class="st2" d="M106.4 337.6c.1 1.6.3 3.3.5 4.9 53-5 93.9-42.9 91.4-84.5-.1-.6-.1-1.1-.2-1.7 2.6 41.7-38.5 78.1-91.7 81.3z"/></g><g class="st0"><defs><path id="SVGID_00000183208286476803360460000008407976467566214583_" d="M301.8 249.9c.9 15.6-15.1 30.6-39.2 35.4 2.5 41.6 15.1 102.2 28.1 135.2 68.8-13.8 114.6-56.5 111.9-101.1-53.1 3.3-98.3-27.8-100.8-69.5"/></defs><clipPath id="SVGID_00000065047532128431290220000016347464791592344225_"><use xlink:href="#SVGID_00000183208286476803360460000008407976467566214583_" style="overflow:visible"/></clipPath><g style="clip-path:url(#SVGID_00000065047532128431290220000016347464791592344225_)"><path class="st2" d="M390.9 153.8c-52.2 8.6-92.5 49.3-90 91 5.3 17.4-11.5 35.2-38.2 40.6-2.5-41.6 6-48.6 19-15.6 76.4-15.4 124.4-66.3 109.2-116z"/><path class="st2" d="M386.3 202.5c-50.6-8.9-89.5 17.6-87 59.3"/><path class="st2" d="M347.3 243.9c-36.6-23.8-64.2-9.3-61.7 32.4"/><path class="st2" d="M300.9 244.7c2.5 41.6 46.9 68.4 99.1 59.8 15.2 49.7-32.8 100.6-109.2 116-13-33-25.6-93.6-28.1-135.2 26.7-5.3 43.5-23.2 38.2-40.6z"/><path class="st2" d="M316.1 280.7c6.7 21.8-14.4 44.2-47.9 50.9m83.4-29.5c10.2 33.4-22 67.6-73.4 77.9"/><path class="st2" d="M299.3 261.8c2.5 41.6 45.5 82.6 96.1 91.5m-109.8-77c2.5 41.6 34.2 94.6 70.8 118.4"/><path class="st2" d="M399.9 304.6c52.2-8.6 92.5-49.3 90-91 25.1 82-54.1 166.1-180.2 191.3 2.5 41.6-6 48.6-19 15.6 76.5-15.3 124.5-66.3 109.2-115.9z"/><path class="st2" d="M395.4 353.3c50.6 8.9 89.5-17.6 87-59.3m-126 100.7c36.6 23.8 64.2 9.3 61.7-32.4"/></g><defs><path id="SVGID_00000169539299245683345800000015649280437486229951_" d="M301.8 249.9c.9 15.6-15.1 30.6-39.2 35.4 2.5 41.6 15.1 102.2 28.1 135.2 68.8-13.8 114.6-56.5 111.9-101.1-53.1 3.3-98.3-27.8-100.8-69.5"/></defs><clipPath id="SVGID_00000035494535475055363930000007219974811479198859_"><use xlink:href="#SVGID_00000169539299245683345800000015649280437486229951_" style="overflow:visible"/></clipPath><path style="clip-path:url(#SVGID_00000035494535475055363930000007219974811479198859_);fill:none;stroke:#4243AE;stroke-width:2;stroke-miterlimit:10" d="M301.8 249.9c.9 15.6-15.1 30.6-39.2 35.4 2.5 41.6 15.1 102.2 28.1 135.2 68.8-13.8 114.6-56.5 111.9-101.1-53.1 3.3-98.3-27.8-100.8-69.5z"/><path id="SVGID_00000136395232886862104530000018342327168129118384_" class="st2" d="M301.8 249.9c.9 15.6-15.1 30.6-39.2 35.4 2.5 41.6 15.1 102.2 28.1 135.2 68.8-13.8 114.6-56.5 111.9-101.1-53.1 3.3-98.3-27.8-100.8-69.5z"/></g><g class="st0"><defs><path id="SVGID_00000117653156896660409590000009364017716147740063_" d="M6.9 281c5.4 39.2 49 66.4 100 61.6-.2-1.6-.4-3.3-.5-4.9-2.9-48.9 51.6-93.9 127.1-103.7 78-10.1 151.2 20.9 166.4 70.6 1.5 4.9 2.4 9.9 2.7 14.8 2.7 44.6-43.1 87.3-111.9 101.1 5.8 14.7 10.7 21.5 14.1 20.8 11.4-2.3 22.2-5.1 32.9-8.5 4.5-1.4 10.5-3.5 14.9-5.2 4.8-1.8 11.2-4.5 15.9-6.5 8.2-3.7 18.9-9.2 26.7-13.8 4.5-2.7 10.3-6.4 14.6-9.4 3.6-2.4 8.2-5.9 11.6-8.6 4.3-3.4 9.9-8.2 13.9-11.9 3.1-2.8 6.9-6.8 9.8-9.8 4.2-4.2 9.3-10.3 12.9-15.1 2.4-3.2 5.6-7.5 7.8-10.9 3.5-5.5 7.8-13 10.9-18.8 3.4-6.3 7.1-15.3 9.3-22.2 1.2-3.6 2.7-8.4 3.6-12.1 1-3.8 2.1-8.9 2.7-12.7 1.3-7.4 2.6-17.5 2.4-25.1-.1-4 0-9.2-.3-13.2-.2-3.8-.6-8.9-1.3-12.7s-1.3-8.9-2.3-12.6c-1.9-7.2-4.6-16.8-7.2-23.8-2.7-7.3-7.1-16.6-11.1-23.2-3.5-5.7-8.5-13.2-12.4-18.7-2.3-3.2-5.8-7.1-8.3-10.1-3.8-4.6-9.5-10.4-14-14.3-4-3.5-9.4-8.2-13.6-11.5-3.3-2.6-7.9-5.8-11.3-8.2-4.1-2.8-9.8-6.3-14.1-8.8-3.7-2.2-8.8-4.8-12.7-6.8-4.3-2.1-10.1-4.8-14.5-6.6-4.1-1.7-9.6-3.9-13.8-5.3-4.5-1.5-10.4-3.5-14.9-4.8-4.4-1.3-10.2-2.9-14.7-3.8-4.6-.9-10.7-2.4-15.3-3.1s-10.7-1.7-15.4-2.3-11-1.2-15.7-1.6c-4.8-.3-11.1-.7-15.9-.8s-11.3-.1-16.1 0c-4.9.2-11.4.4-16.3.9-6.7.6-15.7 1.4-22.4 2.5-4.9.8-11.4 1.9-16.2 2.8-4.8 1-11.3 2.3-16.1 3.7s-11.3 3-16.1 4.6c-8.8 3-20.4 7.1-28.9 10.9-10.6 4.6-20.8 9.9-30.3 15.7-3.7 2.2-8.6 5.4-12.2 7.9-4.6 3.2-10.6 7.7-14.9 11.2-6.5 5.2-14.8 12.7-20.5 18.9-4 4.4-9.2 10.4-13 15-2.5 3.1-5.7 7.5-7.9 10.9-3.6 5.5-8 13.1-11.1 18.9-1.9 3.4-3.9 8.2-5.5 11.8-3 6.6-6 15.8-7.7 22.8-.9 3.7-2.1 8.7-2.7 12.5-.7 3.9-1.6 9.1-1.8 13-.4 7.7-.6 17.9-.5 25.6 0 3.9.7 9 1.2 12.9"/></defs><clipPath id="SVGID_00000181785260401300027680000005319747647564986804_"><use xlink:href="#SVGID_00000117653156896660409590000009364017716147740063_" style="overflow:visible"/></clipPath><g style="clip-path:url(#SVGID_00000181785260401300027680000005319747647564986804_)"><path class="st2" d="M198.3 258c2.5 41.6-38.4 79.5-91.4 84.5-7.1-50.7 48.6-98.5 126.6-108.6 7.5 33.9 11.6 27.7 9.1-13.9-27.3 3.6-46.7 20.3-44.3 38z"/><path class="st2" d="M202.7 241.1c2.5 41.6-34.8 65.4-83.4 53"/><path class="st2" d="M218.5 227.5c2.5 41.6-21.7 54.1-54 27.8m78.1-35.3c2.5 41.6-1.6 47.9-9.1 13.9 78-10.1 151.2 20.9 166.4 70.6-52.2 8.6-96.6-18.2-99.1-59.8-5.3-17.4-30.8-28.2-58.2-24.7z"/><path class="st2" d="M268.7 221c2.5 41.6 20.1 48.7 39.3 15.7"/><path class="st2" d="M289.5 229.8c2.5 41.6 37.4 56 77.9 32.1"/><path class="st2" d="M300.9 244.7c2.5 41.6 46.9 68.4 99.1 59.8 15.2 49.7-32.8 100.6-109.2 116-13-33-25.6-93.6-28.1-135.2 26.7-5.3 43.5-23.2 38.2-40.6z"/><path class="st2" d="M299.3 261.8c2.5 41.6 45.5 82.6 96.1 91.5m-109.8-77c2.5 41.6 34.2 94.6 70.8 118.4m-249.5-52.1c-53 5-98-24.6-100.5-66.3-11.6-83.7 80.2-162.4 209-179.1 2.5 41.6 10.6 102.9 18.2 136.8-78.1 10.1-133.7 57.8-126.7 108.6z"/><path class="st2" d="M57.9 336.9c-9.4-67.4 64.5-130.8 168.2-144.2"/><path class="st2" d="M21.8 313.1c-11-79.2 75.9-153.7 197.7-169.5"/><path class="st2" d="M119.3 294.1c-48.6-12.3-89.9-56.1-92.5-97.7m137.7 59c-32.3-26.3-60.6-81.3-63.1-122.9M233.6 234c-7.5-33.9-15.7-95.2-18.2-136.8 128.8-16.7 249.4 34.5 274.5 116.4 2.5 41.6-37.8 82.4-90 91-15.2-49.7-88.3-80.7-166.3-70.6z"/><path class="st2" d="M226 192.7c103.6-13.4 200.7 27.7 221 93.7"/><path class="st2" d="M219.5 143.6c121.8-15.8 236 32.6 259.8 110.2"/><path class="st2" d="M308 236.7c19.2-32.9 32.7-93.4 30.2-135m29.2 160.2c40.5-23.9 71.3-77 68.8-118.7m-36.3 161.4c52.2-8.6 92.5-49.3 90-91 25.1 82-54.1 166.1-180.2 191.3 2.5 41.6-6 48.6-19 15.6 76.5-15.3 124.5-66.3 109.2-115.9z"/><path class="st2" d="M447 286.4c20.2 66-43.5 133.7-145 154"/><path class="st2" d="M479.3 253.8c23.8 77.6-51.2 157.1-170.5 181"/><path class="st2" d="M395.4 353.3c50.6 8.9 89.5-17.6 87-59.3m-126 100.7c36.6 23.8 64.2 9.3 61.7-32.4m-411.7-86c-2.5-41.6 38.4-79.5 91.4-84.5-7-50.8 48.6-98.5 126.7-108.6-7.5-33.9-11.6-27.7-9.1 13.9C86.6 113.9-5.2 192.6 6.4 276.3z"/><path class="st2" d="M17.2 237C6.2 157.8 93.1 83.3 215 67.5"/><path class="st2" d="M26.8 196.4c-2.5-41.6 34.8-65.4 83.4-53m-8.8-11c-2.5-41.6 21.7-54.1 54-27.8m60-7.4c-2.5-41.6 1.6-47.9 9.1-13.9 78-10.1 151.2 20.9 166.4 70.6 52.2-8.6 96.5 18.2 99.1 59.8-25.2-82.1-145.9-133.2-274.6-116.5z"/><path class="st2" d="M215 67.5c121.8-15.8 236 32.6 259.8 110.2"/><path class="st2" d="M338.2 101.7C335.7 60.1 318.1 53 298.9 86m137.3 57.3c-2.5-41.6-37.4-56-77.9-32.1m131.6 102.4c-2.5-41.6-46.9-68.4-99.1-59.8 15.2 49.7-32.8 100.6-109.2 116 13 33 25.6 93.6 28.1 135.2C435.8 379.7 515 295.6 489.9 213.6z"/><path class="st2" d="M474.7 177.7c23.8 77.6-51.2 157.1-170.5 181"/><path class="st2" d="M482.4 294c-2.5-41.6-45.5-82.6-96.1-91.5m31.8 159.8c-2.5-41.6-34.2-94.6-70.8-118.4"/></g><defs><path id="SVGID_00000170249651146406894190000004063894563912170645_" d="M6.9 281c5.4 39.2 49 66.4 100 61.6-.2-1.6-.4-3.3-.5-4.9-2.9-48.9 51.6-93.9 127.1-103.7 78-10.1 151.2 20.9 166.4 70.6 1.5 4.9 2.4 9.9 2.7 14.8 2.7 44.6-43.1 87.3-111.9 101.1 5.8 14.7 10.7 21.5 14.1 20.8 11.4-2.3 22.2-5.1 32.9-8.5 4.5-1.4 10.5-3.5 14.9-5.2 4.8-1.8 11.2-4.5 15.9-6.5 8.2-3.7 18.9-9.2 26.7-13.8 4.5-2.7 10.3-6.4 14.6-9.4 3.6-2.4 8.2-5.9 11.6-8.6 4.3-3.4 9.9-8.2 13.9-11.9 3.1-2.8 6.9-6.8 9.8-9.8 4.2-4.2 9.3-10.3 12.9-15.1 2.4-3.2 5.6-7.5 7.8-10.9 3.5-5.5 7.8-13 10.9-18.8 3.4-6.3 7.1-15.3 9.3-22.2 1.2-3.6 2.7-8.4 3.6-12.1 1-3.8 2.1-8.9 2.7-12.7 1.3-7.4 2.6-17.5 2.4-25.1-.1-4 0-9.2-.3-13.2-.2-3.8-.6-8.9-1.3-12.7s-1.3-8.9-2.3-12.6c-1.9-7.2-4.6-16.8-7.2-23.8-2.7-7.3-7.1-16.6-11.1-23.2-3.5-5.7-8.5-13.2-12.4-18.7-2.3-3.2-5.8-7.1-8.3-10.1-3.8-4.6-9.5-10.4-14-14.3-4-3.5-9.4-8.2-13.6-11.5-3.3-2.6-7.9-5.8-11.3-8.2-4.1-2.8-9.8-6.3-14.1-8.8-3.7-2.2-8.8-4.8-12.7-6.8-4.3-2.1-10.1-4.8-14.5-6.6-4.1-1.7-9.6-3.9-13.8-5.3-4.5-1.5-10.4-3.5-14.9-4.8-4.4-1.3-10.2-2.9-14.7-3.8-4.6-.9-10.7-2.4-15.3-3.1s-10.7-1.7-15.4-2.3-11-1.2-15.7-1.6c-4.8-.3-11.1-.7-15.9-.8s-11.3-.1-16.1 0c-4.9.2-11.4.4-16.3.9-6.7.6-15.7 1.4-22.4 2.5-4.9.8-11.4 1.9-16.2 2.8-4.8 1-11.3 2.3-16.1 3.7s-11.3 3-16.1 4.6c-8.8 3-20.4 7.1-28.9 10.9-10.6 4.6-20.8 9.9-30.3 15.7-3.7 2.2-8.6 5.4-12.2 7.9-4.6 3.2-10.6 7.7-14.9 11.2-6.5 5.2-14.8 12.7-20.5 18.9-4 4.4-9.2 10.4-13 15-2.5 3.1-5.7 7.5-7.9 10.9-3.6 5.5-8 13.1-11.1 18.9-1.9 3.4-3.9 8.2-5.5 11.8-3 6.6-6 15.8-7.7 22.8-.9 3.7-2.1 8.7-2.7 12.5-.7 3.9-1.6 9.1-1.8 13-.4 7.7-.6 17.9-.5 25.6 0 3.9.7 9 1.2 12.9"/></defs><clipPath id="SVGID_00000134952543913630007250000006055890250586152328_"><use xlink:href="#SVGID_00000170249651146406894190000004063894563912170645_" style="overflow:visible"/></clipPath><path style="clip-path:url(#SVGID_00000134952543913630007250000006055890250586152328_);fill:none;stroke:#4243AE;stroke-width:2;stroke-miterlimit:10" d="M6.9 281c5.4 39.2 49 66.4 100 61.6-.2-1.6-.4-3.3-.5-4.9-2.9-48.9 51.6-93.9 127.1-103.7 78-10.1 151.2 20.9 166.4 70.6 1.5 4.9 2.4 9.9 2.7 14.8 2.7 44.6-43.1 87.3-111.9 101.1 5.8 14.7 10.7 21.5 14.1 20.8 11.4-2.3 22.2-5.1 32.9-8.5 4.5-1.4 10.5-3.5 14.9-5.2 4.8-1.8 11.2-4.5 15.9-6.5 8.2-3.7 18.9-9.2 26.7-13.8 4.5-2.7 10.3-6.4 14.6-9.4 3.6-2.4 8.2-5.9 11.6-8.6 4.3-3.4 9.9-8.2 13.9-11.9 3.1-2.8 6.9-6.8 9.8-9.8 4.2-4.2 9.3-10.3 12.9-15.1 2.4-3.2 5.6-7.5 7.8-10.9 3.5-5.5 7.8-13 10.9-18.8 3.4-6.3 7.1-15.3 9.3-22.2 1.2-3.6 2.7-8.4 3.6-12.1 1-3.8 2.1-8.9 2.7-12.7 1.3-7.4 2.6-17.5 2.4-25.1-.1-4 0-9.2-.3-13.2-.2-3.8-.6-8.9-1.3-12.7s-1.3-8.9-2.3-12.6c-1.9-7.2-4.6-16.8-7.2-23.8-2.7-7.3-7.1-16.6-11.1-23.2-3.5-5.7-8.5-13.2-12.4-18.7-2.3-3.2-5.8-7.1-8.3-10.1-3.8-4.6-9.5-10.4-14-14.3-4-3.5-9.4-8.2-13.6-11.5-3.3-2.6-7.9-5.8-11.3-8.2-4.1-2.8-9.8-6.3-14.1-8.8-3.7-2.2-8.8-4.8-12.7-6.8-4.3-2.1-10.1-4.8-14.5-6.6-4.1-1.7-9.6-3.9-13.8-5.3-4.5-1.5-10.4-3.5-14.9-4.8-4.4-1.3-10.2-2.9-14.7-3.8-4.6-.9-10.7-2.4-15.3-3.1s-10.7-1.7-15.4-2.3-11-1.2-15.7-1.6c-4.8-.3-11.1-.7-15.9-.8s-11.3-.1-16.1 0c-4.9.2-11.4.4-16.3.9-6.7.6-15.7 1.4-22.4 2.5-4.9.8-11.4 1.9-16.2 2.8-4.8 1-11.3 2.3-16.1 3.7s-11.3 3-16.1 4.6c-8.8 3-20.4 7.1-28.9 10.9-10.6 4.6-20.8 9.9-30.3 15.7-3.7 2.2-8.6 5.4-12.2 7.9-4.6 3.2-10.6 7.7-14.9 11.2-6.5 5.2-14.8 12.7-20.5 18.9-4 4.4-9.2 10.4-13 15-2.5 3.1-5.7 7.5-7.9 10.9-3.6 5.5-8 13.1-11.1 18.9-1.9 3.4-3.9 8.2-5.5 11.8-3 6.6-6 15.8-7.7 22.8-.9 3.7-2.1 8.7-2.7 12.5-.7 3.9-1.6 9.1-1.8 13-.4 7.7-.6 17.9-.5 25.6 0 3.9.7 9 1.2 12.9z"/><path id="SVGID_00000165234416975766407780000014363975612811562915_" class="st2" d="M6.9 281c5.4 39.2 49 66.4 100 61.6-.2-1.6-.4-3.3-.5-4.9-2.9-48.9 51.6-93.9 127.1-103.7 78-10.1 151.2 20.9 166.4 70.6 1.5 4.9 2.4 9.9 2.7 14.8 2.7 44.6-43.1 87.3-111.9 101.1 5.8 14.7 10.7 21.5 14.1 20.8 11.4-2.3 22.2-5.1 32.9-8.5 4.5-1.4 10.5-3.5 14.9-5.2 4.8-1.8 11.2-4.5 15.9-6.5 8.2-3.7 18.9-9.2 26.7-13.8 4.5-2.7 10.3-6.4 14.6-9.4 3.6-2.4 8.2-5.9 11.6-8.6 4.3-3.4 9.9-8.2 13.9-11.9 3.1-2.8 6.9-6.8 9.8-9.8 4.2-4.2 9.3-10.3 12.9-15.1 2.4-3.2 5.6-7.5 7.8-10.9 3.5-5.5 7.8-13 10.9-18.8 3.4-6.3 7.1-15.3 9.3-22.2 1.2-3.6 2.7-8.4 3.6-12.1 1-3.8 2.1-8.9 2.7-12.7 1.3-7.4 2.6-17.5 2.4-25.1-.1-4 0-9.2-.3-13.2-.2-3.8-.6-8.9-1.3-12.7s-1.3-8.9-2.3-12.6c-1.9-7.2-4.6-16.8-7.2-23.8-2.7-7.3-7.1-16.6-11.1-23.2-3.5-5.7-8.5-13.2-12.4-18.7-2.3-3.2-5.8-7.1-8.3-10.1-3.8-4.6-9.5-10.4-14-14.3-4-3.5-9.4-8.2-13.6-11.5-3.3-2.6-7.9-5.8-11.3-8.2-4.1-2.8-9.8-6.3-14.1-8.8-3.7-2.2-8.8-4.8-12.7-6.8-4.3-2.1-10.1-4.8-14.5-6.6-4.1-1.7-9.6-3.9-13.8-5.3-4.5-1.5-10.4-3.5-14.9-4.8-4.4-1.3-10.2-2.9-14.7-3.8-4.6-.9-10.7-2.4-15.3-3.1s-10.7-1.7-15.4-2.3-11-1.2-15.7-1.6c-4.8-.3-11.1-.7-15.9-.8s-11.3-.1-16.1 0c-4.9.2-11.4.4-16.3.9-6.7.6-15.7 1.4-22.4 2.5-4.9.8-11.4 1.9-16.2 2.8-4.8 1-11.3 2.3-16.1 3.7s-11.3 3-16.1 4.6c-8.8 3-20.4 7.1-28.9 10.9-10.6 4.6-20.8 9.9-30.3 15.7-3.7 2.2-8.6 5.4-12.2 7.9-4.6 3.2-10.6 7.7-14.9 11.2-6.5 5.2-14.8 12.7-20.5 18.9-4 4.4-9.2 10.4-13 15-2.5 3.1-5.7 7.5-7.9 10.9-3.6 5.5-8 13.1-11.1 18.9-1.9 3.4-3.9 8.2-5.5 11.8-3 6.6-6 15.8-7.7 22.8-.9 3.7-2.1 8.7-2.7 12.5-.7 3.9-1.6 9.1-1.8 13-.4 7.7-.6 17.9-.5 25.6 0 3.9.7 9 1.2 12.9z"/></g><g class="st0"><defs><path id="SVGID_00000150064818558387311220000005605718126967773075_" d="M5.6 268.2c.3 3.8.9 8.9 1.3 12.8-.2-1.5-.4-3.1-.5-4.7-2.5-41.6 38.4-79.5 91.4-84.5-.2-1.6-.4-3.3-.5-4.9C94.4 138 149 93 224.5 83.2c78-10.1 151.2 20.9 166.4 70.6 1.5 4.9 2.4 9.9 2.7 14.8 2.7 44.6-43.1 87.3-111.9 101.1 13 33 25.6 93.6 28.1 135.2 1.4 23.1-.6 35.5-4.9 36.4 4.7-1.6 11.2-2.6 16-3.6 4.9-1.1 11.3-2.9 16-4.5 8.9-3 20.6-7.4 29.3-10.9 4.4-1.8 10.2-4.7 14.5-6.8 4.4-2.3 10.3-5.4 14.5-8 7.3-4.6 16.9-11.1 24-16.2 4.1-2.9 9.1-7.4 12.9-10.7 3.1-2.8 7.1-6.7 10-9.6 3.8-3.8 8.5-9.1 11.9-13.2 3.7-4.6 8.5-10.9 11.8-15.9 2.2-3.2 5-7.6 6.8-11 3.1-5.7 7.1-13.4 9.5-19.5 1.4-3.5 3.3-8.2 4.4-11.8 2-6.9 4.6-16.1 5.8-23.1 1.3-7.4 2-17.5 2.5-25.1.2-3.9.1-9.2-.3-13.1-.6-7.6-2.2-17.8-3.5-25.3-.7-3.8-2.1-8.7-3.3-12.4-1.2-3.9-2.8-9-4.4-12.7-3-6.8-7.2-15.8-10.7-22.3-1.9-3.5-4.7-7.9-7-11.2-3.9-5.4-9.3-12.6-13.7-17.6-2.7-3.1-6.3-7-9.3-9.8-4.3-4.2-10.2-9.6-15-13.3-3.3-2.6-7.7-6-11.1-8.4-4.5-3.1-10.6-7.2-15.4-9.9-7.6-4.2-17.9-9.4-25.7-13.1-4.7-2.2-11.2-4.7-16.2-6.4-4.7-1.6-10.8-3.8-15.6-5.1-8.8-2.4-20.7-5.4-29.7-7-16.1-2.9-32.3-4.5-48-4.8-4.9-.1-11.3-.1-16.2 0s-11.4.6-16.3.9c-5 .3-11.6 1-16.5 1.7-6.7.9-15.5 2.2-22.1 3.6-9.4 2-21.8 5.1-31 7.9-4.6 1.4-10.6 3.5-15 5.1-4.3 1.6-10 4-14.2 5.8-4.4 1.8-10.1 4.6-14.4 6.8-4 2-9.2 4.8-13.1 7.1-4.2 2.4-9.6 5.9-13.6 8.5-4.3 2.7-9.8 6.8-13.8 10-6.5 5.2-14.8 12.7-20.9 18.5-3.8 3.7-8.5 9-11.9 13.1-3.8 4.6-8.6 10.8-11.9 15.8-4.2 6.5-9.5 15.5-12.9 22.5-2.8 5.8-6.1 13.8-8.1 20-2.2 6.9-4.6 16.3-6 23.4-1.5 7.5-2.1 17.6-2.5 25.2-.4 3.9-.2 9.3.1 13.3"/></defs><clipPath id="SVGID_00000012452019689766785530000011140632162726137516_"><use xlink:href="#SVGID_00000150064818558387311220000005605718126967773075_" style="overflow:visible"/></clipPath><g style="clip-path:url(#SVGID_00000012452019689766785530000011140632162726137516_)"><path class="st2" d="M106.9 342.6c-53 5-98-24.6-100.5-66.3-11.6-83.7 80.2-162.4 209-179.1 2.5 41.6 10.6 102.9 18.2 136.8-78.1 10.1-133.7 57.8-126.7 108.6z"/><path class="st2" d="M21.8 313.1c-11-79.2 75.9-153.7 197.7-169.5"/><path class="st2" d="M119.3 294.1c-48.6-12.3-89.9-56.1-92.5-97.7m137.7 59c-32.3-26.3-60.6-81.3-63.1-122.9M233.6 234c-7.5-33.9-15.7-95.2-18.2-136.8 128.8-16.7 249.4 34.5 274.5 116.4 2.5 41.6-37.8 82.4-90 91-15.2-49.7-88.3-80.7-166.3-70.6z"/><path class="st2" d="M219.5 143.6c121.8-15.8 236 32.6 259.8 110.2"/><path class="st2" d="M308 236.7c19.2-32.9 32.7-93.4 30.2-135m29.2 160.2c40.5-23.9 71.3-77 68.8-118.7m-36.3 161.4c52.2-8.6 92.5-49.3 90-91 25.1 82-54.1 166.1-180.2 191.3 2.5 41.6-6 48.6-19 15.6 76.5-15.3 124.5-66.3 109.2-115.9z"/><path class="st2" d="M479.3 253.8c23.8 77.6-51.2 157.1-170.5 181"/><path class="st2" d="M395.4 353.3c50.6 8.9 89.5-17.6 87-59.3m-126 100.7c36.6 23.8 64.2 9.3 61.7-32.4m-411.7-86c-2.5-41.6 38.4-79.5 91.4-84.5-7-50.8 48.6-98.5 126.7-108.6-7.5-33.9-11.6-27.7-9.1 13.9C86.6 113.9-5.2 192.6 6.4 276.3z"/><path class="st2" d="M17.2 237C6.2 157.8 93.1 83.3 215 67.5"/><path class="st2" d="M50 206.7c-9.4-67.4 64.5-130.8 168.2-144.2"/><path class="st2" d="M26.8 196.4c-2.5-41.6 34.8-65.4 83.4-53m-8.8-11c-2.5-41.6 21.7-54.1 54-27.8m60-7.4c-2.5-41.6 1.6-47.9 9.1-13.9 78-10.1 151.2 20.9 166.4 70.6 52.2-8.6 96.5 18.2 99.1 59.8-25.2-82.1-145.9-133.2-274.6-116.5z"/><path class="st2" d="M215 67.5c121.8-15.8 236 32.6 259.8 110.2"/><path class="st2" d="M218.2 62.5c103.6-13.4 200.7 27.7 221 93.7"/><path class="st2" d="M338.2 101.7C335.7 60.1 318.1 53 298.9 86m137.3 57.3c-2.5-41.6-37.4-56-77.9-32.1m131.6 102.4c-2.5-41.6-46.9-68.4-99.1-59.8 15.2 49.7-32.8 100.6-109.2 116 13 33 25.6 93.6 28.1 135.2C435.8 379.7 515 295.6 489.9 213.6z"/><path class="st2" d="M474.7 177.7c23.8 77.6-51.2 157.1-170.5 181"/><path class="st2" d="M439.2 156.2c20.2 66-43.5 133.7-145 154"/><path class="st2" d="M482.4 294c-2.5-41.6-45.5-82.6-96.1-91.5m31.8 159.8c-2.5-41.6-34.2-94.6-70.8-118.4"/></g><defs><path id="SVGID_00000034054741725375827440000013676941207568218815_" d="M5.6 268.2c.3 3.8.9 8.9 1.3 12.8-.2-1.5-.4-3.1-.5-4.7-2.5-41.6 38.4-79.5 91.4-84.5-.2-1.6-.4-3.3-.5-4.9C94.4 138 149 93 224.5 83.2c78-10.1 151.2 20.9 166.4 70.6 1.5 4.9 2.4 9.9 2.7 14.8 2.7 44.6-43.1 87.3-111.9 101.1 13 33 25.6 93.6 28.1 135.2 1.4 23.1-.6 35.5-4.9 36.4 4.7-1.6 11.2-2.6 16-3.6 4.9-1.1 11.3-2.9 16-4.5 8.9-3 20.6-7.4 29.3-10.9 4.4-1.8 10.2-4.7 14.5-6.8 4.4-2.3 10.3-5.4 14.5-8 7.3-4.6 16.9-11.1 24-16.2 4.1-2.9 9.1-7.4 12.9-10.7 3.1-2.8 7.1-6.7 10-9.6 3.8-3.8 8.5-9.1 11.9-13.2 3.7-4.6 8.5-10.9 11.8-15.9 2.2-3.2 5-7.6 6.8-11 3.1-5.7 7.1-13.4 9.5-19.5 1.4-3.5 3.3-8.2 4.4-11.8 2-6.9 4.6-16.1 5.8-23.1 1.3-7.4 2-17.5 2.5-25.1.2-3.9.1-9.2-.3-13.1-.6-7.6-2.2-17.8-3.5-25.3-.7-3.8-2.1-8.7-3.3-12.4-1.2-3.9-2.8-9-4.4-12.7-3-6.8-7.2-15.8-10.7-22.3-1.9-3.5-4.7-7.9-7-11.2-3.9-5.4-9.3-12.6-13.7-17.6-2.7-3.1-6.3-7-9.3-9.8-4.3-4.2-10.2-9.6-15-13.3-3.3-2.6-7.7-6-11.1-8.4-4.5-3.1-10.6-7.2-15.4-9.9-7.6-4.2-17.9-9.4-25.7-13.1-4.7-2.2-11.2-4.7-16.2-6.4-4.7-1.6-10.8-3.8-15.6-5.1-8.8-2.4-20.7-5.4-29.7-7-16.1-2.9-32.3-4.5-48-4.8-4.9-.1-11.3-.1-16.2 0s-11.4.6-16.3.9c-5 .3-11.6 1-16.5 1.7-6.7.9-15.5 2.2-22.1 3.6-9.4 2-21.8 5.1-31 7.9-4.6 1.4-10.6 3.5-15 5.1-4.3 1.6-10 4-14.2 5.8-4.4 1.8-10.1 4.6-14.4 6.8-4 2-9.2 4.8-13.1 7.1-4.2 2.4-9.6 5.9-13.6 8.5-4.3 2.7-9.8 6.8-13.8 10-6.5 5.2-14.8 12.7-20.9 18.5-3.8 3.7-8.5 9-11.9 13.1-3.8 4.6-8.6 10.8-11.9 15.8-4.2 6.5-9.5 15.5-12.9 22.5-2.8 5.8-6.1 13.8-8.1 20-2.2 6.9-4.6 16.3-6 23.4-1.5 7.5-2.1 17.6-2.5 25.2-.4 3.9-.2 9.3.1 13.3"/></defs><clipPath id="SVGID_00000145749245891215091160000001518480432566473140_"><use xlink:href="#SVGID_00000034054741725375827440000013676941207568218815_" style="overflow:visible"/></clipPath><path style="clip-path:url(#SVGID_00000145749245891215091160000001518480432566473140_);fill:none;stroke:#4243AE;stroke-width:2;stroke-miterlimit:10" d="M5.6 268.2c.3 3.8.9 8.9 1.3 12.8-.2-1.5-.4-3.1-.5-4.7-2.5-41.6 38.4-79.5 91.4-84.5-.2-1.6-.4-3.3-.5-4.9C94.4 138 149 93 224.5 83.2c78-10.1 151.2 20.9 166.4 70.6 1.5 4.9 2.4 9.9 2.7 14.8 2.7 44.6-43.1 87.3-111.9 101.1 13 33 25.6 93.6 28.1 135.2 1.4 23.1-.6 35.5-4.9 36.4 4.7-1.6 11.2-2.6 16-3.6 4.9-1.1 11.3-2.9 16-4.5 8.9-3 20.6-7.4 29.3-10.9 4.4-1.8 10.2-4.7 14.5-6.8 4.4-2.3 10.3-5.4 14.5-8 7.3-4.6 16.9-11.1 24-16.2 4.1-2.9 9.1-7.4 12.9-10.7 3.1-2.8 7.1-6.7 10-9.6 3.8-3.8 8.5-9.1 11.9-13.2 3.7-4.6 8.5-10.9 11.8-15.9 2.2-3.2 5-7.6 6.8-11 3.1-5.7 7.1-13.4 9.5-19.5 1.4-3.5 3.3-8.2 4.4-11.8 2-6.9 4.6-16.1 5.8-23.1 1.3-7.4 2-17.5 2.5-25.1.2-3.9.1-9.2-.3-13.1-.6-7.6-2.2-17.8-3.5-25.3-.7-3.8-2.1-8.7-3.3-12.4-1.2-3.9-2.8-9-4.4-12.7-3-6.8-7.2-15.8-10.7-22.3-1.9-3.5-4.7-7.9-7-11.2-3.9-5.4-9.3-12.6-13.7-17.6-2.7-3.1-6.3-7-9.3-9.8-4.3-4.2-10.2-9.6-15-13.3-3.3-2.6-7.7-6-11.1-8.4-4.5-3.1-10.6-7.2-15.4-9.9-7.6-4.2-17.9-9.4-25.7-13.1-4.7-2.2-11.2-4.7-16.2-6.4-4.7-1.6-10.8-3.8-15.6-5.1-8.8-2.4-20.7-5.4-29.7-7-16.1-2.9-32.3-4.5-48-4.8-4.9-.1-11.3-.1-16.2 0s-11.4.6-16.3.9c-5 .3-11.6 1-16.5 1.7-6.7.9-15.5 2.2-22.1 3.6-9.4 2-21.8 5.1-31 7.9-4.6 1.4-10.6 3.5-15 5.1-4.3 1.6-10 4-14.2 5.8-4.4 1.8-10.1 4.6-14.4 6.8-4 2-9.2 4.8-13.1 7.1-4.2 2.4-9.6 5.9-13.6 8.5-4.3 2.7-9.8 6.8-13.8 10-6.5 5.2-14.8 12.7-20.9 18.5-3.8 3.7-8.5 9-11.9 13.1-3.8 4.6-8.6 10.8-11.9 15.8-4.2 6.5-9.5 15.5-12.9 22.5-2.8 5.8-6.1 13.8-8.1 20-2.2 6.9-4.6 16.3-6 23.4-1.5 7.5-2.1 17.6-2.5 25.2-.4 3.9-.2 9.3.1 13.3z"/><path id="SVGID_00000115501109980518934810000015022148061519840433_" class="st2" d="M5.6 268.2c.3 3.8.9 8.9 1.3 12.8-.2-1.5-.4-3.1-.5-4.7-2.5-41.6 38.4-79.5 91.4-84.5-.2-1.6-.4-3.3-.5-4.9C94.4 138 149 93 224.5 83.2c78-10.1 151.2 20.9 166.4 70.6 1.5 4.9 2.4 9.9 2.7 14.8 2.7 44.6-43.1 87.3-111.9 101.1 13 33 25.6 93.6 28.1 135.2 1.4 23.1-.6 35.5-4.9 36.4 4.7-1.6 11.2-2.6 16-3.6 4.9-1.1 11.3-2.9 16-4.5 8.9-3 20.6-7.4 29.3-10.9 4.4-1.8 10.2-4.7 14.5-6.8 4.4-2.3 10.3-5.4 14.5-8 7.3-4.6 16.9-11.1 24-16.2 4.1-2.9 9.1-7.4 12.9-10.7 3.1-2.8 7.1-6.7 10-9.6 3.8-3.8 8.5-9.1 11.9-13.2 3.7-4.6 8.5-10.9 11.8-15.9 2.2-3.2 5-7.6 6.8-11 3.1-5.7 7.1-13.4 9.5-19.5 1.4-3.5 3.3-8.2 4.4-11.8 2-6.9 4.6-16.1 5.8-23.1 1.3-7.4 2-17.5 2.5-25.1.2-3.9.1-9.2-.3-13.1-.6-7.6-2.2-17.8-3.5-25.3-.7-3.8-2.1-8.7-3.3-12.4-1.2-3.9-2.8-9-4.4-12.7-3-6.8-7.2-15.8-10.7-22.3-1.9-3.5-4.7-7.9-7-11.2-3.9-5.4-9.3-12.6-13.7-17.6-2.7-3.1-6.3-7-9.3-9.8-4.3-4.2-10.2-9.6-15-13.3-3.3-2.6-7.7-6-11.1-8.4-4.5-3.1-10.6-7.2-15.4-9.9-7.6-4.2-17.9-9.4-25.7-13.1-4.7-2.2-11.2-4.7-16.2-6.4-4.7-1.6-10.8-3.8-15.6-5.1-8.8-2.4-20.7-5.4-29.7-7-16.1-2.9-32.3-4.5-48-4.8-4.9-.1-11.3-.1-16.2 0s-11.4.6-16.3.9c-5 .3-11.6 1-16.5 1.7-6.7.9-15.5 2.2-22.1 3.6-9.4 2-21.8 5.1-31 7.9-4.6 1.4-10.6 3.5-15 5.1-4.3 1.6-10 4-14.2 5.8-4.4 1.8-10.1 4.6-14.4 6.8-4 2-9.2 4.8-13.1 7.1-4.2 2.4-9.6 5.9-13.6 8.5-4.3 2.7-9.8 6.8-13.8 10-6.5 5.2-14.8 12.7-20.9 18.5-3.8 3.7-8.5 9-11.9 13.1-3.8 4.6-8.6 10.8-11.9 15.8-4.2 6.5-9.5 15.5-12.9 22.5-2.8 5.8-6.1 13.8-8.1 20-2.2 6.9-4.6 16.3-6 23.4-1.5 7.5-2.1 17.6-2.5 25.2-.4 3.9-.2 9.3.1 13.3z"/></g></g></svg>