<?xml version="1.0" encoding="utf-8"?>
<!-- Generator: Adobe Illustrator 27.5.0, SVG Export Plug-In . SVG Version: 6.00 Build 0)  -->
<svg version="1.1" id="Layer_1" xmlns="http://www.w3.org/2000/svg" xmlns:xlink="http://www.w3.org/1999/xlink" x="0px" y="0px"
	 viewBox="0 0 300 500" style="enable-background:new 0 0 300 500;" xml:space="preserve">
<style type="text/css">
	.st0{fill:none;stroke:#231F20;stroke-width:2;stroke-miterlimit:10;}
	.st1{fill:none;stroke:#231F20;stroke-linecap:round;stroke-miterlimit:10;}
	.st2{fill:none;stroke:#231F20;stroke-width:0.75;stroke-miterlimit:10;}
	.st3{fill:none;stroke:#231F20;stroke-width:0.5;stroke-miterlimit:10;}
	.st4{fill:none;stroke:#231F20;stroke-width:0.5;stroke-linecap:round;stroke-miterlimit:10;}
</style>
<polygon class="st0" points="47.9,33.6 133.7,33.6 142.6,24.6 212.8,24.6 233.1,44.9 233.1,392.5 243.9,403.3 243.9,445.1 
	228.9,460.2 162.3,460.2 147,475.4 41.7,475.4 20.5,454.1 20.5,308.3 33.4,295.4 33.4,44.8 "/>
<polyline class="st1" points="250.6,39.7 265.9,39.7 280.2,54 280.2,372.6 268,384.9 "/>
<polygon class="st2" points="239.5,47.7 255.5,47.7 271.2,62.2 271.2,366 259.8,376.5 239.5,376.5 "/>
<rect x="245.3" y="183.9" class="st3" width="20.1" height="159"/>
<rect x="249.7" y="189.8" class="st3" width="11.3" height="146.7"/>
<path class="st3" d="M221.5,225.6h-11.6c-3.4,0-6.1-2.7-6.1-6.1V55.2c0-3.4,2.7-6.1,6.1-6.1h11.6c3.4,0,6.1,2.7,6.1,6.1v164.3
	C227.6,222.8,224.9,225.6,221.5,225.6z"/>
<path class="st3" d="M217.6,220.2h-3.7c-3.4,0-6.1-2.7-6.1-6.1V60.3c0-3.4,2.7-6.1,6.1-6.1h3.7c3.4,0,6.1,2.7,6.1,6.1v153.9
	C223.7,217.5,220.9,220.2,217.6,220.2z"/>
<path class="st3" d="M245.7,124.6L245.7,124.6c-1.7,0-3-1.3-3-3V76c0-1.7,1.3-3,3-3h0c1.7,0,3,1.3,3,3v45.6
	C248.7,123.3,247.4,124.6,245.7,124.6z"/>
<path class="st3" d="M255.4,124.6L255.4,124.6c-1.7,0-3-1.3-3-3V76c0-1.7,1.3-3,3-3l0,0c1.7,0,3,1.3,3,3v45.6
	C258.4,123.3,257,124.6,255.4,124.6z"/>
<path class="st3" d="M264.4,124.6L264.4,124.6c-1.7,0-3-1.3-3-3V76c0-1.7,1.3-3,3-3l0,0c1.7,0,3,1.3,3,3v45.6
	C267.4,123.3,266.1,124.6,264.4,124.6z"/>
<path class="st4" d="M216.1,213.6L216.1,213.6c-1.9,0-3.5-1.6-3.5-3.5V64.9c0-1.9,1.6-3.5,3.5-3.5l0,0c1.9,0,3.5,1.6,3.5,3.5v145.2
	C219.6,212,218,213.6,216.1,213.6z"/>
<line class="st4" x1="144.2" y1="33.1" x2="195.6" y2="33.1"/>
<circle class="st4" cx="205.3" cy="33.1" r="4.3"/>
<circle class="st4" cx="23.1" cy="120.8" r="3.3"/>
<circle class="st4" cx="23.1" cy="139.3" r="3.3"/>
<circle class="st4" cx="23.4" cy="157.9" r="3.3"/>
<circle class="st4" cx="23.4" cy="176.4" r="3.3"/>
<circle class="st4" cx="23.4" cy="195" r="3.3"/>
<circle class="st4" cx="23.4" cy="213.5" r="3.3"/>
<circle class="st4" cx="23.4" cy="232.1" r="3.3"/>
<line class="st4" x1="20.1" y1="255" x2="29.5" y2="246.7"/>
<line class="st4" x1="20.5" y1="103.9" x2="29.8" y2="95.7"/>
<line class="st4" x1="19.8" y1="98.4" x2="29.1" y2="90.1"/>
<line class="st4" x1="19.8" y1="91.3" x2="29.1" y2="83"/>
<line class="st4" x1="19.8" y1="85.2" x2="29.1" y2="76.9"/>
<line class="st4" x1="20.5" y1="77.7" x2="29.8" y2="69.4"/>
<line class="st4" x1="20.5" y1="71.4" x2="29.8" y2="63.2"/>
<line class="st4" x1="19.8" y1="64.1" x2="29.1" y2="55.9"/>
<line class="st4" x1="19.8" y1="58.3" x2="29.1" y2="50"/>
<line class="st4" x1="20.5" y1="261.1" x2="29.8" y2="252.9"/>
<line class="st4" x1="20.5" y1="268.7" x2="29.8" y2="260.4"/>
<line class="st4" x1="20.1" y1="275" x2="29.5" y2="266.7"/>
<line class="st4" x1="20.5" y1="282.1" x2="29.8" y2="273.8"/>
<line class="st4" x1="20.5" y1="287.9" x2="29.8" y2="279.7"/>
<line class="st4" x1="20.5" y1="295.4" x2="29.8" y2="287.2"/>
<line class="st4" x1="20.8" y1="301.3" x2="30.2" y2="293"/>
</svg>
