<?xml version="1.0" encoding="utf-8"?>
<!-- Generator: Adobe Illustrator 27.5.0, SVG Export Plug-In . SVG Version: 6.00 Build 0)  -->
<svg version="1.1" id="Layer_2_00000087373725639938653170000000824044517384490396_"
	 xmlns="http://www.w3.org/2000/svg" xmlns:xlink="http://www.w3.org/1999/xlink" x="0px" y="0px" viewBox="0 0 300 500"
	 style="enable-background:new 0 0 300 500;" xml:space="preserve">
<style type="text/css">
	.st0{fill:none;stroke:#231F20;stroke-miterlimit:10;}
	.st1{fill:none;stroke:#000000;stroke-miterlimit:10;}
	.st2{fill:none;stroke:#000000;stroke-width:2;stroke-miterlimit:10;}
	.st3{fill:none;stroke:#000000;stroke-width:8;stroke-miterlimit:10;}
	.st4{font-family:'NovaSquare';}
	.st5{font-size:8.3887px;}
	.st6{font-size:8.9986px;}
</style>
<path class="st0" d="M94.8,129.8"/>
<path class="st0" d="M94.8,129.4"/>
<rect x="261.8" y="13.5" width="9.4" height="9.4"/>
<rect x="260.1" y="11.2" class="st1" width="12.7" height="13.5"/>
<path d="M16.6,119.8l5.1,3.2c1.5,0.9,2.4,2.5,2.4,4.1v88.8c0,1.3-0.5,2.5-1.4,3.5l-6.1,6.1"/>
<path class="st1" d="M16.6,116.3l6.9,3.4c1.9,0.9,3.1,2.6,3.1,4.4v94.3c0,1.4-0.7,2.7-1.9,3.6l-8.1,6.5"/>
<path class="st0" d="M265.3,252.7"/>
<path class="st0" d="M265.3,252.1"/>
<path d="M272.9,247.5l-5.1,3.2c-1.5,0.9-2.4,2.5-2.4,4.1v88.8c0,1.3,0.5,2.5,1.4,3.5l6.1,6.1"/>
<path class="st1" d="M272.8,244.1l-6.9,3.4c-1.9,0.9-3.1,2.6-3.1,4.4v94.3c0,1.4,0.7,2.7,1.9,3.6l8.1,6.5"/>
<g>
	<path class="st2" d="M65.8,11.2h207v410.1l-51.2,50.9H16.6c0-117.5,0-234.9,0-352.5c0-19.3,0-38.6,0-58
		C33,44.9,49.3,28.1,65.8,11.2z"/>
	<line class="st2" x1="24.9" y1="478.1" x2="46.5" y2="478.1"/>
	<line class="st2" x1="54.2" y1="478.1" x2="112" y2="478.1"/>
	<line class="st2" x1="279.1" y1="418.1" x2="279.1" y2="396.4"/>
	<line class="st2" x1="279.1" y1="392.2" x2="279.1" y2="370.5"/>
	<circle class="st3" cx="262.9" cy="458.9" r="8.4"/>
</g>
<text transform="matrix(1 0 0 1 24.808 486.9474)" class="st4 st5">150.76.13.123</text>
<text transform="matrix(1 0 0 1 193.5199 50.9034)" class="st4 st5">43.242.254.20</text>
<text transform="matrix(4.489659e-11 -1 1 4.489659e-11 270.6078 240.7018)"><tspan x="0" y="0" class="st4 st6">/// PROJECTS.MODULE</tspan><tspan x="0" y="10.8" class="st4 st6">loading...</tspan></text>
<polygon points="46.2,293.4 52.4,293.4 41.6,304.2 35.9,304.2 "/>
<polygon points="57.8,293.4 63.9,293.4 53.2,304.2 47.4,304.2 "/>
<polygon points="70.1,293.4 76.3,293.4 65.5,304.2 59.8,304.2 "/>
<polygon points="81.6,293.4 87.8,293.4 77,304.2 71.3,304.2 "/>
<polygon points="94.5,293.4 100.7,293.4 89.9,304.2 84.2,304.2 "/>
<polygon points="106,293.4 112.2,293.4 101.4,304.2 95.7,304.2 "/>
<polygon points="118.9,293.4 125.1,293.4 114.3,304.2 108.6,304.2 "/>
<polygon points="130.4,293.4 136.6,293.4 125.8,304.2 120.1,304.2 "/>
<polygon points="143,293.4 149.2,293.4 138.4,304.2 132.7,304.2 "/>
<polygon points="154.6,293.4 160.8,293.4 150,304.2 144.3,304.2 "/>
<polygon points="166.9,293.4 173.1,293.4 162.3,304.2 156.6,304.2 "/>
<polygon points="178.5,293.4 184.6,293.4 173.9,304.2 168.1,304.2 "/>
<polygon points="191.3,293.4 197.5,293.4 186.7,304.2 181,304.2 "/>
<polygon points="202.9,293.4 209,293.4 198.3,304.2 192.5,304.2 "/>
</svg>
