<svg version="1.1" id="Layer_1" xmlns="http://www.w3.org/2000/svg" xmlns:xlink="http://www.w3.org/1999/xlink" x="0" y="0" viewBox="0 0 500 500" xml:space="preserve"><style>.st0{enable-background:new}.st2{fill:none;stroke:#4243AE;stroke-miterlimit:10}.st2,.st3,.st4{stroke-width:2}.st3,.st4,.st6{fill:none;stroke:#4243AE}.st3{stroke-miterlimit:10.0002}.st4{stroke-miterlimit:9.9998}.st6{stroke-width:1.9998;stroke-miterlimit:9.9992}</style><g class="st0"><g class="st0"><defs><path id="SVGID_00000113327702408518161010000005673175187458670225_" d="M245.5 68c1.1 4.1-.4 9-5 14-11.2 12.4-36.6 21.2-56.6 19.6-12-1-19.3-5.4-20.9-11.5l91.5 342c1.6 6.1 9 10.5 20.9 11.5 20.1 1.6 45.4-7.1 56.6-19.6 4.5-5 6.1-9.9 5-14-27.5-102.6-64-239.4-91.5-342"/></defs><clipPath id="SVGID_00000083791458770098832630000007325603859988525986_"><use xlink:href="#SVGID_00000113327702408518161010000005673175187458670225_" style="overflow:visible"/></clipPath><g style="clip-path:url(#SVGID_00000083791458770098832630000007325603859988525986_)"><path class="st2" d="M325.6 400.3q-4.2-1.35-9.6-1.8l-91.5-342v-.1h.1c10.8.9 18.4 4.7 20.6 10.4 1.8 4.5.1 9.9-4.6 15.1l85 318.4c5.7 1.7 9.5 4.7 11 8.5 1.8 4.5.1 9.9-4.6 15.2l-.1.1zm6.4 23.5c4.7-5.2 6.3-10.5 4.5-15-1.5-3.8-5.3-6.7-10.8-8.5zm-15.9-25.4c3.6.3 6.8.9 9.5 1.8L240.5 82c4.7-5.2 6.4-10.6 4.6-15-2.3-5.7-9.7-9.5-20.5-10.4z"/><path class="st3" d="m245.809 70.216.096-.026 91.39 342-.097.026z"/><path class="st2" d="m275.4 443.6-91.5-342v-.1h.1c20 1.6 45.4-7.1 56.6-19.5l.1-.1L332.2 424c-10.3 11.4-32.6 19.8-51.7 19.8-1.8 0-3.5-.1-5.1-.2zM240.5 82.1c-11.2 12.4-36.6 21.1-56.5 19.5l91.4 341.9c20 1.6 45.3-7.1 56.5-19.5z"/><path class="st4" d="m225.236 92.927.097-.026 91.526 341.964-.096.025z"/><path transform="rotate(-14.917 250.776 270.881)" style="fill:none;stroke:#4243AE;stroke-width:2;stroke-miterlimit:10.0004" d="M250.7 93.9h.1v354h-.1z"/><path class="st2" d="M275.4 443.6c-10.8-.9-18.4-4.7-20.6-10.4-1.8-4.5-.1-9.9 4.6-15.1L174.2 99.7c-5.6-1.8-9.4-4.8-10.9-8.6-1.8-4.5-.1-9.9 4.6-15.2l.1-.1 6.4 23.8q4.2 1.35 9.6 1.8zM174.3 99.8 259.5 418c-4.7 5.2-6.4 10.6-4.6 15 2.3 5.7 9.7 9.5 20.5 10.4L184 101.5c-3.7-.2-6.9-.8-9.7-1.7zm-10.9-8.7c1.5 3.8 5.3 6.7 10.8 8.5l-6.3-23.5c-4.7 5.2-6.3 10.5-4.5 15z"/><path class="st6" d="m168.334 96.905.097-.026 91.335 342.014-.096.026z"/></g><defs><path id="SVGID_00000038405076795226955780000013825726418944228736_" d="M245.5 68c1.1 4.1-.4 9-5 14-11.2 12.4-36.6 21.2-56.6 19.6-12-1-19.3-5.4-20.9-11.5l91.5 342c1.6 6.1 9 10.5 20.9 11.5 20.1 1.6 45.4-7.1 56.6-19.6 4.5-5 6.1-9.9 5-14-27.5-102.6-64-239.4-91.5-342"/></defs><clipPath id="SVGID_00000088845924783771687440000017823733061920760962_"><use xlink:href="#SVGID_00000038405076795226955780000013825726418944228736_" style="overflow:visible"/></clipPath><path class="st2" d="M275.4 443.6c-5.9-.5-10.7-1.8-14.4-3.8-3.5-2-5.8-4.6-6.6-7.7L162.9 90h.1c.8 3 3.1 5.7 6.6 7.6 3.7 2.1 8.5 3.4 14.3 3.8 20 1.6 45.4-7.1 56.6-19.5 4.4-4.9 6.1-9.7 5-13.9h.1l91.5 342c1.2 4.3-.6 9.2-5 14-10.3 11.4-32.6 19.8-51.7 19.8-1.7 0-3.4-.1-5-.2zM240.6 82c-10.3 11.4-32.6 19.8-51.7 19.8-1.7 0-3.3-.1-5-.2-5.9-.5-10.7-1.8-14.4-3.8-3-1.7-5.1-3.8-6.1-6.3L254.5 432c.8 3 3.1 5.7 6.6 7.6 3.7 2.1 8.5 3.4 14.3 3.8 20 1.6 45.4-7.1 56.6-19.5 4.4-4.9 6.1-9.7 5-13.9L245.8 69.4c.5 3.9-1.3 8.2-5.2 12.6z" style="clip-path:url(#SVGID_00000088845924783771687440000017823733061920760962_)"/><path id="SVGID_1_" class="st2" d="M245.5 68c1.1 4.1-.4 9-5 14-11.2 12.4-36.6 21.2-56.6 19.6-12-1-19.3-5.4-20.9-11.5l91.5 342c1.6 6.1 9 10.5 20.9 11.5 20.1 1.6 45.4-7.1 56.6-19.6 4.5-5 6.1-9.9 5-14-27.5-102.6-64-239.4-91.5-342z"/></g><g class="st0"><defs><path id="SVGID_00000036962214124754946400000017634636800474952865_" d="M337 410 245.5 68c-1.6-6.1-9-10.5-20.9-11.5l91.5 342c11.9.9 19.3 5.4 20.9 11.5"/></defs><clipPath id="SVGID_00000051344416003913855790000010778730222184785285_"><use xlink:href="#SVGID_00000036962214124754946400000017634636800474952865_" style="overflow:visible"/></clipPath><g style="clip-path:url(#SVGID_00000051344416003913855790000010778730222184785285_)"><path class="st2" d="M325.6 400.3q-4.2-1.35-9.6-1.8l-91.5-342v-.1h.1c10.8.9 18.4 4.7 20.6 10.4 1.8 4.5.1 9.9-4.6 15.1l85 318.4c5.7 1.7 9.5 4.7 11 8.5 1.8 4.5.1 9.9-4.6 15.2l-.1.1zm6.4 23.5c4.7-5.2 6.3-10.5 4.5-15-1.5-3.8-5.3-6.7-10.8-8.5zm-15.9-25.4c3.6.3 6.8.9 9.5 1.8L240.5 82c4.7-5.2 6.4-10.6 4.6-15-2.3-5.7-9.7-9.5-20.5-10.4z"/><path class="st4" d="m240.036 61.028.096-.026 91.527 341.963-.097.026z"/></g><defs><path id="SVGID_00000120517119314203939390000007703156286087966098_" d="M337 410 245.5 68c-1.6-6.1-9-10.5-20.9-11.5l91.5 342c11.9.9 19.3 5.4 20.9 11.5"/></defs><clipPath id="SVGID_00000108991084950069752220000013305910258287235761_"><use xlink:href="#SVGID_00000120517119314203939390000007703156286087966098_" style="overflow:visible"/></clipPath><path class="st2" d="M330.4 402.3c-3.7-2.1-8.5-3.4-14.3-3.8l-91.5-342v-.1h.1c5.9.5 10.7 1.8 14.4 3.8 3.5 2 5.8 4.6 6.6 7.7l91.5 342h-.1c-1-3-3.2-5.6-6.7-7.6zm-14.3-3.9c5.8.5 10.7 1.8 14.3 3.8 3 1.7 5.1 3.8 6.1 6.3L245.5 68c-.8-3-3.1-5.7-6.6-7.6-3.7-2.1-8.4-3.3-14.3-3.8z" style="clip-path:url(#SVGID_00000108991084950069752220000013305910258287235761_)"/><path id="SVGID_00000052073576654900979830000008264805220732105115_" class="st2" d="M337 410 245.5 68c-1.6-6.1-9-10.5-20.9-11.5l91.5 342c11.9.9 19.3 5.4 20.9 11.5z"/></g><g class="st0"><defs><path id="SVGID_00000012444667054460740030000014984615398981551765_" d="m163 90 91.5 342c-1.1-4.1.4-9 5-14 11.2-12.4 36.6-21.2 56.6-19.6l-91.5-342c-20.1-1.6-45.4 7.1-56.6 19.6-4.6 5-6.1 9.9-5 14"/></defs><clipPath id="SVGID_00000081632792921090106740000011714666419986683573_"><use xlink:href="#SVGID_00000012444667054460740030000014984615398981551765_" style="overflow:visible"/></clipPath><g style="clip-path:url(#SVGID_00000081632792921090106740000011714666419986683573_)"><path class="st2" d="M275.4 443.6c-10.8-.9-18.4-4.7-20.6-10.4-1.8-4.5-.1-9.9 4.6-15.1L174.2 99.7c-5.6-1.8-9.4-4.8-10.9-8.6-1.8-4.5-.1-9.9 4.6-15.2l.1-.1 6.4 23.8q4.2 1.35 9.6 1.8zM174.3 99.8 259.5 418c-4.7 5.2-6.4 10.6-4.6 15 2.3 5.7 9.7 9.5 20.5 10.4L184 101.5c-3.7-.2-6.9-.8-9.7-1.7zm-10.9-8.7c1.5 3.8 5.3 6.7 10.8 8.5l-6.3-23.5c-4.7 5.2-6.3 10.5-4.5 15z"/><path class="st3" d="m162.608 87.816.097-.026 91.389 342-.097.026z"/><path class="st2" d="M167.9 76c11.2-12.5 36.7-21.3 56.7-19.6l91.5 342v.1h-.1c-20-1.6-45.4 7.1-56.6 19.5l-.1.1zM316 398.4 224.5 56.5c-20-1.6-45.3 7.1-56.5 19.5l91.4 341.9c10.3-11.4 32.6-19.7 51.7-19.7 1.6 0 3.3.1 4.9.2z"/><path class="st3" d="m183.109 65.015.097-.026 91.389 342-.097.026z"/><path class="st6" d="m203.434 58.005.097-.026 91.335 342.014-.096.026z"/></g><defs><path id="SVGID_00000013174012097077069680000004694395642056280506_" d="m163 90 91.5 342c-1.1-4.1.4-9 5-14 11.2-12.4 36.6-21.2 56.6-19.6l-91.5-342c-20.1-1.6-45.4 7.1-56.6 19.6-4.6 5-6.1 9.9-5 14"/></defs><clipPath id="SVGID_00000155869084470869900370000011829528505012374918_"><use xlink:href="#SVGID_00000013174012097077069680000004694395642056280506_" style="overflow:visible"/></clipPath><path class="st2" d="M162.9 90c-1.2-4.3.6-9.2 5-14 11.2-12.4 36.6-21.2 56.7-19.6l91.5 342v.1h-.1c-20-1.6-45.4 7.1-56.6 19.5-4.4 4.9-6.1 9.7-5 13.9h-.1zM316 398.4 224.5 56.5c-20-1.6-45.4 7.1-56.6 19.5-4.4 4.9-6.1 9.7-5 13.9L254 430.5c-.5-3.9 1.3-8.3 5.3-12.6 10.3-11.4 32.6-19.8 51.7-19.8 1.7.1 3.4.2 5 .3z" style="clip-path:url(#SVGID_00000155869084470869900370000011829528505012374918_)"/><path id="SVGID_00000040537378509962381520000003371290600515905944_" class="st2" d="m163 90 91.5 342c-1.1-4.1.4-9 5-14 11.2-12.4 36.6-21.2 56.6-19.6l-91.5-342c-20.1-1.6-45.4 7.1-56.6 19.6-4.6 5-6.1 9.9-5 14z"/></g><g class="st0"><defs><path id="SVGID_00000077290914671598946280000015194808419499350719_" d="M436.2 388.3c6.1-6.9 13.8-16.4 18.9-24 2.7-4 6.2-9.4 8.6-13.5s5.4-9.6 7.5-13.9c3.4-6.9 7.7-16.3 10-23.7 1.5-4.6 3.6-10.7 4.8-15.4 1.7-6.8 3.8-15.9 4.9-22.9 1.6-9.8 2.3-23 2.6-32.9.2-6.8-.3-15.9-1.2-22.6-1.3-9.8-3.5-22.9-6-32.4-2.7-9.9-7.5-22.6-11.4-32.1-2.5-6.1-6.8-13.9-10-19.6-2.4-4.3-6.2-9.8-8.8-14-3.5-5.6-9.2-12.4-13.5-17.5-4.4-5.3-10.8-12.1-15.9-16.7-7.1-6.4-16.8-14.7-24.6-20.1-6.1-4.1-14.5-9.3-20.8-12.9-4-2.3-9.5-4.8-13.6-6.8-7.6-3.7-18.3-7.4-26.2-10.2-8-2.8-19-5.3-27.3-7-6.1-1.2-15.8-2.8-27.4-3.8-20.4-1.7-42 8-62.1 30.3 20.1 1.6 27.2 13.1 16 25.5s-36.6 21.2-56.6 19.6c-20.1-1.6-27.2-13.1-16-25.5s36.6-21.2 56.6-19.6c20.1-22.3 41.7-32 62.1-30.3-3.8-.2-8.9-.7-12.8-.7-3.7 0-8.7-.2-12.5-.1-3.9.1-9 .3-12.9.5-3.6.2-8.4.6-12 1-3.3.4-7.8.9-11.1 1.4s-7.7 1.2-11 1.8c-3.9.7-11.2 2.1-21.1 4.8-6.2 1.6-14.5 4.3-20.6 6.3-3.1 1-7.2 2.6-10.2 3.8-3.1 1.2-7.1 2.9-10.1 4.2-3.2 1.3-7.3 3.2-10.3 4.7-3.2 1.6-7.4 3.7-10.5 5.3-3.1 1.7-7.3 4.1-10.4 5.9-3.4 1.9-7.8 4.7-11 6.9-6.4 4.4-14.8 10.6-20.9 15.5-3.8 3-8.5 7.5-12.1 10.7-4.3 3.9-9.5 9.5-13.4 13.7-3.1 3.4-7 8.1-9.8 11.7-5.8 7.2-12.7 17.5-17.5 25.5-4.3 7.2-9.5 17-12.6 24.8-2.7 6.9-6.2 16.3-8.5 23.4-1.5 4.6-3 11-4.1 15.7-1.6 6.7-3.2 15.8-3.7 22.7-.5 4.6-1.2 11.2-1.3 16.2-.1 6.7-.2 15.7.5 22.4.5 5 1.1 11.8 2 16.8 1.1 6.6 3 15.5 4.7 22 2.5 9.9 7.3 22.7 11.4 32.1 3.6 8.3 9.3 19.1 14.3 26.7 2.7 4.1 6.3 9.7 9.3 13.6 4.1 5.3 9.7 12.2 14.2 17.1 4.7 5.1 11.4 11.8 16.7 16.3 7.3 6.1 17.5 13.6 25.2 19 6.2 4.3 15.1 8.9 21.8 12.4 4 2.1 9.5 4.5 13.7 6.2 4.4 1.8 10.2 4.1 14.7 5.5 8 2.5 18.7 5.8 26.9 7.3 8.1 1.5 19 3.4 27.3 4.2 5 .5 11.8.9 16.8 1.1 4.1.2 9.5.3 13.5.1 3.5-.1 8.3-.2 11.8-.5 3.6-.2 8.4-.6 12-1 3.3-.4 7.8-.8 11.1-1.4 3.3-.5 7.6-1.2 10.9-1.8 3.2-.6 7.5-1.5 10.8-2.2 3.2-.7 7.4-1.7 10.5-2.6 6.2-1.8 14.5-4.3 20.6-6.3 3.1-1 7.2-2.6 10.2-3.8 3.1-1.2 7.2-2.9 10.2-4.2 6.2-2.7 14.3-6.8 20.4-9.8 3.3-1.7 7.5-4.2 10.7-6 3.4-1.9 7.8-4.8 11-6.9s7.4-5.2 10.5-7.4c3.7-2.6 8.5-6.5 12-9.5 3.2-2.7 7.4-6.5 10.5-9.4 4.4-3.9 9.8-9.4 13.6-13.7"/></defs><clipPath id="SVGID_00000088818858822049769570000001677280833595846590_"><use xlink:href="#SVGID_00000077290914671598946280000015194808419499350719_" style="overflow:visible"/></clipPath><g style="clip-path:url(#SVGID_00000088818858822049769570000001677280833595846590_)"><path class="st2" d="M332 424h-.1.1c4.7-5.3 6.3-10.7 4.6-15.1-2.3-5.7-9.7-9.5-20.5-10.4h-.1l.1-.1c25.7-28.4 45-73 54.5-125.4s8-106.4-4.2-152.1v-.1h.1c15.8 1.3 30.5 3.7 43.8 7.1 12.9 3.3 24.6 7.6 34.6 12.8 9.9 5.1 18.2 11.1 24.9 17.8 6.6 6.6 11.5 14 14.7 21.9 5 12.6 5.4 26.3 1.1 40.8-4.4 15-13.6 30.3-27.5 45.7 6.3 23.5 7.7 45.9 4.1 66.5-1.7 9.9-4.6 19.4-8.5 28.1-3.9 8.6-8.9 16.6-14.8 23.7-5.7 6.9-12.4 13-19.8 18.2-7.5 5.2-15.8 9.6-24.7 12.9-14.6 5.4-30.7 8.2-48.1 8.2-4.8.1-9.5-.1-14.3-.5zm44.7-228.1c.6 25.7-1.4 51.7-6.1 77.2-4.6 25.5-11.6 49.2-20.7 70.5-9.4 22-20.8 40.5-33.7 54.8 10.8.9 18.3 4.7 20.5 10.4 1.8 4.5.2 9.8-4.5 15.1 44.9 3.6 82.7-10.1 106.6-38.6 24.8-29.7 31.6-71.7 19.2-118.3 27.2-30.1 36.5-60.8 26.4-86.4-13-32.8-55.9-54.5-117.8-59.6 6 23.1 9.5 48.3 10.1 74.9z"/><path class="st2" d="M412.4 407.7c8.2-9.1 13.7-18.2 16.3-27 2.5-8.6 2.3-16.7-.7-24.1-7.7-19.4-33.1-32.3-69.7-35.3v.1c36.6 3 62 15.8 69.7 35.2 5.9 15.1.4 33.3-15.6 51.1zm45.2-56.3c12.3-13.6 20.5-27.3 24.4-40.6 3.8-12.8 3.4-25-1-36.2-11.5-29.1-49.7-48.4-104.6-52.9v.1c54.9 4.5 93 23.8 104.6 52.8 8.9 22.8.6 50-23.4 76.8z"/><path class="st2" d="M331.6 403.1c22.9-11.5 43.9-27.1 62.4-46.5 8.9-9.3 17.2-19.5 24.6-30.2 7.3-10.6 13.9-21.9 19.5-33.4 5.6-11.6 10.3-23.6 13.9-35.7 3.7-12.2 6.3-24.6 7.9-36.9 3.2-25.5 1.7-50.2-4.5-73.3h-.1c25.3 94.3-30.2 209.1-123.7 256z"/><path class="st2" d="M337.3 412.2c14.4-3.1 28.5-7.5 41.7-13.1 12.9-5.5 25.2-12.2 36.5-20 11.1-7.6 21.3-16.3 30.4-25.8 9-9.4 16.9-19.6 23.6-30.4 11.4-18.6 18.9-38.5 22.2-59.2 3.4-21.4 2.3-43-3.4-64.2h-.1c11.1 41.6 4.5 85.4-18.8 123.3-27.5 44.8-75.6 77.3-132.1 89.4z"/><path class="st2" d="M204.7 472.5c-7.5-1.8-14.9-5.2-21.8-10.1-7-4.9-13.6-11.4-19.7-19.2-6.2-8-11.8-17.3-16.7-27.9-5.1-10.9-9.4-23.1-12.9-36.2v-.1h.1c114.6 9.4 260.1-40.8 324.3-112l.1-.1v.1c6.3 23.5 7.7 45.9 4.1 66.5-1.7 9.9-4.6 19.4-8.5 28.1-3.9 8.6-8.9 16.6-14.8 23.7-5.7 6.9-12.4 13-19.8 18.2-7.5 5.2-15.8 9.6-24.7 12.9-18.5 6.9-39.5 9.5-62.2 7.6-11.2 12.4-36.6 21.2-56.6 19.6-11.2 12.4-23.1 21.2-35.3 26-7.4 3-14.9 4.4-22.3 4.4-4.6 0-9-.5-13.3-1.5zm70.7-29c20 1.6 45.4-7.1 56.6-19.5 44.9 3.7 82.8-10 106.7-38.6 24.8-29.7 31.6-71.7 19.2-118.2-15.7 17.4-36.4 33.8-61.6 48.8-24.3 14.5-51.8 27.1-81.6 37.4s-60.4 17.8-91.1 22.2c-31.7 4.6-62 5.8-90 3.5 7 26.2 17 47.7 29.7 64 12.1 15.5 26.4 25.7 41.5 29.3 23.5 5.7 48.6-4.6 70.6-28.9z"/><path class="st2" d="M237.5 474.6c11.7 0 23.8-.9 36.4-2.8 18.1-2.6 36.2-7.1 53.8-13.2s33.8-13.5 48.2-22.1c14.9-8.9 27.2-18.6 36.5-28.9l-.1-.1c-37.9 42.1-123.9 71.8-191.7 66.2v.1c5.5.6 11.2.8 16.9.8z"/><path class="st2" d="M195.1 451.8c17.5 0 35.8-1.4 54.6-4.1 27.2-4 54.4-10.6 80.8-19.7s50.8-20.3 72.4-33.2c22.4-13.3 40.8-27.9 54.7-43.4l-.1-.1c-56.9 63.1-186 107.7-287.8 99.4v.1c8.3.7 16.8 1 25.4 1z"/><path class="st2" d="M349.6 447.3c5.7 0 10.8-1.6 15.1-4.7 4.6-3.3 8.2-8.3 10.9-14.9s4.3-14.8 4.9-24.3c.6-9.7.1-20.8-1.5-32.9-1.6-12.5-4.4-26.2-8.3-40.7h-.1c15.2 56.9 13 99-6 112.7-11.4 8.2-27.9 5.5-47.8-7.7l-.1.1c12.5 8.2 23.5 12.4 32.9 12.4zm-57.4 21.3h.3c1.6-.2 2.8-2.6 3.5-7 .7-4.5.9-11.1.6-19.7h-.1c.6 16.9-.8 26.1-4 26.6h-.3c-3.3 0-8.4-8.6-14.8-24.8-6.7-17.3-14.7-42.7-22.9-73.7h-.1c8.3 31 16.2 56.5 23 73.7 6.3 16.3 11.4 24.9 14.8 24.9zm-87.5 3.9c-7.5-1.8-14.9-5.2-21.8-10.1-7-4.9-13.6-11.4-19.7-19.2-6.2-8-11.8-17.3-16.7-27.9-5.1-10.9-9.4-23-12.9-36.2-15.8-1.3-30.5-3.7-43.7-7.1-12.9-3.3-24.6-7.6-34.6-12.8-9.9-5.1-18.2-11.1-24.9-17.8-6.6-6.6-11.5-14-14.7-21.9-5-12.6-5.4-26.3-1.1-40.8 4.4-15 13.7-30.4 27.5-45.7l.1-.1v.1c25.2 94.3 122.7 177.3 217.3 185h.1l-.1.1c-4.7 5.2-6.4 10.6-4.6 15 2.3 5.7 9.7 9.5 20.5 10.4h.1l-.1.1c-11.2 12.4-23.1 21.2-35.3 26.1-7.4 3-14.9 4.4-22.3 4.4-4.4-.1-8.8-.6-13.1-1.6zm50-39.4c-1.8-4.5-.2-9.8 4.5-15.1-23.1-1.9-46.8-8.3-70.3-18.9-11.3-5.1-22.5-11.2-33.4-18.2-10.7-6.9-21.2-14.6-31-23-20-17-37.2-36.3-51.3-57.4-14.6-21.8-25.1-44.5-31.3-67.6-27.1 30.1-36.4 60.7-26.3 86.3 13 32.8 56 54.5 117.8 59.6 7 26.2 17 47.8 29.7 64.1 12.1 15.5 26.4 25.7 41.5 29.3 23.5 5.7 48.6-4.6 70.5-28.8-10.6-.8-18.1-4.6-20.4-10.3z"/><path class="st2" d="M220.6 474v-.1c-36.6-3-62-15.8-69.7-35.2-6-15.1-.5-33.3 15.6-51.1l-.1-.1c-8.2 9.1-13.7 18.2-16.3 27-2.5 8.6-2.3 16.7.7 24.1 7.8 19.5 33.2 32.4 69.8 35.4z"/><path class="st2" d="M169.8 450.8v-.1c-54.9-4.5-93-23.8-104.6-52.8-9-22.7-.7-50 23.4-76.7l-.1-.1c-12.3 13.6-20.5 27.3-24.4 40.6-3.8 12.8-3.4 25 1 36.2 11.6 29.1 49.7 48.4 104.7 52.9z"/><path class="st2" d="M179.8 458.9c2.4 0 4.9-.1 7.4-.2 11.9-.6 24-2.5 36-5.7 12.3-3.3 24.7-8 36.7-14.1v-.1c-46.8 23.4-97.3 26.2-138.5 7.7-37.9-17-65.1-50.4-76.8-93.8h-.1c11.6 43.5 38.9 76.8 76.8 93.9 10 4.5 20.6 7.8 31.6 9.8 8.7 1.7 17.8 2.5 26.9 2.5z"/><path class="st2" d="M206.2 434.9c16 0 32.1-1.7 47.9-5v-.1c-16 3.4-32 5-47.8 5-90.9 0-173.1-54-194.6-134.4h-.1c6.2 23.1 17.4 44.4 33.3 63.3 7.6 9.1 16.4 17.6 25.9 25.2s19.8 14.4 30.8 20.2c11 5.9 22.6 10.8 34.7 14.7 12.2 4 24.8 6.9 37.6 8.7 10.7 1.6 21.5 2.4 32.3 2.4z"/><path class="st2" d="M259.4 418.1c-23.2-1.9-46.9-8.3-70.4-18.9-11.3-5.1-22.5-11.2-33.4-18.2-10.7-6.9-21.2-14.6-31-23-20-17-37.2-36.3-51.3-57.4C58.7 278.8 48.2 256 42 233c15.7-17.4 36.5-33.9 61.7-48.9 24.3-14.5 51.8-27.1 81.6-37.4s60.4-17.8 91.1-22.2c31.7-4.6 62-5.8 90.1-3.5 6.2 23.1 9.6 48.3 10.3 74.9.6 25.7-1.4 51.7-6.1 77.2-4.6 25.5-11.6 49.2-20.7 70.5-9.5 22.1-20.8 40.5-33.8 54.9-20.2-1.6-45.6 7.1-56.8 19.6zm56.6-19.7c25.7-28.4 45-73 54.5-125.3 9.5-52.4 8-106.4-4.2-152-114.6-9.4-260.1 40.9-324.3 112 25.2 94.2 122.7 177.2 217.3 185 10.3-11.4 32.6-19.8 51.7-19.8 1.8-.1 3.4 0 5 .1z"/><path class="st2" d="M166.6 387.6c37.9-42.1 123.9-71.7 191.7-66.2v-.1c-16.6-1.4-34.5-.7-53.3 2.1-18.1 2.6-36.2 7.1-53.8 13.2s-33.8 13.5-48.2 22.1c-14.9 8.8-27.2 18.5-36.4 28.9zm-78-66.4c56.9-63.1 186-107.7 287.8-99.4v-.1c-24.9-2-51.8-1-79.9 3.1-27.2 4-54.4 10.6-80.8 19.7s-50.8 20.3-72.4 33.2c-22.4 13.4-40.8 28-54.7 43.5z"/><path class="st2" d="M274.6 407.1c-26.6-17.7-56.4-52-83.8-96.7-27.5-44.7-49.3-94.5-61.5-140.2h-.1c6.2 23.1 14.8 47.2 25.6 71.7 10.5 23.7 22.5 46.7 35.9 68.5s27.3 41.1 41.5 57.6c14.7 17 28.9 30.2 42.4 39.1zm20.3-7.1h.1c-2-54.6-24.2-175.8-49.4-270.1h-.1c25.2 94.4 47.4 215.5 49.4 270.1zm163-133C432.6 172.7 335.1 89.8 240.5 82h-.1l.1-.1c4.7-5.2 6.4-10.6 4.6-15-2.3-5.7-9.7-9.5-20.5-10.4h-.1l.1-.1c11.2-12.4 23.1-21.2 35.3-26.1 11.8-4.7 23.7-5.7 35.3-2.9 7.5 1.8 14.9 5.2 21.8 10.1 7 4.9 13.6 11.4 19.7 19.2 6.2 8 11.8 17.3 16.7 27.9 5.1 10.9 9.4 23 12.9 36.2 15.8 1.3 30.5 3.7 43.7 7.1 12.9 3.3 24.6 7.6 34.6 12.8 9.9 5.1 18.2 11.1 24.9 17.8 6.6 6.6 11.5 14 14.7 21.9 5 12.6 5.4 26.3 1.1 40.8-4.2 15.1-13.5 30.5-27.4 45.8zM224.7 56.4c10.8.9 18.3 4.7 20.5 10.4 1.8 4.5.2 9.8-4.5 15.1 23.1 1.9 46.8 8.3 70.3 18.9 11.3 5.1 22.5 11.2 33.4 18.2 10.7 6.9 21.2 14.6 31 23 20 17 37.2 36.3 51.3 57.4 14.6 21.8 25.1 44.5 31.3 67.6 27.1-30.1 36.4-60.7 26.3-86.3-13-32.8-56-54.5-117.8-59.6-7-26.2-17-47.8-29.7-64.1-12.1-15.5-26.4-25.7-41.5-29.3-4.2-1-8.5-1.5-12.8-1.5-19.8-.2-39.9 10.3-57.8 30.2z"/><path class="st2" d="M411.4 178.8c12.3-13.6 20.5-27.3 24.4-40.6 3.8-12.8 3.4-25-1-36.2-11.5-29.1-49.7-48.4-104.6-52.9v.1c54.9 4.5 93 23.8 104.6 52.8 9 22.8.6 50-23.4 76.8z"/><path class="st2" d="M333.4 112.4c8.2-9.1 13.7-18.2 16.3-27 2.5-8.6 2.3-16.7-.7-24.1-7.7-19.5-33.1-32.3-69.7-35.3v.1c36.6 3 62 15.8 69.7 35.2 6 15.1.4 33.3-15.6 51.1z"/><path class="st2" d="M455.4 147.2h.1c-11.6-43.5-38.9-76.8-76.8-93.9-10-4.5-20.6-7.8-31.6-9.8-11.1-2-22.6-2.8-34.3-2.3-11.9.6-24 2.5-36 5.7-12.3 3.3-24.7 8-36.7 14.1v.1c46.8-23.4 97.3-26.2 138.5-7.7 37.9 17 65.2 50.3 76.8 93.8z"/><path class="st2" d="M488.2 199.6h.1c-6.2-23.1-17.4-44.4-33.3-63.3-7.6-9.1-16.4-17.6-25.9-25.2s-19.8-14.4-30.8-20.2c-11-5.9-22.6-10.8-34.7-14.7-12.2-4-24.8-6.9-37.6-8.7-26.6-3.8-53.6-2.9-80.2 2.8v.1c16-3.4 32-5 47.8-5 91-.2 173.1 53.8 194.6 134.2z"/><path class="st2" d="M133.5 379.1c-6.2-23.1-9.7-48.3-10.3-75-.6-25.7 1.4-51.7 6.1-77.2 4.6-25.5 11.6-49.2 20.7-70.5 9.5-22.1 20.8-40.5 33.8-54.9 20 1.6 45.4-7.1 56.6-19.5 23.2 1.9 46.9 8.3 70.4 18.9 11.3 5.1 22.5 11.2 33.4 18.2 10.7 6.9 21.2 14.6 31 23 20 17 37.2 36.3 51.3 57.4 14.6 21.8 25.1 44.6 31.3 67.7-15.7 17.4-36.5 33.9-61.7 48.9-24.3 14.5-51.8 27.1-81.6 37.4s-60.4 17.8-91.1 22.2c-21.2 3.1-41.8 4.7-61.5 4.7-9.5-.2-19.1-.6-28.4-1.3zM240.6 82c-11.2 12.4-36.6 21.2-56.6 19.6-25.7 28.4-45 73-54.5 125.3-9.5 52.4-8 106.4 4.2 152 114.6 9.4 260.1-40.9 324.3-112C432.6 172.7 335.2 89.8 240.6 82z"/><path class="st2" d="M148.9 279.2c17.5 0 35.8-1.4 54.6-4.1 27.2-4 54.4-10.6 80.8-19.7s50.8-20.3 72.4-33.2c22.4-13.3 40.8-27.9 54.7-43.4l-.1-.1c-56.9 63.1-186 107.7-287.8 99.4v.1c8.3.7 16.8 1 25.4 1zm9.6-99.9c11.7 0 23.8-.9 36.4-2.8 18.1-2.6 36.2-7.1 53.8-13.2s33.8-13.5 48.2-22.1c14.9-8.9 27.2-18.6 36.5-28.9l-.1-.1c-37.9 42.1-123.9 71.8-191.7 66.2v.1c5.5.6 11.2.8 16.9.8z"/><path class="st2" d="M370.7 329.8h.1c-6.2-23.1-14.8-47.2-25.6-71.7-10.5-23.7-22.5-46.7-35.9-68.5S282 148.5 267.8 132c-14.7-17-28.9-30.2-42.4-39.1l-.1.1c26.6 17.6 56.4 51.9 83.9 96.7 27.4 44.7 49.3 94.4 61.5 140.1zM254.3 370h.1C229.2 275.7 207 154.6 205 100h-.1c2.1 54.6 24.2 175.7 49.4 270zm-120.8 9.1c-15.8-1.3-30.5-3.7-43.8-7.1-12.9-3.3-24.6-7.6-34.6-12.8-9.9-5.1-18.2-11.1-24.9-17.8-6.6-6.6-11.5-14-14.7-21.9-5-12.6-5.4-26.3-1.1-40.8 4.4-15 13.6-30.3 27.5-45.7-6.3-23.5-7.7-45.9-4.1-66.5 1.7-9.9 4.6-19.4 8.5-28.1 3.9-8.6 8.9-16.6 14.8-23.7 5.7-6.9 12.4-13 19.8-18.2 7.5-5.2 15.8-9.6 24.7-12.9 18.5-6.9 39.5-9.5 62.2-7.6h.2c-4.7 5.2-6.4 10.6-4.6 15 2.3 5.7 9.7 9.5 20.5 10.4h.1l-.1.1c-25.7 28.4-45 73-54.5 125.4s-8 106.4 4.1 152.2zm29.8-288c-1.8-4.5-.2-9.8 4.5-15.1-44.9-3.6-82.7 10.1-106.6 38.6-24.8 29.7-31.6 71.7-19.2 118.3-27.2 30.1-36.5 60.8-26.4 86.4 13 32.8 55.9 54.5 117.8 59.6-6.2-23.1-9.6-48.3-10.2-74.9-.6-25.7 1.4-51.7 6.1-77.2 4.6-25.5 11.6-49.2 20.7-70.5 9.4-22 20.8-40.5 33.7-54.8-10.7-.9-18.2-4.7-20.4-10.4z"/><path class="st2" d="M123.6 278.2v-.1c-54.9-4.5-93-23.8-104.6-52.8-9-22.7-.7-50 23.4-76.7l-.1-.1c-12.3 13.6-20.5 27.3-24.4 40.6-3.8 12.8-3.4 25 1 36.2 11.6 29.1 49.7 48.4 104.7 52.9zm18-99.5v-.1c-36.6-3-62-15.8-69.7-35.2-6-15.1-.5-33.3 15.6-51.1l-.1-.1c-8.2 9.1-13.7 18.2-16.3 27-2.5 8.6-2.3 16.7.7 24.1 7.8 19.5 33.2 32.4 69.8 35.4z"/><path class="st2" d="M44.4 352.8c-25.1-94.3 30.5-209 124-255.8v-.1c-22.9 11.5-43.9 27.1-62.4 46.5-8.9 9.3-17.2 19.5-24.6 30.2-7.4 10.6-14 21.8-19.6 33.4s-10.3 23.6-13.9 35.7c-3.7 12.2-6.3 24.6-7.9 36.9-3.2 25.5-1.7 50.1 4.4 73.2z"/><path class="st2" d="M11.6 300.4h.1C.6 258.8 7.3 215 30.5 177.1c27.5-44.8 75.6-77.3 132.1-89.3v-.1c-14.4 3.1-28.5 7.5-41.7 13.1-12.9 5.5-25.2 12.2-36.5 20-11.1 7.6-21.3 16.3-30.4 25.8-9 9.4-17 19.6-23.6 30.4-11.4 18.6-18.8 38.5-22.1 59.2-3.5 21.4-2.4 43 3.3 64.2z"/><path class="st2" d="M42 233c-6.3-23.5-7.7-45.9-4.1-66.5 1.7-9.9 4.6-19.4 8.5-28.1 3.9-8.6 8.9-16.6 14.8-23.7 5.7-6.9 12.4-13 19.8-18.2 7.5-5.2 15.8-9.6 24.7-12.9 18.5-6.9 39.5-9.5 62.2-7.6 11.2-12.4 36.6-21.2 56.6-19.6 11.2-12.4 23.1-21.2 35.3-26 11.8-4.7 23.7-5.7 35.3-2.9 7.5 1.8 14.9 5.2 21.8 10.1 7 4.9 13.6 11.4 19.7 19.2 6.2 8 11.8 17.3 16.7 27.9 5.1 10.9 9.4 23.1 12.9 36.2v.1h-.1c-9.3-.8-18.7-1.1-28.4-1.1-109 0-236.6 47.7-295.7 113.1zm324.3-112.1c-7-26.2-17-47.7-29.7-64-12.1-15.5-26.4-25.7-41.5-29.3-23.6-5.7-48.6 4.6-70.6 28.9-20-1.6-45.4 7.1-56.6 19.5-44.9-3.7-82.8 10-106.7 38.6-24.8 29.7-31.6 71.7-19.2 118.2 15.7-17.4 36.4-33.8 61.6-48.8 24.3-14.5 51.8-27.1 81.6-37.4s60.4-17.8 91.1-22.2c21.2-3.1 41.8-4.7 61.5-4.7 9.7 0 19.3.4 28.5 1.2z"/><path class="st2" d="M42.4 148.6c56.9-63.1 186-107.7 287.8-99.4v-.1c-24.9-2-51.8-1-79.9 3.1-27.2 4-54.4 10.6-80.8 19.7s-50.8 20.3-72.4 33.2c-22.4 13.4-40.8 28-54.7 43.5z"/><path class="st2" d="M87.6 92.3c37.9-42.1 123.9-71.7 191.7-66.2V26c-16.6-1.4-34.5-.7-53.3 2.1-18.1 2.6-36.2 7.1-53.8 13.2S138.4 54.8 124 63.4c-14.9 8.8-27.2 18.5-36.4 28.9z"/><path class="st2" d="M129.1 170.2h.1c-15.2-56.9-13-99 6-112.7 11.4-8.2 27.9-5.5 47.8 7.7l.1-.1c-20-13.2-36.6-15.9-48-7.6-4.6 3.3-8.2 8.3-10.9 14.9s-4.3 14.8-4.9 24.3c-.6 9.7-.1 20.8 1.5 32.9 1.7 12.4 4.5 26.1 8.3 40.6zM245.5 130h.1c-8.3-31-16.2-56.5-23-73.7-6.5-16.8-11.8-25.4-15.2-24.9-1.6.2-2.8 2.6-3.5 7-.7 4.5-.9 11.1-.6 19.7h.1c-.6-16.9.8-26.1 4-26.6 3.3-.5 8.5 8.1 15.1 24.8 6.8 17.2 14.7 42.7 23 73.7z"/></g><defs><path id="SVGID_00000043441171621438198160000003070466563638085546_" d="M436.2 388.3c6.1-6.9 13.8-16.4 18.9-24 2.7-4 6.2-9.4 8.6-13.5s5.4-9.6 7.5-13.9c3.4-6.9 7.7-16.3 10-23.7 1.5-4.6 3.6-10.7 4.8-15.4 1.7-6.8 3.8-15.9 4.9-22.9 1.6-9.8 2.3-23 2.6-32.9.2-6.8-.3-15.9-1.2-22.6-1.3-9.8-3.5-22.9-6-32.4-2.7-9.9-7.5-22.6-11.4-32.1-2.5-6.1-6.8-13.9-10-19.6-2.4-4.3-6.2-9.8-8.8-14-3.5-5.6-9.2-12.4-13.5-17.5-4.4-5.3-10.8-12.1-15.9-16.7-7.1-6.4-16.8-14.7-24.6-20.1-6.1-4.1-14.5-9.3-20.8-12.9-4-2.3-9.5-4.8-13.6-6.8-7.6-3.7-18.3-7.4-26.2-10.2-8-2.8-19-5.3-27.3-7-6.1-1.2-15.8-2.8-27.4-3.8-20.4-1.7-42 8-62.1 30.3 20.1 1.6 27.2 13.1 16 25.5s-36.6 21.2-56.6 19.6c-20.1-1.6-27.2-13.1-16-25.5s36.6-21.2 56.6-19.6c20.1-22.3 41.7-32 62.1-30.3-3.8-.2-8.9-.7-12.8-.7-3.7 0-8.7-.2-12.5-.1-3.9.1-9 .3-12.9.5-3.6.2-8.4.6-12 1-3.3.4-7.8.9-11.1 1.4s-7.7 1.2-11 1.8c-3.9.7-11.2 2.1-21.1 4.8-6.2 1.6-14.5 4.3-20.6 6.3-3.1 1-7.2 2.6-10.2 3.8-3.1 1.2-7.1 2.9-10.1 4.2-3.2 1.3-7.3 3.2-10.3 4.7-3.2 1.6-7.4 3.7-10.5 5.3-3.1 1.7-7.3 4.1-10.4 5.9-3.4 1.9-7.8 4.7-11 6.9-6.4 4.4-14.8 10.6-20.9 15.5-3.8 3-8.5 7.5-12.1 10.7-4.3 3.9-9.5 9.5-13.4 13.7-3.1 3.4-7 8.1-9.8 11.7-5.8 7.2-12.7 17.5-17.5 25.5-4.3 7.2-9.5 17-12.6 24.8-2.7 6.9-6.2 16.3-8.5 23.4-1.5 4.6-3 11-4.1 15.7-1.6 6.7-3.2 15.8-3.7 22.7-.5 4.6-1.2 11.2-1.3 16.2-.1 6.7-.2 15.7.5 22.4.5 5 1.1 11.8 2 16.8 1.1 6.6 3 15.5 4.7 22 2.5 9.9 7.3 22.7 11.4 32.1 3.6 8.3 9.3 19.1 14.3 26.7 2.7 4.1 6.3 9.7 9.3 13.6 4.1 5.3 9.7 12.2 14.2 17.1 4.7 5.1 11.4 11.8 16.7 16.3 7.3 6.1 17.5 13.6 25.2 19 6.2 4.3 15.1 8.9 21.8 12.4 4 2.1 9.5 4.5 13.7 6.2 4.4 1.8 10.2 4.1 14.7 5.5 8 2.5 18.7 5.8 26.9 7.3 8.1 1.5 19 3.4 27.3 4.2 5 .5 11.8.9 16.8 1.1 4.1.2 9.5.3 13.5.1 3.5-.1 8.3-.2 11.8-.5 3.6-.2 8.4-.6 12-1 3.3-.4 7.8-.8 11.1-1.4 3.3-.5 7.6-1.2 10.9-1.8 3.2-.6 7.5-1.5 10.8-2.2 3.2-.7 7.4-1.7 10.5-2.6 6.2-1.8 14.5-4.3 20.6-6.3 3.1-1 7.2-2.6 10.2-3.8 3.1-1.2 7.2-2.9 10.2-4.2 6.2-2.7 14.3-6.8 20.4-9.8 3.3-1.7 7.5-4.2 10.7-6 3.4-1.9 7.8-4.8 11-6.9s7.4-5.2 10.5-7.4c3.7-2.6 8.5-6.5 12-9.5 3.2-2.7 7.4-6.5 10.5-9.4 4.4-3.9 9.8-9.4 13.6-13.7"/></defs><clipPath id="SVGID_00000024687480169517183620000016899980077055876750_"><use xlink:href="#SVGID_00000043441171621438198160000003070466563638085546_" style="overflow:visible"/></clipPath><path class="st2" d="M226 474.6c-5.3-.2-12-.6-16.8-1.1-8.1-.8-18.8-2.6-27.3-4.2-7.9-1.5-17.9-4.5-26-7l-1-.3c-4.4-1.4-9.9-3.6-14.7-5.5-1.9-.8-8.6-3.6-13.7-6.2-.5-.3-1.1-.6-1.7-.9-6.4-3.4-14.5-7.6-20.1-11.5-3.6-2.5-16-11.2-25.3-19-5.7-4.7-12.4-11.5-16.7-16.3-4.8-5.2-10.5-12.2-14.2-17.1-2.8-3.6-6-8.6-8.7-12.5l-.7-1c-4.7-7.2-10.5-17.9-14.3-26.7-3.6-8.2-8.7-21.5-11.4-32.1-1.7-6.5-3.5-15.3-4.7-22-.7-4-1.2-9.1-1.6-13.6-.1-1.1-.2-2.2-.3-3.2-.7-6.5-.6-14.9-.5-22.4.1-3.4.4-7.5.7-11.5.1-1.8.3-3.5.4-5 .5-7.3 2.3-16.5 3.7-22.7l.2-.6c1.1-4.7 2.5-10.6 3.9-15.1 2.9-9 7.3-20.2 8.5-23.4 3.1-7.9 8.5-18 12.6-24.8 5.1-8.5 12.1-18.8 17.5-25.5 1.8-2.2 6.2-7.7 9.8-11.7 3.7-4 9.1-9.8 13.4-13.7.8-.7 1.7-1.5 2.6-2.4 3.1-2.8 6.6-6 9.5-8.3C95.8 82 104 75.9 110 71.8c3.5-2.4 7.9-5.1 11-6.9q1.2-.75 2.7-1.5c2.5-1.4 5.4-3.1 7.7-4.3 2.6-1.4 6.5-3.4 10.5-5.3 1.4-.7 6.3-3.1 10.3-4.7q1.35-.6 3-1.2c2.5-1 5-2.1 7.2-2.9 4.5-1.7 7.8-3 10.2-3.8 8.9-2.9 15.7-5 20.6-6.3 9.9-2.6 17.2-4 21.1-4.8 3-.6 7.4-1.3 11-1.8 2.4-.3 5.4-.7 8-1 1.1-.1 2.1-.3 3.1-.4 3.8-.5 8.6-.8 12-1 4.8-.3 9.6-.4 12.9-.5 2.5 0 5.6 0 8.5.1 1.4 0 2.7 0 3.9.1 2.6 0 5.7.2 8.8.5.7 0 1.4.1 2 .1.7 0 1.3.1 2 .1 11.6 1 21.3 2.6 27.4 3.8 5.1 1 18 3.7 27.3 7 .8.3 1.6.6 2.4.8 7.6 2.7 17 6 23.9 9.3 1.1.5 2.2 1.1 3.5 1.7 3.4 1.6 7.2 3.5 10.2 5.2 5.8 3.3 14.3 8.5 20.8 12.9 9.2 6.3 20.3 16.1 24.7 20.1 4.9 4.5 11.3 11.2 15.9 16.7l.3.4c4.1 4.9 9.7 11.7 13.1 17.1.9 1.3 1.8 2.8 2.8 4.4 2.2 3.3 4.4 6.7 6 9.6 3.6 6.4 7.6 13.8 10.1 19.6 2.4 5.7 8.2 20.3 11.4 32.1 3.1 11.3 5.2 26.5 6 32.5.9 6.7 1.4 15.8 1.2 22.6-.2 7.6-.8 22-2.6 32.9-1 6.3-3 15.2-4.9 22.9-.9 3.4-2.2 7.5-3.5 11.2-.5 1.5-1 2.9-1.4 4.2-1.9 5.8-5.1 13.6-10 23.7-1.9 3.9-4.8 9.3-7.5 13.9-2.3 3.9-5.8 9.4-8.6 13.5-5.6 8.2-13.7 18-18.9 24-4.2 4.7-9.5 10.1-13.4 13.7-.6.5-1.1 1-1.7 1.6-2.9 2.6-6.1 5.5-8.8 7.8-5 4.2-9 7.4-12 9.5-.8.5-1.6 1.1-2.4 1.7-2.7 1.9-5.7 4.1-8.1 5.7-2.5 1.7-7.3 4.8-11 6.9-.8.4-1.6.9-2.5 1.4-2.7 1.6-5.7 3.3-8.2 4.6-4.6 2.4-13.4 6.8-20.4 9.8-3.3 1.4-7.6 3.2-10.2 4.2-2.9 1.1-7 2.7-10.2 3.8-6 2-14.3 4.5-20.6 6.3-3.7 1.1-8.6 2.2-10.5 2.6-4 .9-8 1.7-10.8 2.2-2.2.4-5 .9-7.6 1.3-1.2.2-2.3.4-3.3.5-2.4.4-5.4.7-8.1 1-1.1.1-2.1.2-3 .4-2.9.3-6.9.7-12 1-2.5.2-5.6.3-8.4.3-1.2 0-2.4.1-3.4.1-1.5.1-3.1.1-4.7.1-3.8-.1-7.5-.3-8.8-.3zm60.7-448.4c-.6 0-1.3-.1-2-.1-20.5-.9-41.2 9.5-60 30.3 10.8.9 18.3 4.7 20.5 10.4 1.8 4.5.1 9.9-4.6 15.2-10.3 11.4-32.6 19.8-51.7 19.8-1.7 0-3.3-.1-5-.2-10.8-.9-18.4-4.7-20.6-10.4-1.8-4.5-.1-9.9 4.6-15.2 11.2-12.4 36.6-21.2 56.7-19.6 18.1-20 37.9-30.5 57.6-30.5h.2c-2.9-.2-5.9-.4-8.4-.4-1.2 0-2.5 0-3.9-.1-3 0-6-.1-8.5-.1-3.2 0-8.1.2-12.9.5-3.3.2-8.2.5-12 1-1 .1-2 .2-3.1.4-2.6.3-5.6.7-8 1-3.7.5-8 1.3-11 1.8-3.9.7-11.2 2.1-21.1 4.8-4.9 1.3-11.7 3.4-20.6 6.3-2.4.8-5.8 2-10.2 3.8-2.1.8-4.7 1.9-7.2 2.9l-3 1.2c-4 1.7-8.9 4-10.3 4.7-3.9 1.9-7.9 3.9-10.5 5.3-2.3 1.2-5.2 2.9-7.7 4.3-.9.5-1.8 1.1-2.7 1.5-3.2 1.8-7.5 4.5-11 6.9-6 4.1-14.2 10.2-20.9 15.5-2.9 2.3-6.4 5.5-9.5 8.3-.9.8-1.8 1.6-2.6 2.4-4.3 3.9-9.7 9.7-13.4 13.7-3.6 4-8.1 9.5-9.8 11.7-5.4 6.7-12.4 17-17.5 25.5-4 6.8-9.4 16.8-12.6 24.7-1.3 3.2-5.6 14.4-8.5 23.4-1.4 4.4-2.8 10.3-3.9 15.1l-.2.6c-1.5 6.2-3.2 15.4-3.7 22.7-.1 1.5-.2 3.2-.4 5-.3 4-.7 8.1-.7 11.5-.1 7.4-.1 15.9.5 22.4.1 1 .2 2.1.3 3.2.4 4.5 1 9.6 1.6 13.6 1.1 6.7 3 15.5 4.7 22 2.7 10.6 7.8 23.9 11.4 32.1 3.8 8.8 9.6 19.5 14.3 26.7l.7 1c2.6 4 5.9 8.9 8.7 12.5 3.7 4.9 9.4 11.9 14.2 17.1 4.4 4.8 11.1 11.5 16.7 16.3 9.2 7.7 21.7 16.5 25.2 19 5.7 3.9 13.7 8.1 20.1 11.5.6.3 1.1.6 1.7.9 5.1 2.7 11.8 5.5 13.7 6.2 4.8 2 10.3 4.2 14.7 5.5l1 .3c8 2.5 18.1 5.6 26 7 8.4 1.6 19.2 3.4 27.3 4.2 4.8.4 11.5.9 16.8 1.1 1.9.1 8.4.3 13.5.1 1.1 0 2.2-.1 3.4-.1 2.8-.1 5.9-.2 8.4-.3 5.1-.3 9.1-.6 12-1 .9-.1 2-.2 3-.4 2.7-.3 5.7-.6 8.1-1 1-.2 2.1-.3 3.3-.5 2.6-.4 5.4-.9 7.6-1.3 2.7-.5 6.8-1.3 10.8-2.2 1.9-.4 6.8-1.5 10.5-2.6 6.3-1.8 14.6-4.3 20.6-6.3 3.2-1 7.4-2.6 10.2-3.8 2.7-1 7-2.8 10.2-4.2 7-3.1 15.8-7.5 20.4-9.8 2.5-1.3 5.5-3 8.2-4.6.9-.5 1.7-1 2.5-1.4 3.7-2.1 8.5-5.3 11-6.9 2.4-1.6 5.5-3.8 8.1-5.7.8-.6 1.6-1.2 2.4-1.7 3-2.1 7-5.3 12-9.5 2.7-2.2 5.9-5.2 8.8-7.8.6-.5 1.2-1.1 1.7-1.6 4-3.6 9.3-9 13.4-13.7 5.3-6 13.4-15.8 18.9-24 2.8-4.2 6.3-9.6 8.6-13.5 2.7-4.6 5.6-10 7.5-13.9 4.9-10.1 8.2-17.9 10-23.7.4-1.3.9-2.7 1.4-4.2 1.2-3.7 2.6-7.8 3.4-11.2 1.9-7.6 3.9-16.6 4.9-22.9 1.8-10.9 2.4-25.3 2.6-32.9.2-6.9-.3-16-1.2-22.6-.8-6-3-21.1-6-32.4-3.2-11.8-9-26.3-11.4-32.1s-6.4-13.2-10-19.6c-1.6-2.9-3.9-6.3-6-9.6-1-1.5-2-3-2.8-4.4-3.4-5.5-9-12.2-13.1-17.1l-.3-.4c-4.6-5.5-11-12.2-15.9-16.7-4.3-3.9-15.4-13.8-24.6-20.1-6.5-4.4-15.3-9.7-20.8-12.9-2.9-1.7-6.8-3.5-10.1-5.2-1.2-.6-2.4-1.2-3.5-1.7-6.8-3.4-16.3-6.7-23.8-9.3-.8-.3-1.6-.6-2.4-.8-9.3-3.3-22.2-6-27.3-7-6.4-1.1-16.1-2.7-27.7-3.7zM168 76c-4.7 5.2-6.4 10.6-4.6 15 2.3 5.7 9.7 9.5 20.5 10.4 20 1.6 45.4-7.1 56.6-19.5 4.7-5.2 6.4-10.6 4.6-15-2.3-5.7-9.7-9.5-20.5-10.4-20.1-1.6-45.4 7.1-56.6 19.5z" style="clip-path:url(#SVGID_00000024687480169517183620000016899980077055876750_)"/><path id="SVGID_00000013176392007783343870000003466977040286033030_" class="st2" d="M436.2 388.3c6.1-6.9 13.8-16.4 18.9-24 2.7-4 6.2-9.4 8.6-13.5s5.4-9.6 7.5-13.9c3.4-6.9 7.7-16.3 10-23.7 1.5-4.6 3.6-10.7 4.8-15.4 1.7-6.8 3.8-15.9 4.9-22.9 1.6-9.8 2.3-23 2.6-32.9.2-6.8-.3-15.9-1.2-22.6-1.3-9.8-3.5-22.9-6-32.4-2.7-9.9-7.5-22.6-11.4-32.1-2.5-6.1-6.8-13.9-10-19.6-2.4-4.3-6.2-9.8-8.8-14-3.5-5.6-9.2-12.4-13.5-17.5-4.4-5.3-10.8-12.1-15.9-16.7-7.1-6.4-16.8-14.7-24.6-20.1-6.1-4.1-14.5-9.3-20.8-12.9-4-2.3-9.5-4.8-13.6-6.8-7.6-3.7-18.3-7.4-26.2-10.2-8-2.8-19-5.3-27.3-7-6.1-1.2-15.8-2.8-27.4-3.8-20.4-1.7-42 8-62.1 30.3 20.1 1.6 27.2 13.1 16 25.5s-36.6 21.2-56.6 19.6c-20.1-1.6-27.2-13.1-16-25.5s36.6-21.2 56.6-19.6c20.1-22.3 41.7-32 62.1-30.3-3.8-.2-8.9-.7-12.8-.7-3.7 0-8.7-.2-12.5-.1-3.9.1-9 .3-12.9.5-3.6.2-8.4.6-12 1-3.3.4-7.8.9-11.1 1.4s-7.7 1.2-11 1.8c-3.9.7-11.2 2.1-21.1 4.8-6.2 1.6-14.5 4.3-20.6 6.3-3.1 1-7.2 2.6-10.2 3.8-3.1 1.2-7.1 2.9-10.1 4.2-3.2 1.3-7.3 3.2-10.3 4.7-3.2 1.6-7.4 3.7-10.5 5.3-3.1 1.7-7.3 4.1-10.4 5.9-3.4 1.9-7.8 4.7-11 6.9-6.4 4.4-14.8 10.6-20.9 15.5-3.8 3-8.5 7.5-12.1 10.7-4.3 3.9-9.5 9.5-13.4 13.7-3.1 3.4-7 8.1-9.8 11.7-5.8 7.2-12.7 17.5-17.5 25.5-4.3 7.2-9.5 17-12.6 24.8-2.7 6.9-6.2 16.3-8.5 23.4-1.5 4.6-3 11-4.1 15.7-1.6 6.7-3.2 15.8-3.7 22.7-.5 4.6-1.2 11.2-1.3 16.2-.1 6.7-.2 15.7.5 22.4.5 5 1.1 11.8 2 16.8 1.1 6.6 3 15.5 4.7 22 2.5 9.9 7.3 22.7 11.4 32.1 3.6 8.3 9.3 19.1 14.3 26.7 2.7 4.1 6.3 9.7 9.3 13.6 4.1 5.3 9.7 12.2 14.2 17.1 4.7 5.1 11.4 11.8 16.7 16.3 7.3 6.1 17.5 13.6 25.2 19 6.2 4.3 15.1 8.9 21.8 12.4 4 2.1 9.5 4.5 13.7 6.2 4.4 1.8 10.2 4.1 14.7 5.5 8 2.5 18.7 5.8 26.9 7.3 8.1 1.5 19 3.4 27.3 4.2 5 .5 11.8.9 16.8 1.1 4.1.2 9.5.3 13.5.1 3.5-.1 8.3-.2 11.8-.5 3.6-.2 8.4-.6 12-1 3.3-.4 7.8-.8 11.1-1.4 3.3-.5 7.6-1.2 10.9-1.8 3.2-.6 7.5-1.5 10.8-2.2 3.2-.7 7.4-1.7 10.5-2.6 6.2-1.8 14.5-4.3 20.6-6.3 3.1-1 7.2-2.6 10.2-3.8 3.1-1.2 7.2-2.9 10.2-4.2 6.2-2.7 14.3-6.8 20.4-9.8 3.3-1.7 7.5-4.2 10.7-6 3.4-1.9 7.8-4.8 11-6.9s7.4-5.2 10.5-7.4c3.7-2.6 8.5-6.5 12-9.5 3.2-2.7 7.4-6.5 10.5-9.4 4.4-3.9 9.8-9.4 13.6-13.7z"/></g><g class="st0"><defs><path id="SVGID_00000025410659745661878330000003963561734535239045_" d="M486.4 186.8c-1.7-6.6-4.6-15.1-7-21.4-1.8-4.7-4.5-10.9-6.7-15.5-2.9-6.1-7.3-14-10.8-19.8-2.5-4.2-6.4-9.6-9.2-13.7-3.9-5.8-10.1-12.8-14.7-18-3.2-3.6-7.9-8.1-11.3-11.5-5.3-5.4-13.2-11.7-19.3-16.2-7.2-5.4-17.3-11.9-25.2-16.3-4-2.2-9.5-5-13.6-6.9s-9.6-4.4-13.9-5.9c-8-2.9-18.7-6.7-26.9-8.6-4.1-.9-9.6-2.4-13.7-3.1s-9.6-1.7-13.7-2.3-9.5-1.5-13.6-1.5c33.5 2.7 64 36.1 79.7 94.8 25.3 94.4 2.7 218.7-50.4 277.5 20.1 1.6 27.2 13.1 16 25.5s-36.6 21.2-56.6 19.6c-20.1-1.6-27.2-13.1-16-25.5s36.6-21.2 56.6-19.6c53.1-58.8 75.6-183.1 50.4-277.5-15.7-58.7-46.2-92-79.7-94.8-4.2-.3-9.7-.7-13.9-.8-3.7 0-8.7-.1-12.4-.1-3.7.1-8.6.3-12.2.5-3.5.2-8.2.5-11.7 1-3.3.4-7.8.9-11.1 1.4s-7.7 1.2-10.9 1.8c-6.4 1.2-14.8 3.1-21.1 4.7-3.1.8-7.3 2-10.4 2.9s-7.2 2.3-10.2 3.3c-3.1 1-7.2 2.6-10.3 3.8s-7.1 2.9-10.1 4.2c-3.2 1.3-7.4 3.3-10.5 4.8-3.3 1.6-7.7 3.8-10.9 5.6-3.1 1.7-7.3 4.1-10.4 5.9-3.2 1.8-7.2 4.5-10.3 6.5-3.7 2.5-8.6 5.9-12.2 8.6-4.2 3.2-9.8 7.6-13.8 11.2-3.2 2.8-7.5 6.6-10.4 9.6-5.4 5.6-12.5 13.3-17.6 19.3-6 7.1-13 17.3-17.9 25.2-3.8 6.2-8.7 14.7-11.5 21.4-1.9 4.4-4.6 10.2-6.3 14.7-2.3 6.4-5.4 15-7 21.6-1.2 4.7-2.8 11.1-3.6 15.9-1.3 6.6-2.5 15.4-3.1 21.9-.9 9.9-.8 23.3-.1 33.3.5 6.7 1.7 15.5 2.9 22.1.9 5.1 2.5 11.7 3.8 16.7 2.2 9 6.6 20.6 10.1 29.2 1.9 4.7 4.8 10.7 7.2 15.1 3.2 6 8 13.6 11.6 19.4 3.8 6.1 9.7 13.6 14.3 18.9 6.3 7.3 15.2 16.8 22.7 23 5.9 5 14.2 11.3 20.5 15.8 3.8 2.7 9.2 5.9 13.2 8.3 4.1 2.5 9.8 5.4 14.1 7.6 4.1 2 9.6 4.5 13.7 6.2s9.7 3.8 13.9 5.2c5.2 1.7 12.1 3.9 17.4 5.1 4.1 1 9.5 2.3 13.6 3 8.1 1.3 19 3 27.2 3.7 4.2.4 9.7.7 13.9.8 3.7 0 8.7.1 12.4.1 3.7-.1 8.6-.3 12.2-.5 3.5-.2 8.2-.5 11.7-1 3.3-.4 7.8-.9 11.1-1.4s7.7-1.2 10.9-1.8 7.5-1.5 10.6-2.2c3.2-.7 7.4-1.7 10.5-2.6 6.2-1.6 14.5-4.3 20.6-6.3 3.1-1 7.2-2.6 10.3-3.8s7.1-2.9 10.1-4.2c3.2-1.3 7.4-3.3 10.5-4.8 3.3-1.6 7.7-3.8 10.9-5.6 3.1-1.7 7.3-4.1 10.4-5.9 3.7-2.1 8.5-5.2 11.9-7.6 6.4-4.5 14.8-10.8 20.8-15.7 4.4-3.6 9.8-8.8 13.9-12.6 3.3-3.1 7.4-7.5 10.4-10.9 3.1-3.4 6.9-8.1 9.8-11.7s6.6-8.5 9.1-12.4c4.1-6.3 9.3-14.9 13-21.5 4.6-8.4 9.4-20.2 12.8-29.2 2.5-6.5 5.2-15.4 6.6-22.3 1.3-6.5 3-15.2 4-21.8.7-4.9 1.2-11.5 1.5-16.4.5-9.7.2-22.7-.8-32.4-.8-9.7-3.3-23.2-5.8-33.1"/></defs><clipPath id="SVGID_00000106850220912998118940000005316851008110524572_"><use xlink:href="#SVGID_00000025410659745661878330000003963561734535239045_" style="overflow:visible"/></clipPath><g style="clip-path:url(#SVGID_00000106850220912998118940000005316851008110524572_)"><path class="st2" d="M332 424h-.1.1c4.7-5.3 6.3-10.7 4.6-15.1-2.3-5.7-9.7-9.5-20.5-10.4h-.1l.1-.1c25.7-28.4 45-73 54.5-125.4s8-106.4-4.2-152.1v-.1h.1c15.8 1.3 30.5 3.7 43.8 7.1 12.9 3.3 24.6 7.6 34.6 12.8 9.9 5.1 18.2 11.1 24.9 17.8 6.6 6.6 11.5 14 14.7 21.9 5 12.6 5.4 26.3 1.1 40.8-4.4 15-13.6 30.3-27.5 45.7 6.3 23.5 7.7 45.9 4.1 66.5-1.7 9.9-4.6 19.4-8.5 28.1-3.9 8.6-8.9 16.6-14.8 23.7-5.7 6.9-12.4 13-19.8 18.2-7.5 5.2-15.8 9.6-24.7 12.9-14.6 5.4-30.7 8.2-48.1 8.2-4.8.1-9.5-.1-14.3-.5zm44.7-228.1c.6 25.7-1.4 51.7-6.1 77.2-4.6 25.5-11.6 49.2-20.7 70.5-9.4 22-20.8 40.5-33.7 54.8 10.8.9 18.3 4.7 20.5 10.4 1.8 4.5.2 9.8-4.5 15.1 44.9 3.6 82.7-10.1 106.6-38.6 24.8-29.7 31.6-71.7 19.2-118.3 27.2-30.1 36.5-60.8 26.4-86.4-13-32.8-55.9-54.5-117.8-59.6 6 23.1 9.5 48.3 10.1 74.9z"/><path class="st2" d="M412.4 407.7c8.2-9.1 13.7-18.2 16.3-27 2.5-8.6 2.3-16.7-.7-24.1-7.7-19.4-33.1-32.3-69.7-35.3v.1c36.6 3 62 15.8 69.7 35.2 5.9 15.1.4 33.3-15.6 51.1zm45.2-56.3c12.3-13.6 20.5-27.3 24.4-40.6 3.8-12.8 3.4-25-1-36.2-11.5-29.1-49.7-48.4-104.6-52.9v.1c54.9 4.5 93 23.8 104.6 52.8 8.9 22.8.6 50-23.4 76.8z"/><path class="st2" d="M331.6 403.1c22.9-11.5 43.9-27.1 62.4-46.5 8.9-9.3 17.2-19.5 24.6-30.2 7.3-10.6 13.9-21.9 19.5-33.4 5.6-11.6 10.3-23.6 13.9-35.7 3.7-12.2 6.3-24.6 7.9-36.9 3.2-25.5 1.7-50.2-4.5-73.3h-.1c25.3 94.3-30.2 209.1-123.7 256z"/><path class="st2" d="M337.3 412.2c14.4-3.1 28.5-7.5 41.7-13.1 12.9-5.5 25.2-12.2 36.5-20 11.1-7.6 21.3-16.3 30.4-25.8 9-9.4 16.9-19.6 23.6-30.4 11.4-18.6 18.9-38.5 22.2-59.2 3.4-21.4 2.3-43-3.4-64.2h-.1c11.1 41.6 4.5 85.4-18.8 123.3-27.5 44.8-75.6 77.3-132.1 89.4z"/><path class="st2" d="M204.7 472.5c-7.5-1.8-14.9-5.2-21.8-10.1-7-4.9-13.6-11.4-19.7-19.2-6.2-8-11.8-17.3-16.7-27.9-5.1-10.9-9.4-23.1-12.9-36.2v-.1h.1c114.6 9.4 260.1-40.8 324.3-112l.1-.1v.1c6.3 23.5 7.7 45.9 4.1 66.5-1.7 9.9-4.6 19.4-8.5 28.1-3.9 8.6-8.9 16.6-14.8 23.7-5.7 6.9-12.4 13-19.8 18.2-7.5 5.2-15.8 9.6-24.7 12.9-18.5 6.9-39.5 9.5-62.2 7.6-11.2 12.4-36.6 21.2-56.6 19.6-11.2 12.4-23.1 21.2-35.3 26-7.4 3-14.9 4.4-22.3 4.4-4.6 0-9-.5-13.3-1.5zm70.7-29c20 1.6 45.4-7.1 56.6-19.5 44.9 3.7 82.8-10 106.7-38.6 24.8-29.7 31.6-71.7 19.2-118.2-15.7 17.4-36.4 33.8-61.6 48.8-24.3 14.5-51.8 27.1-81.6 37.4s-60.4 17.8-91.1 22.2c-31.7 4.6-62 5.8-90 3.5 7 26.2 17 47.7 29.7 64 12.1 15.5 26.4 25.7 41.5 29.3 23.5 5.7 48.6-4.6 70.6-28.9z"/><path class="st2" d="M237.5 474.6c11.7 0 23.8-.9 36.4-2.8 18.1-2.6 36.2-7.1 53.8-13.2s33.8-13.5 48.2-22.1c14.9-8.9 27.2-18.6 36.5-28.9l-.1-.1c-37.9 42.1-123.9 71.8-191.7 66.2v.1c5.5.6 11.2.8 16.9.8z"/><path class="st2" d="M195.1 451.8c17.5 0 35.8-1.4 54.6-4.1 27.2-4 54.4-10.6 80.8-19.7s50.8-20.3 72.4-33.2c22.4-13.3 40.8-27.9 54.7-43.4l-.1-.1c-56.9 63.1-186 107.7-287.8 99.4v.1c8.3.7 16.8 1 25.4 1z"/><path class="st2" d="M349.6 447.3c5.7 0 10.8-1.6 15.1-4.7 4.6-3.3 8.2-8.3 10.9-14.9s4.3-14.8 4.9-24.3c.6-9.7.1-20.8-1.5-32.9-1.6-12.5-4.4-26.2-8.3-40.7h-.1c15.2 56.9 13 99-6 112.7-11.4 8.2-27.9 5.5-47.8-7.7l-.1.1c12.5 8.2 23.5 12.4 32.9 12.4zm-57.4 21.3h.3c1.6-.2 2.8-2.6 3.5-7 .7-4.5.9-11.1.6-19.7h-.1c.6 16.9-.8 26.1-4 26.6h-.3c-3.3 0-8.4-8.6-14.8-24.8-6.7-17.3-14.7-42.7-22.9-73.7h-.1c8.3 31 16.2 56.5 23 73.7 6.3 16.3 11.4 24.9 14.8 24.9zm-87.5 3.9c-7.5-1.8-14.9-5.2-21.8-10.1-7-4.9-13.6-11.4-19.7-19.2-6.2-8-11.8-17.3-16.7-27.9-5.1-10.9-9.4-23-12.9-36.2-15.8-1.3-30.5-3.7-43.7-7.1-12.9-3.3-24.6-7.6-34.6-12.8-9.9-5.1-18.2-11.1-24.9-17.8-6.6-6.6-11.5-14-14.7-21.9-5-12.6-5.4-26.3-1.1-40.8 4.4-15 13.7-30.4 27.5-45.7l.1-.1v.1c25.2 94.3 122.7 177.3 217.3 185h.1l-.1.1c-4.7 5.2-6.4 10.6-4.6 15 2.3 5.7 9.7 9.5 20.5 10.4h.1l-.1.1c-11.2 12.4-23.1 21.2-35.3 26.1-7.4 3-14.9 4.4-22.3 4.4-4.4-.1-8.8-.6-13.1-1.6zm50-39.4c-1.8-4.5-.2-9.8 4.5-15.1-23.1-1.9-46.8-8.3-70.3-18.9-11.3-5.1-22.5-11.2-33.4-18.2-10.7-6.9-21.2-14.6-31-23-20-17-37.2-36.3-51.3-57.4-14.6-21.8-25.1-44.5-31.3-67.6-27.1 30.1-36.4 60.7-26.3 86.3 13 32.8 56 54.5 117.8 59.6 7 26.2 17 47.8 29.7 64.1 12.1 15.5 26.4 25.7 41.5 29.3 23.5 5.7 48.6-4.6 70.5-28.8-10.6-.8-18.1-4.6-20.4-10.3z"/><path class="st2" d="M220.6 474v-.1c-36.6-3-62-15.8-69.7-35.2-6-15.1-.5-33.3 15.6-51.1l-.1-.1c-8.2 9.1-13.7 18.2-16.3 27-2.5 8.6-2.3 16.7.7 24.1 7.8 19.5 33.2 32.4 69.8 35.4z"/><path class="st2" d="M169.8 450.8v-.1c-54.9-4.5-93-23.8-104.6-52.8-9-22.7-.7-50 23.4-76.7l-.1-.1c-12.3 13.6-20.5 27.3-24.4 40.6-3.8 12.8-3.4 25 1 36.2 11.6 29.1 49.7 48.4 104.7 52.9z"/><path class="st2" d="M179.8 458.9c2.4 0 4.9-.1 7.4-.2 11.9-.6 24-2.5 36-5.7 12.3-3.3 24.7-8 36.7-14.1v-.1c-46.8 23.4-97.3 26.2-138.5 7.7-37.9-17-65.1-50.4-76.8-93.8h-.1c11.6 43.5 38.9 76.8 76.8 93.9 10 4.5 20.6 7.8 31.6 9.8 8.7 1.7 17.8 2.5 26.9 2.5z"/><path class="st2" d="M206.2 434.9c16 0 32.1-1.7 47.9-5v-.1c-16 3.4-32 5-47.8 5-90.9 0-173.1-54-194.6-134.4h-.1c6.2 23.1 17.4 44.4 33.3 63.3 7.6 9.1 16.4 17.6 25.9 25.2s19.8 14.4 30.8 20.2c11 5.9 22.6 10.8 34.7 14.7 12.2 4 24.8 6.9 37.6 8.7 10.7 1.6 21.5 2.4 32.3 2.4z"/><path class="st2" d="M259.4 418.1c-23.2-1.9-46.9-8.3-70.4-18.9-11.3-5.1-22.5-11.2-33.4-18.2-10.7-6.9-21.2-14.6-31-23-20-17-37.2-36.3-51.3-57.4C58.7 278.8 48.2 256 42 233c15.7-17.4 36.5-33.9 61.7-48.9 24.3-14.5 51.8-27.1 81.6-37.4s60.4-17.8 91.1-22.2c31.7-4.6 62-5.8 90.1-3.5 6.2 23.1 9.6 48.3 10.3 74.9.6 25.7-1.4 51.7-6.1 77.2-4.6 25.5-11.6 49.2-20.7 70.5-9.5 22.1-20.8 40.5-33.8 54.9-20.2-1.6-45.6 7.1-56.8 19.6zm56.6-19.7c25.7-28.4 45-73 54.5-125.3 9.5-52.4 8-106.4-4.2-152-114.6-9.4-260.1 40.9-324.3 112 25.2 94.2 122.7 177.2 217.3 185 10.3-11.4 32.6-19.8 51.7-19.8 1.8-.1 3.4 0 5 .1z"/><path class="st2" d="M166.6 387.6c37.9-42.1 123.9-71.7 191.7-66.2v-.1c-16.6-1.4-34.5-.7-53.3 2.1-18.1 2.6-36.2 7.1-53.8 13.2s-33.8 13.5-48.2 22.1c-14.9 8.8-27.2 18.5-36.4 28.9zm-78-66.4c56.9-63.1 186-107.7 287.8-99.4v-.1c-24.9-2-51.8-1-79.9 3.1-27.2 4-54.4 10.6-80.8 19.7s-50.8 20.3-72.4 33.2c-22.4 13.4-40.8 28-54.7 43.5z"/><path class="st2" d="M274.6 407.1c-26.6-17.7-56.4-52-83.8-96.7-27.5-44.7-49.3-94.5-61.5-140.2h-.1c6.2 23.1 14.8 47.2 25.6 71.7 10.5 23.7 22.5 46.7 35.9 68.5s27.3 41.1 41.5 57.6c14.7 17 28.9 30.2 42.4 39.1zm20.3-7.1h.1c-2-54.6-24.2-175.8-49.4-270.1h-.1c25.2 94.4 47.4 215.5 49.4 270.1zm163-133C432.6 172.7 335.1 89.8 240.5 82h-.1l.1-.1c4.7-5.2 6.4-10.6 4.6-15-2.3-5.7-9.7-9.5-20.5-10.4h-.1l.1-.1c11.2-12.4 23.1-21.2 35.3-26.1 11.8-4.7 23.7-5.7 35.3-2.9 7.5 1.8 14.9 5.2 21.8 10.1 7 4.9 13.6 11.4 19.7 19.2 6.2 8 11.8 17.3 16.7 27.9 5.1 10.9 9.4 23 12.9 36.2 15.8 1.3 30.5 3.7 43.7 7.1 12.9 3.3 24.6 7.6 34.6 12.8 9.9 5.1 18.2 11.1 24.9 17.8 6.6 6.6 11.5 14 14.7 21.9 5 12.6 5.4 26.3 1.1 40.8-4.2 15.1-13.5 30.5-27.4 45.8zM224.7 56.4c10.8.9 18.3 4.7 20.5 10.4 1.8 4.5.2 9.8-4.5 15.1 23.1 1.9 46.8 8.3 70.3 18.9 11.3 5.1 22.5 11.2 33.4 18.2 10.7 6.9 21.2 14.6 31 23 20 17 37.2 36.3 51.3 57.4 14.6 21.8 25.1 44.5 31.3 67.6 27.1-30.1 36.4-60.7 26.3-86.3-13-32.8-56-54.5-117.8-59.6-7-26.2-17-47.8-29.7-64.1-12.1-15.5-26.4-25.7-41.5-29.3-4.2-1-8.5-1.5-12.8-1.5-19.8-.2-39.9 10.3-57.8 30.2z"/><path class="st2" d="M411.4 178.8c12.3-13.6 20.5-27.3 24.4-40.6 3.8-12.8 3.4-25-1-36.2-11.5-29.1-49.7-48.4-104.6-52.9v.1c54.9 4.5 93 23.8 104.6 52.8 9 22.8.6 50-23.4 76.8z"/><path class="st2" d="M333.4 112.4c8.2-9.1 13.7-18.2 16.3-27 2.5-8.6 2.3-16.7-.7-24.1-7.7-19.5-33.1-32.3-69.7-35.3v.1c36.6 3 62 15.8 69.7 35.2 6 15.1.4 33.3-15.6 51.1z"/><path class="st2" d="M455.4 147.2h.1c-11.6-43.5-38.9-76.8-76.8-93.9-10-4.5-20.6-7.8-31.6-9.8-11.1-2-22.6-2.8-34.3-2.3-11.9.6-24 2.5-36 5.7-12.3 3.3-24.7 8-36.7 14.1v.1c46.8-23.4 97.3-26.2 138.5-7.7 37.9 17 65.2 50.3 76.8 93.8z"/><path class="st2" d="M488.2 199.6h.1c-6.2-23.1-17.4-44.4-33.3-63.3-7.6-9.1-16.4-17.6-25.9-25.2s-19.8-14.4-30.8-20.2c-11-5.9-22.6-10.8-34.7-14.7-12.2-4-24.8-6.9-37.6-8.7-26.6-3.8-53.6-2.9-80.2 2.8v.1c16-3.4 32-5 47.8-5 91-.2 173.1 53.8 194.6 134.2z"/><path class="st2" d="M133.5 379.1c-6.2-23.1-9.7-48.3-10.3-75-.6-25.7 1.4-51.7 6.1-77.2 4.6-25.5 11.6-49.2 20.7-70.5 9.5-22.1 20.8-40.5 33.8-54.9 20 1.6 45.4-7.1 56.6-19.5 23.2 1.9 46.9 8.3 70.4 18.9 11.3 5.1 22.5 11.2 33.4 18.2 10.7 6.9 21.2 14.6 31 23 20 17 37.2 36.3 51.3 57.4 14.6 21.8 25.1 44.6 31.3 67.7-15.7 17.4-36.5 33.9-61.7 48.9-24.3 14.5-51.8 27.1-81.6 37.4s-60.4 17.8-91.1 22.2c-21.2 3.1-41.8 4.7-61.5 4.7-9.5-.2-19.1-.6-28.4-1.3zM240.6 82c-11.2 12.4-36.6 21.2-56.6 19.6-25.7 28.4-45 73-54.5 125.3-9.5 52.4-8 106.4 4.2 152 114.6 9.4 260.1-40.9 324.3-112C432.6 172.7 335.2 89.8 240.6 82z"/><path class="st2" d="M148.9 279.2c17.5 0 35.8-1.4 54.6-4.1 27.2-4 54.4-10.6 80.8-19.7s50.8-20.3 72.4-33.2c22.4-13.3 40.8-27.9 54.7-43.4l-.1-.1c-56.9 63.1-186 107.7-287.8 99.4v.1c8.3.7 16.8 1 25.4 1zm9.6-99.9c11.7 0 23.8-.9 36.4-2.8 18.1-2.6 36.2-7.1 53.8-13.2s33.8-13.5 48.2-22.1c14.9-8.9 27.2-18.6 36.5-28.9l-.1-.1c-37.9 42.1-123.9 71.8-191.7 66.2v.1c5.5.6 11.2.8 16.9.8z"/><path class="st2" d="M370.7 329.8h.1c-6.2-23.1-14.8-47.2-25.6-71.7-10.5-23.7-22.5-46.7-35.9-68.5S282 148.5 267.8 132c-14.7-17-28.9-30.2-42.4-39.1l-.1.1c26.6 17.6 56.4 51.9 83.9 96.7 27.4 44.7 49.3 94.4 61.5 140.1zM254.3 370h.1C229.2 275.7 207 154.6 205 100h-.1c2.1 54.6 24.2 175.7 49.4 270zm-120.8 9.1c-15.8-1.3-30.5-3.7-43.8-7.1-12.9-3.3-24.6-7.6-34.6-12.8-9.9-5.1-18.2-11.1-24.9-17.8-6.6-6.6-11.5-14-14.7-21.9-5-12.6-5.4-26.3-1.1-40.8 4.4-15 13.6-30.3 27.5-45.7-6.3-23.5-7.7-45.9-4.1-66.5 1.7-9.9 4.6-19.4 8.5-28.1 3.9-8.6 8.9-16.6 14.8-23.7 5.7-6.9 12.4-13 19.8-18.2 7.5-5.2 15.8-9.6 24.7-12.9 18.5-6.9 39.5-9.5 62.2-7.6h.2c-4.7 5.2-6.4 10.6-4.6 15 2.3 5.7 9.7 9.5 20.5 10.4h.1l-.1.1c-25.7 28.4-45 73-54.5 125.4s-8 106.4 4.1 152.2zm29.8-288c-1.8-4.5-.2-9.8 4.5-15.1-44.9-3.6-82.7 10.1-106.6 38.6-24.8 29.7-31.6 71.7-19.2 118.3-27.2 30.1-36.5 60.8-26.4 86.4 13 32.8 55.9 54.5 117.8 59.6-6.2-23.1-9.6-48.3-10.2-74.9-.6-25.7 1.4-51.7 6.1-77.2 4.6-25.5 11.6-49.2 20.7-70.5 9.4-22 20.8-40.5 33.7-54.8-10.7-.9-18.2-4.7-20.4-10.4z"/><path class="st2" d="M123.6 278.2v-.1c-54.9-4.5-93-23.8-104.6-52.8-9-22.7-.7-50 23.4-76.7l-.1-.1c-12.3 13.6-20.5 27.3-24.4 40.6-3.8 12.8-3.4 25 1 36.2 11.6 29.1 49.7 48.4 104.7 52.9zm18-99.5v-.1c-36.6-3-62-15.8-69.7-35.2-6-15.1-.5-33.3 15.6-51.1l-.1-.1c-8.2 9.1-13.7 18.2-16.3 27-2.5 8.6-2.3 16.7.7 24.1 7.8 19.5 33.2 32.4 69.8 35.4z"/><path class="st2" d="M44.4 352.8c-25.1-94.3 30.5-209 124-255.8v-.1c-22.9 11.5-43.9 27.1-62.4 46.5-8.9 9.3-17.2 19.5-24.6 30.2-7.4 10.6-14 21.8-19.6 33.4s-10.3 23.6-13.9 35.7c-3.7 12.2-6.3 24.6-7.9 36.9-3.2 25.5-1.7 50.1 4.4 73.2z"/><path class="st2" d="M11.6 300.4h.1C.6 258.8 7.3 215 30.5 177.1c27.5-44.8 75.6-77.3 132.1-89.3v-.1c-14.4 3.1-28.5 7.5-41.7 13.1-12.9 5.5-25.2 12.2-36.5 20-11.1 7.6-21.3 16.3-30.4 25.8-9 9.4-17 19.6-23.6 30.4-11.4 18.6-18.8 38.5-22.1 59.2-3.5 21.4-2.4 43 3.3 64.2z"/><path class="st2" d="M42 233c-6.3-23.5-7.7-45.9-4.1-66.5 1.7-9.9 4.6-19.4 8.5-28.1 3.9-8.6 8.9-16.6 14.8-23.7 5.7-6.9 12.4-13 19.8-18.2 7.5-5.2 15.8-9.6 24.7-12.9 18.5-6.9 39.5-9.5 62.2-7.6 11.2-12.4 36.6-21.2 56.6-19.6 11.2-12.4 23.1-21.2 35.3-26 11.8-4.7 23.7-5.7 35.3-2.9 7.5 1.8 14.9 5.2 21.8 10.1 7 4.9 13.6 11.4 19.7 19.2 6.2 8 11.8 17.3 16.7 27.9 5.1 10.9 9.4 23.1 12.9 36.2v.1h-.1c-9.3-.8-18.7-1.1-28.4-1.1-109 0-236.6 47.7-295.7 113.1zm324.3-112.1c-7-26.2-17-47.7-29.7-64-12.1-15.5-26.4-25.7-41.5-29.3-23.6-5.7-48.6 4.6-70.6 28.9-20-1.6-45.4 7.1-56.6 19.5-44.9-3.7-82.8 10-106.7 38.6-24.8 29.7-31.6 71.7-19.2 118.2 15.7-17.4 36.4-33.8 61.6-48.8 24.3-14.5 51.8-27.1 81.6-37.4s60.4-17.8 91.1-22.2c21.2-3.1 41.8-4.7 61.5-4.7 9.7 0 19.3.4 28.5 1.2z"/><path class="st2" d="M42.4 148.6c56.9-63.1 186-107.7 287.8-99.4v-.1c-24.9-2-51.8-1-79.9 3.1-27.2 4-54.4 10.6-80.8 19.7s-50.8 20.3-72.4 33.2c-22.4 13.4-40.8 28-54.7 43.5z"/><path class="st2" d="M87.6 92.3c37.9-42.1 123.9-71.7 191.7-66.2V26c-16.6-1.4-34.5-.7-53.3 2.1-18.1 2.6-36.2 7.1-53.8 13.2S138.4 54.8 124 63.4c-14.9 8.8-27.2 18.5-36.4 28.9z"/><path class="st2" d="M129.1 170.2h.1c-15.2-56.9-13-99 6-112.7 11.4-8.2 27.9-5.5 47.8 7.7l.1-.1c-20-13.2-36.6-15.9-48-7.6-4.6 3.3-8.2 8.3-10.9 14.9s-4.3 14.8-4.9 24.3c-.6 9.7-.1 20.8 1.5 32.9 1.7 12.4 4.5 26.1 8.3 40.6zM245.5 130h.1c-8.3-31-16.2-56.5-23-73.7-6.5-16.8-11.8-25.4-15.2-24.9-1.6.2-2.8 2.6-3.5 7-.7 4.5-.9 11.1-.6 19.7h.1c-.6-16.9.8-26.1 4-26.6 3.3-.5 8.5 8.1 15.1 24.8 6.8 17.2 14.7 42.7 23 73.7z"/></g><defs><path id="SVGID_00000158013218613307649880000017115513344611965364_" d="M486.4 186.8c-1.7-6.6-4.6-15.1-7-21.4-1.8-4.7-4.5-10.9-6.7-15.5-2.9-6.1-7.3-14-10.8-19.8-2.5-4.2-6.4-9.6-9.2-13.7-3.9-5.8-10.1-12.8-14.7-18-3.2-3.6-7.9-8.1-11.3-11.5-5.3-5.4-13.2-11.7-19.3-16.2-7.2-5.4-17.3-11.9-25.2-16.3-4-2.2-9.5-5-13.6-6.9s-9.6-4.4-13.9-5.9c-8-2.9-18.7-6.7-26.9-8.6-4.1-.9-9.6-2.4-13.7-3.1s-9.6-1.7-13.7-2.3-9.5-1.5-13.6-1.5c33.5 2.7 64 36.1 79.7 94.8 25.3 94.4 2.7 218.7-50.4 277.5 20.1 1.6 27.2 13.1 16 25.5s-36.6 21.2-56.6 19.6c-20.1-1.6-27.2-13.1-16-25.5s36.6-21.2 56.6-19.6c53.1-58.8 75.6-183.1 50.4-277.5-15.7-58.7-46.2-92-79.7-94.8-4.2-.3-9.7-.7-13.9-.8-3.7 0-8.7-.1-12.4-.1-3.7.1-8.6.3-12.2.5-3.5.2-8.2.5-11.7 1-3.3.4-7.8.9-11.1 1.4s-7.7 1.2-10.9 1.8c-6.4 1.2-14.8 3.1-21.1 4.7-3.1.8-7.3 2-10.4 2.9s-7.2 2.3-10.2 3.3c-3.1 1-7.2 2.6-10.3 3.8s-7.1 2.9-10.1 4.2c-3.2 1.3-7.4 3.3-10.5 4.8-3.3 1.6-7.7 3.8-10.9 5.6-3.1 1.7-7.3 4.1-10.4 5.9-3.2 1.8-7.2 4.5-10.3 6.5-3.7 2.5-8.6 5.9-12.2 8.6-4.2 3.2-9.8 7.6-13.8 11.2-3.2 2.8-7.5 6.6-10.4 9.6-5.4 5.6-12.5 13.3-17.6 19.3-6 7.1-13 17.3-17.9 25.2-3.8 6.2-8.7 14.7-11.5 21.4-1.9 4.4-4.6 10.2-6.3 14.7-2.3 6.4-5.4 15-7 21.6-1.2 4.7-2.8 11.1-3.6 15.9-1.3 6.6-2.5 15.4-3.1 21.9-.9 9.9-.8 23.3-.1 33.3.5 6.7 1.7 15.5 2.9 22.1.9 5.1 2.5 11.7 3.8 16.7 2.2 9 6.6 20.6 10.1 29.2 1.9 4.7 4.8 10.7 7.2 15.1 3.2 6 8 13.6 11.6 19.4 3.8 6.1 9.7 13.6 14.3 18.9 6.3 7.3 15.2 16.8 22.7 23 5.9 5 14.2 11.3 20.5 15.8 3.8 2.7 9.2 5.9 13.2 8.3 4.1 2.5 9.8 5.4 14.1 7.6 4.1 2 9.6 4.5 13.7 6.2s9.7 3.8 13.9 5.2c5.2 1.7 12.1 3.9 17.4 5.1 4.1 1 9.5 2.3 13.6 3 8.1 1.3 19 3 27.2 3.7 4.2.4 9.7.7 13.9.8 3.7 0 8.7.1 12.4.1 3.7-.1 8.6-.3 12.2-.5 3.5-.2 8.2-.5 11.7-1 3.3-.4 7.8-.9 11.1-1.4s7.7-1.2 10.9-1.8 7.5-1.5 10.6-2.2c3.2-.7 7.4-1.7 10.5-2.6 6.2-1.6 14.5-4.3 20.6-6.3 3.1-1 7.2-2.6 10.3-3.8s7.1-2.9 10.1-4.2c3.2-1.3 7.4-3.3 10.5-4.8 3.3-1.6 7.7-3.8 10.9-5.6 3.1-1.7 7.3-4.1 10.4-5.9 3.7-2.1 8.5-5.2 11.9-7.6 6.4-4.5 14.8-10.8 20.8-15.7 4.4-3.6 9.8-8.8 13.9-12.6 3.3-3.1 7.4-7.5 10.4-10.9 3.1-3.4 6.9-8.1 9.8-11.7s6.6-8.5 9.1-12.4c4.1-6.3 9.3-14.9 13-21.5 4.6-8.4 9.4-20.2 12.8-29.2 2.5-6.5 5.2-15.4 6.6-22.3 1.3-6.5 3-15.2 4-21.8.7-4.9 1.2-11.5 1.5-16.4.5-9.7.2-22.7-.8-32.4-.8-9.7-3.3-23.2-5.8-33.1"/></defs><clipPath id="SVGID_00000007427726203506795300000017941224513376816796_"><use xlink:href="#SVGID_00000158013218613307649880000017115513344611965364_" style="overflow:visible"/></clipPath><path class="st2" d="M230.2 474.7h-3.1c-4.3 0-10-.4-13.9-.8-8.5-.8-19.5-2.4-27.2-3.7-3.2-.5-7.1-1.5-10.5-2.3-1.1-.3-2.1-.5-3.1-.7-4.2-1-10.1-2.7-17.4-5.1-4.4-1.5-10.1-3.6-13.9-5.2-4.1-1.7-9.6-4.2-13.7-6.2-6.1-3-10.9-5.6-14.1-7.6q-1.35-.9-3-1.8c-3.4-2.1-7.3-4.4-10.2-6.5-6.6-4.7-14.8-11.1-20.5-15.8-9.3-7.8-19.7-19.6-22.7-23-4.4-5.1-10.5-12.7-14.3-18.9l-.2-.4c-3.5-5.6-8.2-13.2-11.3-19-2.5-4.5-5.4-10.6-7.2-15.2-2.7-6.6-7.7-19.3-10.1-29.2l-.2-.9c-1.2-4.9-2.7-11-3.5-15.8-1-6.1-2.4-15.2-2.9-22.1-.8-11-.8-24.1.1-33.3.6-6.4 1.8-15.2 2.9-21.8.7-4.2 2-9.5 3.1-13.9.2-.7.3-1.4.5-2 1.6-6.5 4.6-14.9 7-21.6 1.2-3.2 2.9-7.1 4.4-10.5.7-1.5 1.3-2.9 1.9-4.2 3.7-8.5 9.8-18.5 11.5-21.4 4.6-7.4 11.7-18 17.9-25.2 4.6-5.4 11.5-13 17.6-19.3 2.7-2.8 6.6-6.2 9.6-9l.8-.7C89 87.3 95.4 82.3 98 80.4c3.5-2.7 8.4-6.2 12.2-8.6l.5-.3c3-2 6.8-4.5 9.8-6.2 1-.6 2.1-1.2 3.2-1.9 2.5-1.4 5-2.9 7.1-4 3.4-1.8 7.8-4.1 10.9-5.6 3.5-1.7 7.5-3.6 10.6-4.8.9-.4 1.9-.8 2.9-1.2 2.4-1 5.1-2.1 7.2-3 4.5-1.7 7.9-3 10.3-3.8.8-.3 1.7-.6 2.6-.9 2.5-.8 5.4-1.8 7.6-2.5 3.1-.9 7.3-2.1 10.4-2.9 5.9-1.6 14.4-3.5 21.1-4.8 3-.6 7.3-1.3 10.9-1.8 2.3-.3 5.3-.7 7.9-1 1.1-.1 2.2-.3 3.2-.4 3.7-.5 8.6-.8 11.7-1 5.2-.3 9.3-.4 12.2-.5h12.5c4.3 0 10 .5 13.9.8 3.3 0 7.5.6 11.2 1.1q1.35.15 2.4.3c2.9.4 6.3 1 9.6 1.6 1.5.3 2.9.5 4.1.7 2.9.5 6.4 1.3 9.7 2.1 1.4.3 2.8.7 4 1 8.4 1.9 19.4 5.8 26.9 8.6 3.6 1.3 8.8 3.5 13.9 5.9 4.2 1.9 9.6 4.7 13.6 6.9 7.9 4.4 18.1 10.9 25.2 16.3 3.7 2.8 13.1 9.9 19.3 16.2l3.2 3.2c2.7 2.7 5.8 5.7 8.1 8.3 4.5 5.2 10.8 12.2 14.7 18 .8 1.1 1.6 2.4 2.5 3.6 2.3 3.3 4.9 7 6.7 10.1 3.2 5.4 7.8 13.5 10.8 19.8 2 4.2 4.8 10.5 6.7 15.5 1.8 4.9 5.2 14.3 7 21.4h-.1.1c2.7 10.6 5.2 24.1 6.2 33.5s1.3 22.4.8 32.4c-.2 4.6-.7 11.3-1.5 16.4-.9 6.3-2.5 14.4-3.8 20.9l-.2.9c-1.3 6.3-3.8 15.1-6.6 22.3-4.8 12.7-9.1 22.5-12.8 29.2-3.4 6.2-8.7 14.9-13 21.5-2.3 3.5-5.9 8.4-9.1 12.4-1.7 2.2-6.2 7.6-9.8 11.7-4.4 4.9-7.8 8.5-10.4 10.9-1 .9-2 1.9-3.1 2.9-3.5 3.3-7.5 7-10.8 9.7-6.1 5-14.5 11.3-20.8 15.7-3.8 2.6-8.5 5.6-12 7.6-.7.4-1.6.9-2.4 1.4-2.6 1.5-5.6 3.2-8 4.5-2.5 1.4-6.2 3.3-10.9 5.6-3.5 1.7-7.7 3.6-10.6 4.8-.9.4-1.9.8-2.9 1.2-2.4 1-5.1 2.1-7.3 3-4.4 1.7-7.9 3-10.3 3.8-5.9 1.9-14.3 4.6-20.6 6.3-3.2.8-7.4 1.9-10.5 2.6-2.4.5-5.5 1.2-8.3 1.7-.8.2-1.6.3-2.4.5-2.6.5-6.3 1.1-10.9 1.8-2.3.3-5.3.7-7.9 1-1.1.1-2.2.3-3.2.4-3.1.4-7.7.8-11.7 1-3.5.2-8.5.4-12.2.5zm80.9-440.9c7.9 4.5 15.3 10.8 22.2 18.7 7 8.1 13.3 17.9 18.8 29.2 5.7 11.6 10.5 24.8 14.4 39.2 6.2 23.1 9.6 48.3 10.3 74.9.1 3 .1 5.9.1 8.9 0 22.8-2.1 45.7-6.2 68.3-4.6 25.5-11.6 49.2-20.7 70.5-9.4 22-20.8 40.5-33.7 54.8 10.8.9 18.3 4.7 20.5 10.4 1.8 4.5.1 9.9-4.6 15.2-10.3 11.4-32.6 19.8-51.7 19.8-1.7 0-3.3-.1-5-.2-10.8-.9-18.4-4.7-20.6-10.4-1.8-4.5-.1-9.9 4.6-15.2 11.2-12.4 36.6-21.2 56.7-19.6 25.7-28.4 45-73 54.5-125.3 4.1-22.8 6.2-45.9 6.2-68.4 0-29.4-3.5-57.8-10.4-83.7l-.6-2.1c-7.6-27.3-18.8-50.2-32.6-66.2-13.7-15.9-29.7-25-46.5-26.4-3.9-.3-9.6-.7-13.9-.8h-3.1c-3.1 0-6.6-.1-9.4 0-2.9 0-7 .2-12.2.5-3 .2-7.9.5-11.7 1-1 .1-2 .2-3.2.4-2.6.3-5.6.7-7.9 1-3.7.5-7.9 1.2-10.9 1.8-6.8 1.3-15.2 3.2-21.1 4.7-3.1.8-7.3 2-10.4 2.9-2.3.7-5.1 1.6-7.6 2.5-.9.3-1.8.6-2.6.9-2.5.8-5.8 2-10.3 3.8-2.2.8-4.9 2-7.2 3-1 .4-2 .8-2.9 1.2-3.1 1.3-7.1 3.2-10.5 4.8-3.1 1.5-7.5 3.8-10.9 5.6-2.1 1.2-4.7 2.6-7.1 4-1.2.7-2.2 1.3-3.2 1.9-3 1.7-6.8 4.2-9.8 6.2l-.5.3c-3.8 2.5-8.7 5.9-12.2 8.6-2.6 2-9 6.9-13.8 11.2l-.8.7c-3.1 2.7-6.9 6.1-9.6 9-6.1 6.3-13 13.8-17.6 19.3-6.1 7.2-13.2 17.7-17.9 25.2-1.8 2.9-7.9 12.9-11.5 21.4-.6 1.3-1.2 2.7-1.9 4.2-1.5 3.4-3.3 7.3-4.4 10.5-2.4 6.6-5.4 15.1-7 21.6-.2.6-.3 1.3-.5 2-1.1 4.3-2.4 9.7-3.1 13.9-1.2 6.7-2.3 15.4-2.9 21.8-.9 9.2-.9 22.3-.1 33.3.5 6.9 1.8 15.9 2.9 22.1.8 4.8 2.3 10.9 3.5 15.8l.2.9c2.5 9.9 7.4 22.6 10.1 29.2 1.9 4.5 4.8 10.6 7.2 15.1 3.2 5.8 7.9 13.4 11.3 19l.2.4c3.9 6.2 9.9 13.9 14.3 18.9 3 3.4 13.3 15.2 22.7 23 5.7 4.7 13.9 11.1 20.5 15.8 2.9 2.1 6.8 4.4 10.2 6.5 1.1.6 2.1 1.3 3 1.8 3.2 2 8 4.5 14.1 7.6 4.1 2 9.6 4.5 13.7 6.2 3.9 1.6 9.5 3.8 13.9 5.2 7.3 2.4 13.2 4.1 17.4 5.1 1 .2 2 .5 3.1.7 3.5.8 7.4 1.8 10.5 2.3 7.7 1.3 18.8 3 27.2 3.7 3.9.3 9.5.7 13.9.8h3.1c3.1 0 6.6.1 9.3 0 3.7-.1 8.8-.3 12.2-.5 4-.2 8.5-.6 11.7-1 1-.1 2-.2 3.2-.4 2.6-.3 5.6-.7 7.9-1 4.6-.7 8.3-1.3 10.9-1.8.7-.1 1.5-.3 2.4-.5 2.7-.5 5.8-1.2 8.3-1.7 3.1-.7 7.3-1.7 10.5-2.6 6.3-1.7 14.7-4.3 20.6-6.3 2.5-.8 5.9-2.1 10.3-3.8 2.2-.8 4.9-2 7.2-3 1-.4 2-.8 2.9-1.2 2.9-1.2 7-3.1 10.5-4.8 4.7-2.3 8.4-4.2 10.9-5.6 2.4-1.3 5.3-3 8-4.5.8-.5 1.6-1 2.4-1.4 3.4-2 8.2-5 11.9-7.6 6.3-4.4 14.7-10.7 20.8-15.7 3.3-2.7 7.3-6.4 10.8-9.7 1.1-1 2.1-2 3.1-2.9 2.6-2.4 6-6 10.4-10.9 3.6-4 8.1-9.5 9.8-11.7 3.2-4 6.8-8.9 9.1-12.4 4.3-6.6 9.5-15.3 13-21.5 3.7-6.7 8-16.5 12.8-29.2 2.7-7.2 5.3-15.9 6.6-22.2l.2-.9c1.3-6.5 2.9-14.6 3.8-20.9.7-5.2 1.3-11.9 1.5-16.4.5-9.9.2-22.9-.8-32.3s-3.5-22.9-6.2-33.5c-1.8-7.1-5.1-16.5-7-21.4-1.8-5-4.6-11.3-6.7-15.5-3-6.3-7.5-14.3-10.8-19.8-1.8-3.1-4.4-6.8-6.7-10.1-.9-1.3-1.7-2.5-2.5-3.6-3.9-5.8-10.2-12.9-14.7-18-2.3-2.6-5.4-5.6-8.1-8.3-1.2-1.1-2.2-2.2-3.2-3.2-6.2-6.3-15.6-13.4-19.3-16.2-7.2-5.4-17.3-11.9-25.2-16.3-4-2.2-9.4-5-13.6-6.9-5.1-2.4-10.3-4.6-13.9-5.9-7.5-2.8-18.5-6.7-26.9-8.6-1.2-.3-2.6-.6-4-1-3.3-.8-6.8-1.6-9.7-2.1-1.3-.2-2.7-.5-4.1-.7-3.3-.6-6.7-1.2-9.6-1.6l-2.4-.3c-3.2-.5-6.7-1-9.7-1.1 8 .9 15.7 3.4 23.1 7.6zM259.4 418c-4.7 5.2-6.4 10.6-4.6 15 2.3 5.7 9.7 9.5 20.5 10.4 20 1.6 45.4-7.1 56.6-19.5 4.7-5.2 6.4-10.6 4.6-15-2.3-5.7-9.7-9.5-20.5-10.4-20-1.6-45.4 7.1-56.6 19.5z" style="clip-path:url(#SVGID_00000007427726203506795300000017941224513376816796_)"/><path id="SVGID_00000056417825565976356420000003123135414184322433_" class="st2" d="M486.4 186.8c-1.7-6.6-4.6-15.1-7-21.4-1.8-4.7-4.5-10.9-6.7-15.5-2.9-6.1-7.3-14-10.8-19.8-2.5-4.2-6.4-9.6-9.2-13.7-3.9-5.8-10.1-12.8-14.7-18-3.2-3.6-7.9-8.1-11.3-11.5-5.3-5.4-13.2-11.7-19.3-16.2-7.2-5.4-17.3-11.9-25.2-16.3-4-2.2-9.5-5-13.6-6.9s-9.6-4.4-13.9-5.9c-8-2.9-18.7-6.7-26.9-8.6-4.1-.9-9.6-2.4-13.7-3.1s-9.6-1.7-13.7-2.3-9.5-1.5-13.6-1.5c33.5 2.7 64 36.1 79.7 94.8 25.3 94.4 2.7 218.7-50.4 277.5 20.1 1.6 27.2 13.1 16 25.5s-36.6 21.2-56.6 19.6c-20.1-1.6-27.2-13.1-16-25.5s36.6-21.2 56.6-19.6c53.1-58.8 75.6-183.1 50.4-277.5-15.7-58.7-46.2-92-79.7-94.8-4.2-.3-9.7-.7-13.9-.8-3.7 0-8.7-.1-12.4-.1-3.7.1-8.6.3-12.2.5-3.5.2-8.2.5-11.7 1-3.3.4-7.8.9-11.1 1.4s-7.7 1.2-10.9 1.8c-6.4 1.2-14.8 3.1-21.1 4.7-3.1.8-7.3 2-10.4 2.9s-7.2 2.3-10.2 3.3c-3.1 1-7.2 2.6-10.3 3.8s-7.1 2.9-10.1 4.2c-3.2 1.3-7.4 3.3-10.5 4.8-3.3 1.6-7.7 3.8-10.9 5.6-3.1 1.7-7.3 4.1-10.4 5.9-3.2 1.8-7.2 4.5-10.3 6.5-3.7 2.5-8.6 5.9-12.2 8.6-4.2 3.2-9.8 7.6-13.8 11.2-3.2 2.8-7.5 6.6-10.4 9.6-5.4 5.6-12.5 13.3-17.6 19.3-6 7.1-13 17.3-17.9 25.2-3.8 6.2-8.7 14.7-11.5 21.4-1.9 4.4-4.6 10.2-6.3 14.7-2.3 6.4-5.4 15-7 21.6-1.2 4.7-2.8 11.1-3.6 15.9-1.3 6.6-2.5 15.4-3.1 21.9-.9 9.9-.8 23.3-.1 33.3.5 6.7 1.7 15.5 2.9 22.1.9 5.1 2.5 11.7 3.8 16.7 2.2 9 6.6 20.6 10.1 29.2 1.9 4.7 4.8 10.7 7.2 15.1 3.2 6 8 13.6 11.6 19.4 3.8 6.1 9.7 13.6 14.3 18.9 6.3 7.3 15.2 16.8 22.7 23 5.9 5 14.2 11.3 20.5 15.8 3.8 2.7 9.2 5.9 13.2 8.3 4.1 2.5 9.8 5.4 14.1 7.6 4.1 2 9.6 4.5 13.7 6.2s9.7 3.8 13.9 5.2c5.2 1.7 12.1 3.9 17.4 5.1 4.1 1 9.5 2.3 13.6 3 8.1 1.3 19 3 27.2 3.7 4.2.4 9.7.7 13.9.8 3.7 0 8.7.1 12.4.1 3.7-.1 8.6-.3 12.2-.5 3.5-.2 8.2-.5 11.7-1 3.3-.4 7.8-.9 11.1-1.4s7.7-1.2 10.9-1.8 7.5-1.5 10.6-2.2c3.2-.7 7.4-1.7 10.5-2.6 6.2-1.6 14.5-4.3 20.6-6.3 3.1-1 7.2-2.6 10.3-3.8s7.1-2.9 10.1-4.2c3.2-1.3 7.4-3.3 10.5-4.8 3.3-1.6 7.7-3.8 10.9-5.6 3.1-1.7 7.3-4.1 10.4-5.9 3.7-2.1 8.5-5.2 11.9-7.6 6.4-4.5 14.8-10.8 20.8-15.7 4.4-3.6 9.8-8.8 13.9-12.6 3.3-3.1 7.4-7.5 10.4-10.9 3.1-3.4 6.9-8.1 9.8-11.7s6.6-8.5 9.1-12.4c4.1-6.3 9.3-14.9 13-21.5 4.6-8.4 9.4-20.2 12.8-29.2 2.5-6.5 5.2-15.4 6.6-22.3 1.3-6.5 3-15.2 4-21.8.7-4.9 1.2-11.5 1.5-16.4.5-9.7.2-22.7-.8-32.4-.8-9.7-3.3-23.2-5.8-33.1z"/></g></g></svg>