<?xml version="1.0" encoding="utf-8"?>
<!-- Generator: Adobe Illustrator 27.5.0, SVG Export Plug-In . SVG Version: 6.00 Build 0)  -->
<svg version="1.1" id="Layer_1" xmlns="http://www.w3.org/2000/svg" xmlns:xlink="http://www.w3.org/1999/xlink" x="0px" y="0px"
	 viewBox="0 0 500 500" style="enable-background:new 0 0 500 500;" xml:space="preserve">
<g>
	<g>
		<g>
			<g>
				<path d="M250,461.1C250,461.1,250,461.1,250,461.1c-31.7,0-62.8-4.5-90.1-12.9c-32.1-9.9-58.5-25.1-78.5-44.9
					c-20.3-20.2-35.9-46.9-46.3-79.4c-9.1-28.2-13.9-59.8-13.9-91.4c0-29.3,4.9-57,14.7-82.5c10.2-26.6,25.5-50.3,45.5-70.2
					c48.4-48.3,109.8-76,168.5-76c0,0,0,0,0,0c28.8,0,57.4,7.4,84.8,22.1c23.4,12.5,46.3,30.1,70.2,54c23.3,23.4,40.6,46,52.6,69.1
					c14.2,27.2,21.1,54.5,21.1,83.6c0,60.8-27.6,124.7-73.7,170.9c-19.6,19.6-43.7,34.5-71.6,44.4
					C307.9,456.5,279.9,461.1,250,461.1z M23.7,232.4c0,68.8,22.2,132.1,59.5,169.2c36.5,36.3,97.3,57.2,166.8,57.2c0,0,0,0,0,0
					c62,0,116.5-20.3,153.3-57.2c45.7-45.8,73-109,73-169.2c0-53.1-23.2-101.1-73-151C352.7,30.7,302.5,6,250,6c0,0,0,0,0,0
					C191.9,6,131.1,33.5,83.2,81.4C44.2,120.3,23.7,172.5,23.7,232.4z"/>
			</g>
			<g>
				<path d="M244,444.8c-0.2,0-0.5,0-0.7,0c-73.6-0.2-124.2-15-154.6-45.2c-18.1-18-31.3-43.2-39.4-75c-6.1-24.1-9.3-52.1-9.5-83.2
					c-0.2-47.9,22.9-98.6,63.5-139.1c40.8-40.7,93.1-64.7,139.9-64.4c40.2,0.3,83.8,24.5,133.2,73.9c30,30,70,76.2,70.3,129.5
					c0.1,26.4-6.7,55.6-19.7,84.3c-12.6,27.9-30.1,53.4-50.6,73.9C339.1,436.9,284,444.8,244,444.8z M243.3,442.4c0.2,0,0.5,0,0.7,0
					c39.5,0,94-7.8,130.8-44.5c41.8-41.8,69.8-104.7,69.5-156.5c-0.2-52.5-39.8-98.1-69.6-127.8c-48.9-48.9-92-72.9-131.5-73.2
					c-46.2-0.4-97.9,23.4-138.2,63.7c-40.2,40-63,90.1-62.8,137.4c0.4,72.5,16.6,125.1,48.2,156.6
					C120.3,427.7,170.4,442.2,243.3,442.4z"/>
			</g>
			<g>
				<path d="M227.6,442.2c-0.4,0-0.7,0-1.1,0c-41.7-0.3-101.1-4.8-135.6-39.2c-27.7-27.7-42-74.4-42.6-138.9
					c-0.3-40.4,19.6-83.9,54.8-119.4c17.5-17.6,37.9-32.3,59.1-42.6c21.8-10.6,44-16.2,64.1-16.2c0,0,0.1,0,0.1,0
					c34.1,0,73.2,21.9,116.4,65.1c18.3,18.3,32.2,35.5,42.4,52.4c12.7,21.1,19.2,41.5,19.4,60.6c0.3,42-20.5,88.1-55.8,123.4
					C313.9,422.3,269.8,442.2,227.6,442.2z M226.3,88.2c-40,0-85.4,21.7-121.5,58.1c-34.8,35-54.5,77.9-54.1,117.7
					c0.5,63.8,14.6,110,41.9,137.2c33.9,33.8,92.6,38.2,133.9,38.5c0.4,0,0.7,0,1.1,0c41.6,0,85.1-19.7,119.5-54
					c34.9-34.9,55.5-80.4,55.1-121.7c-0.3-33.6-20.8-71.1-61.1-111.4c-42.7-42.7-81.3-64.4-114.7-64.4
					C226.4,88.2,226.4,88.2,226.3,88.2z"/>
			</g>
			<g>
				<path d="M203.1,449.3c-0.3,0-0.5,0-0.8,0c-52-0.3-90.4-12.6-114.3-36.5c-33.5-33.5-38.6-87.3-38.6-116.4
					c0-36.4,17.3-74.6,47.6-104.8c30.2-30.1,69.4-48.1,104.8-48.1c0.2,0,0.3,0,0.5,0c31.9,0.1,69.9,19,101.6,50.5
					c31.9,31.7,51.1,70,51.2,102.4c0.2,37.8-17,76.6-47.2,106.7C278.7,432.5,240.5,449.3,203.1,449.3z M201.9,145.9
					c-34.8,0-73.3,17.7-103.1,47.4C69,223,51.9,260.6,51.9,296.4c0,28.7,5,81.8,37.9,114.7c23.4,23.4,61.3,35.4,112.6,35.8
					c36.9,0.2,74.8-16.3,104-45.5c29.7-29.6,46.6-67.9,46.5-105c-0.3-67.2-83.3-150.2-150.5-150.5
					C202.2,145.9,202.1,145.9,201.9,145.9z"/>
			</g>
			<g>
				<path d="M174,462.2C174,462.2,174,462.2,174,462.2c-34.8,0-67-13.1-90.7-36.8c-23.8-23.8-36.9-56-36.9-90.8
					c0-32.1,14-64.5,38.4-88.9c24.6-24.6,57.1-38.7,89.2-38.7c0,0,0,0,0.1,0c30.4,0,62.4,14.5,87.7,39.7
					c25.4,25.3,39.9,57.3,39.9,87.9c0,32.7-13.9,65.3-38.2,89.6C238.9,448.7,207.1,462.2,174,462.2z M48.8,334.5
					c0,70.2,55,125.2,125.2,125.2c0,0,0,0,0.1,0c32.5,0,63.6-13.3,87.7-37.3c23.8-23.8,37.5-55.8,37.5-87.9
					c0-63.2-62-125.2-125.2-125.2c0,0,0,0-0.1,0c-31.5,0-63.4,13.8-87.5,38C62.5,271.3,48.7,303.1,48.8,334.5z"/>
			</g>
			<g>
				<path d="M143.7,476.9c-25.2,0-50.9-11.1-70.5-30.6c-19.9-19.8-31.4-46-31.4-71.7c0-25.9,11.4-52.1,31.4-71.9
					c19.5-19.3,45.1-30.4,70.3-30.4c0.2,0,0.4,0,0.6,0c25.7,0.2,51.7,11.5,71.3,31c19.7,19.6,31,45.6,31,71.4
					c0,25.8-11.4,51.8-31.3,71.5c-19.7,19.5-45.6,30.7-71,30.8C144,476.9,143.9,476.9,143.7,476.9z M144.1,474.5l0,1.2L144.1,474.5
					c52.3-0.3,100-47.9,99.9-99.9c-0.1-52.9-46.7-99.5-99.9-99.9c-24.8-0.2-50.1,10.7-69.2,29.7c-19.5,19.4-30.7,45-30.7,70.2
					c0,25.1,11.2,50.7,30.7,70C94.2,463.8,119.4,474.6,144.1,474.5z"/>
			</g>
			<g>
				<path d="M116.2,489.6c-0.1,0-0.2,0-0.3,0c-17.1-0.1-36.5-9.3-52-24.6c-15.8-15.7-25-34.8-25.1-52.4l0,0
					c-0.1-18.7,8.6-38.1,23.9-53.5c15.1-15.1,34.5-23.7,53.2-23.6c41.6,0.2,76.9,35.5,77,77c0.1,18.4-8.6,37.6-23.7,52.7
					C154,480.6,134.2,489.6,116.2,489.6z M41.2,412.6c0.2,35.4,39.3,74.5,74.6,74.6c17.4,0.1,36.7-8.7,51.6-23.6
					c14.7-14.7,23.1-33.3,23-51c-0.2-40.3-34.4-74.5-74.6-74.6c-0.1,0-0.2,0-0.3,0c-18,0-36.6,8.3-51.2,22.9
					C49.6,375.7,41.1,394.6,41.2,412.6z"/>
			</g>
			<g>
				<path d="M92,496.4c-10.9,0-23.7-6.4-34.4-17.1c-10.7-10.7-17.2-23.7-17.3-34.7c-0.1-12,6.2-25.5,16.9-36.1
					c10.3-10.2,23.1-15.9,34.9-15.7c27.3,0.6,51.5,24.8,51.7,51.8c0.1,11.5-5.7,24.1-15.9,34.4C117.3,489.7,103.6,496.3,92,496.4
					L92,496.4C92,496.4,92,496.4,92,496.4z M91.3,395.2c-11,0-22.8,5.4-32.5,15c-10.2,10.1-16.3,23-16.2,34.4
					C42.9,466.8,70.1,494,92,494c0,0,0,0,0,0l0,0c10.9,0,24-6.4,34.1-16.6c9.8-9.9,15.3-21.8,15.2-32.7
					c-0.2-25.8-23.3-48.8-49.4-49.4C91.8,395.2,91.6,395.2,91.3,395.2z"/>
			</g>
			<g>
				<path d="M75.5,493.2c-12.2,0-26.2-14-26.4-26.5l0,0c-0.1-6.2,3.1-13.1,8.6-18.5c5.3-5.2,11.8-8.2,17.9-8
					c13.8,0.3,26.4,12.9,26.5,26.5c0,13.5-14.9,26.4-26.5,26.5C75.6,493.2,75.5,493.2,75.5,493.2z M51.5,466.7
					c0.1,11.1,13.1,24.1,24,24.1c0,0,0.1,0,0.1,0c10.5-0.1,24.1-11.8,24.1-24.1c0-12.1-11.7-23.8-24.1-24.1
					c-5.5-0.1-11.3,2.5-16.2,7.3C54.4,454.9,51.5,461.1,51.5,466.7L51.5,466.7z"/>
			</g>
		</g>
		<g>
			<g>
				<path d="M91,496.3c-4.3,0-8.2-0.7-11.6-2.5c-6.2-3.2-10-9.5-11.1-18.8l2.4-0.3c1.1,8.4,4.4,14.1,9.8,16.9
					c16.4,8.5,49.2-9.1,68.7-19.5c3.6-1.9,6.7-3.6,9.3-4.9c1.3-0.6,3.1-1.6,5.4-2.8c18.7-9.9,62.5-33,80-22
					c5.1,3.2,7.6,9.1,7.3,17.5l-2.4-0.1c0.3-7.4-1.8-12.6-6.1-15.3c-16.3-10.3-60.8,13.2-77.6,22.1c-2.3,1.2-4.1,2.2-5.5,2.8
					c-2.5,1.3-5.6,2.9-9.2,4.8C134.2,482.9,109.3,496.3,91,496.3z"/>
			</g>
			<g>
				<path d="M58.4,484.1c-0.4,0-0.7,0-1.1,0l-1.2-0.1l0.1-1.2c0.8-13.4,9.2-28.1,16.6-41c3.2-5.6,6.3-10.9,8.6-15.8
					c0.4-0.8,2.7-7,4.6-13.5c3.4-11.8,2.1-13.2,2-13.3c0,0-1.1-0.1-4.8,4l-1.8-1.6c3.8-4.2,6.2-5.5,7.9-4.4c1.5,1,2.5,3.6-1,15.7
					c-1.9,6.5-4.4,13.1-4.9,14.2c-2.3,5-5.4,10.3-8.6,16c-7.1,12.3-15,26.1-16.2,38.7c4.2-0.1,7.4-2.5,9.7-7.3l2.2,1.1
					C67.7,481.2,63.7,484.1,58.4,484.1z"/>
			</g>
			<g>
				<path d="M68.7,476.1c-8.1,0-14.7-2.8-19.7-8.5c-18.3-20.6-10.6-73.6-6.5-102c0.6-4.5,1.2-8.3,1.5-11.2c0.3-3.1,1-7.2,1.7-11.9
					c4.2-28.2,11.9-80.6-5.3-100.9c-4.5-5.3-10.5-8-17.9-8.1l0-2.4c8.1,0.1,14.8,3.1,19.7,9c17.9,21.1,10.1,74.2,5.9,102.8
					c-0.7,4.7-1.3,8.8-1.6,11.8c-0.3,2.9-0.9,6.8-1.5,11.3c-4.1,28.1-11.6,80.3,5.9,100.1c4.7,5.3,10.9,7.8,18.6,7.7l0.1,2.4
					C69.3,476.1,69,476.1,68.7,476.1z"/>
			</g>
			<g>
				<path d="M68.7,475.8C49.9,457.4,54.8,419,58,393.6c0.3-2.7,0.7-5.2,0.9-7.6c3.2-27.5,8.1-55.3,12.8-82.2
					c1.7-9.5,3.4-19.3,5-28.9c0.8-4.8,1.6-9.7,2.5-14.6c9.9-57.8,21.1-123.2,2-179.4l2.3-0.8c19.2,56.7,8,122.5-1.9,180.5
					c-0.8,4.9-1.7,9.8-2.5,14.6c-1.6,9.6-3.3,19.4-5,28.9c-4.7,26.8-9.5,54.6-12.7,82c-0.3,2.4-0.6,4.9-0.9,7.6
					c-3.2,24.9-8,62.6,9.9,80.2L68.7,475.8z"/>
			</g>
			<g>
				<path d="M70.7,474.9l-2.4,0c0.4-30.7,14.2-63.1,26.5-91.6c2.2-5.2,4.3-10.1,6.3-15c16.4-39.6,34.5-79.2,52-117.5l10.3-22.6
					c17.3-37.9,35.2-77.1,51.5-116.2c2.1-4.9,4.2-9.8,6.4-15c12.3-28.7,26.3-61.2,27.4-92.2l2.4,0.1C250.1,36.3,236,69.1,223.6,98
					c-2.2,5.2-4.3,10.1-6.4,15c-16.3,39.1-34.2,78.3-51.6,116.3l-10.3,22.6c-17.5,38.3-35.6,77.9-52,117.4c-2,4.9-4.1,9.8-6.4,15
					C84.8,412.6,71,444.7,70.7,474.9z"/>
			</g>
			<g>
				<path d="M70.4,475.8l-1.7-1.7c44-44.4,84.3-94.5,123.2-143c15-18.7,30.5-38,46-56.7c5.3-6.4,10.6-12.8,15.9-19.2
					c48.2-58.2,98-118.3,149.4-175.3l1.8,1.6c-51.4,56.9-101.2,117.1-149.4,175.2c-5.3,6.4-10.6,12.8-15.9,19.3
					c-15.4,18.6-31,38-46,56.7C154.8,381.1,114.5,431.3,70.4,475.8z"/>
			</g>
			<g>
				<path d="M69.5,476.1l0-2.4c28.5-0.4,58.6-20.3,82.9-36.4c3.3-2.2,6.4-4.2,9.5-6.2c34.5-22.3,68.3-47,101-70.8l19.8-14.4
					c32.4-23.6,65.9-48.1,100.2-70.3c3.1-2,6.3-4.2,9.7-6.4c24.6-16.3,55.2-36.6,84.9-38l0.1,2.4c-29.1,1.4-59.4,21.5-83.7,37.6
					c-3.4,2.2-6.6,4.4-9.7,6.4c-34.2,22.2-67.7,46.6-100.1,70.3l-19.8,14.4c-32.7,23.9-66.6,48.5-101.1,70.9c-3,2-6.1,4-9.4,6.2
					C129.2,455.5,98.7,475.7,69.5,476.1z"/>
			</g>
			<g>
				<path d="M95.9,485.6c-10.6,0-20.3-2.6-27.2-9.9l1.7-1.7c17,17.8,53.1,5.3,74.6-2.2c1.3-0.4,2.5-0.9,3.6-1.2
					c22.3-7.6,44.5-16.9,65.9-25.9c7.8-3.3,15.9-6.6,23.8-9.9c3.7-1.5,7.4-3,11.2-4.6c46.6-19.3,104.6-43.3,154.9-29.1l-0.7,2.3
					c-49.5-13.9-107.1,9.9-153.4,29c-3.8,1.6-7.5,3.1-11.2,4.6c-7.9,3.2-16,6.6-23.8,9.9c-21.5,9-43.7,18.3-66.1,25.9
					c-1.1,0.4-2.3,0.8-3.6,1.2C132.1,478.9,112.9,485.6,95.9,485.6z"/>
			</g>
		</g>
	</g>
</g>
</svg>
