<?xml version="1.0" encoding="utf-8"?>
<!-- Generator: Adobe Illustrator 27.5.0, SVG Export Plug-In . SVG Version: 6.00 Build 0)  -->
<svg version="1.1" id="Layer_1" xmlns="http://www.w3.org/2000/svg" xmlns:xlink="http://www.w3.org/1999/xlink" x="0px" y="0px"
	 viewBox="0 0 500 500" style="enable-background:new 0 0 500 500;" xml:space="preserve">
<style type="text/css">
	.st0{enable-background:new    ;}
	
		.st1{clip-path:url(#SVGID_00000096752047127065569800000016618546948039606954_);fill:none;stroke:#000000;stroke-width:1.5;stroke-miterlimit:10;}
	
		.st2{clip-path:url(#SVGID_00000183956908187034597940000016774317529594555544_);fill:none;stroke:#000000;stroke-width:1.5;stroke-miterlimit:10;}
	.st3{clip-path:url(#SVGID_00000170264538956477063490000014195646780554307754_);enable-background:new    ;}
	.st4{fill:none;stroke:#000000;stroke-width:1.5;stroke-miterlimit:10;}
	
		.st5{clip-path:url(#SVGID_00000170264538956477063490000014195646780554307754_);fill:none;stroke:#000000;stroke-width:1.5;stroke-miterlimit:10;}
	.st6{clip-path:url(#SVGID_00000064340958430563003760000015470534605965193888_);enable-background:new    ;}
	
		.st7{clip-path:url(#SVGID_00000064340958430563003760000015470534605965193888_);fill:none;stroke:#000000;stroke-width:1.5;stroke-miterlimit:10;}
	.st8{clip-path:url(#SVGID_00000116223775292733002740000016569055591635874493_);enable-background:new    ;}
	
		.st9{clip-path:url(#SVGID_00000116223775292733002740000016569055591635874493_);fill:none;stroke:#000000;stroke-width:1.5;stroke-miterlimit:10;}
	.st10{clip-path:url(#SVGID_00000114065675769168489890000002532630484892896405_);enable-background:new    ;}
	
		.st11{clip-path:url(#SVGID_00000114065675769168489890000002532630484892896405_);fill:none;stroke:#000000;stroke-width:1.5;stroke-miterlimit:10;}
	.st12{clip-path:url(#SVGID_00000032625645905603775860000007242265014449746314_);enable-background:new    ;}
	
		.st13{clip-path:url(#SVGID_00000032625645905603775860000007242265014449746314_);fill:none;stroke:#000000;stroke-width:1.5;stroke-miterlimit:10;}
	.st14{clip-path:url(#SVGID_00000008830332423060469710000016369191463100256956_);enable-background:new    ;}
	
		.st15{clip-path:url(#SVGID_00000008830332423060469710000016369191463100256956_);fill:none;stroke:#000000;stroke-width:1.5;stroke-miterlimit:10;}
	.st16{clip-path:url(#SVGID_00000130630258435447145510000016765678879124211129_);enable-background:new    ;}
	
		.st17{clip-path:url(#SVGID_00000130630258435447145510000016765678879124211129_);fill:none;stroke:#000000;stroke-width:1.5;stroke-miterlimit:10;}
	.st18{clip-path:url(#SVGID_00000026146657827952471320000007782529380119665315_);enable-background:new    ;}
	
		.st19{clip-path:url(#SVGID_00000026146657827952471320000007782529380119665315_);fill:none;stroke:#000000;stroke-width:1.5;stroke-miterlimit:10;}
	.st20{clip-path:url(#SVGID_00000017510181769858283330000018195992082448593544_);enable-background:new    ;}
	
		.st21{clip-path:url(#SVGID_00000017510181769858283330000018195992082448593544_);fill:none;stroke:#000000;stroke-width:1.5;stroke-miterlimit:10;}
	.st22{clip-path:url(#SVGID_00000000222822404803093210000001899195162956188346_);enable-background:new    ;}
	
		.st23{clip-path:url(#SVGID_00000000222822404803093210000001899195162956188346_);fill:none;stroke:#000000;stroke-width:1.5;stroke-miterlimit:10;}
	.st24{clip-path:url(#SVGID_00000062911279797463814400000003373186962040550558_);enable-background:new    ;}
	
		.st25{clip-path:url(#SVGID_00000062911279797463814400000003373186962040550558_);fill:none;stroke:#000000;stroke-width:1.5;stroke-miterlimit:10;}
	.st26{clip-path:url(#SVGID_00000016753701204044525020000006665103840344607919_);enable-background:new    ;}
	
		.st27{clip-path:url(#SVGID_00000016753701204044525020000006665103840344607919_);fill:none;stroke:#000000;stroke-width:1.5;stroke-miterlimit:10;}
	.st28{clip-path:url(#SVGID_00000169519129783609393250000011589258218322726280_);enable-background:new    ;}
	
		.st29{clip-path:url(#SVGID_00000169519129783609393250000011589258218322726280_);fill:none;stroke:#000000;stroke-width:1.5;stroke-miterlimit:10;}
	.st30{clip-path:url(#SVGID_00000109716822368818916890000007682339146927308970_);enable-background:new    ;}
	
		.st31{clip-path:url(#SVGID_00000109716822368818916890000007682339146927308970_);fill:none;stroke:#000000;stroke-width:1.5;stroke-miterlimit:10;}
	.st32{clip-path:url(#SVGID_00000109000556446529689770000007234241207152284807_);enable-background:new    ;}
	
		.st33{clip-path:url(#SVGID_00000109000556446529689770000007234241207152284807_);fill:none;stroke:#000000;stroke-width:1.5;stroke-miterlimit:10;}
	.st34{clip-path:url(#SVGID_00000052824315195646933390000008611346275063401870_);enable-background:new    ;}
	
		.st35{clip-path:url(#SVGID_00000052824315195646933390000008611346275063401870_);fill:none;stroke:#000000;stroke-width:1.5;stroke-miterlimit:10;}
	.st36{clip-path:url(#SVGID_00000109028334374609690390000000106061667049524151_);enable-background:new    ;}
	
		.st37{clip-path:url(#SVGID_00000109028334374609690390000000106061667049524151_);fill:none;stroke:#000000;stroke-width:1.5;stroke-miterlimit:10;}
	.st38{clip-path:url(#SVGID_00000175286454656473942830000004794607870697363122_);enable-background:new    ;}
	
		.st39{clip-path:url(#SVGID_00000175286454656473942830000004794607870697363122_);fill:none;stroke:#000000;stroke-width:1.5;stroke-miterlimit:10;}
	.st40{clip-path:url(#SVGID_00000039103578108653381490000003090143973490033324_);enable-background:new    ;}
	
		.st41{clip-path:url(#SVGID_00000039103578108653381490000003090143973490033324_);fill:none;stroke:#000000;stroke-width:1.5;stroke-miterlimit:10;}
	.st42{clip-path:url(#SVGID_00000065769645697164489170000008936349760434461838_);enable-background:new    ;}
	
		.st43{clip-path:url(#SVGID_00000065769645697164489170000008936349760434461838_);fill:none;stroke:#000000;stroke-width:1.5;stroke-miterlimit:10;}
	.st44{clip-path:url(#SVGID_00000052066519108329976470000008884374367874347671_);enable-background:new    ;}
	
		.st45{clip-path:url(#SVGID_00000052066519108329976470000008884374367874347671_);fill:none;stroke:#000000;stroke-width:1.5;stroke-miterlimit:10;}
	.st46{clip-path:url(#SVGID_00000052824202424361157820000003445501601893338012_);enable-background:new    ;}
	
		.st47{clip-path:url(#SVGID_00000052824202424361157820000003445501601893338012_);fill:none;stroke:#000000;stroke-width:1.5;stroke-miterlimit:10;}
	.st48{clip-path:url(#SVGID_00000011015301729226815310000006784086970281319100_);enable-background:new    ;}
	
		.st49{clip-path:url(#SVGID_00000011015301729226815310000006784086970281319100_);fill:none;stroke:#000000;stroke-width:1.5;stroke-miterlimit:10;}
	.st50{clip-path:url(#SVGID_00000158714962098098367250000016360988956231319721_);enable-background:new    ;}
	
		.st51{clip-path:url(#SVGID_00000158714962098098367250000016360988956231319721_);fill:none;stroke:#000000;stroke-width:1.5;stroke-miterlimit:10;}
	.st52{clip-path:url(#SVGID_00000035501212023604808810000002044453641654353055_);enable-background:new    ;}
	
		.st53{clip-path:url(#SVGID_00000035501212023604808810000002044453641654353055_);fill:none;stroke:#000000;stroke-width:1.5;stroke-miterlimit:10;}
	.st54{clip-path:url(#SVGID_00000099660897032418625950000005587529721873078190_);enable-background:new    ;}
	
		.st55{clip-path:url(#SVGID_00000099660897032418625950000005587529721873078190_);fill:none;stroke:#000000;stroke-width:1.5;stroke-miterlimit:10;}
	.st56{clip-path:url(#SVGID_00000005962967955082663100000002272550511415151016_);enable-background:new    ;}
	
		.st57{clip-path:url(#SVGID_00000005962967955082663100000002272550511415151016_);fill:none;stroke:#000000;stroke-width:1.5;stroke-miterlimit:10;}
</style>
<g>
	<g class="st0">
		<g class="st0">
			<defs>
				<path id="SVGID_1_" class="st0" d="M326.8-1.1c-55.7,17.6-86.6,38.1-92,61c-5.7,24.3,18.1,44.2,41.1,63.5
					c20.2,16.9,39.3,32.8,34.1,49.4c-6.6,21.1-47.2,28.4-90.2,36.2c-43.7,7.9-88.8,16.1-98,40.2c-9.6,25.1,24.9,53.4,58.2,80.9
					c31.3,25.8,61,50.2,53,70c-8.6,21.4-59,31.5-150,29.9l-0.2,1.2c39.8,0.7,72.2-0.9,96.3-4.6c31.5-4.9,50-13.7,55-26.2
					c8.3-20.6-21.6-45.2-53.3-71.3c-33-27.2-67.2-55.3-57.9-79.6c8.9-23.3,53.6-31.4,96.9-39.3c43.4-7.9,84.4-15.3,91.3-37.2
					c5.4-17.3-13.9-33.5-34.4-50.6c-22.8-19-46.3-38.7-40.8-62.4c5.2-22.4,35.9-42.6,91-60L326.8-1.1z"/>
			</defs>
			<clipPath id="SVGID_00000014629655233363970160000000239491754035752611_">
				<use xlink:href="#SVGID_1_"  style="overflow:visible;"/>
			</clipPath>
			
				<path style="clip-path:url(#SVGID_00000014629655233363970160000000239491754035752611_);fill:none;stroke:#000000;stroke-width:1.5;stroke-miterlimit:10;" d="
				M326.8-1.1c-55.7,17.6-86.6,38.1-92,61c-5.7,24.3,18.1,44.2,41.1,63.5c20.2,16.9,39.3,32.8,34.1,49.4
				c-6.6,21.1-47.2,28.4-90.2,36.2c-43.7,7.9-88.8,16.1-98,40.2c-9.6,25.1,24.9,53.4,58.2,80.9c31.3,25.8,61,50.2,53,70
				c-8.6,21.4-59,31.5-150,29.9l-0.2,1.2c39.8,0.7,72.2-0.9,96.3-4.6c31.5-4.9,50-13.7,55-26.2c8.3-20.6-21.6-45.2-53.3-71.3
				c-33-27.2-67.2-55.3-57.9-79.6c8.9-23.3,53.6-31.4,96.9-39.3c43.4-7.9,84.4-15.3,91.3-37.2c5.4-17.3-13.9-33.5-34.4-50.6
				c-22.8-19-46.3-38.7-40.8-62.4c5.2-22.4,35.9-42.6,91-60L326.8-1.1z"/>
			<use xlink:href="#SVGID_1_"  style="overflow:visible;fill:none;stroke:#000000;stroke-width:1.5;stroke-miterlimit:10;"/>
		</g>
		<g class="st0">
			<defs>
				<path id="SVGID_00000132803943859259864750000017063626116593842357_" class="st0" d="M417.1,65.4
					c-33.8,33.6-55.4,61.1-64.1,81.6c-9.2,21.7-1.8,29.6,5.3,37.2c6.3,6.7,12.2,13,5.3,28.2c-8.9,19.4-32.1,39.5-56.8,60.8
					c-25,21.6-50.9,44-61.9,66.8c-11.5,23.7-0.6,34.7,9.9,45.3c9.9,10,19.2,19.5,10,38.3c-10,20.3-39.1,46.1-86.6,76.5l-0.4,1.1
					c20.8-13.3,38.2-25.9,51.9-37.3c17.8-15,29.8-28.6,35.7-40.4c9.6-19.6,0.2-29.2-9.8-39.3c-10.4-10.6-21.2-21.5-10.1-44.4
					c10.7-22,36.3-44.2,61.1-65.6c24.9-21.5,48.3-41.8,57.6-62c7.3-15.9,1.3-22.3-5.1-29.1c-7.1-7.5-14.4-15.3-5.5-36.4
					c8.5-20,29.8-47.1,63.3-80.4L417.1,65.4z"/>
			</defs>
			<clipPath id="SVGID_00000060003631053366384850000010942087495850710923_">
				<use xlink:href="#SVGID_00000132803943859259864750000017063626116593842357_"  style="overflow:visible;"/>
			</clipPath>
			
				<path style="clip-path:url(#SVGID_00000060003631053366384850000010942087495850710923_);fill:none;stroke:#000000;stroke-width:1.5;stroke-miterlimit:10;" d="
				M417.1,65.4c-33.8,33.6-55.4,61.1-64.1,81.6c-9.2,21.7-1.8,29.6,5.3,37.2c6.3,6.7,12.2,13,5.3,28.2
				c-8.9,19.4-32.1,39.5-56.8,60.8c-25,21.6-50.9,44-61.9,66.8c-11.5,23.7-0.6,34.7,9.9,45.3c9.9,10,19.2,19.5,10,38.3
				c-10,20.3-39.1,46.1-86.6,76.5l-0.4,1.1c20.8-13.3,38.2-25.9,51.9-37.3c17.8-15,29.8-28.6,35.7-40.4c9.6-19.6,0.2-29.2-9.8-39.3
				c-10.4-10.6-21.2-21.5-10.1-44.4c10.7-22,36.3-44.2,61.1-65.6c24.9-21.5,48.3-41.8,57.6-62c7.3-15.9,1.3-22.3-5.1-29.1
				c-7.1-7.5-14.4-15.3-5.5-36.4c8.5-20,29.8-47.1,63.3-80.4L417.1,65.4z"/>
			
				<use xlink:href="#SVGID_00000132803943859259864750000017063626116593842357_"  style="overflow:visible;fill:none;stroke:#000000;stroke-width:1.5;stroke-miterlimit:10;"/>
		</g>
		<g class="st0">
			<defs>
				<path id="SVGID_00000018207206983189714880000013463776175266922387_" class="st0" d="M417.1,65.4c-40.9-25-73.4-48.9-90.3-66.4
					l0.2,1.2c16.8,17.5,49.2,41.2,89.9,66.1C417,66,417.1,65.6,417.1,65.4z"/>
			</defs>
			<clipPath id="SVGID_00000088834951346883946590000012971447068672986504_">
				<use xlink:href="#SVGID_00000018207206983189714880000013463776175266922387_"  style="overflow:visible;"/>
			</clipPath>
			<g style="clip-path:url(#SVGID_00000088834951346883946590000012971447068672986504_);enable-background:new    ;">
				<path class="st4" d="M417.1,65.4l-0.2,0.9c-40.7-24.9-73-48.7-89.9-66.1l-0.2-1.2C343.8,16.5,376.2,40.4,417.1,65.4z"/>
				<line class="st4" x1="379.3" y1="40.9" x2="379.3" y2="41.9"/>
				<line class="st4" x1="348.7" y1="18.4" x2="348.8" y2="19.5"/>
			</g>
			
				<path style="clip-path:url(#SVGID_00000088834951346883946590000012971447068672986504_);fill:none;stroke:#000000;stroke-width:1.5;stroke-miterlimit:10;" d="
				M417.1,65.4c-40.9-25-73.4-48.9-90.3-66.4l0.2,1.2c16.8,17.5,49.2,41.2,89.9,66.1C417,66,417.1,65.6,417.1,65.4z"/>
			
				<use xlink:href="#SVGID_00000018207206983189714880000013463776175266922387_"  style="overflow:visible;fill:none;stroke:#000000;stroke-width:1.5;stroke-miterlimit:10;"/>
		</g>
		<g class="st0">
			<defs>
				<path id="SVGID_00000141447885880385805780000010619660531688231082_" class="st0" d="M252.8,100.9c2.5,2.5,5.8,5.8,8.3,8.3
					c2.5,2.5,6,5.7,8.6,8c7.9,7.2,13.8,12.1,23.3,19.9c-6.4-5.3-11.8-10.2-16.1-14.7C268.4,115.4,259.9,108.3,252.8,100.9z"/>
			</defs>
			<clipPath id="SVGID_00000103961366186416427360000010189805519991759292_">
				<use xlink:href="#SVGID_00000141447885880385805780000010619660531688231082_"  style="overflow:visible;"/>
			</clipPath>
			<g style="clip-path:url(#SVGID_00000103961366186416427360000010189805519991759292_);enable-background:new    ;">
				<g>
					<path class="st4" d="M353.7,146.6c-9,21.1-1.6,28.9,5.5,36.4c-37.3-22.8-66.9-44.5-82.3-60.5c-22.8-19-46.3-38.7-40.8-62.4
						C258.1,83,300.4,114.1,353.7,146.6z"/>
					<path class="st4" d="M352.5,174.9c-44.2-27-79.3-52.8-97.6-71.8"/>
				</g>
				<g>
					<path class="st4" d="M359.1,183c6.4,6.8,12.4,13.1,5.1,29.1c-24-14.7-43.1-28.7-53-39c5.4-17.3-13.9-33.5-34.4-50.6
						C292.2,138.5,321.8,160.2,359.1,183z"/>
				</g>
			</g>
			
				<path style="clip-path:url(#SVGID_00000103961366186416427360000010189805519991759292_);fill:none;stroke:#000000;stroke-width:1.5;stroke-miterlimit:10;" d="
				M252.8,100.9c2.5,2.5,5.8,5.8,8.3,8.3c2.5,2.5,6,5.7,8.6,8c7.9,7.2,13.8,12.1,23.3,19.9c-6.4-5.3-11.8-10.2-16.1-14.7
				C268.4,115.4,259.9,108.3,252.8,100.9z"/>
			
				<use xlink:href="#SVGID_00000141447885880385805780000010619660531688231082_"  style="overflow:visible;fill:none;stroke:#000000;stroke-width:1.5;stroke-miterlimit:10;"/>
		</g>
		<g class="st0">
			<defs>
				<path id="SVGID_00000021105213509029603930000009083921606036678797_" class="st0" d="M293,137.2c16.5,13.6,39.3,29.5,66.1,45.8
					c-7.1-7.5-14.4-15.3-5.5-36.4c8.5-20,29.8-47.1,63.3-80.4c-40.7-24.9-73-48.7-89.9-66.1c-55.1,17.4-85.8,37.6-91,60
					c-3.5,14.9,4.6,28.2,16.7,40.8c2.4,2.5,5.7,5.7,8.2,8.2c2.3,2.2,5.3,5.1,7.7,7.2c4.1,3.7,6.3,5.7,10.5,9.3
					C284.6,130.2,288.1,133.1,293,137.2z"/>
			</defs>
			<clipPath id="SVGID_00000098210157365378837730000000805088977925562809_">
				<use xlink:href="#SVGID_00000021105213509029603930000009083921606036678797_"  style="overflow:visible;"/>
			</clipPath>
			<g style="clip-path:url(#SVGID_00000098210157365378837730000000805088977925562809_);enable-background:new    ;">
				<g>
					<path class="st4" d="M417,66.2c-33.5,33.3-54.8,60.4-63.3,80.4c-53.3-32.5-95.6-63.7-117.6-86.5c5.2-22.4,35.9-42.6,91-60
						C343.9,17.6,376.2,41.4,417,66.2z"/>
					<path class="st4" d="M387.6,97.4c-48.7-29.7-87.3-58.1-107.4-79"/>
					<path class="st4" d="M366.4,124.3C313.6,92,271.6,61.1,249.7,38.5"/>
					<path class="st4" d="M379.3,41.9c-42.6,27.5-67.8,52-74.9,72.9"/>
					<path class="st4" d="M348.8,19.5c-49.9,22.1-78.3,44.2-84.3,66"/>
				</g>
				<g>
					<path class="st4" d="M353.7,146.6c-9,21.1-1.6,28.9,5.5,36.4c-37.3-22.8-66.9-44.5-82.3-60.5c-22.8-19-46.3-38.7-40.8-62.4
						C258.1,83,300.4,114.1,353.7,146.6z"/>
					<path class="st4" d="M349.5,163.8c-50-30.5-89.7-59.8-110.4-81.2"/>
					<path class="st4" d="M352.5,174.9c-44.2-27-79.3-52.8-97.6-71.8"/>
					<path class="st4" d="M304.4,114.8c-7.5,22,6.6,34.2,20.2,45.9"/>
					<path class="st4" d="M264.5,85.5c-6.4,22.9,13.3,39.1,32.2,54.8"/>
				</g>
				<g>
					<path class="st4" d="M359.1,183c6.4,6.8,12.4,13.1,5.1,29.1c-24-14.7-43.1-28.7-53-39c5.4-17.3-13.9-33.5-34.4-50.6
						C292.2,138.5,321.8,160.2,359.1,183z"/>
					<path class="st4" d="M324.6,160.7c12.3,10.6,23.9,20.6,17.4,37"/>
					<path class="st4" d="M296.7,140.2c17.1,14.1,33.2,27.4,27.3,44.3"/>
				</g>
			</g>
			
				<path style="clip-path:url(#SVGID_00000098210157365378837730000000805088977925562809_);fill:none;stroke:#000000;stroke-width:1.5;stroke-miterlimit:10;" d="
				M293,137.2c16.5,13.6,39.3,29.5,66.1,45.8c-7.1-7.5-14.4-15.3-5.5-36.4c8.5-20,29.8-47.1,63.3-80.4c-40.7-24.9-73-48.7-89.9-66.1
				c-55.1,17.4-85.8,37.6-91,60c-3.5,14.9,4.6,28.2,16.7,40.8c2.4,2.5,5.7,5.7,8.2,8.2c2.3,2.2,5.3,5.1,7.7,7.2
				c4.1,3.7,6.3,5.7,10.5,9.3C284.6,130.2,288.1,133.1,293,137.2z"/>
			
				<use xlink:href="#SVGID_00000021105213509029603930000009083921606036678797_"  style="overflow:visible;fill:none;stroke:#000000;stroke-width:1.5;stroke-miterlimit:10;"/>
		</g>
		<g class="st0">
			<defs>
				<path id="SVGID_00000103961144188181486270000012176146327124455302_" class="st0" d="M293,137.2c5,4.1,5.2,4.3,5.6,4.8
					c-6.2-6.4-13.9-12.9-21.8-19.5C281.1,126.9,286.6,131.9,293,137.2z"/>
			</defs>
			<clipPath id="SVGID_00000057125349882961140640000001741669168906111147_">
				<use xlink:href="#SVGID_00000103961144188181486270000012176146327124455302_"  style="overflow:visible;"/>
			</clipPath>
			<g style="clip-path:url(#SVGID_00000057125349882961140640000001741669168906111147_);enable-background:new    ;">
				<g>
					<path class="st4" d="M353.7,146.6c-9,21.1-1.6,28.9,5.5,36.4c-37.3-22.8-66.9-44.5-82.3-60.5c-22.8-19-46.3-38.7-40.8-62.4
						C258.1,83,300.4,114.1,353.7,146.6z"/>
				</g>
				<g>
					<path class="st4" d="M359.1,183c6.4,6.8,12.4,13.1,5.1,29.1c-24-14.7-43.1-28.7-53-39c5.4-17.3-13.9-33.5-34.4-50.6
						C292.2,138.5,321.8,160.2,359.1,183z"/>
					<path class="st4" d="M364.9,190c-31.2-19.1-56-37.3-68.8-50.6"/>
				</g>
			</g>
			
				<path style="clip-path:url(#SVGID_00000057125349882961140640000001741669168906111147_);fill:none;stroke:#000000;stroke-width:1.5;stroke-miterlimit:10;" d="
				M293,137.2c5,4.1,5.2,4.3,5.6,4.8c-6.2-6.4-13.9-12.9-21.8-19.5C281.1,126.9,286.6,131.9,293,137.2z"/>
			
				<use xlink:href="#SVGID_00000103961144188181486270000012176146327124455302_"  style="overflow:visible;fill:none;stroke:#000000;stroke-width:1.5;stroke-miterlimit:10;"/>
		</g>
		<g class="st0">
			<defs>
				<path id="SVGID_00000073722942003682233460000006724205960852701080_" class="st0" d="M298.6,141.9
					c9.9,10.3,15.9,20.5,12.6,31.1c2.8,2.9,6.3,6.1,10.4,9.5c5.8-17-10.9-30.8-28.6-45.4C298,141.3,298.1,141.4,298.6,141.9z"/>
			</defs>
			<clipPath id="SVGID_00000137828183790504706270000007131047876125490606_">
				<use xlink:href="#SVGID_00000073722942003682233460000006724205960852701080_"  style="overflow:visible;"/>
			</clipPath>
			<g style="clip-path:url(#SVGID_00000137828183790504706270000007131047876125490606_);enable-background:new    ;">
				<g>
					<path class="st4" d="M353.7,146.6c-9,21.1-1.6,28.9,5.5,36.4c-37.3-22.8-66.9-44.5-82.3-60.5c-22.8-19-46.3-38.7-40.8-62.4
						C258.1,83,300.4,114.1,353.7,146.6z"/>
				</g>
				<g>
					<path class="st4" d="M359.1,183c6.4,6.8,12.4,13.1,5.1,29.1c-24-14.7-43.1-28.7-53-39c5.4-17.3-13.9-33.5-34.4-50.6
						C292.2,138.5,321.8,160.2,359.1,183z"/>
					<path class="st4" d="M364.9,190c-31.2-19.1-56-37.3-68.8-50.6"/>
					<path class="st4" d="M367.6,199c-26.4-16.1-47.4-31.6-58.3-42.9"/>
				</g>
				<g>
					<path class="st4" d="M364.2,212.1c-9.3,20.2-32.7,40.5-57.6,62c-39.3-24-70.5-46.9-86.7-63.8c43.4-7.9,84.4-15.3,91.3-37.2
						C321.1,183.4,340.2,197.4,364.2,212.1z"/>
				</g>
			</g>
			
				<path style="clip-path:url(#SVGID_00000137828183790504706270000007131047876125490606_);fill:none;stroke:#000000;stroke-width:1.5;stroke-miterlimit:10;" d="
				M298.6,141.9c9.9,10.3,15.9,20.5,12.6,31.1c2.8,2.9,6.3,6.1,10.4,9.5c5.8-17-10.9-30.8-28.6-45.4
				C298,141.3,298.1,141.4,298.6,141.9z"/>
			
				<use xlink:href="#SVGID_00000073722942003682233460000006724205960852701080_"  style="overflow:visible;fill:none;stroke:#000000;stroke-width:1.5;stroke-miterlimit:10;"/>
		</g>
		<g class="st0">
			<defs>
				<path id="SVGID_00000061447342344832079820000004769166749701903276_" class="st0" d="M321.6,182.5c10.6,8.7,25.3,19,42.6,29.5
					c7.3-15.9,1.3-22.3-5.1-29.1c-26.8-16.4-49.7-32.3-66.1-45.8C310.7,151.8,327.4,165.6,321.6,182.5z"/>
			</defs>
			<clipPath id="SVGID_00000079451688659287246060000001192354249879795101_">
				<use xlink:href="#SVGID_00000061447342344832079820000004769166749701903276_"  style="overflow:visible;"/>
			</clipPath>
			<g style="clip-path:url(#SVGID_00000079451688659287246060000001192354249879795101_);enable-background:new    ;">
				<g>
					<path class="st4" d="M353.7,146.6c-9,21.1-1.6,28.9,5.5,36.4c-37.3-22.8-66.9-44.5-82.3-60.5c-22.8-19-46.3-38.7-40.8-62.4
						C258.1,83,300.4,114.1,353.7,146.6z"/>
					<path class="st4" d="M304.4,114.8c-7.5,22,6.6,34.2,20.2,45.9"/>
					<path class="st4" d="M264.5,85.5c-6.4,22.9,13.3,39.1,32.2,54.8"/>
				</g>
				<g>
					<path class="st4" d="M359.1,183c6.4,6.8,12.4,13.1,5.1,29.1c-24-14.7-43.1-28.7-53-39c5.4-17.3-13.9-33.5-34.4-50.6
						C292.2,138.5,321.8,160.2,359.1,183z"/>
					<path class="st4" d="M364.9,190c-31.2-19.1-56-37.3-68.8-50.6"/>
					<path class="st4" d="M367.6,199c-26.4-16.1-47.4-31.6-58.3-42.9"/>
					<path class="st4" d="M324.6,160.7c12.3,10.6,23.9,20.6,17.4,37"/>
					<path class="st4" d="M296.7,140.2c17.1,14.1,33.2,27.4,27.3,44.3"/>
				</g>
				<g>
					<path class="st4" d="M364.2,212.1c-9.3,20.2-32.7,40.5-57.6,62c-39.3-24-70.5-46.9-86.7-63.8c43.4-7.9,84.4-15.3,91.3-37.2
						C321.1,183.4,340.2,197.4,364.2,212.1z"/>
					<path class="st4" d="M342,197.7c-8.3,20.8-39.1,36.4-71.7,52.9"/>
					<path class="st4" d="M324,184.5c-7.5,21.4-44.2,32.6-83.1,44.5"/>
				</g>
			</g>
			
				<path style="clip-path:url(#SVGID_00000079451688659287246060000001192354249879795101_);fill:none;stroke:#000000;stroke-width:1.5;stroke-miterlimit:10;" d="
				M321.6,182.5c10.6,8.7,25.3,19,42.6,29.5c7.3-15.9,1.3-22.3-5.1-29.1c-26.8-16.4-49.7-32.3-66.1-45.8
				C310.7,151.8,327.4,165.6,321.6,182.5z"/>
			
				<use xlink:href="#SVGID_00000061447342344832079820000004769166749701903276_"  style="overflow:visible;fill:none;stroke:#000000;stroke-width:1.5;stroke-miterlimit:10;"/>
		</g>
		<g class="st0">
			<defs>
				<path id="SVGID_00000023964630040753978450000005416708134263621051_" class="st0" d="M142.1,294.8c2.9,3,6.8,6.9,9.8,9.8
					c6,5.7,7.8,7.4,15.7,14.4c5.3,4.7,12,10.3,15.2,13c2.8,2.4,7.8,6.4,14.7,12.1c-6.7-5.4-12.3-10.4-16.7-15
					C167.1,317.7,153,306.2,142.1,294.8z"/>
			</defs>
			<clipPath id="SVGID_00000041984846269465054040000001964528215942401682_">
				<use xlink:href="#SVGID_00000023964630040753978450000005416708134263621051_"  style="overflow:visible;"/>
			</clipPath>
			<g style="clip-path:url(#SVGID_00000041984846269465054040000001964528215942401682_);enable-background:new    ;">
				<g>
					<path class="st4" d="M245.5,339.7c-11.1,22.9-0.3,33.8,10.1,44.4c-33.8-20.7-60.7-40.4-74.7-55c-33-27.2-67.2-55.3-57.9-79.6
						C145.9,273.4,190,305.8,245.5,339.7z"/>
					<path class="st4" d="M245.9,373c-43.8-26.8-78.6-52.4-96.7-71.2"/>
				</g>
				<g>
					<path class="st4" d="M255.6,384.1c10,10.1,19.4,19.7,9.8,39.3c-14.1-8.6-25.3-16.9-31.2-22.9c8.3-20.6-21.6-45.2-53.3-71.3
						C194.9,343.6,221.8,363.4,255.6,384.1z"/>
				</g>
			</g>
			
				<path style="clip-path:url(#SVGID_00000041984846269465054040000001964528215942401682_);fill:none;stroke:#000000;stroke-width:1.5;stroke-miterlimit:10;" d="
				M142.1,294.8c2.9,3,6.8,6.9,9.8,9.8c6,5.7,7.8,7.4,15.7,14.4c5.3,4.7,12,10.3,15.2,13c2.8,2.4,7.8,6.4,14.7,12.1
				c-6.7-5.4-12.3-10.4-16.7-15C167.1,317.7,153,306.2,142.1,294.8z"/>
			
				<use xlink:href="#SVGID_00000023964630040753978450000005416708134263621051_"  style="overflow:visible;fill:none;stroke:#000000;stroke-width:1.5;stroke-miterlimit:10;"/>
		</g>
		<g class="st0">
			<defs>
				<path id="SVGID_00000074439186265289979130000005782110787376464051_" class="st0" d="M197.5,344.1c14.8,12,34.8,25.8,58.1,40
					c-10.4-10.6-21.2-21.5-10.1-44.4c10.7-22,36.3-44.2,61.1-65.6c-39.3-24-70.5-46.9-86.7-63.8c-43.3,7.8-88,15.9-96.9,39.3
					c-5.4,14.1,3.9,29.5,19.1,45.3c2.9,2.9,6.7,6.9,9.7,9.7c4.8,4.6,7.7,7.3,14.6,13.5C177.4,327.7,188.6,336.8,197.5,344.1z"/>
			</defs>
			<clipPath id="SVGID_00000081623805657618431610000000989842983832731270_">
				<use xlink:href="#SVGID_00000074439186265289979130000005782110787376464051_"  style="overflow:visible;"/>
			</clipPath>
			<g style="clip-path:url(#SVGID_00000081623805657618431610000000989842983832731270_);enable-background:new    ;">
				<g>
					<path class="st4" d="M364.2,212.1c-9.3,20.2-32.7,40.5-57.6,62c-39.3-24-70.5-46.9-86.7-63.8c43.4-7.9,84.4-15.3,91.3-37.2
						C321.1,183.4,340.2,197.4,364.2,212.1z"/>
					<path class="st4" d="M342,197.7c-8.3,20.8-39.1,36.4-71.7,52.9"/>
					<path class="st4" d="M324,184.5c-7.5,21.4-44.2,32.6-83.1,44.5"/>
				</g>
				<g>
					<path class="st4" d="M306.6,274.1c-24.8,21.4-50.4,43.6-61.1,65.6c-55.5-33.9-99.6-66.3-122.5-90.1
						c8.9-23.3,53.6-31.4,96.9-39.3C236.2,227.1,267.3,250.1,306.6,274.1z"/>
					<path class="st4" d="M282.1,295.7c-47.4-28.9-85-56.6-104.6-77"/>
					<path class="st4" d="M260.6,317.6c-53.5-32.7-96-64-118.2-86.9"/>
					<path class="st4" d="M270.3,250.6c-32.5,16.4-66.2,33.4-76.1,55.9"/>
					<path class="st4" d="M240.9,229c-38.8,11.8-78.9,24-88.3,47"/>
				</g>
				<g>
					<path class="st4" d="M245.5,339.7c-11.1,22.9-0.3,33.8,10.1,44.4c-33.8-20.7-60.7-40.4-74.7-55c-33-27.2-67.2-55.3-57.9-79.6
						C145.9,273.4,190,305.8,245.5,339.7z"/>
					<path class="st4" d="M240.9,359c-51.8-31.6-92.9-61.9-114.3-84.1"/>
					<path class="st4" d="M245.9,373c-43.8-26.8-78.6-52.4-96.7-71.2"/>
					<path class="st4" d="M194.2,306.5c-10.3,23.4,10.2,40.6,30.1,57.3"/>
					<path class="st4" d="M152.6,276c-9.7,23.9,18.8,46.9,46.3,69.3"/>
				</g>
				<g>
					<path class="st4" d="M255.6,384.1c10,10.1,19.4,19.7,9.8,39.3c-14.1-8.6-25.3-16.9-31.2-22.9c8.3-20.6-21.6-45.2-53.3-71.3
						C194.9,343.6,221.8,363.4,255.6,384.1z"/>
					<path class="st4" d="M224.3,363.9c19.1,16,37.1,31.1,28,51.1"/>
					<path class="st4" d="M199,345.2c26.4,21.4,51.4,41.6,42.8,61.9"/>
				</g>
			</g>
			
				<path style="clip-path:url(#SVGID_00000081623805657618431610000000989842983832731270_);fill:none;stroke:#000000;stroke-width:1.5;stroke-miterlimit:10;" d="
				M197.5,344.1c14.8,12,34.8,25.8,58.1,40c-10.4-10.6-21.2-21.5-10.1-44.4c10.7-22,36.3-44.2,61.1-65.6
				c-39.3-24-70.5-46.9-86.7-63.8c-43.3,7.8-88,15.9-96.9,39.3c-5.4,14.1,3.9,29.5,19.1,45.3c2.9,2.9,6.7,6.9,9.7,9.7
				c4.8,4.6,7.7,7.3,14.6,13.5C177.4,327.7,188.6,336.8,197.5,344.1z"/>
			
				<use xlink:href="#SVGID_00000074439186265289979130000005782110787376464051_"  style="overflow:visible;fill:none;stroke:#000000;stroke-width:1.5;stroke-miterlimit:10;"/>
		</g>
		<g class="st0">
			<defs>
				<path id="SVGID_00000013167757419412069600000008583369566154686089_" class="st0" d="M197.5,344.1c6.1,4.9,9.4,7.6,12.8,10.6
					c3.8,3.3,5.9,5.4,7.4,6.9c-10.1-10.4-23.3-21.3-36.8-32.5C185.3,333.6,190.9,338.7,197.5,344.1z"/>
			</defs>
			<clipPath id="SVGID_00000023279032556839067010000012828466467761858996_">
				<use xlink:href="#SVGID_00000013167757419412069600000008583369566154686089_"  style="overflow:visible;"/>
			</clipPath>
			<g style="clip-path:url(#SVGID_00000023279032556839067010000012828466467761858996_);enable-background:new    ;">
				<g>
					<path class="st4" d="M245.5,339.7c-11.1,22.9-0.3,33.8,10.1,44.4c-33.8-20.7-60.7-40.4-74.7-55c-33-27.2-67.2-55.3-57.9-79.6
						C145.9,273.4,190,305.8,245.5,339.7z"/>
				</g>
				<g>
					<path class="st4" d="M255.6,384.1c10,10.1,19.4,19.7,9.8,39.3c-14.1-8.6-25.3-16.9-31.2-22.9c8.3-20.6-21.6-45.2-53.3-71.3
						C194.9,343.6,221.8,363.4,255.6,384.1z"/>
					<path class="st4" d="M264.7,394.4c-24.5-15-44-29.3-54.1-39.8"/>
				</g>
			</g>
			
				<path style="clip-path:url(#SVGID_00000023279032556839067010000012828466467761858996_);fill:none;stroke:#000000;stroke-width:1.5;stroke-miterlimit:10;" d="
				M197.5,344.1c6.1,4.9,9.4,7.6,12.8,10.6c3.8,3.3,5.9,5.4,7.4,6.9c-10.1-10.4-23.3-21.3-36.8-32.5
				C185.3,333.6,190.9,338.7,197.5,344.1z"/>
			
				<use xlink:href="#SVGID_00000013167757419412069600000008583369566154686089_"  style="overflow:visible;fill:none;stroke:#000000;stroke-width:1.5;stroke-miterlimit:10;"/>
		</g>
		<g class="st0">
			<defs>
				<path id="SVGID_00000054266896603551961540000006272678384410403250_" class="st0" d="M217.7,361.6c13.4,13.9,21.2,27,16.5,38.8
					c1.8,1.9,4.2,4,6.9,6.2c8.6-20.3-16.8-40.9-43.6-62.6c4.8,3.9,9.3,7.5,12.4,10.2C213.2,357.1,215.2,359,217.7,361.6z"/>
			</defs>
			<clipPath id="SVGID_00000122000007274575638160000007145567663757646996_">
				<use xlink:href="#SVGID_00000054266896603551961540000006272678384410403250_"  style="overflow:visible;"/>
			</clipPath>
			<g style="clip-path:url(#SVGID_00000122000007274575638160000007145567663757646996_);enable-background:new    ;">
				<g>
					<path class="st4" d="M245.5,339.7c-11.1,22.9-0.3,33.8,10.1,44.4c-33.8-20.7-60.7-40.4-74.7-55c-33-27.2-67.2-55.3-57.9-79.6
						C145.9,273.4,190,305.8,245.5,339.7z"/>
				</g>
				<g>
					<path class="st4" d="M255.6,384.1c10,10.1,19.4,19.7,9.8,39.3c-14.1-8.6-25.3-16.9-31.2-22.9c8.3-20.6-21.6-45.2-53.3-71.3
						C194.9,343.6,221.8,363.4,255.6,384.1z"/>
					<path class="st4" d="M264.7,394.4c-24.5-15-44-29.3-54.1-39.8"/>
					<path class="st4" d="M269.3,406.7c-17.3-10.6-31.1-20.7-38.2-28.1"/>
				</g>
				<g>
					<path class="st4" d="M265.4,423.3c-5.8,11.9-17.8,25.5-35.7,40.4c-22.9-14-41-27.3-50.5-37.2c31.5-4.9,50-13.7,55-26.2
						C240,406.5,251.2,414.7,265.4,423.3z"/>
				</g>
			</g>
			
				<path style="clip-path:url(#SVGID_00000122000007274575638160000007145567663757646996_);fill:none;stroke:#000000;stroke-width:1.5;stroke-miterlimit:10;" d="
				M217.7,361.6c13.4,13.9,21.2,27,16.5,38.8c1.8,1.9,4.2,4,6.9,6.2c8.6-20.3-16.8-40.9-43.6-62.6c4.8,3.9,9.3,7.5,12.4,10.2
				C213.2,357.1,215.2,359,217.7,361.6z"/>
			
				<use xlink:href="#SVGID_00000054266896603551961540000006272678384410403250_"  style="overflow:visible;fill:none;stroke:#000000;stroke-width:1.5;stroke-miterlimit:10;"/>
		</g>
		<g class="st0">
			<defs>
				<path id="SVGID_00000090281598958359902730000014521792936533318316_" class="st0" d="M241.1,406.7c6.2,5,14.5,10.7,24.2,16.7
					c9.6-19.6,0.2-29.2-9.8-39.3c-23.3-14.2-43.3-28-58.1-40C224.4,365.8,249.7,386.3,241.1,406.7z"/>
			</defs>
			<clipPath id="SVGID_00000075126322482050383550000016989579368595392958_">
				<use xlink:href="#SVGID_00000090281598958359902730000014521792936533318316_"  style="overflow:visible;"/>
			</clipPath>
			<g style="clip-path:url(#SVGID_00000075126322482050383550000016989579368595392958_);enable-background:new    ;">
				<g>
					<path class="st4" d="M245.5,339.7c-11.1,22.9-0.3,33.8,10.1,44.4c-33.8-20.7-60.7-40.4-74.7-55c-33-27.2-67.2-55.3-57.9-79.6
						C145.9,273.4,190,305.8,245.5,339.7z"/>
					<path class="st4" d="M194.2,306.5c-10.3,23.4,10.2,40.6,30.1,57.3"/>
					<path class="st4" d="M152.6,276c-9.7,23.9,18.8,46.9,46.3,69.3"/>
				</g>
				<g>
					<path class="st4" d="M255.6,384.1c10,10.1,19.4,19.7,9.8,39.3c-14.1-8.6-25.3-16.9-31.2-22.9c8.3-20.6-21.6-45.2-53.3-71.3
						C194.9,343.6,221.8,363.4,255.6,384.1z"/>
					<path class="st4" d="M264.7,394.4c-24.5-15-44-29.3-54.1-39.8"/>
					<path class="st4" d="M269.3,406.7c-17.3-10.6-31.1-20.7-38.2-28.1"/>
					<path class="st4" d="M224.3,363.9c19.1,16,37.1,31.1,28,51.1"/>
					<path class="st4" d="M199,345.2c26.4,21.4,51.4,41.6,42.8,61.9"/>
				</g>
				<g>
					<path class="st4" d="M265.4,423.3c-5.8,11.9-17.8,25.5-35.7,40.4c-22.9-14-41-27.3-50.5-37.2c31.5-4.9,50-13.7,55-26.2
						C240,406.5,251.2,414.7,265.4,423.3z"/>
					<path class="st4" d="M252.3,414.9c-5.5,12.1-20.2,23.9-43.8,35.2"/>
					<path class="st4" d="M241.7,407.1c-5.2,12.3-22.1,22.5-50.3,30.4"/>
				</g>
			</g>
			
				<path style="clip-path:url(#SVGID_00000075126322482050383550000016989579368595392958_);fill:none;stroke:#000000;stroke-width:1.5;stroke-miterlimit:10;" d="
				M241.1,406.7c6.2,5,14.5,10.7,24.2,16.7c9.6-19.6,0.2-29.2-9.8-39.3c-23.3-14.2-43.3-28-58.1-40
				C224.4,365.8,249.7,386.3,241.1,406.7z"/>
			
				<use xlink:href="#SVGID_00000090281598958359902730000014521792936533318316_"  style="overflow:visible;fill:none;stroke:#000000;stroke-width:1.5;stroke-miterlimit:10;"/>
		</g>
		<g class="st0">
			<defs>
				<path id="SVGID_00000011010233779959547960000017352773348861491338_" class="st0" d="M364.2,212.1
					c-17.3-10.6-32-20.8-42.6-29.5c-4.1-3.4-7.6-6.6-10.4-9.5c-6.9,21.9-47.9,29.4-91.3,37.2c16.2,16.8,47.4,39.8,86.7,63.8
					C331.5,252.6,355,232.3,364.2,212.1z"/>
			</defs>
			<clipPath id="SVGID_00000088840809361071263310000012224308451916889497_">
				<use xlink:href="#SVGID_00000011010233779959547960000017352773348861491338_"  style="overflow:visible;"/>
			</clipPath>
			<g style="clip-path:url(#SVGID_00000088840809361071263310000012224308451916889497_);enable-background:new    ;">
				<g>
					<path class="st4" d="M359.1,183c6.4,6.8,12.4,13.1,5.1,29.1c-24-14.7-43.1-28.7-53-39c5.4-17.3-13.9-33.5-34.4-50.6
						C292.2,138.5,321.8,160.2,359.1,183z"/>
					<path class="st4" d="M324.6,160.7c12.3,10.6,23.9,20.6,17.4,37"/>
					<path class="st4" d="M296.7,140.2c17.1,14.1,33.2,27.4,27.3,44.3"/>
				</g>
				<g>
					<path class="st4" d="M364.2,212.1c-9.3,20.2-32.7,40.5-57.6,62c-39.3-24-70.5-46.9-86.7-63.8c43.4-7.9,84.4-15.3,91.3-37.2
						C321.1,183.4,340.2,197.4,364.2,212.1z"/>
					<path class="st4" d="M350.7,232.3c-25.6-15.7-46-30.6-56.6-41.6"/>
					<path class="st4" d="M330.5,252.9c-31.4-19.2-56.2-37.5-69.2-50.9"/>
					<path class="st4" d="M342,197.7c-8.3,20.8-39.1,36.4-71.7,52.9"/>
					<path class="st4" d="M324,184.5c-7.5,21.4-44.2,32.6-83.1,44.5"/>
				</g>
				<g>
					<path class="st4" d="M306.6,274.1c-24.8,21.4-50.4,43.6-61.1,65.6c-55.5-33.9-99.6-66.3-122.5-90.1
						c8.9-23.3,53.6-31.4,96.9-39.3C236.2,227.1,267.3,250.1,306.6,274.1z"/>
					<path class="st4" d="M270.3,250.6c-32.5,16.4-66.2,33.4-76.1,55.9"/>
					<path class="st4" d="M240.9,229c-38.8,11.8-78.9,24-88.3,47"/>
				</g>
			</g>
			
				<path style="clip-path:url(#SVGID_00000088840809361071263310000012224308451916889497_);fill:none;stroke:#000000;stroke-width:1.5;stroke-miterlimit:10;" d="
				M364.2,212.1c-17.3-10.6-32-20.8-42.6-29.5c-4.1-3.4-7.6-6.6-10.4-9.5c-6.9,21.9-47.9,29.4-91.3,37.2
				c16.2,16.8,47.4,39.8,86.7,63.8C331.5,252.6,355,232.3,364.2,212.1z"/>
			
				<use xlink:href="#SVGID_00000011010233779959547960000017352773348861491338_"  style="overflow:visible;fill:none;stroke:#000000;stroke-width:1.5;stroke-miterlimit:10;"/>
		</g>
		<g class="st0">
			<defs>
				<path id="SVGID_00000010311892052940203970000002574484881107348364_" class="st0" d="M265.4,423.3
					c-9.7-5.9-18.1-11.7-24.2-16.7c-2.8-2.3-5.1-4.4-6.9-6.2c-5,12.5-23.5,21.3-55,26.2c9.5,9.8,27.6,23.2,50.5,37.2
					C247.5,448.8,259.5,435.2,265.4,423.3z"/>
			</defs>
			<clipPath id="SVGID_00000108303846576134887580000014459726449753881008_">
				<use xlink:href="#SVGID_00000010311892052940203970000002574484881107348364_"  style="overflow:visible;"/>
			</clipPath>
			<g style="clip-path:url(#SVGID_00000108303846576134887580000014459726449753881008_);enable-background:new    ;">
				<g>
					<path class="st4" d="M255.6,384.1c10,10.1,19.4,19.7,9.8,39.3c-14.1-8.6-25.3-16.9-31.2-22.9c8.3-20.6-21.6-45.2-53.3-71.3
						C194.9,343.6,221.8,363.4,255.6,384.1z"/>
					<path class="st4" d="M224.3,363.9c19.1,16,37.1,31.1,28,51.1"/>
					<path class="st4" d="M199,345.2c26.4,21.4,51.4,41.6,42.8,61.9"/>
				</g>
				<g>
					<path class="st4" d="M265.4,423.3c-5.8,11.9-17.8,25.5-35.7,40.4c-22.9-14-41-27.3-50.5-37.2c31.5-4.9,50-13.7,55-26.2
						C240,406.5,251.2,414.7,265.4,423.3z"/>
					<path class="st4" d="M257.5,435.8c-14.8-9.1-26.6-17.7-32.8-24.1"/>
					<path class="st4" d="M245.6,449.3c-17.8-10.9-31.9-21.2-39.2-28.9"/>
					<path class="st4" d="M252.3,414.9c-5.5,12.1-20.2,23.9-43.8,35.2"/>
					<path class="st4" d="M241.7,407.1c-5.2,12.3-22.1,22.5-50.3,30.4"/>
				</g>
				<g>
					<path class="st4" d="M229.7,463.8c-13.7,11.4-31.1,24-51.9,37.3c-43-26.3-77.1-51.4-94.9-69.8c39.8,0.7,72.2-0.9,96.3-4.6
						C188.6,436.4,206.8,449.8,229.7,463.8z"/>
					<path class="st4" d="M208.5,450.1c-18,8.6-41.8,17.1-70.5,25.3"/>
					<path class="st4" d="M191.4,437.5c-21.6,6-50.4,10.8-85.6,14.2"/>
				</g>
			</g>
			
				<path style="clip-path:url(#SVGID_00000108303846576134887580000014459726449753881008_);fill:none;stroke:#000000;stroke-width:1.5;stroke-miterlimit:10;" d="
				M265.4,423.3c-9.7-5.9-18.1-11.7-24.2-16.7c-2.8-2.3-5.1-4.4-6.9-6.2c-5,12.5-23.5,21.3-55,26.2c9.5,9.8,27.6,23.2,50.5,37.2
				C247.5,448.8,259.5,435.2,265.4,423.3z"/>
			
				<use xlink:href="#SVGID_00000010311892052940203970000002574484881107348364_"  style="overflow:visible;fill:none;stroke:#000000;stroke-width:1.5;stroke-miterlimit:10;"/>
		</g>
		<g class="st0">
			<defs>
				<path id="SVGID_00000057112717840767755080000010083015471886101428_" class="st0" d="M229.7,463.8c-22.9-14-41-27.3-50.5-37.2
					c-24.1,3.7-56.5,5.3-96.3,4.6c17.8,18.4,51.9,43.6,94.9,69.8C198.6,487.8,216,475.2,229.7,463.8z"/>
			</defs>
			<clipPath id="SVGID_00000167354158539639822270000010828249944501411210_">
				<use xlink:href="#SVGID_00000057112717840767755080000010083015471886101428_"  style="overflow:visible;"/>
			</clipPath>
			<g style="clip-path:url(#SVGID_00000167354158539639822270000010828249944501411210_);enable-background:new    ;">
				<g>
					<path class="st4" d="M265.4,423.3c-5.8,11.9-17.8,25.5-35.7,40.4c-22.9-14-41-27.3-50.5-37.2c31.5-4.9,50-13.7,55-26.2
						C240,406.5,251.2,414.7,265.4,423.3z"/>
					<path class="st4" d="M252.3,414.9c-5.5,12.1-20.2,23.9-43.8,35.2"/>
					<path class="st4" d="M241.7,407.1c-5.2,12.3-22.1,22.5-50.3,30.4"/>
				</g>
				<g>
					<path class="st4" d="M229.7,463.8c-13.7,11.4-31.1,24-51.9,37.3c-43-26.3-77.1-51.4-94.9-69.8c39.8,0.7,72.2-0.9,96.3-4.6
						C188.6,436.4,206.8,449.8,229.7,463.8z"/>
					<path class="st4" d="M214.8,475.6c-28.3-17.3-50.8-33.8-62.5-45.9"/>
					<path class="st4" d="M197.4,488c-35-21.4-62.8-41.8-77.3-56.9"/>
					<path class="st4" d="M208.5,450.1c-18,8.6-41.8,17.1-70.5,25.3"/>
					<path class="st4" d="M191.4,437.5c-21.6,6-50.4,10.8-85.6,14.2"/>
				</g>
			</g>
			
				<path style="clip-path:url(#SVGID_00000167354158539639822270000010828249944501411210_);fill:none;stroke:#000000;stroke-width:1.5;stroke-miterlimit:10;" d="
				M229.7,463.8c-22.9-14-41-27.3-50.5-37.2c-24.1,3.7-56.5,5.3-96.3,4.6c17.8,18.4,51.9,43.6,94.9,69.8
				C198.6,487.8,216,475.2,229.7,463.8z"/>
			
				<use xlink:href="#SVGID_00000057112717840767755080000010083015471886101428_"  style="overflow:visible;fill:none;stroke:#000000;stroke-width:1.5;stroke-miterlimit:10;"/>
		</g>
		<g class="st0">
			<defs>
				<path id="SVGID_00000071543243448951246600000005498755084484442250_" class="st0" d="M177.8,501.1l0.4-1.1
					c-43.1-26.3-77.3-51.5-95.2-70l-0.2,1.2C100.6,449.7,134.8,474.8,177.8,501.1z"/>
			</defs>
			<clipPath id="SVGID_00000164509099731316561250000011684115682269669764_">
				<use xlink:href="#SVGID_00000071543243448951246600000005498755084484442250_"  style="overflow:visible;"/>
			</clipPath>
			<g style="clip-path:url(#SVGID_00000164509099731316561250000011684115682269669764_);enable-background:new    ;">
				<path class="st4" d="M177.8,501.1l0.4-1.1c-43.1-26.3-77.3-51.5-95.2-70l-0.2,1.2C100.6,449.7,134.8,474.8,177.8,501.1z"/>
				<line class="st4" x1="138" y1="475.4" x2="138.3" y2="474.2"/>
				<line class="st4" x1="105.8" y1="451.7" x2="106.1" y2="450.5"/>
			</g>
			
				<path style="clip-path:url(#SVGID_00000164509099731316561250000011684115682269669764_);fill:none;stroke:#000000;stroke-width:1.5;stroke-miterlimit:10;" d="
				M177.8,501.1l0.4-1.1c-43.1-26.3-77.3-51.5-95.2-70l-0.2,1.2C100.6,449.7,134.8,474.8,177.8,501.1z"/>
			
				<use xlink:href="#SVGID_00000071543243448951246600000005498755084484442250_"  style="overflow:visible;fill:none;stroke:#000000;stroke-width:1.5;stroke-miterlimit:10;"/>
		</g>
		<g class="st0">
			<defs>
				<path id="SVGID_00000137835424707284746720000016013317857885507465_" class="st0" d="M216.9,362.6
					c-10-10.4-23.3-21.3-36.9-32.5c4.4,4.5,10,9.6,16.7,15c5,4.1,9.3,7.6,12.7,10.5c2,1.7,3.3,2.9,3.7,3.3
					C214.8,360.5,215.1,360.8,216.9,362.6z"/>
			</defs>
			<clipPath id="SVGID_00000024716936454180827660000017774577877214312633_">
				<use xlink:href="#SVGID_00000137835424707284746720000016013317857885507465_"  style="overflow:visible;"/>
			</clipPath>
			<g style="clip-path:url(#SVGID_00000024716936454180827660000017774577877214312633_);enable-background:new    ;">
				<g>
					<path class="st4" d="M264.8,423.5c9.3-18.8-0.1-28.3-10-38.3C221,364.5,194,344.7,180,330.1c31.3,25.8,61,50.2,53,70
						C239,406.3,250.4,414.7,264.8,423.5z"/>
					<path class="st4" d="M263.9,395.4c-24.7-15.1-44.3-29.5-54.5-40.1"/>
				</g>
				<g>
					<path class="st4" d="M254.9,385.2c-10.5-10.6-21.4-21.6-9.9-45.3c-55.8-34.1-100.1-66.7-123.2-90.6
						c-9.6,25.1,24.9,53.4,58.2,80.9C194,344.7,221,364.5,254.9,385.2z"/>
				</g>
			</g>
			
				<path style="clip-path:url(#SVGID_00000024716936454180827660000017774577877214312633_);fill:none;stroke:#000000;stroke-width:1.5;stroke-miterlimit:10;" d="
				M216.9,362.6c-10-10.4-23.3-21.3-36.9-32.5c4.4,4.5,10,9.6,16.7,15c5,4.1,9.3,7.6,12.7,10.5c2,1.7,3.3,2.9,3.7,3.3
				C214.8,360.5,215.1,360.8,216.9,362.6z"/>
			
				<use xlink:href="#SVGID_00000137835424707284746720000016013317857885507465_"  style="overflow:visible;fill:none;stroke:#000000;stroke-width:1.5;stroke-miterlimit:10;"/>
		</g>
		<g class="st0">
			<defs>
				<path id="SVGID_00000109714336330477917790000001248952688540176526_" class="st0" d="M196.7,345.1c5.2,4.2,9.4,7.6,12.7,10.5
					c2,1.8,3.4,3,3.7,3.3c1.7,1.6,2.1,2,3.7,3.7c13.1,13.6,20.7,26.3,16.2,37.5c1.9,1.9,4.2,4.1,7.1,6.4
					C248.4,386.9,223.3,366.6,196.7,345.1z"/>
			</defs>
			<clipPath id="SVGID_00000071543941071678397260000014803331756730735259_">
				<use xlink:href="#SVGID_00000109714336330477917790000001248952688540176526_"  style="overflow:visible;"/>
			</clipPath>
			<g style="clip-path:url(#SVGID_00000071543941071678397260000014803331756730735259_);enable-background:new    ;">
				<g>
					<path class="st4" d="M178.2,500c47.5-30.4,76.6-56.2,86.6-76.5c-14.4-8.8-25.8-17.2-31.8-23.4c-8.6,21.4-59,31.5-150,29.9
						C100.9,448.5,135.1,473.7,178.2,500z"/>
				</g>
				<g>
					<path class="st4" d="M264.8,423.5c9.3-18.8-0.1-28.3-10-38.3C221,364.5,194,344.7,180,330.1c31.3,25.8,61,50.2,53,70
						C239,406.3,250.4,414.7,264.8,423.5z"/>
					<path class="st4" d="M268.6,407.4c-17.6-10.7-31.5-21-38.8-28.5"/>
					<path class="st4" d="M263.9,395.4c-24.7-15.1-44.3-29.5-54.5-40.1"/>
				</g>
				<g>
					<path class="st4" d="M254.9,385.2c-10.5-10.6-21.4-21.6-9.9-45.3c-55.8-34.1-100.1-66.7-123.2-90.6
						c-9.6,25.1,24.9,53.4,58.2,80.9C194,344.7,221,364.5,254.9,385.2z"/>
				</g>
			</g>
			
				<path style="clip-path:url(#SVGID_00000071543941071678397260000014803331756730735259_);fill:none;stroke:#000000;stroke-width:1.5;stroke-miterlimit:10;" d="
				M196.7,345.1c5.2,4.2,9.4,7.6,12.7,10.5c2,1.8,3.4,3,3.7,3.3c1.7,1.6,2.1,2,3.7,3.7c13.1,13.6,20.7,26.3,16.2,37.5
				c1.9,1.9,4.2,4.1,7.1,6.4C248.4,386.9,223.3,366.6,196.7,345.1z"/>
			
				<use xlink:href="#SVGID_00000109714336330477917790000001248952688540176526_"  style="overflow:visible;fill:none;stroke:#000000;stroke-width:1.5;stroke-miterlimit:10;"/>
		</g>
		<g class="st0">
			<defs>
				<path id="SVGID_00000181067728797374881650000005201677847061321396_" class="st0" d="M196.7,345.1
					c26.6,21.5,51.7,41.8,43.4,61.4c6.3,5.1,14.8,11,24.7,17c9.3-18.8-0.1-28.3-10-38.3C231.5,370.9,211.5,357.1,196.7,345.1z"/>
			</defs>
			<clipPath id="SVGID_00000127736230875017132710000000607200234087373216_">
				<use xlink:href="#SVGID_00000181067728797374881650000005201677847061321396_"  style="overflow:visible;"/>
			</clipPath>
			<g style="clip-path:url(#SVGID_00000127736230875017132710000000607200234087373216_);enable-background:new    ;">
				<g>
					<path class="st4" d="M178.2,500c47.5-30.4,76.6-56.2,86.6-76.5c-14.4-8.8-25.8-17.2-31.8-23.4c-8.6,21.4-59,31.5-150,29.9
						C100.9,448.5,135.1,473.7,178.2,500z"/>
					<path class="st4" d="M138.3,474.2c65.7-18.7,103.8-38.6,113.2-59.4"/>
					<path class="st4" d="M106.1,450.5c80.4-7.8,125.7-22.5,134.7-43.5"/>
				</g>
				<g>
					<path class="st4" d="M264.8,423.5c9.3-18.8-0.1-28.3-10-38.3C221,364.5,194,344.7,180,330.1c31.3,25.8,61,50.2,53,70
						C239,406.3,250.4,414.7,264.8,423.5z"/>
					<path class="st4" d="M268.6,407.4c-17.6-10.7-31.5-21-38.8-28.5"/>
					<path class="st4" d="M263.9,395.4c-24.7-15.1-44.3-29.5-54.5-40.1"/>
					<path class="st4" d="M251.5,414.9c8.7-19.2-9.1-34.1-28-50"/>
					<path class="st4" d="M240.7,407c8.3-19.5-16.5-39.5-42.6-60.7"/>
				</g>
				<g>
					<path class="st4" d="M254.9,385.2c-10.5-10.6-21.4-21.6-9.9-45.3c-55.8-34.1-100.1-66.7-123.2-90.6
						c-9.6,25.1,24.9,53.4,58.2,80.9C194,344.7,221,364.5,254.9,385.2z"/>
					<path class="st4" d="M223.5,364.9c-20.1-16.8-40.8-34.2-30.1-58.4"/>
					<path class="st4" d="M198.1,346.2c-27.8-22.5-56.5-45.8-46.5-70.5"/>
				</g>
			</g>
			
				<path style="clip-path:url(#SVGID_00000127736230875017132710000000607200234087373216_);fill:none;stroke:#000000;stroke-width:1.5;stroke-miterlimit:10;" d="
				M196.7,345.1c26.6,21.5,51.7,41.8,43.4,61.4c6.3,5.1,14.8,11,24.7,17c9.3-18.8-0.1-28.3-10-38.3
				C231.5,370.9,211.5,357.1,196.7,345.1z"/>
			
				<use xlink:href="#SVGID_00000181067728797374881650000005201677847061321396_"  style="overflow:visible;fill:none;stroke:#000000;stroke-width:1.5;stroke-miterlimit:10;"/>
		</g>
		<g class="st0">
			<defs>
				<path id="SVGID_00000032622589218860561230000011688731034614175379_" class="st0" d="M196.7,345.1c-6.7-5.4-12.3-10.5-16.7-15
					c-13.8-11.4-27.8-22.9-38.8-34.3c2.1,2.1,4.8,4.9,6.9,7c1.5,1.5,3.6,3.4,5.1,4.9c2.7,2.6,6.4,6.1,9.3,8.6
					c1.6,1.4,3.8,3.4,5.4,4.8c2.3,2,5.3,4.7,7.7,6.6C183.6,334.5,185.8,336.3,196.7,345.1z"/>
			</defs>
			<clipPath id="SVGID_00000173119955288687980070000003313624388424422298_">
				<use xlink:href="#SVGID_00000032622589218860561230000011688731034614175379_"  style="overflow:visible;"/>
			</clipPath>
			<g style="clip-path:url(#SVGID_00000173119955288687980070000003313624388424422298_);enable-background:new    ;">
				<g>
					<path class="st4" d="M264.8,423.5c9.3-18.8-0.1-28.3-10-38.3C221,364.5,194,344.7,180,330.1c31.3,25.8,61,50.2,53,70
						C239,406.3,250.4,414.7,264.8,423.5z"/>
				</g>
				<g>
					<path class="st4" d="M254.9,385.2c-10.5-10.6-21.4-21.6-9.9-45.3c-55.8-34.1-100.1-66.7-123.2-90.6
						c-9.6,25.1,24.9,53.4,58.2,80.9C194,344.7,221,364.5,254.9,385.2z"/>
					<path class="st4" d="M245.1,374c-44-26.9-78.9-52.6-97.1-71.4"/>
				</g>
			</g>
			
				<path style="clip-path:url(#SVGID_00000173119955288687980070000003313624388424422298_);fill:none;stroke:#000000;stroke-width:1.5;stroke-miterlimit:10;" d="
				M196.7,345.1c-6.7-5.4-12.3-10.5-16.7-15c-13.8-11.4-27.8-22.9-38.8-34.3c2.1,2.1,4.8,4.9,6.9,7c1.5,1.5,3.6,3.4,5.1,4.9
				c2.7,2.6,6.4,6.1,9.3,8.6c1.6,1.4,3.8,3.4,5.4,4.8c2.3,2,5.3,4.7,7.7,6.6C183.6,334.5,185.8,336.3,196.7,345.1z"/>
			
				<use xlink:href="#SVGID_00000032622589218860561230000011688731034614175379_"  style="overflow:visible;fill:none;stroke:#000000;stroke-width:1.5;stroke-miterlimit:10;"/>
		</g>
		<g class="st0">
			<defs>
				<path id="SVGID_00000065753214027036986100000003537746793634465706_" class="st0" d="M141.2,295.8c2.9,3,6.9,7,9.9,9.9
					c1.9,1.8,6.9,6.6,12.7,11.7c4.1,3.6,7.6,6.8,15.1,13c4.1,3.4,8.1,6.8,17.8,14.6c14.8,12,34.8,25.8,58.2,40.1
					c-10.5-10.6-21.4-21.6-9.9-45.3c11-22.8,36.9-45.1,61.9-66.8c-39.4-24.1-70.7-47.1-87.1-64c-43.7,7.9-88.8,16.1-98,40.2
					C116.2,263.9,125.7,279.7,141.2,295.8z"/>
			</defs>
			<clipPath id="SVGID_00000168806826101459347090000013392678740027029132_">
				<use xlink:href="#SVGID_00000065753214027036986100000003537746793634465706_"  style="overflow:visible;"/>
			</clipPath>
			<g style="clip-path:url(#SVGID_00000168806826101459347090000013392678740027029132_);enable-background:new    ;">
				<g>
					<path class="st4" d="M264.8,423.5c9.3-18.8-0.1-28.3-10-38.3C221,364.5,194,344.7,180,330.1c31.3,25.8,61,50.2,53,70
						C239,406.3,250.4,414.7,264.8,423.5z"/>
					<path class="st4" d="M251.5,414.9c8.7-19.2-9.1-34.1-28-50"/>
					<path class="st4" d="M240.7,407c8.3-19.5-16.5-39.5-42.6-60.7"/>
				</g>
				<g>
					<path class="st4" d="M254.9,385.2c-10.5-10.6-21.4-21.6-9.9-45.3c-55.8-34.1-100.1-66.7-123.2-90.6
						c-9.6,25.1,24.9,53.4,58.2,80.9C194,344.7,221,364.5,254.9,385.2z"/>
					<path class="st4" d="M245.1,374c-44-26.9-78.9-52.6-97.1-71.4"/>
					<path class="st4" d="M240.1,359.8c-52-31.8-93.4-62.2-114.9-84.5"/>
					<path class="st4" d="M223.5,364.9c-20.1-16.8-40.8-34.2-30.1-58.4"/>
					<path class="st4" d="M198.1,346.2c-27.8-22.5-56.5-45.8-46.5-70.5"/>
				</g>
				<g>
					<path class="st4" d="M245,339.8c11-22.8,36.9-45.1,61.9-66.8c-39.4-24.1-70.7-47.1-87.1-64c-43.7,7.9-88.8,16.1-98,40.2
						C144.9,273.2,189.2,305.8,245,339.8z"/>
					<path class="st4" d="M260.4,317.2c-53.8-32.9-96.5-64.3-118.8-87.4"/>
					<path class="st4" d="M282.2,295c-47.6-29.1-85.4-56.9-105.1-77.3"/>
					<path class="st4" d="M193.4,306.5c10.3-23.3,44.2-40.4,77-57"/>
					<path class="st4" d="M151.6,275.8c9.6-23.7,50.1-36,89.3-48"/>
				</g>
				<g>
					<path class="st4" d="M306.9,273.1c24.6-21.3,47.8-41.4,56.8-60.8c-24.3-14.8-43.6-29-53.6-39.5c-6.6,21.1-47.2,28.4-90.2,36.2
						C236.2,226,267.5,249,306.9,273.1z"/>
					<path class="st4" d="M270.4,249.5c32.3-16.3,62.8-31.7,70.8-51.7"/>
					<path class="st4" d="M240.9,227.8c38.5-11.7,74.9-22.8,82.1-43.4"/>
				</g>
			</g>
			
				<path style="clip-path:url(#SVGID_00000168806826101459347090000013392678740027029132_);fill:none;stroke:#000000;stroke-width:1.5;stroke-miterlimit:10;" d="
				M141.2,295.8c2.9,3,6.9,7,9.9,9.9c1.9,1.8,6.9,6.6,12.7,11.7c4.1,3.6,7.6,6.8,15.1,13c4.1,3.4,8.1,6.8,17.8,14.6
				c14.8,12,34.8,25.8,58.2,40.1c-10.5-10.6-21.4-21.6-9.9-45.3c11-22.8,36.9-45.1,61.9-66.8c-39.4-24.1-70.7-47.1-87.1-64
				c-43.7,7.9-88.8,16.1-98,40.2C116.2,263.9,125.7,279.7,141.2,295.8z"/>
			
				<use xlink:href="#SVGID_00000065753214027036986100000003537746793634465706_"  style="overflow:visible;fill:none;stroke:#000000;stroke-width:1.5;stroke-miterlimit:10;"/>
		</g>
		<g class="st0">
			<defs>
				<path id="SVGID_00000183969250221425612540000007933867175680817041_" class="st0" d="M297.7,142.9
					c-6.2-6.4-13.9-12.8-21.7-19.4c4.3,4.5,9.8,9.4,16.2,14.7C296.9,142.1,297.2,142.4,297.7,142.9z"/>
			</defs>
			<clipPath id="SVGID_00000103242526353647082270000006713899139808716972_">
				<use xlink:href="#SVGID_00000183969250221425612540000007933867175680817041_"  style="overflow:visible;"/>
			</clipPath>
			<g style="clip-path:url(#SVGID_00000103242526353647082270000006713899139808716972_);enable-background:new    ;">
				<g>
					<path class="st4" d="M363.7,212.3c7-15.2,1-21.5-5.3-28.2c-37.3-22.8-67-44.6-82.4-60.6c20.2,16.9,39.3,32.8,34.1,49.4
						C320.1,183.3,339.4,197.5,363.7,212.3z"/>
					<path class="st4" d="M364.1,191c-31.3-19.1-56.2-37.5-69.2-50.9"/>
				</g>
				<g>
					<path class="st4" d="M358.4,184.1c-7.2-7.6-14.6-15.5-5.3-37.2c-53.5-32.7-96.1-64-118.2-86.9c-5.7,24.3,18.1,44.2,41.1,63.5
						C291.4,139.5,321,161.3,358.4,184.1z"/>
				</g>
			</g>
			
				<path style="clip-path:url(#SVGID_00000103242526353647082270000006713899139808716972_);fill:none;stroke:#000000;stroke-width:1.5;stroke-miterlimit:10;" d="
				M297.7,142.9c-6.2-6.4-13.9-12.8-21.7-19.4c4.3,4.5,9.8,9.4,16.2,14.7C296.9,142.1,297.2,142.4,297.7,142.9z"/>
			
				<use xlink:href="#SVGID_00000183969250221425612540000007933867175680817041_"  style="overflow:visible;fill:none;stroke:#000000;stroke-width:1.5;stroke-miterlimit:10;"/>
		</g>
		<g class="st0">
			<defs>
				<path id="SVGID_00000057842776489550457810000005793171883413464975_" class="st0" d="M292.1,138.2c4.8,4,5.1,4.2,5.5,4.7
					c9.6,10,15.5,19.9,12.3,30c2.8,2.9,6.4,6.1,10.5,9.6C326.1,166.2,309.6,152.6,292.1,138.2z"/>
			</defs>
			<clipPath id="SVGID_00000009577177640572070170000013731559510348707475_">
				<use xlink:href="#SVGID_00000057842776489550457810000005793171883413464975_"  style="overflow:visible;"/>
			</clipPath>
			<g style="clip-path:url(#SVGID_00000009577177640572070170000013731559510348707475_);enable-background:new    ;">
				<g>
					<path class="st4" d="M306.9,273.1c24.6-21.3,47.8-41.4,56.8-60.8c-24.3-14.8-43.6-29-53.6-39.5c-6.6,21.1-47.2,28.4-90.2,36.2
						C236.2,226,267.5,249,306.9,273.1z"/>
				</g>
				<g>
					<path class="st4" d="M363.7,212.3c7-15.2,1-21.5-5.3-28.2c-37.3-22.8-67-44.6-82.4-60.6c20.2,16.9,39.3,32.8,34.1,49.4
						C320.1,183.3,339.4,197.5,363.7,212.3z"/>
					<path class="st4" d="M366.8,199.7c-26.6-16.3-47.8-31.8-58.8-43.3"/>
					<path class="st4" d="M364.1,191c-31.3-19.1-56.2-37.5-69.2-50.9"/>
				</g>
				<g>
					<path class="st4" d="M358.4,184.1c-7.2-7.6-14.6-15.5-5.3-37.2c-53.5-32.7-96.1-64-118.2-86.9c-5.7,24.3,18.1,44.2,41.1,63.5
						C291.4,139.5,321,161.3,358.4,184.1z"/>
				</g>
			</g>
			
				<path style="clip-path:url(#SVGID_00000009577177640572070170000013731559510348707475_);fill:none;stroke:#000000;stroke-width:1.5;stroke-miterlimit:10;" d="
				M292.1,138.2c4.8,4,5.1,4.2,5.5,4.7c9.6,10,15.5,19.9,12.3,30c2.8,2.9,6.4,6.1,10.5,9.6C326.1,166.2,309.6,152.6,292.1,138.2z"/>
			
				<use xlink:href="#SVGID_00000057842776489550457810000005793171883413464975_"  style="overflow:visible;fill:none;stroke:#000000;stroke-width:1.5;stroke-miterlimit:10;"/>
		</g>
		<g class="st0">
			<defs>
				<path id="SVGID_00000030481162720540116300000009676132800759489443_" class="st0" d="M292.1,138.2c17.5,14.4,34,28,28.4,44.2
					c10.7,8.8,25.6,19.2,43.1,29.9c7-15.2,1-21.5-5.3-28.2C331.5,167.7,308.6,151.8,292.1,138.2z"/>
			</defs>
			<clipPath id="SVGID_00000005266465218432338490000012441602394940468404_">
				<use xlink:href="#SVGID_00000030481162720540116300000009676132800759489443_"  style="overflow:visible;"/>
			</clipPath>
			<g style="clip-path:url(#SVGID_00000005266465218432338490000012441602394940468404_);enable-background:new    ;">
				<g>
					<path class="st4" d="M306.9,273.1c24.6-21.3,47.8-41.4,56.8-60.8c-24.3-14.8-43.6-29-53.6-39.5c-6.6,21.1-47.2,28.4-90.2,36.2
						C236.2,226,267.5,249,306.9,273.1z"/>
					<path class="st4" d="M270.4,249.5c32.3-16.3,62.8-31.7,70.8-51.7"/>
					<path class="st4" d="M240.9,227.8c38.5-11.7,74.9-22.8,82.1-43.4"/>
				</g>
				<g>
					<path class="st4" d="M363.7,212.3c7-15.2,1-21.5-5.3-28.2c-37.3-22.8-67-44.6-82.4-60.6c20.2,16.9,39.3,32.8,34.1,49.4
						C320.1,183.3,339.4,197.5,363.7,212.3z"/>
					<path class="st4" d="M366.8,199.7c-26.6-16.3-47.8-31.8-58.8-43.3"/>
					<path class="st4" d="M364.1,191c-31.3-19.1-56.2-37.5-69.2-50.9"/>
					<path class="st4" d="M341.2,197.8c6.2-15.7-5.2-25.6-17.3-36"/>
					<path class="st4" d="M323,184.4c5.6-16.2-10.3-29.3-27.1-43.2"/>
				</g>
				<g>
					<path class="st4" d="M358.4,184.1c-7.2-7.6-14.6-15.5-5.3-37.2c-53.5-32.7-96.1-64-118.2-86.9c-5.7,24.3,18.1,44.2,41.1,63.5
						C291.4,139.5,321,161.3,358.4,184.1z"/>
					<path class="st4" d="M323.9,161.8c-13.8-11.9-28.1-24.2-20.3-46.9"/>
					<path class="st4" d="M295.9,141.2c-19.2-15.8-39-32.2-32.4-55.8"/>
				</g>
			</g>
			
				<path style="clip-path:url(#SVGID_00000005266465218432338490000012441602394940468404_);fill:none;stroke:#000000;stroke-width:1.5;stroke-miterlimit:10;" d="
				M292.1,138.2c17.5,14.4,34,28,28.4,44.2c10.7,8.8,25.6,19.2,43.1,29.9c7-15.2,1-21.5-5.3-28.2
				C331.5,167.7,308.6,151.8,292.1,138.2z"/>
			
				<use xlink:href="#SVGID_00000030481162720540116300000009676132800759489443_"  style="overflow:visible;fill:none;stroke:#000000;stroke-width:1.5;stroke-miterlimit:10;"/>
		</g>
		<g class="st0">
			<defs>
				<path id="SVGID_00000080904003246614803630000007400588631893398203_" class="st0" d="M292.1,138.2
					c-6.4-5.3-11.9-10.2-16.2-14.7c-8.4-7.1-17-14.2-24.1-21.6c7.1,7.3,13.9,13.6,16.6,16C277.1,125.7,282,129.8,292.1,138.2z"/>
			</defs>
			<clipPath id="SVGID_00000089562813190130980570000008611874053714741159_">
				<use xlink:href="#SVGID_00000080904003246614803630000007400588631893398203_"  style="overflow:visible;"/>
			</clipPath>
			<g style="clip-path:url(#SVGID_00000089562813190130980570000008611874053714741159_);enable-background:new    ;">
				<g>
					<path class="st4" d="M363.7,212.3c7-15.2,1-21.5-5.3-28.2c-37.3-22.8-67-44.6-82.4-60.6c20.2,16.9,39.3,32.8,34.1,49.4
						C320.1,183.3,339.4,197.5,363.7,212.3z"/>
				</g>
				<g>
					<path class="st4" d="M358.4,184.1c-7.2-7.6-14.6-15.5-5.3-37.2c-53.5-32.7-96.1-64-118.2-86.9c-5.7,24.3,18.1,44.2,41.1,63.5
						C291.4,139.5,321,161.3,358.4,184.1z"/>
					<path class="st4" d="M351.8,175.9c-44.4-27.1-79.6-53-98-72.1"/>
				</g>
			</g>
			
				<path style="clip-path:url(#SVGID_00000089562813190130980570000008611874053714741159_);fill:none;stroke:#000000;stroke-width:1.5;stroke-miterlimit:10;" d="
				M292.1,138.2c-6.4-5.3-11.9-10.2-16.2-14.7c-8.4-7.1-17-14.2-24.1-21.6c7.1,7.3,13.9,13.6,16.6,16
				C277.1,125.7,282,129.8,292.1,138.2z"/>
			
				<use xlink:href="#SVGID_00000080904003246614803630000007400588631893398203_"  style="overflow:visible;fill:none;stroke:#000000;stroke-width:1.5;stroke-miterlimit:10;"/>
		</g>
		<g class="st0">
			<defs>
				<path id="SVGID_00000086670734491074177510000002312722798585502868_" class="st0" d="M251.8,101.9c2.5,2.5,5.8,5.9,8.3,8.3
					c2.6,2.5,6,5.7,8.8,8.2c9.2,8.3,16.6,14.4,23.1,19.8c16.5,13.6,39.4,29.5,66.3,45.9c-7.2-7.6-14.6-15.5-5.3-37.2
					c8.7-20.5,30.3-47.9,64.1-81.6c-40.9-25-73.4-48.9-90.3-66.4c-55.7,17.6-86.6,38.1-92,61C231.2,75.4,239.5,89,251.8,101.9z"/>
			</defs>
			<clipPath id="SVGID_00000030455734624052799150000011549766671783690374_">
				<use xlink:href="#SVGID_00000086670734491074177510000002312722798585502868_"  style="overflow:visible;"/>
			</clipPath>
			<g style="clip-path:url(#SVGID_00000030455734624052799150000011549766671783690374_);enable-background:new    ;">
				<g>
					<path class="st4" d="M363.7,212.3c7-15.2,1-21.5-5.3-28.2c-37.3-22.8-67-44.6-82.4-60.6c20.2,16.9,39.3,32.8,34.1,49.4
						C320.1,183.3,339.4,197.5,363.7,212.3z"/>
					<path class="st4" d="M341.2,197.8c6.2-15.7-5.2-25.6-17.3-36"/>
					<path class="st4" d="M323,184.4c5.6-16.2-10.3-29.3-27.1-43.2"/>
				</g>
				<g>
					<path class="st4" d="M358.4,184.1c-7.2-7.6-14.6-15.5-5.3-37.2c-53.5-32.7-96.1-64-118.2-86.9c-5.7,24.3,18.1,44.2,41.1,63.5
						C291.4,139.5,321,161.3,358.4,184.1z"/>
					<path class="st4" d="M351.8,175.9c-44.4-27.1-79.6-53-98-72.1"/>
					<path class="st4" d="M348.7,164.5c-50.2-30.7-90.1-60-110.9-81.6"/>
					<path class="st4" d="M323.9,161.8c-13.8-11.9-28.1-24.2-20.3-46.9"/>
					<path class="st4" d="M295.9,141.2c-19.2-15.8-39-32.2-32.4-55.8"/>
				</g>
				<g>
					<path class="st4" d="M353,146.9c8.7-20.5,30.3-47.9,64.1-81.6c-40.9-25-73.4-48.9-90.3-66.4c-55.7,17.6-86.6,38.1-92,61
						C257,82.9,299.5,114.2,353,146.9z"/>
					<path class="st4" d="M366,124.1c-53.1-32.5-95.3-63.5-117.3-86.3"/>
					<path class="st4" d="M387.4,96.9c-48.9-29.9-87.8-58.5-108-79.4"/>
					<path class="st4" d="M303.5,115c7.3-21.4,32.8-46.3,75.8-74"/>
					<path class="st4" d="M263.4,85.5c6.2-22.2,34.9-44.8,85.2-67.1"/>
				</g>
			</g>
			
				<path style="clip-path:url(#SVGID_00000030455734624052799150000011549766671783690374_);fill:none;stroke:#000000;stroke-width:1.5;stroke-miterlimit:10;" d="
				M251.8,101.9c2.5,2.5,5.8,5.9,8.3,8.3c2.6,2.5,6,5.7,8.8,8.2c9.2,8.3,16.6,14.4,23.1,19.8c16.5,13.6,39.4,29.5,66.3,45.9
				c-7.2-7.6-14.6-15.5-5.3-37.2c8.7-20.5,30.3-47.9,64.1-81.6c-40.9-25-73.4-48.9-90.3-66.4c-55.7,17.6-86.6,38.1-92,61
				C231.2,75.4,239.5,89,251.8,101.9z"/>
			
				<use xlink:href="#SVGID_00000086670734491074177510000002312722798585502868_"  style="overflow:visible;fill:none;stroke:#000000;stroke-width:1.5;stroke-miterlimit:10;"/>
		</g>
		<g class="st0">
			<defs>
				<path id="SVGID_00000093160661071488275220000004956113362733061303_" class="st0" d="M178.2,500c47.5-30.4,76.6-56.2,86.6-76.5
					c-9.9-6.1-18.4-11.9-24.7-17c-2.8-2.3-5.2-4.4-7.1-6.4c-8.6,21.4-59,31.5-150,29.9C100.9,448.5,135.1,473.7,178.2,500z"/>
			</defs>
			<clipPath id="SVGID_00000104706151271784907270000001654964372764000398_">
				<use xlink:href="#SVGID_00000093160661071488275220000004956113362733061303_"  style="overflow:visible;"/>
			</clipPath>
			<g style="clip-path:url(#SVGID_00000104706151271784907270000001654964372764000398_);enable-background:new    ;">
				<g>
					<path class="st4" d="M178.2,500c47.5-30.4,76.6-56.2,86.6-76.5c-14.4-8.8-25.8-17.2-31.8-23.4c-8.6,21.4-59,31.5-150,29.9
						C100.9,448.5,135.1,473.7,178.2,500z"/>
					<path class="st4" d="M219.5,471.2c-26.8-16.4-48-32-59.1-43.5"/>
					<path class="st4" d="M248.5,445.6c-17.2-10.5-30.8-20.5-37.9-27.9"/>
					<path class="st4" d="M138.3,474.2c65.7-18.7,103.8-38.6,113.2-59.4"/>
					<path class="st4" d="M106.1,450.5c80.4-7.8,125.7-22.5,134.7-43.5"/>
				</g>
				<g>
					<path class="st4" d="M264.8,423.5c9.3-18.8-0.1-28.3-10-38.3C221,364.5,194,344.7,180,330.1c31.3,25.8,61,50.2,53,70
						C239,406.3,250.4,414.7,264.8,423.5z"/>
					<path class="st4" d="M251.5,414.9c8.7-19.2-9.1-34.1-28-50"/>
					<path class="st4" d="M240.7,407c8.3-19.5-16.5-39.5-42.6-60.7"/>
				</g>
			</g>
			
				<path style="clip-path:url(#SVGID_00000104706151271784907270000001654964372764000398_);fill:none;stroke:#000000;stroke-width:1.5;stroke-miterlimit:10;" d="
				M178.2,500c47.5-30.4,76.6-56.2,86.6-76.5c-9.9-6.1-18.4-11.9-24.7-17c-2.8-2.3-5.2-4.4-7.1-6.4c-8.6,21.4-59,31.5-150,29.9
				C100.9,448.5,135.1,473.7,178.2,500z"/>
			
				<use xlink:href="#SVGID_00000093160661071488275220000004956113362733061303_"  style="overflow:visible;fill:none;stroke:#000000;stroke-width:1.5;stroke-miterlimit:10;"/>
		</g>
		<g class="st0">
			<defs>
				<path id="SVGID_00000113331446352936966050000017250752140671773853_" class="st0" d="M306.9,273.1
					c24.6-21.3,47.8-41.4,56.8-60.8c-17.5-10.7-32.4-21-43.1-29.9c-4.2-3.4-7.7-6.7-10.5-9.6c-6.6,21.1-47.2,28.4-90.2,36.2
					C236.2,226,267.5,249,306.9,273.1z"/>
			</defs>
			<clipPath id="SVGID_00000132086646660499098260000011761972622508545676_">
				<use xlink:href="#SVGID_00000113331446352936966050000017250752140671773853_"  style="overflow:visible;"/>
			</clipPath>
			<g style="clip-path:url(#SVGID_00000132086646660499098260000011761972622508545676_);enable-background:new    ;">
				<g>
					<path class="st4" d="M245,339.8c11-22.8,36.9-45.1,61.9-66.8c-39.4-24.1-70.7-47.1-87.1-64c-43.7,7.9-88.8,16.1-98,40.2
						C144.9,273.2,189.2,305.8,245,339.8z"/>
					<path class="st4" d="M193.4,306.5c10.3-23.3,44.2-40.4,77-57"/>
					<path class="st4" d="M151.6,275.8c9.6-23.7,50.1-36,89.3-48"/>
				</g>
				<g>
					<path class="st4" d="M306.9,273.1c24.6-21.3,47.8-41.4,56.8-60.8c-24.3-14.8-43.6-29-53.6-39.5c-6.6,21.1-47.2,28.4-90.2,36.2
						C236.2,226,267.5,249,306.9,273.1z"/>
					<path class="st4" d="M330.6,252.2c-31.6-19.3-56.7-37.7-69.7-51.3"/>
					<path class="st4" d="M350.5,232c-25.9-15.8-46.5-31-57.2-42.1"/>
					<path class="st4" d="M270.4,249.5c32.3-16.3,62.8-31.7,70.8-51.7"/>
					<path class="st4" d="M240.9,227.8c38.5-11.7,74.9-22.8,82.1-43.4"/>
				</g>
				<g>
					<path class="st4" d="M363.7,212.3c7-15.2,1-21.5-5.3-28.2c-37.3-22.8-67-44.6-82.4-60.6c20.2,16.9,39.3,32.8,34.1,49.4
						C320.1,183.3,339.4,197.5,363.7,212.3z"/>
					<path class="st4" d="M341.2,197.8c6.2-15.7-5.2-25.6-17.3-36"/>
					<path class="st4" d="M323,184.4c5.6-16.2-10.3-29.3-27.1-43.2"/>
				</g>
			</g>
			
				<path style="clip-path:url(#SVGID_00000132086646660499098260000011761972622508545676_);fill:none;stroke:#000000;stroke-width:1.5;stroke-miterlimit:10;" d="
				M306.9,273.1c24.6-21.3,47.8-41.4,56.8-60.8c-17.5-10.7-32.4-21-43.1-29.9c-4.2-3.4-7.7-6.7-10.5-9.6
				c-6.6,21.1-47.2,28.4-90.2,36.2C236.2,226,267.5,249,306.9,273.1z"/>
			
				<use xlink:href="#SVGID_00000113331446352936966050000017250752140671773853_"  style="overflow:visible;fill:none;stroke:#000000;stroke-width:1.5;stroke-miterlimit:10;"/>
		</g>
	</g>
</g>
</svg>
