<?xml version="1.0" encoding="utf-8"?>
<!-- Generator: Adobe Illustrator 27.5.0, SVG Export Plug-In . SVG Version: 6.00 Build 0)  -->
<svg version="1.1" id="Layer_1" xmlns="http://www.w3.org/2000/svg" xmlns:xlink="http://www.w3.org/1999/xlink" x="0px" y="0px"
	 viewBox="0 0 1200 800" style="enable-background:new 0 0 1200 800;" xml:space="preserve">
<g>
	<g>
		<g>
			<path d="M600.1,683.9c-199.5,0-399-0.3-597.2-0.8l-2.7,0l1-2.5C34.1,594.4,66.6,502,106.7,380.9c17.4-52.6,39.7-103.6,61.2-152.8
				c15.7-35.9,31.9-73,46.1-110.5l0.5-1.2l1.3,0c255-0.3,513.6-0.3,768.6,0l1.3,0l0.5,1.2c14.2,37.4,30,74.7,45.3,110.8
				c20.9,49.4,42.5,100.5,60.3,152.5c28.2,82.5,65.9,191.1,107.3,299.7l1,2.5l-2.7,0C999.1,683.6,799.6,683.9,600.1,683.9z
				 M5.6,679.4c394.6,1,794.6,1,1188.9,0c-41-107.8-78.4-215.4-106.3-297.3c-17.7-51.9-39.3-102.9-60.2-152.3
				c-15.1-35.7-30.8-72.7-44.9-109.8c-254.2-0.3-511.9-0.3-766.1,0c-14.1,37.2-30.2,73.9-45.7,109.5
				c-21.5,49.2-43.7,100.1-61.1,152.5C70.5,502,38.2,593.9,5.6,679.4z"/>
		</g>
		<g>
			<path d="M1168.5,607.9c-94.3-0.5-189.5-10.1-281.6-19.4c-94.4-9.5-192-19.4-288.7-19.4c0,0,0,0,0,0c-96.1,0-193,9.9-286.8,19.4
				c-91.5,9.3-186.1,18.9-279.8,19.4l0-3.7c93.6-0.5,188.1-10.1,279.5-19.4c93.8-9.5,190.9-19.4,287.2-19.4c0,0,0,0,0,0
				c96.9,0,194.6,9.9,289.1,19.4c92,9.3,187.1,18.9,281.3,19.4L1168.5,607.9z"/>
		</g>
		<g>
			<path d="M1142.2,535.6c-80.5-8.6-160.4-30.1-237.7-50.8c-100.3-26.9-204-54.6-309.7-54.6c-103.8,0-205.4,27.8-303.6,54.6
				c-75.9,20.7-154.4,42.2-233.7,50.8l-0.4-3.7c79-8.6,157.3-30,233.1-50.7c98.5-26.9,200.3-54.7,304.6-54.7
				c106.2,0,210.1,27.8,310.6,54.8c77.1,20.7,156.9,42,237.1,50.7L1142.2,535.6z"/>
		</g>
		<g>
			<path d="M1117.9,465.4c-77.6-17.3-152.2-47.3-224.4-76.3c-19.5-7.8-39.6-15.9-59.4-23.6c-69.9-27.1-157-60.9-242.1-60.9
				c0,0-0.1,0-0.1,0c-77.6,0-156,28.8-229.7,58.2c-21.2,8.5-42.6,17.4-63.3,26c-69.9,29.2-142.2,59.3-217.8,76.5l-0.8-3.6
				c75.3-17.2,147.4-47.3,217.2-76.4c20.7-8.6,42.1-17.6,63.3-26c74-29.6,152.7-58.4,231-58.4c0,0,0.1,0,0.1,0
				c85.8,0,173.2,33.9,243.4,61.1c19.9,7.7,40,15.8,59.5,23.6c72,28.9,146.5,58.8,223.8,76.1L1117.9,465.4z"/>
		</g>
		<g>
			<path d="M1095.7,401.1c-70.9-21.7-138.3-54.5-203.5-86.3c-21.6-10.5-43.9-21.4-66-31.7c-74.5-34.7-154-68.6-235.8-68.6
				c0,0,0,0,0,0c-76.5,0-152.2,31.4-222.5,65.3c-23.6,11.4-47.3,23.5-70.3,35.2c-62.2,31.7-126.5,64.6-194.8,86.1l-1.1-3.5
				c67.9-21.4,132.1-54.1,194.2-85.8c23-11.7,46.7-23.8,70.4-35.2c70.8-34.1,146.9-65.7,224.2-65.7c0,0,0,0,0,0
				c82.5,0,162.5,34.1,237.3,68.9c22.2,10.3,44.5,21.2,66.1,31.7c65.1,31.7,132.4,64.5,203,86.1L1095.7,401.1z"/>
		</g>
		<g>
			<path d="M1075.4,342.1c-62.6-20.7-123.2-48.8-181.7-76c-25.1-11.6-51-23.7-76.7-34.9c-71.9-31.5-148.6-62.3-226.2-62.3
				c0,0,0,0-0.1,0c-72.4,0-145.5,28.5-213.7,59.3c-27.1,12.2-54.3,25.4-80.6,38.2c-55.9,27.1-113.8,55.2-173.9,75.7l-1.2-3.5
				c59.9-20.4,117.6-48.4,173.5-75.5c26.3-12.8,53.6-26,80.7-38.2c68.5-31,142.1-59.6,215.2-59.7c0,0,0,0,0.1,0
				c78.3,0,155.4,30.9,227.7,62.6c25.8,11.3,51.7,23.3,76.8,35c58.5,27.1,118.9,55.2,181.3,75.8L1075.4,342.1z"/>
		</g>
		<g>
			<path d="M1056.9,292c-54.4-16.1-108.3-36.5-160.3-56.3c-29.6-11.2-60.2-22.8-90.5-33.5c-68.1-23.9-140.6-47.3-213.7-47.3
				c0,0-0.1,0-0.1,0c-105.1,0-206.8,41.8-305.2,82.2c-48,19.7-97.7,40.1-146.4,54.9l-1.1-3.5c48.5-14.7,98.1-35.1,146-54.8
				c98.7-40.5,200.7-82.4,306.6-82.5c0,0,0.1,0,0.1,0c73.6,0,146.5,23.5,214.9,47.5c30.4,10.7,61,22.3,90.6,33.5
				c52,19.7,105.7,40.1,160.1,56.2L1056.9,292z"/>
		</g>
		<g>
			<path d="M1040.1,250.9c-45.3-10.4-91.3-23.6-135.9-36.4c-100.5-28.9-204.3-58.8-309.8-58.8c0,0,0,0,0,0
				c-103.6,0-205.3,29.9-303.7,58.8c-43.5,12.8-88.6,26-132.9,36.4l-0.8-3.6c44.2-10.3,89.2-23.6,132.7-36.4
				c98.6-29,200.5-59,304.7-59c0,0,0,0,0,0c106,0,210.1,30,310.8,59c44.5,12.8,90.5,26,135.7,36.4L1040.1,250.9z"/>
		</g>
		<g>
			<path d="M1024.8,215.8c-39.4-6-79.2-13.2-117.7-20.1c-101-18.2-205.5-37-310.4-37c-103.9,0-207,18.8-306.8,37
				c-37.9,6.9-77.1,14.1-115.8,20.1l-0.6-3.6c38.7-6,77.9-13.2,115.7-20.1c100-18.2,203.3-37.1,307.5-37.1
				c105.3,0,209.9,18.8,311.1,37c38.5,6.9,78.3,14.1,117.6,20.1L1024.8,215.8z"/>
		</g>
		<g>
			<path d="M1010.5,184c-28.6-2.4-57.6-5.1-85.7-7.6c-106.6-9.7-216.8-19.7-326.3-19.7c0,0,0,0-0.1,0c-109.1,0-218.8,10-324.9,19.7
				c-27.7,2.5-56.3,5.1-84.5,7.6l-0.3-3.7c28.2-2.4,56.8-5,84.5-7.6c106.2-9.7,216-19.7,325.3-19.8c0,0,0,0,0.1,0
				c109.7,0,220,10,326.7,19.7c28,2.5,57.1,5.2,85.7,7.6L1010.5,184z"/>
		</g>
		<g>
			<path d="M997.1,152.8c-267.6-8.5-527.4-8.5-794.2,0l-0.1-3.7c266.9-8.5,526.8-8.5,794.5,0L997.1,152.8z"/>
		</g>
		<g>
			<path d="M113.2,682l-3.5-1.1c21.8-67.2,37.8-137.2,53.2-204.8c9.8-42.6,19.8-86.7,31.3-129.8c8.8-33.3,21.5-76.7,41-118.3
				c3.9-8.3,7.9-16.7,11.9-24.8c13.8-28.7,26.9-55.8,36.8-85.6l3.5,1.2c-10,30.1-23.7,58.5-37,86.1c-3.9,8.1-7.9,16.5-11.8,24.8
				c-19.4,41.3-31.9,84.6-40.7,117.7c-11.4,42.9-21.5,87-31.2,129.6C151,544.6,135,614.6,113.2,682z"/>
		</g>
		<g>
			<path d="M221.8,681.8l-3.6-0.8c15.9-67.2,25.5-136.6,34.8-203.8c8-57.4,16.2-116.8,28.3-174.6c8.7-41.6,19.2-72.2,34-99
				c16.4-29.8,29.7-55.1,38.4-86l3.6,1c-8.8,31.3-22.1,56.8-38.7,86.8c-14.6,26.5-25,56.7-33.6,98c-12.1,57.6-20.3,116.9-28.2,174.3
				C247.4,544.9,237.7,614.4,221.8,681.8z"/>
		</g>
		<g>
			<path d="M330.4,681.5l-3.6-0.6c10.3-68.2,15.2-138.3,19.9-206c5-71.5,10.2-145.4,21.7-217.3c3.9-24.3,9.4-52.2,25.4-74.5
				c16.2-22.6,24.3-40.3,29.7-65.5l3.6,0.8c-5.6,25.7-13.8,43.9-30.4,66.9c-15.5,21.6-20.9,49-24.7,72.9
				c-11.5,71.8-16.6,145.6-21.6,217C345.6,543,340.7,613.1,330.4,681.5z"/>
		</g>
		<g>
			<path d="M439,681.2l-3.7-0.3c5.6-70.1,7-141.7,8.4-211c1.7-82.2,3.4-167.2,12-250.2l0.2-2.1c1.9-18.7,3.9-38.1,17.3-52.6
				c13.7-14.8,17.7-24.1,20-47.2l3.7,0.4c-2.4,23.8-6.7,34-21,49.3c-12.5,13.5-14.4,31.5-16.4,50.4l-0.2,2.1
				c-8.6,82.9-10.4,167.8-12,249.9C446,539.3,444.6,611,439,681.2z"/>
		</g>
		<g>
			<path d="M547.6,681.1l-3.7-0.1c1.5-73,0.4-147.2-0.7-219.1c-1.3-86.9-2.7-176.8,0.7-265.1l0-0.4c0.6-15.7,1.2-32,9.1-42.3
				c0.3-0.4,1.1-1.2,2.6-0.4c2.5,1.3,3.2,0.8,3.3,0.6c4.4-6,4.4-21.7,4.3-31.2c0-2.1,0-4,0-5.4l3.7,0.1c0,1.4,0,3.2,0,5.3
				c0,10.5,0.1,26.4-5.1,33.4c-1,1.4-3,2.6-6.8,1c-6.3,9.4-6.9,24.4-7.4,39l0,0.4c-3.3,88.2-2,178-0.7,264.9
				C548,533.8,549.1,608.1,547.6,681.1z"/>
		</g>
		<g>
			<path d="M652.4,681.2c-3-83.5-6.6-168.4-10-250.5c-1.6-39.7-3.3-79.3-4.9-119c-0.6-15.6-1.7-31.8-2.8-47.5
				c-2.5-36.1-5-73.5-2.3-109.4l0.2-2.6l1.2,0.5c0.5-8.3,0.1-16.9-0.3-25.3c-0.2-3.1-0.3-6.3-0.4-9.4l3.7-0.1
				c0.1,3.1,0.3,6.2,0.4,9.3c0.5,10,1,20.2,0,30.1l-0.4,4l-1-1c-2.1,34,0.3,69.4,2.6,103.7c1.1,15.7,2.2,31.9,2.8,47.6
				c1.6,39.7,3.2,79.3,4.9,119c3.4,82.1,6.9,167,10,250.5L652.4,681.2z"/>
		</g>
		<g>
			<path d="M761,681.2c-6.6-70.3-11.8-141.9-16.9-211.1c-6-82.1-12.1-166.9-20.7-250.1c-1.9-18-6.1-34.8-10.2-51.1
				c-4.1-16.2-8.3-32.9-10.2-50.8l3.7-0.4c1.9,17.6,6.1,34.2,10.1,50.3c4.2,16.4,8.4,33.4,10.3,51.6c8.6,83.2,14.8,168.1,20.7,250.2
				c5,69.2,10.2,140.8,16.8,211L761,681.2z"/>
		</g>
		<g>
			<path d="M869.6,681.5C858.7,613,850.7,543,842.9,475.3c-8.1-71.4-16.6-145.1-28.5-217.2c-4.3-25.9-13-50-21.4-73.3
				c-7.7-21.2-15.6-43.2-20.2-66.5l3.6-0.7c4.6,23,12.4,44.9,20.1,66c8.5,23.5,17.2,47.8,21.6,74c11.9,72.1,20.3,145.9,28.5,217.3
				c7.7,67.7,15.7,137.7,26.6,206L869.6,681.5z"/>
		</g>
		<g>
			<path d="M978.2,681.8c-16-67.2-27.9-136.3-39.4-203.2c-9.9-57.6-20.2-117.2-33-175.3c-7.7-35-20.8-68.1-33.4-100.1
				c-10.7-27.3-21.9-55.4-29.7-84.7l3.6-1c7.8,29.1,18.8,57.2,29.6,84.3c12.7,32.2,25.8,65.4,33.6,100.7
				c12.8,58.1,23.1,117.8,33,175.4c11.5,66.8,23.4,135.9,39.3,202.9L978.2,681.8z"/>
		</g>
		<g>
			<path d="M1086.8,682c-21.6-67.6-39.1-137.6-56-205.2c-10.6-42.5-21.6-86.5-33.6-129.5c-12.3-44.3-29.7-87-46.5-128.3
				c-13.2-32.5-26.9-66.1-38-100.3l3.5-1.1c11.1,34.1,24.8,67.6,38,100.1c16.8,41.4,34.3,84.2,46.6,128.7
				c11.9,43,22.9,87,33.6,129.6c16.9,67.6,34.4,137.5,56,205L1086.8,682z"/>
		</g>
	</g>
</g>
</svg>
