<?xml version="1.0" encoding="utf-8"?>
<!-- Generator: Adobe Illustrator 27.5.0, SVG Export Plug-In . SVG Version: 6.00 Build 0)  -->
<svg version="1.1" id="Layer_1" xmlns="http://www.w3.org/2000/svg" xmlns:xlink="http://www.w3.org/1999/xlink" x="0px" y="0px"
	 viewBox="0 0 1920 48" style="enable-background:new 0 0 1920 48;" xml:space="preserve">
<style type="text/css">
	.st0{fill:#4243AE;}
</style>
<g>
	<g>
		<g>
			<rect y="27.7" class="st0" width="949.2" height="2.1"/>
		</g>
	</g>
	<g>
		<g>
			<rect x="970.8" y="27" class="st0" width="949.2" height="2.1"/>
		</g>
	</g>
	<g>
		<g>
			<polygon class="st0" points="1849.9,49 -4.9,49 65.2,28.8 1920,28.8 			"/>
		</g>
	</g>
	<g>
		<g>
			<polygon class="st0" points="945.5,44.3 1011.8,3.7 792.5,3.7 742.8,33.2 			"/>
		</g>
	</g>
	<g>
		<g>
			<g>
				<polygon class="st0" points="1508.8,28.1 1549.8,3.8 1574.7,3.8 1534.2,28.1 				"/>
			</g>
		</g>
		<g>
			<g>
				<polygon class="st0" points="1471.8,28.1 1512.9,3.8 1537.8,3.8 1497.2,28.1 				"/>
			</g>
		</g>
		<g>
			<g>
				<polygon class="st0" points="1545.7,28.1 1586.8,3.8 1611.6,3.8 1571.1,28.1 				"/>
			</g>
		</g>
		<g>
			<g>
				<polygon class="st0" points="1434.9,28.1 1475.9,3.8 1500.8,3.8 1460.3,28.1 				"/>
			</g>
		</g>
		<g>
			<g>
				<polygon class="st0" points="765.1,28.1 806.2,3.8 1390,3.8 1349.5,28.1 				"/>
			</g>
		</g>
		<g>
			<g>
				<polygon class="st0" points="1361,28.1 1402.1,3.8 1427,3.8 1386.4,28.1 				"/>
			</g>
		</g>
		<g>
			<g>
				<polygon class="st0" points="1398,28.1 1439,3.8 1463.9,3.8 1423.3,28.1 				"/>
			</g>
		</g>
		<g>
			<g>
				<polygon class="st0" points="1582.7,28.1 1623.7,3.8 1648.6,3.8 1608,28.1 				"/>
			</g>
		</g>
		<g>
			<g>
				<polygon class="st0" points="1767.4,28.1 1808.4,3.8 1833.3,3.8 1792.7,28.1 				"/>
			</g>
		</g>
		<g>
			<g>
				<polygon class="st0" points="1730.4,28.1 1771.4,3.8 1796.3,3.8 1755.8,28.1 				"/>
			</g>
		</g>
		<g>
			<g>
				<polygon class="st0" points="1828.4,28.1 1804.3,28.1 1845.3,3.8 1869.4,3.8 				"/>
			</g>
		</g>
		<g>
			<g>
				<polygon class="st0" points="1619.6,28.1 1660.6,3.8 1685.5,3.8 1645,28.1 				"/>
			</g>
		</g>
		<g>
			<g>
				<polygon class="st0" points="1693.5,28.1 1734.5,3.8 1759.4,3.8 1718.8,28.1 				"/>
			</g>
		</g>
		<g>
			<g>
				<polygon class="st0" points="1656.5,28.1 1697.6,3.8 1722.5,3.8 1681.9,28.1 				"/>
			</g>
		</g>
	</g>
</g>
</svg>
